<svg width="101" height="29" viewBox="0 0 101 29" fill="none" xmlns="http://www.w3.org/2000/svg">
<path d="M99.9444 25.5573C99.9444 27.0969 98.6714 28.3439 97.0968 28.3439H3.90689C2.33304 28.3439 1.05554 27.0969 1.05554 25.5573V3.33537C1.05554 1.79658 2.33304 0.545166 3.90689 0.545166H97.0961C98.6714 0.545166 99.9437 1.79658 99.9437 3.33537L99.9444 25.5573Z" fill="black"/>
<path d="M96.7963 0.578707C98.5111 0.578707 99.9065 1.93919 99.9065 3.61114V25.2778C99.9065 26.9497 98.5111 28.3102 96.7963 28.3102H4.2037C2.48889 28.3102 1.09352 26.9497 1.09352 25.2778V3.61114C1.09352 1.93919 2.48889 0.578707 4.2037 0.578707H96.7963ZM96.7963 2.76037e-05H4.2037C2.16759 2.76037e-05 0.5 1.62593 0.5 3.61114V25.2778C0.5 27.263 2.16759 28.8889 4.2037 28.8889H96.7963C98.8324 28.8889 100.5 27.263 100.5 25.2778V3.61114C100.5 1.62593 98.8324 2.76037e-05 96.7963 2.76037e-05Z" fill="#A6A6A6"/>
<path d="M22.817 14.2884C22.7955 11.9607 24.7718 10.8282 24.8622 10.7755C23.7429 9.18443 22.0081 8.96704 21.3985 8.94971C19.9415 8.80021 18.5281 9.79977 17.7859 9.79977C17.0289 9.79977 15.8859 8.96416 14.6541 8.98871C13.0689 9.01254 11.5859 9.90738 10.7726 11.2969C9.09405 14.1302 10.3459 18.2938 11.9541 20.584C12.7585 21.7056 13.6985 22.9579 14.9289 22.9139C16.1326 22.8655 16.5822 22.1657 18.0348 22.1657C19.4741 22.1657 19.8963 22.9139 21.1511 22.8857C22.4429 22.8655 23.2563 21.759 24.0326 20.6273C24.9622 19.3418 25.3355 18.0757 25.3504 18.0107C25.32 18.0006 22.8415 17.0783 22.817 14.2884Z" fill="white"/>
<path d="M20.4466 7.44316C21.0941 6.65377 21.537 5.57982 21.4141 4.48999C20.477 4.53043 19.3052 5.12193 18.6304 5.89399C18.0333 6.57432 17.5 7.68943 17.6378 8.7381C18.6903 8.81466 19.7711 8.22027 20.4466 7.44316Z" fill="white"/>
<path d="M40.237 22.7529H38.5548L37.6333 19.9298H34.4303L33.5526 22.7529H31.9148L35.0881 13.1416H37.0481L40.237 22.7529ZM37.3555 18.7453L36.5222 16.2356C36.4341 15.9792 36.2689 15.3754 36.0252 14.425H35.9955C35.8985 14.8338 35.7422 15.4375 35.5274 16.2356L34.7089 18.7453H37.3555Z" fill="white"/>
<path d="M48.3977 19.2025C48.3977 20.3811 48.0711 21.3128 47.4177 21.9967C46.8326 22.6056 46.1059 22.9096 45.2385 22.9096C44.3022 22.9096 43.6296 22.5817 43.22 21.926H43.1903V25.5768H41.6111V18.104C41.6111 17.363 41.5911 16.6025 41.5526 15.8225H42.9414L43.0296 16.921H43.0592C43.5859 16.0933 44.3851 15.6802 45.4577 15.6802C46.2963 15.6802 46.9963 16.003 47.5563 16.6494C48.1177 17.2965 48.3977 18.1473 48.3977 19.2025ZM46.7888 19.2588C46.7888 18.5842 46.6333 18.0281 46.3207 17.5905C45.9792 17.134 45.5207 16.9058 44.9459 16.9058C44.5563 16.9058 44.2022 17.0329 43.8859 17.2835C43.5688 17.5363 43.3614 17.8663 43.2644 18.2751C43.2155 18.4658 43.1911 18.6218 43.1911 18.7446V19.9001C43.1911 20.4042 43.3496 20.8296 43.6666 21.177C43.9837 21.5244 44.3955 21.6977 44.9022 21.6977C45.497 21.6977 45.96 21.4738 46.2911 21.0275C46.6229 20.5805 46.7888 19.9911 46.7888 19.2588Z" fill="white"/>
<path d="M56.5733 19.2025C56.5733 20.3811 56.2467 21.3128 55.5926 21.9967C55.0081 22.6056 54.2815 22.9096 53.4141 22.9096C52.4778 22.9096 51.8052 22.5817 51.3963 21.926H51.3667V25.5768H49.7874V18.104C49.7874 17.363 49.7674 16.6025 49.7289 15.8225H51.1178L51.2059 16.921H51.2355C51.7615 16.0933 52.5607 15.6802 53.6341 15.6802C54.4718 15.6802 55.1718 16.003 55.7333 16.6494C56.2926 17.2965 56.5733 18.1473 56.5733 19.2025ZM54.9644 19.2588C54.9644 18.5842 54.8081 18.0281 54.4955 17.5905C54.1541 17.134 53.697 16.9058 53.1215 16.9058C52.7311 16.9058 52.3778 17.0329 52.0607 17.2835C51.7437 17.5363 51.537 17.8663 51.44 18.2751C51.3918 18.4658 51.3667 18.6218 51.3667 18.7446V19.9001C51.3667 20.4042 51.5252 20.8296 51.8407 21.177C52.1578 21.5237 52.5696 21.6977 53.0778 21.6977C53.6726 21.6977 54.1356 21.4738 54.4667 21.0275C54.7985 20.5805 54.9644 19.9911 54.9644 19.2588Z" fill="white"/>
<path d="M65.7141 20.0576C65.7141 20.8751 65.423 21.5403 64.8385 22.0538C64.1963 22.615 63.3022 22.8952 62.1533 22.8952C61.0926 22.8952 60.2422 22.6958 59.5985 22.2965L59.9644 21.0131C60.6578 21.4218 61.4185 21.627 62.2474 21.627C62.8422 21.627 63.3052 21.4955 63.6378 21.2341C63.9689 20.9726 64.1341 20.6216 64.1341 20.184C64.1341 19.794 63.9978 19.4653 63.7244 19.1988C63.4526 18.9323 62.9985 18.6846 62.3644 18.4557C60.6385 17.8281 59.7763 16.9087 59.7763 15.6997C59.7763 14.9096 60.0785 14.2617 60.6837 13.7576C61.2867 13.2528 62.0911 13.0007 63.097 13.0007C63.9941 13.0007 64.7393 13.1531 65.3341 13.4572L64.9392 14.7124C64.3837 14.4177 63.7555 14.2704 63.0526 14.2704C62.497 14.2704 62.063 14.404 61.7518 14.6698C61.4889 14.9074 61.357 15.197 61.357 15.5401C61.357 15.92 61.5074 16.2341 61.8096 16.4811C62.0726 16.7093 62.5504 16.9563 63.2437 17.2228C64.0918 17.5558 64.7148 17.9451 65.1156 18.3914C65.5148 18.8363 65.7141 19.3931 65.7141 20.0576Z" fill="white"/>
<path d="M70.9355 16.9781H69.1948V20.3429C69.1948 21.1988 69.5015 21.6263 70.1163 21.6263C70.3985 21.6263 70.6326 21.6025 70.8178 21.5548L70.8615 22.7241C70.5504 22.8375 70.1407 22.8945 69.6333 22.8945C69.0096 22.8945 68.5222 22.7089 68.1704 22.3384C67.82 21.9672 67.6437 21.3446 67.6437 20.47V16.9766H66.6067V15.8211H67.6437V14.5521L69.1948 14.0957V15.8211H70.9355V16.9781Z" fill="white"/>
<path d="M78.7896 19.2306C78.7896 20.2959 78.477 21.1705 77.8533 21.8545C77.1992 22.5586 76.3311 22.9096 75.2489 22.9096C74.2059 22.9096 73.3755 22.5724 72.7563 21.8978C72.137 21.2232 71.8274 20.3717 71.8274 19.3455C71.8274 18.2715 72.1459 17.3919 72.7852 16.7079C73.4229 16.0232 74.2837 15.6809 75.3659 15.6809C76.4089 15.6809 77.2481 16.0182 77.8815 16.6935C78.4874 17.3485 78.7896 18.1942 78.7896 19.2306ZM77.1511 19.2805C77.1511 18.6413 77.0111 18.0931 76.7274 17.636C76.3963 17.0827 75.9229 16.8069 75.3096 16.8069C74.6748 16.8069 74.1926 17.0835 73.8615 17.636C73.5778 18.0939 73.4378 18.6507 73.4378 19.3094C73.4378 19.9485 73.5778 20.4967 73.8615 20.9531C74.2029 21.5064 74.68 21.7822 75.2955 21.7822C75.8985 21.7822 76.3718 21.5006 76.7133 20.9387C77.0044 20.4729 77.1511 19.9189 77.1511 19.2805Z" fill="white"/>
<path d="M83.9229 17.1766C83.7666 17.1485 83.6 17.134 83.4252 17.134C82.8696 17.134 82.44 17.3384 82.1378 17.7479C81.8748 18.109 81.7429 18.5655 81.7429 19.1165V22.7529H80.1644L80.1792 18.005C80.1792 17.2062 80.1592 16.479 80.12 15.8232H81.4955L81.5533 17.1492H81.597C81.7637 16.6935 82.0266 16.3266 82.3866 16.0514C82.7385 15.8037 83.1185 15.6802 83.5281 15.6802C83.6741 15.6802 83.8059 15.6903 83.9229 15.7083V17.1766Z" fill="white"/>
<path d="M90.9859 18.9598C90.9859 19.2357 90.9674 19.4683 90.9281 19.6582H86.1904C86.2089 20.3429 86.4378 20.8665 86.8778 21.2276C87.277 21.5505 87.7933 21.7122 88.4274 21.7122C89.1289 21.7122 89.7689 21.6032 90.3444 21.3843L90.5918 22.4532C89.9192 22.7392 89.1252 22.8815 88.2089 22.8815C87.1067 22.8815 86.2415 22.5652 85.6118 21.9332C84.9837 21.3013 84.6689 20.4527 84.6689 19.3881C84.6689 18.3431 84.9615 17.4728 85.5474 16.7787C86.1607 16.0377 86.9896 15.6672 88.0326 15.6672C89.057 15.6672 89.8326 16.0377 90.3592 16.7787C90.7763 17.3673 90.9859 18.0953 90.9859 18.9598ZM89.48 18.5605C89.4904 18.104 89.3874 17.7097 89.1733 17.3767C88.9 16.9485 88.48 16.7347 87.9148 16.7347C87.3985 16.7347 86.9785 16.9434 86.6578 17.3623C86.3948 17.6952 86.2385 18.0946 86.1904 18.5597H89.48V18.5605Z" fill="white"/>
<path d="M36.8333 7.22873C36.8333 8.07878 36.5719 8.71867 36.0496 9.14839C35.5659 9.54489 34.8785 9.7435 33.9882 9.7435C33.5467 9.7435 33.1689 9.72473 32.8526 9.68717V5.04256C33.2652 4.97756 33.7096 4.94434 34.1896 4.94434C35.0378 4.94434 35.677 5.12417 36.1082 5.48384C36.5911 5.89045 36.8333 6.47184 36.8333 7.22873ZM36.0148 7.24967C36.0148 6.69861 35.8652 6.27611 35.5659 5.98145C35.2667 5.6875 34.8296 5.54017 34.2541 5.54017C34.0096 5.54017 33.8015 5.55606 33.6289 5.58928V9.12023C33.7245 9.13467 33.8993 9.14117 34.1533 9.14117C34.7474 9.14117 35.2059 8.98011 35.5289 8.658C35.8519 8.33589 36.0148 7.86645 36.0148 7.24967Z" fill="white"/>
<path d="M41.1734 7.97123C41.1734 8.49484 41.02 8.92384 40.7134 9.26039C40.3919 9.60634 39.966 9.77895 39.4341 9.77895C38.9215 9.77895 38.5134 9.61356 38.2089 9.28134C37.9052 8.94984 37.7534 8.53167 37.7534 8.02756C37.7534 7.50034 37.9097 7.06773 38.2237 6.73189C38.5378 6.39606 38.96 6.22778 39.4919 6.22778C40.0045 6.22778 40.4163 6.39317 40.7282 6.72467C41.0245 7.04678 41.1734 7.46278 41.1734 7.97123ZM40.3682 7.99578C40.3682 7.68162 40.2985 7.41223 40.16 7.18762C39.9971 6.91606 39.7652 6.78028 39.4637 6.78028C39.1519 6.78028 38.9148 6.91606 38.7519 7.18762C38.6126 7.41223 38.5437 7.68595 38.5437 8.00951C38.5437 8.32367 38.6134 8.59306 38.7519 8.81767C38.92 9.08923 39.1541 9.225 39.4563 9.225C39.7526 9.225 39.9852 9.08706 40.1526 8.81045C40.2963 8.58151 40.3682 8.30995 40.3682 7.99578Z" fill="white"/>
<path d="M46.9926 6.29712L45.9 9.70167H45.1889L44.7363 8.22329C44.6215 7.85423 44.5282 7.48734 44.4556 7.12334H44.4415C44.3741 7.49745 44.2808 7.86362 44.1608 8.22329L43.68 9.70167H42.9608L41.9333 6.29712H42.7311L43.1259 7.91562C43.2215 8.2984 43.3 8.66312 43.363 9.00834H43.3771C43.4348 8.72379 43.5304 8.36123 43.6652 7.92284L44.1608 6.29784H44.7933L45.2682 7.88817C45.383 8.27601 45.4763 8.6494 45.5482 9.00906H45.5696C45.6222 8.65879 45.7015 8.2854 45.8067 7.88817L46.2304 6.29784H46.9926V6.29712Z" fill="white"/>
<path d="M51.017 9.70164H50.2407V7.75164C50.2407 7.15075 50.0067 6.85031 49.537 6.85031C49.3067 6.85031 49.1207 6.93264 48.9763 7.09803C48.8333 7.26342 48.7607 7.45842 48.7607 7.68159V9.70092H47.9844V7.26992C47.9844 6.97092 47.9748 6.64664 47.9563 6.29564H48.6385L48.6748 6.82792H48.6963C48.7867 6.66253 48.9215 6.52603 49.0985 6.41698C49.3089 6.28986 49.5444 6.22559 49.8022 6.22559C50.1281 6.22559 50.3993 6.32814 50.6148 6.53397C50.883 6.78603 51.017 7.16231 51.017 7.66209V9.70164Z" fill="white"/>
<path d="M53.1578 9.70159H52.3822V4.73486H53.1578V9.70159Z" fill="white"/>
<path d="M57.7282 7.97123C57.7282 8.49484 57.5748 8.92384 57.2682 9.26039C56.9467 9.60634 56.52 9.77895 55.9889 9.77895C55.4756 9.77895 55.0674 9.61356 54.7637 9.28134C54.46 8.94984 54.3082 8.53167 54.3082 8.02756C54.3082 7.50034 54.4645 7.06773 54.7785 6.73189C55.0926 6.39606 55.5148 6.22778 56.0459 6.22778C56.5593 6.22778 56.9704 6.39317 57.283 6.72467C57.5793 7.04678 57.7282 7.46278 57.7282 7.97123ZM56.9222 7.99578C56.9222 7.68162 56.8526 7.41223 56.7141 7.18762C56.5519 6.91606 56.3193 6.78028 56.0185 6.78028C55.7059 6.78028 55.4689 6.91606 55.3067 7.18762C55.1674 7.41223 55.0985 7.68595 55.0985 8.00951C55.0985 8.32367 55.1682 8.59306 55.3067 8.81767C55.4748 9.08923 55.7089 9.225 56.0111 9.225C56.3074 9.225 56.5393 9.08706 56.7067 8.81045C56.8511 8.58151 56.9222 8.30995 56.9222 7.99578Z" fill="white"/>
<path d="M61.4852 9.70167H60.7882L60.7304 9.30951H60.7089C60.4704 9.62223 60.1304 9.77895 59.6889 9.77895C59.3593 9.77895 59.0926 9.67567 58.8919 9.47056C58.7096 9.28423 58.6185 9.05239 58.6185 8.77723C58.6185 8.36123 58.7963 8.04417 59.1541 7.82462C59.5111 7.60506 60.0133 7.49745 60.66 7.5025V7.43895C60.66 6.99045 60.4185 6.76656 59.9348 6.76656C59.5904 6.76656 59.2867 6.85106 59.0245 7.01862L58.8667 6.52173C59.1911 6.32601 59.5919 6.22778 60.0645 6.22778C60.977 6.22778 61.4348 6.69723 61.4348 7.63612V8.88989C61.4348 9.23006 61.4519 9.50089 61.4852 9.70167ZM60.6793 8.53167V8.00662C59.823 7.99217 59.3948 8.22112 59.3948 8.69273C59.3948 8.87039 59.4437 9.00328 59.5437 9.09212C59.6437 9.18095 59.7711 9.225 59.923 9.225C60.0933 9.225 60.2526 9.17228 60.3978 9.06756C60.5437 8.96212 60.6333 8.8285 60.6667 8.66456C60.6748 8.62773 60.6793 8.58295 60.6793 8.53167Z" fill="white"/>
<path d="M65.8963 9.70159H65.2074L65.1711 9.15486H65.1496C64.9296 9.57086 64.5548 9.77886 64.0281 9.77886C63.6074 9.77886 63.257 9.61781 62.9793 9.2957C62.7015 8.97359 62.563 8.55542 62.563 8.04192C62.563 7.49086 62.7133 7.04453 63.0155 6.70364C63.3081 6.38586 63.6667 6.22697 64.0933 6.22697C64.5622 6.22697 64.8904 6.38081 65.077 6.6892H65.0918V4.73486H65.8689V8.78436C65.8689 9.11586 65.8778 9.42136 65.8963 9.70159ZM65.0918 8.26581V7.69814C65.0918 7.59992 65.0844 7.52047 65.0704 7.45981C65.0267 7.27781 64.9326 7.1247 64.7896 7.0012C64.6452 6.8777 64.4711 6.81559 64.2704 6.81559C63.9807 6.81559 63.7541 6.92753 63.5874 7.15214C63.4222 7.37675 63.3385 7.66347 63.3385 8.01375C63.3385 8.35031 63.4178 8.62331 63.577 8.83347C63.7452 9.05736 63.9718 9.16931 64.2555 9.16931C64.5104 9.16931 64.7141 9.07614 64.8689 8.88909C65.0185 8.71647 65.0918 8.50847 65.0918 8.26581Z" fill="white"/>
<path d="M72.5356 7.97123C72.5356 8.49484 72.3822 8.92384 72.0756 9.26039C71.7541 9.60634 71.3289 9.77895 70.7963 9.77895C70.2845 9.77895 69.8763 9.61356 69.5711 9.28134C69.2674 8.94984 69.1156 8.53167 69.1156 8.02756C69.1156 7.50034 69.2719 7.06773 69.5859 6.73189C69.9 6.39606 70.3222 6.22778 70.8548 6.22778C71.3667 6.22778 71.7793 6.39317 72.0904 6.72467C72.3867 7.04678 72.5356 7.46278 72.5356 7.97123ZM71.7311 7.99578C71.7311 7.68162 71.6615 7.41223 71.523 7.18762C71.3593 6.91606 71.1282 6.78028 70.8259 6.78028C70.5148 6.78028 70.2778 6.91606 70.1141 7.18762C69.9748 7.41223 69.9059 7.68595 69.9059 8.00951C69.9059 8.32367 69.9756 8.59306 70.1141 8.81767C70.2822 9.08923 70.5163 9.225 70.8185 9.225C71.1148 9.225 71.3482 9.08706 71.5156 8.81045C71.6585 8.58151 71.7311 8.30995 71.7311 7.99578Z" fill="white"/>
<path d="M76.7096 9.70164H75.9341V7.75164C75.9341 7.15075 75.7 6.85031 75.2296 6.85031C74.9993 6.85031 74.8133 6.93264 74.6696 7.09803C74.5259 7.26342 74.4541 7.45842 74.4541 7.68159V9.70092H73.677V7.26992C73.677 6.97092 73.6681 6.64664 73.6496 6.29564H74.3311L74.3674 6.82792H74.3889C74.48 6.66253 74.6148 6.52603 74.7911 6.41698C75.0022 6.28986 75.237 6.22559 75.4956 6.22559C75.8207 6.22559 76.0918 6.32814 76.3074 6.53397C76.5763 6.78603 76.7096 7.16231 76.7096 7.66209V9.70164Z" fill="white"/>
<path d="M81.9341 6.86405H81.0793V8.51794C81.0793 8.93827 81.2311 9.14844 81.5319 9.14844C81.6711 9.14844 81.7867 9.13689 81.8778 9.11305L81.8978 9.68722C81.7445 9.74355 81.543 9.77172 81.2948 9.77172C80.9882 9.77172 80.7497 9.68072 80.5771 9.49872C80.4037 9.31672 80.3178 9.0105 80.3178 8.58077V6.86405H79.8074V6.29711H80.3178V5.67311L81.0785 5.44922V6.29639H81.9334V6.86405H81.9341Z" fill="white"/>
<path d="M86.0437 9.70159H85.2667V7.76603C85.2667 7.15575 85.0326 6.85025 84.5637 6.85025C84.2037 6.85025 83.9578 7.0272 83.823 7.38109C83.8 7.45547 83.7867 7.54647 83.7867 7.65336V9.70086H83.0111V4.73486H83.7867V6.7867H83.8015C84.0459 6.41331 84.3963 6.22697 84.8504 6.22697C85.1719 6.22697 85.4378 6.32953 85.6489 6.53536C85.9119 6.79175 86.0437 7.17309 86.0437 7.6772V9.70159Z" fill="white"/>
<path d="M90.283 7.83825C90.283 7.97402 90.2726 8.08814 90.2541 8.1813H87.9259C87.9363 8.51786 88.0474 8.77425 88.263 8.95191C88.46 9.1108 88.7141 9.19025 89.0252 9.19025C89.3696 9.19025 89.6837 9.1368 89.9667 9.02919L90.0882 9.55497C89.757 9.69508 89.3674 9.76514 88.9163 9.76514C88.3756 9.76514 87.9496 9.60986 87.6415 9.2993C87.3319 8.98875 87.1785 8.57202 87.1785 8.04914C87.1785 7.53564 87.3215 7.10808 87.6096 6.76719C87.9104 6.40319 88.317 6.22119 88.8304 6.22119C89.3326 6.22119 89.7141 6.40319 89.9719 6.76719C90.18 7.05608 90.283 7.41358 90.283 7.83825ZM89.5422 7.64252C89.5482 7.41791 89.497 7.22436 89.3919 7.06114C89.257 6.85097 89.0519 6.74552 88.7741 6.74552C88.5207 6.74552 88.3141 6.84808 88.1563 7.05391C88.0274 7.21786 87.9511 7.41358 87.9259 7.64252H89.5422Z" fill="white"/>
</svg>
