<svg width="20" height="20" viewBox="0 0 20 20" fill="none" xmlns="http://www.w3.org/2000/svg">
<path d="M19.7792 3.15232C19.4835 2.85588 19.0044 2.8551 18.7077 3.15029L12.9554 8.87931L11.293 7.21693C10.9971 6.92122 10.5178 6.92095 10.2218 7.21693L3.47943 13.9594C3.18345 14.2551 3.18345 14.7349 3.47943 15.0306C3.62716 15.1786 3.82111 15.2525 4.01505 15.2525C4.20872 15.2525 4.40294 15.1786 4.55064 15.0306L10.7575 8.82403L12.4188 10.4851C12.7145 10.7808 13.1926 10.7811 13.489 10.4864L19.7769 4.22377C20.0733 3.92857 20.0744 3.44877 19.7792 3.15232Z" fill="#00857F"/>
<path d="M19.2172 17.5757H1.51515V1.66663C1.51515 1.2482 1.17601 0.909058 0.757577 0.909058C0.33914 0.909058 0 1.2482 0 1.66663V18.3333C0 18.7517 0.33914 19.0909 0.757577 19.0909H19.2172C19.6356 19.0909 19.9747 18.7517 19.9747 18.3333C19.9747 17.9148 19.6356 17.5757 19.2172 17.5757Z" fill="#00857F"/>
<path d="M19.2423 2.90405H13.5606C13.1421 2.90405 12.803 3.24319 12.803 3.66163C12.803 4.08007 13.1421 4.41921 13.5606 4.41921H18.4848V9.34369C18.4848 9.76185 18.8239 10.1013 19.2424 10.1013C19.6608 10.1013 19.9999 9.76185 19.9999 9.34342V3.66163C19.9999 3.24319 19.6608 2.90405 19.2423 2.90405Z" fill="#00857F"/>
</svg>
