<svg width="220" height="60" viewBox="0 0 220 60" fill="none" xmlns="http://www.w3.org/2000/svg">
<rect width="220" height="60" rx="5" fill="#129E88"/>
<path d="M26.792 36C26.6853 36 26.5893 35.9627 26.504 35.888C26.4293 35.8027 26.392 35.7067 26.392 35.6V31.312H25.64C25.5227 31.312 25.4213 31.2747 25.336 31.2C25.2613 31.1253 25.224 31.0293 25.224 30.912V29.808C25.224 29.6907 25.2613 29.5947 25.336 29.52C25.4213 29.4453 25.5227 29.408 25.64 29.408H26.392V25.2C26.392 25.0827 26.4293 24.9867 26.504 24.912C26.5893 24.8373 26.6853 24.8 26.792 24.8H30.952C32.52 24.8 33.736 25.1733 34.6 25.92C35.464 26.6667 35.9173 27.7493 35.96 29.168C35.9813 29.7867 35.992 30.1973 35.992 30.4C35.992 30.6133 35.9813 31.0187 35.96 31.616C35.8533 34.5387 34.1947 36 30.984 36H26.792ZM30.952 33.696C31.656 33.696 32.1733 33.5307 32.504 33.2C32.8453 32.8587 33.0267 32.32 33.048 31.584C33.0693 30.9653 33.08 30.5653 33.08 30.384C33.08 30.192 33.0693 29.7973 33.048 29.2C33.0267 28.4853 32.84 27.9573 32.488 27.616C32.1467 27.2747 31.624 27.104 30.92 27.104H29.272V29.408H30.728C30.8453 29.408 30.9413 29.4453 31.016 29.52C31.0907 29.5947 31.128 29.6907 31.128 29.808V30.912C31.128 31.0187 31.0907 31.1147 31.016 31.2C30.9413 31.2747 30.8453 31.312 30.728 31.312H29.272V33.696H30.952ZM37.7956 36C37.7103 36 37.6303 35.968 37.5556 35.904C37.4916 35.8293 37.4596 35.7493 37.4596 35.664C37.4596 35.6 37.465 35.552 37.4756 35.52L41.2356 25.248C41.2676 25.12 41.337 25.0133 41.4436 24.928C41.5503 24.8427 41.689 24.8 41.8596 24.8H44.2276C44.3983 24.8 44.537 24.8427 44.6436 24.928C44.7503 25.0133 44.8196 25.12 44.8516 25.248L48.5956 35.52L48.6276 35.664C48.6276 35.7493 48.5903 35.8293 48.5156 35.904C48.4516 35.968 48.3716 36 48.2756 36H46.3076C46.0516 36 45.881 35.888 45.7956 35.664L45.1716 34.032H40.8996L40.2916 35.664C40.2063 35.888 40.0303 36 39.7636 36H37.7956ZM44.5316 31.728L43.0436 27.504L41.5556 31.728H44.5316ZM43.0436 24.112C42.2223 24.112 41.609 23.904 41.2036 23.488C40.7983 23.0613 40.5956 22.5173 40.5956 21.856C40.5956 21.7707 40.6223 21.7013 40.6756 21.648C40.729 21.584 40.8036 21.552 40.8996 21.552H41.9716C42.0676 21.552 42.1423 21.584 42.1956 21.648C42.249 21.7013 42.2756 21.7707 42.2756 21.856C42.2756 22.4853 42.5316 22.8 43.0436 22.8C43.5663 22.8 43.8276 22.4853 43.8276 21.856C43.8276 21.7707 43.8543 21.7013 43.9076 21.648C43.961 21.584 44.0356 21.552 44.1316 21.552H45.2036C45.2996 21.552 45.3743 21.584 45.4276 21.648C45.481 21.7013 45.5076 21.7707 45.5076 21.856C45.5076 22.5173 45.2996 23.0613 44.8836 23.488C44.4783 23.904 43.865 24.112 43.0436 24.112ZM51.0888 36C50.9821 36 50.8861 35.9627 50.8008 35.888C50.7261 35.8027 50.6888 35.7067 50.6888 35.6V25.2C50.6888 25.0827 50.7261 24.9867 50.8008 24.912C50.8861 24.8373 50.9821 24.8 51.0888 24.8H52.7848C53.0514 24.8 53.2328 24.9013 53.3288 25.104L57.2328 31.248V25.2C57.2328 25.0827 57.2701 24.9867 57.3448 24.912C57.4301 24.8373 57.5261 24.8 57.6328 24.8H59.5528C59.6701 24.8 59.7661 24.8373 59.8408 24.912C59.9154 24.9867 59.9528 25.0827 59.9528 25.2V35.584C59.9528 35.7013 59.9154 35.8027 59.8408 35.888C59.7661 35.9627 59.6701 36 59.5528 36H57.8408C57.6061 36 57.4301 35.8987 57.3128 35.696L53.4088 29.776V35.6C53.4088 35.7067 53.3714 35.8027 53.2968 35.888C53.2221 35.9627 53.1261 36 53.0088 36H51.0888ZM67.6128 36.16C66.0768 36.16 64.8768 35.7867 64.0128 35.04C63.1488 34.2827 62.6901 33.2107 62.6368 31.824C62.6261 31.5147 62.6208 31.024 62.6208 30.352C62.6208 29.68 62.6261 29.1893 62.6368 28.88C62.6901 27.5253 63.1541 26.48 64.0288 25.744C64.9141 25.008 66.1088 24.64 67.6128 24.64C68.6261 24.64 69.5061 24.8053 70.2528 25.136C71.0101 25.4667 71.5861 25.888 71.9808 26.4C72.3861 26.912 72.5994 27.44 72.6208 27.984C72.6208 28.08 72.5834 28.16 72.5088 28.224C72.4448 28.288 72.3648 28.32 72.2688 28.32H69.9328C69.8261 28.32 69.7408 28.304 69.6768 28.272C69.6128 28.24 69.5594 28.1813 69.5168 28.096C69.3781 27.7867 69.1594 27.52 68.8608 27.296C68.5621 27.0613 68.1461 26.944 67.6128 26.944C66.3434 26.944 65.6768 27.616 65.6128 28.96C65.6021 29.2587 65.5968 29.7227 65.5968 30.352C65.5968 30.9707 65.6021 31.4347 65.6128 31.744C65.6768 33.152 66.3594 33.856 67.6608 33.856C68.2901 33.856 68.7914 33.696 69.1648 33.376C69.5488 33.0453 69.7408 32.544 69.7408 31.872V31.568H68.2368C68.1194 31.568 68.0234 31.5307 67.9488 31.456C67.8741 31.3707 67.8368 31.2693 67.8368 31.152V29.968C67.8368 29.8507 67.8741 29.7547 67.9488 29.68C68.0234 29.5947 68.1194 29.552 68.2368 29.552H72.2688C72.3861 29.552 72.4821 29.5947 72.5568 29.68C72.6314 29.7547 72.6688 29.8507 72.6688 29.968V31.792C72.6688 32.6987 72.4608 33.4827 72.0448 34.144C71.6288 34.7947 71.0368 35.296 70.2688 35.648C69.5114 35.9893 68.6261 36.16 67.6128 36.16ZM79.9106 36C79.804 36 79.708 35.9627 79.6226 35.888C79.548 35.8027 79.5106 35.7067 79.5106 35.6V25.2C79.5106 25.0827 79.548 24.9867 79.6226 24.912C79.708 24.8373 79.804 24.8 79.9106 24.8H81.9266C82.044 24.8 82.14 24.8373 82.2146 24.912C82.2893 24.9867 82.3266 25.0827 82.3266 25.2V28.752L85.2866 25.104C85.4146 24.9013 85.6226 24.8 85.9106 24.8H88.2146C88.3106 24.8 88.3906 24.8373 88.4546 24.912C88.5186 24.976 88.5506 25.0507 88.5506 25.136C88.5506 25.2107 88.5346 25.2747 88.5026 25.328L84.6626 30.16L88.7906 35.472C88.8333 35.5147 88.8546 35.5787 88.8546 35.664C88.8546 35.7493 88.8226 35.8293 88.7586 35.904C88.6946 35.968 88.6146 36 88.5186 36H86.1346C85.8786 36 85.6653 35.8933 85.4946 35.68L82.3266 31.728V35.6C82.3266 35.7173 82.2893 35.8133 82.2146 35.888C82.14 35.9627 82.044 36 81.9266 36H79.9106ZM94.2 36C94.0933 36 93.9973 35.9627 93.912 35.888C93.8373 35.8027 93.8 35.7067 93.8 35.6V32.16L90.088 25.312C90.056 25.216 90.04 25.1573 90.04 25.136C90.04 25.0507 90.072 24.976 90.136 24.912C90.2107 24.8373 90.296 24.8 90.392 24.8H92.392C92.6053 24.8 92.792 24.912 92.952 25.136L95.24 29.264L97.544 25.136C97.672 24.912 97.8587 24.8 98.104 24.8H100.104C100.2 24.8 100.28 24.8373 100.344 24.912C100.408 24.976 100.44 25.0507 100.44 25.136C100.44 25.1893 100.429 25.248 100.408 25.312L96.696 32.16V35.6C96.696 35.7173 96.6533 35.8133 96.568 35.888C96.4933 35.9627 96.3973 36 96.28 36H94.2ZM94.232 24C94.0613 24 93.976 23.9147 93.976 23.744C93.976 23.6587 94.0027 23.5893 94.056 23.536L95.464 21.824C95.5707 21.696 95.6613 21.616 95.736 21.584C95.8107 21.5413 95.9173 21.52 96.056 21.52H98.296C98.392 21.52 98.4667 21.552 98.52 21.616C98.5733 21.6693 98.6 21.744 98.6 21.84C98.6 21.9147 98.5733 21.9787 98.52 22.032L96.392 23.776C96.296 23.8507 96.2053 23.9093 96.12 23.952C96.0347 23.984 95.9227 24 95.784 24H94.232ZM106.764 36C106.657 36 106.561 35.9627 106.476 35.888C106.401 35.8027 106.364 35.7067 106.364 35.6V25.2C106.364 25.0827 106.401 24.9867 106.476 24.912C106.561 24.8373 106.657 24.8 106.764 24.8H108.46C108.726 24.8 108.908 24.9013 109.004 25.104L112.908 31.248V25.2C112.908 25.0827 112.945 24.9867 113.02 24.912C113.105 24.8373 113.201 24.8 113.308 24.8H115.228C115.345 24.8 115.441 24.8373 115.516 24.912C115.59 24.9867 115.628 25.0827 115.628 25.2V35.584C115.628 35.7013 115.59 35.8027 115.516 35.888C115.441 35.9627 115.345 36 115.228 36H113.516C113.281 36 113.105 35.8987 112.988 35.696L109.084 29.776V35.6C109.084 35.7067 109.046 35.8027 108.972 35.888C108.897 35.9627 108.801 36 108.684 36H106.764ZM123.288 36.16C121.752 36.16 120.552 35.7867 119.688 35.04C118.824 34.2827 118.365 33.2107 118.312 31.824C118.301 31.5147 118.296 31.024 118.296 30.352C118.296 29.68 118.301 29.1893 118.312 28.88C118.365 27.5253 118.829 26.48 119.704 25.744C120.589 25.008 121.784 24.64 123.288 24.64C124.301 24.64 125.181 24.8053 125.928 25.136C126.685 25.4667 127.261 25.888 127.656 26.4C128.061 26.912 128.274 27.44 128.296 27.984C128.296 28.08 128.258 28.16 128.184 28.224C128.12 28.288 128.04 28.32 127.944 28.32H125.608C125.501 28.32 125.416 28.304 125.352 28.272C125.288 28.24 125.234 28.1813 125.192 28.096C125.053 27.7867 124.834 27.52 124.536 27.296C124.237 27.0613 123.821 26.944 123.288 26.944C122.018 26.944 121.352 27.616 121.288 28.96C121.277 29.2587 121.272 29.7227 121.272 30.352C121.272 30.9707 121.277 31.4347 121.288 31.744C121.352 33.152 122.034 33.856 123.336 33.856C123.965 33.856 124.466 33.696 124.84 33.376C125.224 33.0453 125.416 32.544 125.416 31.872V31.568H123.912C123.794 31.568 123.698 31.5307 123.624 31.456C123.549 31.3707 123.512 31.2693 123.512 31.152V29.968C123.512 29.8507 123.549 29.7547 123.624 29.68C123.698 29.5947 123.794 29.552 123.912 29.552H127.944C128.061 29.552 128.157 29.5947 128.232 29.68C128.306 29.7547 128.344 29.8507 128.344 29.968V31.792C128.344 32.6987 128.136 33.4827 127.72 34.144C127.304 34.7947 126.712 35.296 125.944 35.648C125.186 35.9893 124.301 36.16 123.288 36.16ZM130.089 36C130.004 36 129.924 35.968 129.849 35.904C129.785 35.8293 129.753 35.7493 129.753 35.664C129.753 35.6 129.759 35.552 129.769 35.52L133.529 25.248C133.561 25.12 133.631 25.0133 133.737 24.928C133.844 24.8427 133.983 24.8 134.153 24.8H136.521C136.692 24.8 136.831 24.8427 136.937 24.928C137.044 25.0133 137.113 25.12 137.145 25.248L140.889 35.52L140.921 35.664C140.921 35.7493 140.884 35.8293 140.809 35.904C140.745 35.968 140.665 36 140.569 36H138.601C138.345 36 138.175 35.888 138.089 35.664L137.465 34.032H133.193L132.585 35.664C132.5 35.888 132.324 36 132.057 36H130.089ZM136.825 31.728L135.337 27.504L133.849 31.728H136.825ZM144.966 36C144.859 36 144.763 35.9627 144.678 35.888C144.603 35.8027 144.566 35.7067 144.566 35.6V32.16L140.854 25.312C140.822 25.216 140.806 25.1573 140.806 25.136C140.806 25.0507 140.838 24.976 140.902 24.912C140.976 24.8373 141.062 24.8 141.158 24.8H143.158C143.371 24.8 143.558 24.912 143.718 25.136L146.006 29.264L148.31 25.136C148.438 24.912 148.624 24.8 148.87 24.8H150.87C150.966 24.8 151.046 24.8373 151.11 24.912C151.174 24.976 151.206 25.0507 151.206 25.136C151.206 25.1893 151.195 25.248 151.174 25.312L147.462 32.16V35.6C147.462 35.7173 147.419 35.8133 147.334 35.888C147.259 35.9627 147.163 36 147.046 36H144.966Z" fill="white"/>
<path d="M189.888 36.355L195.5 30.1775L194.5 29.0766V29.0039H194.434L189.888 24L188.409 25.3464L191.731 29.0039L166 29.0039V31.0039L192.046 31.0039L188.409 35.0086L189.888 36.355Z" fill="white"/>
</svg>
