<svg width="20" height="20" viewBox="0 0 20 20" fill="none" xmlns="http://www.w3.org/2000/svg">
<path fill-rule="evenodd" clip-rule="evenodd" d="M10.712 1.16839L17.112 4.39209C17.6557 4.66427 17.9997 5.22304 18 5.83469V13.5151C17.9997 14.1268 17.6557 14.6856 17.112 14.9577L10.712 18.1814C10.2613 18.4086 9.73071 18.4086 9.28002 18.1814L2.88004 14.9577C2.33683 14.682 1.99581 14.1198 2.00004 13.5071V5.83469C2.00036 5.22304 2.34431 4.66427 2.88804 4.39209L9.28802 1.16839C9.73653 0.94387 10.2635 0.94387 10.712 1.16839Z" stroke="#00857F" stroke-width="1.6" stroke-linecap="round" stroke-linejoin="round"/>
<path d="M2.2561 4.96429L10.0001 8.86497L17.7441 4.96429" stroke="#00857F" stroke-width="1.6" stroke-linecap="round" stroke-linejoin="round"/>
<path d="M10 18.3426V8.86496" stroke="#00857F" stroke-width="1.6" stroke-linecap="round" stroke-linejoin="round"/>
<path d="M6 2.8205L14 6.85012" stroke="#00857F" stroke-width="1.6" stroke-linecap="round" stroke-linejoin="round"/>
</svg>
