<svg width="16" height="16" viewBox="0 0 16 16" fill="none" xmlns="http://www.w3.org/2000/svg">
<path d="M8.47328 1.24952C8.49109 1.25015 8.50891 1.25015 8.52672 1.24952C10.1178 1.1928 11.6665 1.76932 12.8332 2.85268C13.9933 3.92987 14.6815 5.42073 14.7494 7.0016C14.6914 8.4998 14.0573 9.91822 12.9787 10.9607C12.8326 11.1021 12.75 11.2967 12.75 11.5V14.1769L10.3152 12.7195C10.1568 12.6247 9.96905 12.5916 9.78781 12.6266C9.36336 12.7086 8.93207 12.7499 8.49979 12.75C8.49095 12.75 8.48211 12.7502 8.47328 12.7505C6.88216 12.8072 5.33348 12.2307 4.16678 11.1473C3.00712 10.0705 2.31892 8.58027 2.25062 7C2.31892 5.41973 3.00712 3.92951 4.16678 2.85268C5.33348 1.76932 6.88216 1.1928 8.47328 1.24952Z" stroke="#B2DAD9" stroke-width="1.5" stroke-linecap="round" stroke-linejoin="round"/>
<path d="M8.5 3.5V7.5" stroke="#B2DAD9" stroke-width="1.5" stroke-linecap="round" stroke-linejoin="round"/>
<path d="M8.5 9C8.30222 9 8.10888 9.05865 7.94443 9.16853C7.77998 9.27841 7.65181 9.43459 7.57612 9.61732C7.50043 9.80004 7.48063 10.0011 7.51922 10.1951C7.5578 10.3891 7.65304 10.5673 7.79289 10.7071C7.93275 10.847 8.11093 10.9422 8.30491 10.9808C8.49889 11.0194 8.69996 10.9996 8.88268 10.9239C9.06541 10.8482 9.22159 10.72 9.33147 10.5556C9.44135 10.3911 9.5 10.1978 9.5 10C9.5 9.73478 9.39464 9.48043 9.20711 9.29289C9.01957 9.10536 8.76522 9 8.5 9Z" fill="#B2DAD9"/>
</svg>
