<svg width="168" height="88" viewBox="0 0 168 88" fill="none" xmlns="http://www.w3.org/2000/svg">
<g filter="url(#filter0_d)">
<rect x="4" y="3" width="160" height="79.9997" rx="8" fill="white"/>
<path d="M84 46.9985C92.2841 46.9985 98.9997 40.2831 98.9997 31.9993C98.9997 23.7154 92.2841 17 84 17C75.7159 17 69.0004 23.7154 69.0004 31.9993C69.0004 40.2831 75.7159 46.9985 84 46.9985Z" fill="url(#paint0_linear)"/>
<path d="M86.373 46.8125C85.5997 46.9353 84.8079 46.9997 84.0008 46.9997C75.7164 46.9997 69.0004 40.2837 69.0004 31.9997C69.0004 23.7157 75.7165 17.0012 84.0008 17.0012C84.8079 17.0012 85.5997 17.0656 86.373 17.1884C79.2165 18.3253 73.7464 24.5226 73.7464 31.9997C73.7464 39.4767 79.2165 45.6755 86.373 46.8125Z" fill="white" fill-opacity="0.1"/>
<path d="M89.7135 27.3869C88.7135 27.3869 87.9001 28.7386 87.9001 30.4001C87.9001 32.0615 88.7136 33.4133 89.7135 33.4133C90.7133 33.4133 91.5268 32.0615 91.5268 30.4001C91.5268 28.7386 90.7134 27.3869 89.7135 27.3869Z" fill="white"/>
<path d="M80.0999 30.4001C80.0999 28.7386 79.2865 27.3869 78.2865 27.3869C77.2866 27.3869 76.4731 28.7386 76.4731 30.4001C76.4731 32.0615 77.2867 33.4133 78.2865 33.4133C79.2864 33.4133 80.0999 32.0615 80.0999 30.4001Z" fill="white"/>
<path d="M83.9997 41.1298C86.9219 41.1298 89.5441 39.3891 90.6798 36.6952C90.8546 36.2806 90.6603 35.8027 90.2456 35.6279C89.8309 35.453 89.3531 35.6475 89.1783 36.0622C88.2977 38.1507 86.265 39.5002 83.9997 39.5002C81.7345 39.5002 79.7018 38.1508 78.8213 36.0622C78.6465 35.6475 78.1688 35.4531 77.7539 35.6278C77.3392 35.8026 77.1448 36.2805 77.3195 36.6952C78.4554 39.3891 81.0775 41.1298 83.9997 41.1298Z" fill="white"/>
<path d="M66.2412 63.5317C66.2412 63.6964 66.1827 63.8372 66.0657 63.9542C65.9487 64.0712 65.8079 64.1297 65.6432 64.1297C65.5566 64.1297 65.4764 64.1124 65.4027 64.0777C65.3334 64.0474 65.2706 64.0062 65.2142 63.9542C65.1622 63.8979 65.1211 63.835 65.0907 63.7657C65.0604 63.692 65.0452 63.614 65.0452 63.5317V59.5797H61.1192V63.5317C61.1192 63.6964 61.0607 63.8372 60.9437 63.9542C60.8267 64.0712 60.6859 64.1297 60.5212 64.1297C60.4346 64.1297 60.3544 64.1124 60.2807 64.0777C60.2114 64.0474 60.1486 64.0062 60.0922 63.9542C60.0402 63.8979 59.9991 63.835 59.9687 63.7657C59.9384 63.692 59.9232 63.614 59.9232 63.5317V55.3677C59.9232 55.2854 59.9384 55.2095 59.9687 55.1402C59.9991 55.0665 60.0402 55.0037 60.0922 54.9517C60.1486 54.8954 60.2114 54.852 60.2807 54.8217C60.3544 54.787 60.4346 54.7697 60.5212 54.7697C60.6859 54.7697 60.8267 54.8282 60.9437 54.9452C61.0607 55.0622 61.1192 55.203 61.1192 55.3677V58.4487H65.0452V55.3677C65.0452 55.2854 65.0604 55.2095 65.0907 55.1402C65.1211 55.0665 65.1622 55.0037 65.2142 54.9517C65.2706 54.8954 65.3334 54.852 65.4027 54.8217C65.4764 54.787 65.5566 54.7697 65.6432 54.7697C65.8079 54.7697 65.9487 54.8282 66.0657 54.9452C66.1827 55.0622 66.2412 55.203 66.2412 55.3677V63.5317ZM73.4997 58.3447C73.4997 58.193 73.5517 58.0652 73.6557 57.9612C73.764 57.8529 73.894 57.7987 74.0457 57.7987C74.1974 57.7987 74.3252 57.8529 74.4292 57.9612C74.5375 58.0652 74.5917 58.193 74.5917 58.3447V63.5837C74.5917 63.7354 74.5375 63.8654 74.4292 63.9737C74.3252 64.0777 74.1974 64.1297 74.0457 64.1297C73.894 64.1297 73.764 64.0777 73.6557 63.9737C73.5517 63.8654 73.4997 63.7354 73.4997 63.5837V62.9077C73.231 63.315 72.8865 63.6205 72.4662 63.8242C72.0502 64.0279 71.58 64.1297 71.0557 64.1297C70.6224 64.1297 70.215 64.0495 69.8337 63.8892C69.4524 63.7289 69.1187 63.5079 68.8327 63.2262C68.5467 62.9445 68.3214 62.6109 68.1567 62.2252C67.992 61.8352 67.9097 61.4127 67.9097 60.9577C67.9097 60.507 67.992 60.0889 68.1567 59.7032C68.3214 59.3175 68.5467 58.9839 68.8327 58.7022C69.1187 58.4205 69.4524 58.1995 69.8337 58.0392C70.215 57.8789 70.6224 57.7987 71.0557 57.7987C71.58 57.7987 72.0524 57.9005 72.4727 58.1042C72.8974 58.3079 73.2397 58.6134 73.4997 59.0207V58.3447ZM73.4607 60.9577C73.4607 60.6457 73.4022 60.3554 73.2852 60.0867C73.1682 59.818 73.0079 59.5862 72.8042 59.3912C72.6049 59.1962 72.3687 59.0424 72.0957 58.9297C71.827 58.817 71.541 58.7607 71.2377 58.7607C70.93 58.7607 70.6397 58.817 70.3667 58.9297C70.0937 59.0424 69.8554 59.1962 69.6517 59.3912C69.4524 59.5862 69.2942 59.818 69.1772 60.0867C69.0602 60.3554 69.0017 60.6457 69.0017 60.9577C69.0017 61.274 69.0602 61.5665 69.1772 61.8352C69.2942 62.1039 69.4524 62.3379 69.6517 62.5372C69.8554 62.7322 70.0937 62.886 70.3667 62.9987C70.6397 63.1114 70.93 63.1677 71.2377 63.1677C71.541 63.1677 71.827 63.1114 72.0957 62.9987C72.3687 62.886 72.6049 62.7322 72.8042 62.5372C73.0079 62.3379 73.1682 62.1039 73.2852 61.8352C73.4022 61.5665 73.4607 61.274 73.4607 60.9577ZM70.0807 55.0427C70.0807 54.9257 70.1197 54.826 70.1977 54.7437C70.28 54.657 70.3797 54.6137 70.4967 54.6137C70.605 54.6137 70.709 54.657 70.8087 54.7437L72.3947 56.2647C72.4467 56.3124 72.4879 56.3622 72.5182 56.4142C72.5485 56.4662 72.5637 56.529 72.5637 56.6027C72.5637 56.7197 72.5225 56.8194 72.4402 56.9017C72.3622 56.9797 72.2647 57.0187 72.1477 57.0187C72.087 57.0187 72.0307 57.0079 71.9787 56.9862C71.931 56.9645 71.8877 56.9364 71.8487 56.9017L70.2107 55.3547C70.163 55.3157 70.1284 55.2702 70.1067 55.2182C70.0894 55.1619 70.0807 55.1034 70.0807 55.0427ZM77.9811 55.4587C77.9811 55.567 77.9616 55.6667 77.9226 55.7577C77.8836 55.8487 77.8294 55.9289 77.7601 55.9982C77.6951 56.0632 77.6171 56.1152 77.5261 56.1542C77.4351 56.1932 77.3397 56.2127 77.2401 56.2127C77.1361 56.2127 77.0386 56.1932 76.9476 56.1542C76.8566 56.1152 76.7764 56.0632 76.7071 55.9982C76.6377 55.9289 76.5836 55.8487 76.5446 55.7577C76.5056 55.6667 76.4861 55.567 76.4861 55.4587C76.4861 55.3547 76.5056 55.2572 76.5446 55.1662C76.5836 55.0752 76.6377 54.9972 76.7071 54.9322C76.7764 54.8672 76.8566 54.8152 76.9476 54.7762C77.0386 54.7372 77.1361 54.7177 77.2401 54.7177C77.3397 54.7177 77.4351 54.7372 77.5261 54.7762C77.6171 54.8152 77.6951 54.8672 77.7601 54.9322C77.8294 54.9972 77.8836 55.0752 77.9226 55.1662C77.9616 55.2572 77.9811 55.3547 77.9811 55.4587ZM76.6811 58.3447C76.6811 58.193 76.7352 58.0652 76.8436 57.9612C76.9519 57.8529 77.0841 57.7987 77.2401 57.7987C77.3917 57.7987 77.5196 57.8529 77.6236 57.9612C77.7319 58.0652 77.7861 58.193 77.7861 58.3447V63.5837C77.7861 63.7354 77.7319 63.8654 77.6236 63.9737C77.5196 64.0777 77.3917 64.1297 77.2401 64.1297C77.0841 64.1297 76.9519 64.0777 76.8436 63.9737C76.7352 63.8654 76.6811 63.7354 76.6811 63.5837V58.3447ZM83.8409 54.6917C83.8409 54.54 83.8929 54.4122 83.9969 54.3082C84.1052 54.1999 84.2352 54.1457 84.3869 54.1457C84.5386 54.1457 84.6686 54.1999 84.7769 54.3082C84.8896 54.4122 84.9459 54.54 84.9459 54.6917V63.5837C84.9459 63.7354 84.8896 63.8654 84.7769 63.9737C84.6686 64.0777 84.5386 64.1297 84.3869 64.1297C84.2352 64.1297 84.1052 64.0777 83.9969 63.9737C83.8929 63.8654 83.8409 63.7354 83.8409 63.5837V54.6917ZM87.7022 60.9577C87.7022 61.2697 87.7585 61.5579 87.8712 61.8222C87.9839 62.0865 88.1377 62.314 88.3327 62.5047C88.532 62.6954 88.766 62.8449 89.0347 62.9532C89.3034 63.0615 89.5915 63.1157 89.8992 63.1157C90.2069 63.1157 90.495 63.0615 90.7637 62.9532C91.0324 62.8449 91.2664 62.6954 91.4657 62.5047C91.665 62.314 91.821 62.0865 91.9337 61.8222C92.0507 61.5579 92.1092 61.2697 92.1092 60.9577C92.1092 60.6457 92.0507 60.3597 91.9337 60.0997C91.821 59.8354 91.665 59.6079 91.4657 59.4172C91.2664 59.2265 91.0324 59.0792 90.7637 58.9752C90.495 58.8669 90.2069 58.8127 89.8992 58.8127C89.5915 58.8127 89.3034 58.8669 89.0347 58.9752C88.766 59.0792 88.532 59.2265 88.3327 59.4172C88.1377 59.6079 87.9839 59.8354 87.8712 60.0997C87.7585 60.3597 87.7022 60.6457 87.7022 60.9577ZM86.5972 60.9577C86.5972 60.507 86.6817 60.0889 86.8507 59.7032C87.024 59.3175 87.2602 58.9839 87.5592 58.7022C87.8582 58.4205 88.207 58.1995 88.6057 58.0392C89.0087 57.8789 89.4399 57.7987 89.8992 57.7987C90.3585 57.7987 90.7875 57.8789 91.1862 58.0392C91.5892 58.1995 91.9402 58.4205 92.2392 58.7022C92.5382 58.9839 92.7722 59.3175 92.9412 59.7032C93.1145 60.0889 93.2012 60.507 93.2012 60.9577C93.2012 61.4127 93.1145 61.8352 92.9412 62.2252C92.7722 62.6109 92.5382 62.9445 92.2392 63.2262C91.9402 63.5079 91.5892 63.7289 91.1862 63.8892C90.7875 64.0495 90.3585 64.1297 89.8992 64.1297C89.4399 64.1297 89.0087 64.0495 88.6057 63.8892C88.207 63.7289 87.8582 63.5079 87.5592 63.2262C87.2602 62.9445 87.024 62.6109 86.8507 62.2252C86.6817 61.8352 86.5972 61.4127 86.5972 60.9577ZM88.5212 55.0427C88.5212 54.9257 88.5602 54.826 88.6382 54.7437C88.7205 54.657 88.8202 54.6137 88.9372 54.6137C89.0455 54.6137 89.1495 54.657 89.2492 54.7437L90.8352 56.2647C90.8872 56.3124 90.9284 56.3622 90.9587 56.4142C90.989 56.4662 91.0042 56.529 91.0042 56.6027C91.0042 56.7197 90.963 56.8194 90.8807 56.9017C90.8027 56.9797 90.7052 57.0187 90.5882 57.0187C90.5275 57.0187 90.4712 57.0079 90.4192 56.9862C90.3715 56.9645 90.3282 56.9364 90.2892 56.9017L88.6512 55.3547C88.6035 55.3157 88.5689 55.2702 88.5472 55.2182C88.5299 55.1619 88.5212 55.1034 88.5212 55.0427ZM95.9004 58.6567C96.1171 58.362 96.3771 58.1454 96.6804 58.0067C96.9838 57.868 97.3261 57.7987 97.7074 57.7987C98.0021 57.7987 98.2838 57.8529 98.5524 57.9612C98.8211 58.0652 99.0573 58.219 99.2609 58.4227C99.4646 58.622 99.6271 58.8669 99.7484 59.1572C99.8698 59.4432 99.9304 59.766 99.9304 60.1257V63.5837C99.9304 63.7354 99.8763 63.8654 99.7679 63.9737C99.6639 64.0777 99.5361 64.1297 99.3844 64.1297C99.2328 64.1297 99.1028 64.0777 98.9944 63.9737C98.8904 63.8654 98.8384 63.7354 98.8384 63.5837V60.3727C98.8384 60.143 98.8016 59.9307 98.7279 59.7357C98.6543 59.5364 98.5524 59.3652 98.4224 59.2222C98.2924 59.0792 98.1364 58.9665 97.9544 58.8842C97.7768 58.8019 97.5818 58.7607 97.3694 58.7607C97.1528 58.7607 96.9534 58.7997 96.7714 58.8777C96.5938 58.9557 96.4399 59.064 96.3099 59.2027C96.1799 59.3414 96.0781 59.506 96.0044 59.6967C95.9351 59.8874 95.9004 60.0954 95.9004 60.3207V63.5837C95.9004 63.7354 95.8463 63.8654 95.7379 63.9737C95.6339 64.0777 95.5061 64.1297 95.3544 64.1297C95.2028 64.1297 95.0728 64.0777 94.9644 63.9737C94.8604 63.8654 94.8084 63.7354 94.8084 63.5837V58.3447C94.8084 58.193 94.8604 58.0652 94.9644 57.9612C95.0728 57.8529 95.2028 57.7987 95.3544 57.7987C95.5061 57.7987 95.6339 57.8529 95.7379 57.9612C95.8463 58.0652 95.9004 58.193 95.9004 58.3447V58.6567ZM101.957 66.0927C101.957 65.9497 102.007 65.8262 102.107 65.7222C102.207 65.6225 102.321 65.5727 102.451 65.5727C102.555 65.5727 102.644 65.5987 102.718 65.6507C102.792 65.7027 102.859 65.772 102.919 65.8587C103.11 66.1187 103.357 66.3245 103.66 66.4762C103.968 66.6279 104.306 66.7037 104.674 66.7037C105.017 66.7037 105.333 66.6539 105.623 66.5542C105.918 66.4589 106.169 66.3029 106.377 66.0862C106.59 65.8695 106.754 65.5879 106.871 65.2412C106.993 64.8945 107.053 64.472 107.053 63.9737V62.9077C106.785 63.315 106.44 63.6205 106.02 63.8242C105.604 64.0279 105.134 64.1297 104.609 64.1297C104.176 64.1297 103.769 64.0495 103.387 63.8892C103.006 63.7289 102.672 63.5079 102.386 63.2262C102.1 62.9445 101.875 62.6109 101.71 62.2252C101.546 61.8352 101.463 61.4127 101.463 60.9577C101.463 60.507 101.546 60.0889 101.71 59.7032C101.875 59.3175 102.1 58.9839 102.386 58.7022C102.672 58.4205 103.006 58.1995 103.387 58.0392C103.769 57.8789 104.176 57.7987 104.609 57.7987C105.134 57.7987 105.606 57.9005 106.026 58.1042C106.451 58.3079 106.793 58.6134 107.053 59.0207V58.3447C107.053 58.193 107.105 58.0652 107.209 57.9612C107.318 57.8529 107.448 57.7987 107.599 57.7987C107.751 57.7987 107.879 57.8529 107.983 57.9612C108.091 58.0652 108.145 58.193 108.145 58.3447V63.8437C108.145 64.5674 108.054 65.174 107.872 65.6637C107.695 66.1534 107.45 66.5455 107.138 66.8402C106.826 67.1392 106.458 67.3515 106.033 67.4772C105.613 67.6029 105.16 67.6657 104.674 67.6657C104.436 67.6657 104.202 67.6419 103.972 67.5942C103.743 67.5509 103.52 67.4815 103.303 67.3862C103.086 67.2909 102.878 67.1674 102.679 67.0157C102.484 66.8684 102.3 66.6907 102.126 66.4827C102.079 66.422 102.038 66.3592 102.003 66.2942C101.973 66.2335 101.957 66.1664 101.957 66.0927ZM107.014 60.9577C107.014 60.6457 106.956 60.3554 106.839 60.0867C106.722 59.818 106.562 59.5862 106.358 59.3912C106.159 59.1962 105.922 59.0424 105.649 58.9297C105.381 58.817 105.095 58.7607 104.791 58.7607C104.484 58.7607 104.193 58.817 103.92 58.9297C103.647 59.0424 103.409 59.1962 103.205 59.3912C103.006 59.5862 102.848 59.818 102.731 60.0867C102.614 60.3554 102.555 60.6457 102.555 60.9577C102.555 61.274 102.614 61.5665 102.731 61.8352C102.848 62.1039 103.006 62.3379 103.205 62.5372C103.409 62.7322 103.647 62.886 103.92 62.9987C104.193 63.1114 104.484 63.1677 104.791 63.1677C105.095 63.1677 105.381 63.1114 105.649 62.9987C105.922 62.886 106.159 62.7322 106.358 62.5372C106.562 62.3379 106.722 62.1039 106.839 61.8352C106.956 61.5665 107.014 61.274 107.014 60.9577Z" fill="#12A4AB"/>
<rect x="4.5" y="3.5" width="159" height="78.9997" rx="7.5" stroke="#12A4AB"/>
</g>
<defs>
<filter id="filter0_d" x="0" y="0" width="168" height="87.9997" filterUnits="userSpaceOnUse" color-interpolation-filters="sRGB">
<feFlood flood-opacity="0" result="BackgroundImageFix"/>
<feColorMatrix in="SourceAlpha" type="matrix" values="0 0 0 0 0 0 0 0 0 0 0 0 0 0 0 0 0 0 127 0"/>
<feOffset dy="1"/>
<feGaussianBlur stdDeviation="2"/>
<feColorMatrix type="matrix" values="0 0 0 0 0 0 0 0 0 0 0 0 0 0 0 0 0 0 0.1 0"/>
<feBlend mode="normal" in2="BackgroundImageFix" result="effect1_dropShadow"/>
<feBlend mode="normal" in="SourceGraphic" in2="effect1_dropShadow" result="shape"/>
</filter>
<linearGradient id="paint0_linear" x1="83.04" y1="20.0644" x2="62.8653" y2="10.9201" gradientUnits="userSpaceOnUse">
<stop stop-color="#17B7BD"/>
<stop offset="1" stop-color="#9DEB93"/>
</linearGradient>
</defs>
</svg>
