<svg width="160" height="80" viewBox="0 0 160 80" fill="none" xmlns="http://www.w3.org/2000/svg">
<rect x="0.5" y="0.5" width="159" height="78.9997" rx="7.5" fill="white"/>
<path d="M80 43.9985C88.2841 43.9985 94.9997 37.2831 94.9997 28.9993C94.9997 20.7154 88.2841 14 80 14C71.7159 14 65.0004 20.7154 65.0004 28.9993C65.0004 37.2831 71.7159 43.9985 80 43.9985Z" fill="url(#paint0_linear)"/>
<path d="M82.373 43.8125C81.5997 43.9353 80.8079 43.9997 80.0008 43.9997C71.7164 43.9997 65.0004 37.2837 65.0004 28.9997C65.0004 20.7157 71.7165 14.0012 80.0008 14.0012C80.8079 14.0012 81.5997 14.0656 82.373 14.1884C75.2165 15.3253 69.7464 21.5226 69.7464 28.9997C69.7464 36.4767 75.2165 42.6755 82.373 43.8125Z" fill="white" fill-opacity="0.1"/>
<path d="M85.7135 24.3869C84.7135 24.3869 83.9001 25.7386 83.9001 27.4001C83.9001 29.0615 84.7136 30.4133 85.7135 30.4133C86.7133 30.4133 87.5268 29.0615 87.5268 27.4001C87.5268 25.7386 86.7134 24.3869 85.7135 24.3869Z" fill="white"/>
<path d="M76.0999 27.4001C76.0999 25.7386 75.2865 24.3869 74.2865 24.3869C73.2866 24.3869 72.4731 25.7386 72.4731 27.4001C72.4731 29.0615 73.2867 30.4133 74.2865 30.4133C75.2864 30.4133 76.0999 29.0615 76.0999 27.4001V27.4001Z" fill="white"/>
<path d="M79.9997 38.1298C82.9219 38.1298 85.5441 36.3891 86.6798 33.6952C86.8546 33.2806 86.6603 32.8027 86.2456 32.6279C85.8309 32.453 85.3531 32.6475 85.1783 33.0622C84.2977 35.1507 82.265 36.5002 79.9997 36.5002C77.7345 36.5002 75.7018 35.1508 74.8213 33.0622C74.6465 32.6475 74.1688 32.4531 73.7539 32.6278C73.3392 32.8026 73.1448 33.2805 73.3195 33.6952C74.4554 36.3891 77.0775 38.1298 79.9997 38.1298Z" fill="white"/>
<path d="M62.2412 60.5317C62.2412 60.6964 62.1827 60.8372 62.0657 60.9542C61.9487 61.0712 61.8079 61.1297 61.6432 61.1297C61.5566 61.1297 61.4764 61.1124 61.4027 61.0777C61.3334 61.0474 61.2706 61.0062 61.2142 60.9542C61.1622 60.8979 61.1211 60.835 61.0907 60.7657C61.0604 60.692 61.0452 60.614 61.0452 60.5317V56.5797H57.1192V60.5317C57.1192 60.6964 57.0607 60.8372 56.9437 60.9542C56.8267 61.0712 56.6859 61.1297 56.5212 61.1297C56.4346 61.1297 56.3544 61.1124 56.2807 61.0777C56.2114 61.0474 56.1486 61.0062 56.0922 60.9542C56.0402 60.8979 55.9991 60.835 55.9687 60.7657C55.9384 60.692 55.9232 60.614 55.9232 60.5317V52.3677C55.9232 52.2854 55.9384 52.2095 55.9687 52.1402C55.9991 52.0665 56.0402 52.0037 56.0922 51.9517C56.1486 51.8954 56.2114 51.852 56.2807 51.8217C56.3544 51.787 56.4346 51.7697 56.5212 51.7697C56.6859 51.7697 56.8267 51.8282 56.9437 51.9452C57.0607 52.0622 57.1192 52.203 57.1192 52.3677V55.4487H61.0452V52.3677C61.0452 52.2854 61.0604 52.2095 61.0907 52.1402C61.1211 52.0665 61.1622 52.0037 61.2142 51.9517C61.2706 51.8954 61.3334 51.852 61.4027 51.8217C61.4764 51.787 61.5566 51.7697 61.6432 51.7697C61.8079 51.7697 61.9487 51.8282 62.0657 51.9452C62.1827 52.0622 62.2412 52.203 62.2412 52.3677V60.5317ZM69.4997 55.3447C69.4997 55.193 69.5517 55.0652 69.6557 54.9612C69.764 54.8529 69.894 54.7987 70.0457 54.7987C70.1974 54.7987 70.3252 54.8529 70.4292 54.9612C70.5375 55.0652 70.5917 55.193 70.5917 55.3447V60.5837C70.5917 60.7354 70.5375 60.8654 70.4292 60.9737C70.3252 61.0777 70.1974 61.1297 70.0457 61.1297C69.894 61.1297 69.764 61.0777 69.6557 60.9737C69.5517 60.8654 69.4997 60.7354 69.4997 60.5837V59.9077C69.231 60.315 68.8865 60.6205 68.4662 60.8242C68.0502 61.0279 67.58 61.1297 67.0557 61.1297C66.6224 61.1297 66.215 61.0495 65.8337 60.8892C65.4524 60.7289 65.1187 60.5079 64.8327 60.2262C64.5467 59.9445 64.3214 59.6109 64.1567 59.2252C63.992 58.8352 63.9097 58.4127 63.9097 57.9577C63.9097 57.507 63.992 57.0889 64.1567 56.7032C64.3214 56.3175 64.5467 55.9839 64.8327 55.7022C65.1187 55.4205 65.4524 55.1995 65.8337 55.0392C66.215 54.8789 66.6224 54.7987 67.0557 54.7987C67.58 54.7987 68.0524 54.9005 68.4727 55.1042C68.8974 55.3079 69.2397 55.6134 69.4997 56.0207V55.3447ZM69.4607 57.9577C69.4607 57.6457 69.4022 57.3554 69.2852 57.0867C69.1682 56.818 69.0079 56.5862 68.8042 56.3912C68.6049 56.1962 68.3687 56.0424 68.0957 55.9297C67.827 55.817 67.541 55.7607 67.2377 55.7607C66.93 55.7607 66.6397 55.817 66.3667 55.9297C66.0937 56.0424 65.8554 56.1962 65.6517 56.3912C65.4524 56.5862 65.2942 56.818 65.1772 57.0867C65.0602 57.3554 65.0017 57.6457 65.0017 57.9577C65.0017 58.274 65.0602 58.5665 65.1772 58.8352C65.2942 59.1039 65.4524 59.3379 65.6517 59.5372C65.8554 59.7322 66.0937 59.886 66.3667 59.9987C66.6397 60.1114 66.93 60.1677 67.2377 60.1677C67.541 60.1677 67.827 60.1114 68.0957 59.9987C68.3687 59.886 68.6049 59.7322 68.8042 59.5372C69.0079 59.3379 69.1682 59.1039 69.2852 58.8352C69.4022 58.5665 69.4607 58.274 69.4607 57.9577ZM66.0807 52.0427C66.0807 51.9257 66.1197 51.826 66.1977 51.7437C66.28 51.657 66.3797 51.6137 66.4967 51.6137C66.605 51.6137 66.709 51.657 66.8087 51.7437L68.3947 53.2647C68.4467 53.3124 68.4879 53.3622 68.5182 53.4142C68.5485 53.4662 68.5637 53.529 68.5637 53.6027C68.5637 53.7197 68.5225 53.8194 68.4402 53.9017C68.3622 53.9797 68.2647 54.0187 68.1477 54.0187C68.087 54.0187 68.0307 54.0079 67.9787 53.9862C67.931 53.9645 67.8877 53.9364 67.8487 53.9017L66.2107 52.3547C66.163 52.3157 66.1284 52.2702 66.1067 52.2182C66.0894 52.1619 66.0807 52.1034 66.0807 52.0427ZM73.9811 52.4587C73.9811 52.567 73.9616 52.6667 73.9226 52.7577C73.8836 52.8487 73.8294 52.9289 73.7601 52.9982C73.6951 53.0632 73.6171 53.1152 73.5261 53.1542C73.4351 53.1932 73.3397 53.2127 73.2401 53.2127C73.1361 53.2127 73.0386 53.1932 72.9476 53.1542C72.8566 53.1152 72.7764 53.0632 72.7071 52.9982C72.6377 52.9289 72.5836 52.8487 72.5446 52.7577C72.5056 52.6667 72.4861 52.567 72.4861 52.4587C72.4861 52.3547 72.5056 52.2572 72.5446 52.1662C72.5836 52.0752 72.6377 51.9972 72.7071 51.9322C72.7764 51.8672 72.8566 51.8152 72.9476 51.7762C73.0386 51.7372 73.1361 51.7177 73.2401 51.7177C73.3397 51.7177 73.4351 51.7372 73.5261 51.7762C73.6171 51.8152 73.6951 51.8672 73.7601 51.9322C73.8294 51.9972 73.8836 52.0752 73.9226 52.1662C73.9616 52.2572 73.9811 52.3547 73.9811 52.4587ZM72.6811 55.3447C72.6811 55.193 72.7352 55.0652 72.8436 54.9612C72.9519 54.8529 73.0841 54.7987 73.2401 54.7987C73.3917 54.7987 73.5196 54.8529 73.6236 54.9612C73.7319 55.0652 73.7861 55.193 73.7861 55.3447V60.5837C73.7861 60.7354 73.7319 60.8654 73.6236 60.9737C73.5196 61.0777 73.3917 61.1297 73.2401 61.1297C73.0841 61.1297 72.9519 61.0777 72.8436 60.9737C72.7352 60.8654 72.6811 60.7354 72.6811 60.5837V55.3447ZM79.8409 51.6917C79.8409 51.54 79.8929 51.4122 79.9969 51.3082C80.1052 51.1999 80.2352 51.1457 80.3869 51.1457C80.5386 51.1457 80.6686 51.1999 80.7769 51.3082C80.8896 51.4122 80.9459 51.54 80.9459 51.6917V60.5837C80.9459 60.7354 80.8896 60.8654 80.7769 60.9737C80.6686 61.0777 80.5386 61.1297 80.3869 61.1297C80.2352 61.1297 80.1052 61.0777 79.9969 60.9737C79.8929 60.8654 79.8409 60.7354 79.8409 60.5837V51.6917ZM83.7022 57.9577C83.7022 58.2697 83.7585 58.5579 83.8712 58.8222C83.9839 59.0865 84.1377 59.314 84.3327 59.5047C84.532 59.6954 84.766 59.8449 85.0347 59.9532C85.3034 60.0615 85.5915 60.1157 85.8992 60.1157C86.2069 60.1157 86.495 60.0615 86.7637 59.9532C87.0324 59.8449 87.2664 59.6954 87.4657 59.5047C87.665 59.314 87.821 59.0865 87.9337 58.8222C88.0507 58.5579 88.1092 58.2697 88.1092 57.9577C88.1092 57.6457 88.0507 57.3597 87.9337 57.0997C87.821 56.8354 87.665 56.6079 87.4657 56.4172C87.2664 56.2265 87.0324 56.0792 86.7637 55.9752C86.495 55.8669 86.2069 55.8127 85.8992 55.8127C85.5915 55.8127 85.3034 55.8669 85.0347 55.9752C84.766 56.0792 84.532 56.2265 84.3327 56.4172C84.1377 56.6079 83.9839 56.8354 83.8712 57.0997C83.7585 57.3597 83.7022 57.6457 83.7022 57.9577ZM82.5972 57.9577C82.5972 57.507 82.6817 57.0889 82.8507 56.7032C83.024 56.3175 83.2602 55.9839 83.5592 55.7022C83.8582 55.4205 84.207 55.1995 84.6057 55.0392C85.0087 54.8789 85.4399 54.7987 85.8992 54.7987C86.3585 54.7987 86.7875 54.8789 87.1862 55.0392C87.5892 55.1995 87.9402 55.4205 88.2392 55.7022C88.5382 55.9839 88.7722 56.3175 88.9412 56.7032C89.1145 57.0889 89.2012 57.507 89.2012 57.9577C89.2012 58.4127 89.1145 58.8352 88.9412 59.2252C88.7722 59.6109 88.5382 59.9445 88.2392 60.2262C87.9402 60.5079 87.5892 60.7289 87.1862 60.8892C86.7875 61.0495 86.3585 61.1297 85.8992 61.1297C85.4399 61.1297 85.0087 61.0495 84.6057 60.8892C84.207 60.7289 83.8582 60.5079 83.5592 60.2262C83.2602 59.9445 83.024 59.6109 82.8507 59.2252C82.6817 58.8352 82.5972 58.4127 82.5972 57.9577ZM84.5212 52.0427C84.5212 51.9257 84.5602 51.826 84.6382 51.7437C84.7205 51.657 84.8202 51.6137 84.9372 51.6137C85.0455 51.6137 85.1495 51.657 85.2492 51.7437L86.8352 53.2647C86.8872 53.3124 86.9284 53.3622 86.9587 53.4142C86.989 53.4662 87.0042 53.529 87.0042 53.6027C87.0042 53.7197 86.963 53.8194 86.8807 53.9017C86.8027 53.9797 86.7052 54.0187 86.5882 54.0187C86.5275 54.0187 86.4712 54.0079 86.4192 53.9862C86.3715 53.9645 86.3282 53.9364 86.2892 53.9017L84.6512 52.3547C84.6035 52.3157 84.5689 52.2702 84.5472 52.2182C84.5299 52.1619 84.5212 52.1034 84.5212 52.0427ZM91.9004 55.6567C92.1171 55.362 92.3771 55.1454 92.6804 55.0067C92.9838 54.868 93.3261 54.7987 93.7074 54.7987C94.0021 54.7987 94.2838 54.8529 94.5524 54.9612C94.8211 55.0652 95.0573 55.219 95.2609 55.4227C95.4646 55.622 95.6271 55.8669 95.7484 56.1572C95.8698 56.4432 95.9304 56.766 95.9304 57.1257V60.5837C95.9304 60.7354 95.8763 60.8654 95.7679 60.9737C95.6639 61.0777 95.5361 61.1297 95.3844 61.1297C95.2328 61.1297 95.1028 61.0777 94.9944 60.9737C94.8904 60.8654 94.8384 60.7354 94.8384 60.5837V57.3727C94.8384 57.143 94.8016 56.9307 94.7279 56.7357C94.6543 56.5364 94.5524 56.3652 94.4224 56.2222C94.2924 56.0792 94.1364 55.9665 93.9544 55.8842C93.7768 55.8019 93.5818 55.7607 93.3694 55.7607C93.1528 55.7607 92.9534 55.7997 92.7714 55.8777C92.5938 55.9557 92.4399 56.064 92.3099 56.2027C92.1799 56.3414 92.0781 56.506 92.0044 56.6967C91.9351 56.8874 91.9004 57.0954 91.9004 57.3207V60.5837C91.9004 60.7354 91.8463 60.8654 91.7379 60.9737C91.6339 61.0777 91.5061 61.1297 91.3544 61.1297C91.2028 61.1297 91.0728 61.0777 90.9644 60.9737C90.8604 60.8654 90.8084 60.7354 90.8084 60.5837V55.3447C90.8084 55.193 90.8604 55.0652 90.9644 54.9612C91.0728 54.8529 91.2028 54.7987 91.3544 54.7987C91.5061 54.7987 91.6339 54.8529 91.7379 54.9612C91.8463 55.0652 91.9004 55.193 91.9004 55.3447V55.6567ZM97.9574 63.0927C97.9574 62.9497 98.0073 62.8262 98.1069 62.7222C98.2066 62.6225 98.3214 62.5727 98.4514 62.5727C98.5554 62.5727 98.6443 62.5987 98.7179 62.6507C98.7916 62.7027 98.8588 62.772 98.9194 62.8587C99.1101 63.1187 99.3571 63.3245 99.6604 63.4762C99.9681 63.6279 100.306 63.7037 100.674 63.7037C101.017 63.7037 101.333 63.6539 101.623 63.5542C101.918 63.4589 102.169 63.3029 102.377 63.0862C102.59 62.8695 102.754 62.5879 102.871 62.2412C102.993 61.8945 103.053 61.472 103.053 60.9737V59.9077C102.785 60.315 102.44 60.6205 102.02 60.8242C101.604 61.0279 101.134 61.1297 100.609 61.1297C100.176 61.1297 99.7688 61.0495 99.3874 60.8892C99.0061 60.7289 98.6724 60.5079 98.3864 60.2262C98.1004 59.9445 97.8751 59.6109 97.7104 59.2252C97.5458 58.8352 97.4634 58.4127 97.4634 57.9577C97.4634 57.507 97.5458 57.0889 97.7104 56.7032C97.8751 56.3175 98.1004 55.9839 98.3864 55.7022C98.6724 55.4205 99.0061 55.1995 99.3874 55.0392C99.7688 54.8789 100.176 54.7987 100.609 54.7987C101.134 54.7987 101.606 54.9005 102.026 55.1042C102.451 55.3079 102.793 55.6134 103.053 56.0207V55.3447C103.053 55.193 103.105 55.0652 103.209 54.9612C103.318 54.8529 103.448 54.7987 103.599 54.7987C103.751 54.7987 103.879 54.8529 103.983 54.9612C104.091 55.0652 104.145 55.193 104.145 55.3447V60.8437C104.145 61.5674 104.054 62.174 103.872 62.6637C103.695 63.1534 103.45 63.5455 103.138 63.8402C102.826 64.1392 102.458 64.3515 102.033 64.4772C101.613 64.6029 101.16 64.6657 100.674 64.6657C100.436 64.6657 100.202 64.6419 99.9724 64.5942C99.7428 64.5509 99.5196 64.4815 99.3029 64.3862C99.0863 64.2909 98.8783 64.1674 98.6789 64.0157C98.4839 63.8684 98.2998 63.6907 98.1264 63.4827C98.0788 63.422 98.0376 63.3592 98.0029 63.2942C97.9726 63.2335 97.9574 63.1664 97.9574 63.0927ZM103.014 57.9577C103.014 57.6457 102.956 57.3554 102.839 57.0867C102.722 56.818 102.562 56.5862 102.358 56.3912C102.159 56.1962 101.922 56.0424 101.649 55.9297C101.381 55.817 101.095 55.7607 100.791 55.7607C100.484 55.7607 100.193 55.817 99.9204 55.9297C99.6474 56.0424 99.4091 56.1962 99.2054 56.3912C99.0061 56.5862 98.8479 56.818 98.7309 57.0867C98.6139 57.3554 98.5554 57.6457 98.5554 57.9577C98.5554 58.274 98.6139 58.5665 98.7309 58.8352C98.8479 59.1039 99.0061 59.3379 99.2054 59.5372C99.4091 59.7322 99.6474 59.886 99.9204 59.9987C100.193 60.1114 100.484 60.1677 100.791 60.1677C101.095 60.1677 101.381 60.1114 101.649 59.9987C101.922 59.886 102.159 59.7322 102.358 59.5372C102.562 59.3379 102.722 59.1039 102.839 58.8352C102.956 58.5665 103.014 58.274 103.014 57.9577Z" fill="#12A4AB"/>
<rect x="0.5" y="0.5" width="159" height="78.9997" rx="7.5" stroke="#F2F2F2"/>
<defs>
<linearGradient id="paint0_linear" x1="79.04" y1="17.0644" x2="58.8653" y2="7.92013" gradientUnits="userSpaceOnUse">
<stop stop-color="#17B7BD"/>
<stop offset="1" stop-color="#9DEB93"/>
</linearGradient>
</defs>
</svg>
