<svg width="101" height="29" viewBox="0 0 101 29" fill="none" xmlns="http://www.w3.org/2000/svg">
<path d="M96.7963 28.9287H4.2037C2.16759 28.9287 0.5 27.3006 0.5 25.3126V3.61614C0.5 1.6282 2.16759 5.92085e-05 4.2037 5.92085e-05H96.7963C98.8324 5.92085e-05 100.5 1.6282 100.5 3.61614V25.3126C100.5 27.3006 98.8324 28.9287 96.7963 28.9287Z" fill="black"/>
<path d="M96.7963 0.579535C98.5111 0.579535 99.9065 1.9419 99.9065 3.61614V25.3126C99.9065 26.9869 98.5111 28.3492 96.7963 28.3492H4.2037C2.48889 28.3492 1.09352 26.9869 1.09352 25.3126V3.61614C1.09352 1.9419 2.48889 0.579535 4.2037 0.579535H96.7963ZM96.7963 5.92085e-05H4.2037C2.16759 5.92085e-05 0.5 1.6282 0.5 3.61614V25.3126C0.5 27.3006 2.16759 28.9287 4.2037 28.9287H96.7963C98.8324 28.9287 100.5 27.3006 100.5 25.3126V3.61614C100.5 1.6282 98.8324 5.92085e-05 96.7963 5.92085e-05Z" fill="#A6A6A6"/>
<path d="M35.6241 7.40841C35.6241 8.0123 35.4389 8.49595 35.0741 8.85665C34.6546 9.28425 34.1083 9.49941 33.4389 9.49941C32.7991 9.49941 32.2528 9.28064 31.8046 8.84942C31.3555 8.41187 31.1315 7.87488 31.1315 7.23213C31.1315 6.58937 31.3555 6.05238 31.8046 5.61845C32.2528 5.18362 32.7991 4.96484 33.4389 4.96484C33.7574 4.96484 34.0611 5.02903 34.3509 5.14836C34.6398 5.26859 34.875 5.43132 35.0454 5.63201L34.6583 6.01351C34.3611 5.67088 33.9565 5.50183 33.4389 5.50183C32.9722 5.50183 32.5676 5.66094 32.2241 5.98187C31.8842 6.3037 31.7139 6.72045 31.7139 7.23213C31.7139 7.7438 31.8842 8.16417 32.2241 8.486C32.5676 8.80331 32.9722 8.96604 33.4389 8.96604C33.9342 8.96604 34.3509 8.80331 34.6796 8.48239C34.8963 8.26994 35.0194 7.97704 35.0518 7.60277H33.4389V7.08025H35.5907C35.6167 7.19325 35.6241 7.30264 35.6241 7.40841Z" fill="white" stroke="white" stroke-width="0.16" stroke-miterlimit="10"/>
<path d="M39.0379 5.59692H37.0167V6.97103H38.8389V7.49355H37.0167V8.86767H39.0379V9.40013H36.4444V5.06445H39.0379V5.59692Z" fill="white" stroke="white" stroke-width="0.16" stroke-miterlimit="10"/>
<path d="M41.4472 9.40013H40.875V5.59692H39.6352V5.06445H42.688V5.59692H41.4472V9.40013Z" fill="white" stroke="white" stroke-width="0.16" stroke-miterlimit="10"/>
<path d="M44.8972 9.40013V5.06445H45.4685V9.40013H44.8972Z" fill="white" stroke="white" stroke-width="0.16" stroke-miterlimit="10"/>
<path d="M48.0009 9.40013H47.4333V5.59692H46.1889V5.06445H49.2453V5.59692H48.0009V9.40013Z" fill="white" stroke="white" stroke-width="0.16" stroke-miterlimit="10"/>
<path d="M55.025 8.84219C54.587 9.28064 54.0444 9.49941 53.3972 9.49941C52.7463 9.49941 52.2037 9.28064 51.7657 8.84219C51.3287 8.40464 51.1111 7.86765 51.1111 7.23213C51.1111 6.5966 51.3287 6.05961 51.7657 5.62207C52.2037 5.18362 52.7463 4.96484 53.3972 4.96484C54.0407 4.96484 54.5833 5.18362 55.0213 5.62568C55.462 6.06684 55.6796 6.60022 55.6796 7.23213C55.6796 7.86765 55.462 8.40464 55.025 8.84219ZM52.1889 8.47877C52.5185 8.80331 52.9194 8.96604 53.3972 8.96604C53.8713 8.96604 54.2759 8.80331 54.6019 8.47877C54.9306 8.15423 55.0972 7.73747 55.0972 7.23213C55.0972 6.72678 54.9306 6.31003 54.6019 5.98548C54.2759 5.66094 53.8713 5.49822 53.3972 5.49822C52.9194 5.49822 52.5185 5.66094 52.1889 5.98548C51.8602 6.31003 51.6935 6.72678 51.6935 7.23213C51.6935 7.73747 51.8602 8.15423 52.1889 8.47877Z" fill="white" stroke="white" stroke-width="0.16" stroke-miterlimit="10"/>
<path d="M56.4824 9.40013V5.06445H57.1768L59.3361 8.43645H59.3611L59.3361 7.60294V5.06445H59.9074V9.40013H59.3111L57.05 5.8618H57.025L57.05 6.69892V9.40013H56.4824Z" fill="white" stroke="white" stroke-width="0.16" stroke-miterlimit="10"/>
<path d="M50.9704 15.7319C49.2305 15.7319 47.8092 17.0246 47.8092 18.8082C47.8092 20.5774 49.2305 21.8837 50.9704 21.8837C52.7139 21.8837 54.1352 20.5774 54.1352 18.8082C54.1352 17.0246 52.7139 15.7319 50.9704 15.7319ZM50.9704 20.6723C50.0157 20.6723 49.1944 19.903 49.1944 18.8082C49.1944 17.699 50.0157 16.9433 50.9704 16.9433C51.925 16.9433 52.75 17.699 52.75 18.8082C52.75 19.903 51.925 20.6723 50.9704 20.6723ZM44.0731 15.7319C42.3296 15.7319 40.912 17.0246 40.912 18.8082C40.912 20.5774 42.3296 21.8837 44.0731 21.8837C45.8157 21.8837 47.2342 20.5774 47.2342 18.8082C47.2342 17.0246 45.8157 15.7319 44.0731 15.7319ZM44.0731 20.6723C43.1176 20.6723 42.2935 19.903 42.2935 18.8082C42.2935 17.699 43.1176 16.9433 44.0731 16.9433C45.0278 16.9433 45.8491 17.699 45.8491 18.8082C45.8491 19.903 45.0278 20.6723 44.0731 20.6723ZM35.8657 16.6748V17.982H39.063C38.9694 18.7124 38.7194 19.2494 38.3361 19.6237C37.8694 20.0757 37.1426 20.5774 35.8657 20.5774C33.8981 20.5774 32.3574 19.027 32.3574 17.106C32.3574 15.1849 33.8981 13.6345 35.8657 13.6345C36.9296 13.6345 37.7037 14.0404 38.275 14.5666L39.2185 13.6454C38.4194 12.9005 37.3565 12.3282 35.8657 12.3282C33.1676 12.3282 30.9 14.4717 30.9 17.106C30.9 19.7403 33.1676 21.8837 35.8657 21.8837C37.3241 21.8837 38.4194 21.4173 39.2805 20.5422C40.163 19.6806 40.438 18.4692 40.438 17.4911C40.438 17.1873 40.412 16.908 40.3657 16.6748H35.8657ZM69.4268 17.6882C69.1666 17.0002 68.3639 15.7319 66.7287 15.7319C65.1083 15.7319 63.7592 16.9785 63.7592 18.8082C63.7592 20.5313 65.0944 21.8837 66.8842 21.8837C68.3315 21.8837 69.1666 21.0222 69.5102 20.5205L68.4361 19.8217C68.0778 20.3333 67.5898 20.6723 66.8842 20.6723C66.1833 20.6723 65.6805 20.3586 65.3583 19.7403L69.5722 18.038L69.4268 17.6882ZM65.1305 18.7124C65.0944 17.5263 66.0741 16.9188 66.7759 16.9188C67.3259 16.9188 67.7926 17.1873 67.9481 17.5716L65.1305 18.7124ZM61.7055 21.6966H63.0907V12.6564H61.7055V21.6966ZM59.437 16.4171H59.3907C59.0796 16.0573 58.4861 15.7319 57.7342 15.7319C56.1565 15.7319 54.7139 17.0843 54.7139 18.8182C54.7139 20.5422 56.1565 21.8837 57.7342 21.8837C58.4861 21.8837 59.0796 21.5556 59.3907 21.1849H59.437V21.6261C59.437 22.8022 58.7935 23.4341 57.7555 23.4341C56.9092 23.4341 56.3842 22.8375 56.1676 22.3357L54.9629 22.8266C55.3102 23.642 56.2296 24.6455 57.7555 24.6455C59.3796 24.6455 60.75 23.7126 60.75 21.4426V15.919H59.437V16.4171ZM57.8528 20.6723C56.8981 20.6723 56.0991 19.8922 56.0991 18.8182C56.0991 17.7343 56.8981 16.9433 57.8528 16.9433C58.7935 16.9433 59.5352 17.7343 59.5352 18.8182C59.5352 19.8922 58.7935 20.6723 57.8528 20.6723ZM75.912 12.6564H72.5991V21.6966H73.9805V18.2713H75.912C77.4463 18.2713 78.9509 17.1873 78.9509 15.4634C78.9509 13.7403 77.4426 12.6564 75.912 12.6564ZM75.9481 17.0138H73.9805V13.9139H75.9481C76.9796 13.9139 77.5685 14.7501 77.5685 15.4634C77.5685 16.1631 76.9796 17.0138 75.9481 17.0138ZM84.4879 15.7147C83.4898 15.7147 82.4518 16.145 82.025 17.0987L83.2509 17.6005C83.5148 17.0987 84 16.936 84.5129 16.936C85.2296 16.936 85.9565 17.3564 85.9676 18.0986V18.1935C85.7176 18.0525 85.1824 17.8437 84.5241 17.8437C83.2037 17.8437 81.8583 18.5533 81.8583 19.8777C81.8583 21.0891 82.9398 21.8693 84.1555 21.8693C85.0852 21.8693 85.5981 21.4597 85.9203 20.9833H85.9676V21.6821H87.3018V18.2143C87.3018 16.6115 86.0759 15.7147 84.4879 15.7147ZM84.3213 20.6687C83.8694 20.6687 83.2398 20.45 83.2398 19.903C83.2398 19.2033 84.025 18.9348 84.7046 18.9348C85.3129 18.9348 85.5981 19.0659 85.9676 19.2386C85.8592 20.0757 85.1213 20.6687 84.3213 20.6687ZM92.1629 15.9127L90.575 19.8316H90.5278L88.8861 15.9127H87.3963L89.8629 21.3892L88.4555 24.4367H89.8991L93.7 15.9127H92.1629ZM79.7102 21.6966H81.0953V12.6564H79.7102V21.6966Z" fill="white"/>
<path d="M8.22963 5.45226C8.01203 5.67465 7.88611 6.02089 7.88611 6.46928V22.4632C7.88611 22.9116 8.01203 23.2578 8.22963 23.4802L8.28333 23.5291L17.463 14.5702V14.3587L8.28333 5.39983L8.22963 5.45226Z" fill="url(#paint0_linear_1416_2784)"/>
<path d="M20.5194 17.5579L17.463 14.5701V14.3585L20.5231 11.3707L20.5917 11.4096L24.2157 13.4229C25.25 13.9942 25.25 14.9344 24.2157 15.5094L20.5917 17.519L20.5194 17.5579Z" fill="url(#paint1_linear_1416_2784)"/>
<path d="M20.5917 17.5191L17.463 14.4644L8.22964 23.4802C8.57316 23.8328 9.13335 23.8753 9.77039 23.5227L20.5917 17.5191Z" fill="url(#paint2_linear_1416_2784)"/>
<path d="M20.5917 11.4097L9.77039 5.40607C9.13335 5.05712 8.57316 5.09961 8.22964 5.45218L17.463 14.4644L20.5917 11.4097Z" fill="url(#paint3_linear_1416_2784)"/>
<defs>
<linearGradient id="paint0_linear_1416_2784" x1="16.6479" y1="22.6298" x2="4.51409" y2="10.2019" gradientUnits="userSpaceOnUse">
<stop stop-color="#00A0FF"/>
<stop offset="0.0066" stop-color="#00A1FF"/>
<stop offset="0.2601" stop-color="#00BEFF"/>
<stop offset="0.5122" stop-color="#00D2FF"/>
<stop offset="0.7604" stop-color="#00DFFF"/>
<stop offset="1" stop-color="#00E3FF"/>
</linearGradient>
<linearGradient id="paint1_linear_1416_2784" x1="25.5625" y1="14.4633" x2="7.63888" y2="14.4633" gradientUnits="userSpaceOnUse">
<stop stop-color="#FFE000"/>
<stop offset="0.4087" stop-color="#FFBD00"/>
<stop offset="0.7754" stop-color="#FFA500"/>
<stop offset="1" stop-color="#FF9C00"/>
</linearGradient>
<linearGradient id="paint2_linear_1416_2784" x1="18.8904" y1="12.8038" x2="2.43593" y2="-4.04932" gradientUnits="userSpaceOnUse">
<stop stop-color="#FF3A44"/>
<stop offset="1" stop-color="#C31162"/>
</linearGradient>
<linearGradient id="paint3_linear_1416_2784" x1="5.90542" y1="28.8013" x2="13.2531" y2="21.2756" gradientUnits="userSpaceOnUse">
<stop stop-color="#32A071"/>
<stop offset="0.0685" stop-color="#2DA771"/>
<stop offset="0.4762" stop-color="#15CF74"/>
<stop offset="0.8009" stop-color="#06E775"/>
<stop offset="1" stop-color="#00F076"/>
</linearGradient>
</defs>
</svg>
