<svg width="30" height="30" viewBox="0 0 30 30" fill="none" xmlns="http://www.w3.org/2000/svg">
<path d="M14.7293 1.87469L14.9891 2.03358L15.2495 1.87565L17.275 0.647051L18.8188 2.43976L19.0176 2.67066L19.3139 2.59979L21.6016 2.05275L22.5135 4.22487L22.6307 4.50385L22.9322 4.52951L25.2714 4.72859L25.4705 7.06784L25.4961 7.36933L25.7751 7.48646L27.9473 8.39842L27.4002 10.6861L27.3293 10.9824L27.5602 11.1812L29.3518 12.7239L28.1253 14.7293L27.9664 14.9891L28.1244 15.2495L29.3529 17.275L27.5602 18.8188L27.3293 19.0176L27.4002 19.3139L27.9473 21.6016L25.7751 22.5135L25.4961 22.6307L25.4705 22.9322L25.2714 25.2714L22.9322 25.4705L22.6307 25.4961L22.5135 25.7751L21.6016 27.9473L19.3139 27.4002L19.0176 27.3293L18.8188 27.5602L17.275 29.3529L15.2495 28.1244L14.9891 27.9664L14.7293 28.1253L12.7239 29.3518L11.1812 27.5602L10.9824 27.3293L10.6861 27.4002L8.39842 27.9473L7.48646 25.7751L7.36933 25.4961L7.06784 25.4705L4.72859 25.2714L4.52951 22.9322L4.50385 22.6307L4.22487 22.5135L2.05275 21.6016L2.59979 19.3139L2.67066 19.0176L2.43976 18.8188L0.647051 17.275L1.87565 15.2495L2.03358 14.9891L1.87469 14.7293L0.648242 12.7239L2.43976 11.1812L2.67066 10.9824L2.59979 10.6861L2.05275 8.39842L4.22487 7.48646L4.50385 7.36933L4.52951 7.06784L4.72859 4.72859L7.06784 4.52951L7.36933 4.50385L7.48646 4.22487L8.39842 2.05275L10.6861 2.59979L10.9824 2.67066L11.1812 2.43976L12.7239 0.648242L14.7293 1.87469Z" fill="#FB1717" stroke="white"/>
<path d="M6.63081 14.193V17.451C6.63081 17.631 6.56631 17.7855 6.43731 17.9145C6.30831 18.0435 6.15381 18.108 5.97381 18.108C5.79381 18.108 5.63931 18.0435 5.51031 17.9145C5.38131 17.7855 5.31681 17.631 5.31681 17.451V12.006C5.31681 11.889 5.35431 11.79 5.42931 11.709C5.50731 11.631 5.60181 11.592 5.71281 11.592C5.83581 11.592 5.94681 11.646 6.04581 11.754L9.34881 15.516V12.249C9.34881 12.069 9.41331 11.9145 9.54231 11.7855C9.67131 11.6565 9.82581 11.592 10.0058 11.592C10.1858 11.592 10.3403 11.6565 10.4693 11.7855C10.5983 11.9145 10.6628 12.069 10.6628 12.249V17.694C10.6628 17.811 10.6253 17.9085 10.5503 17.9865C10.4723 18.0675 10.3778 18.108 10.2668 18.108C10.1438 18.108 10.0328 18.054 9.93381 17.946L6.63081 14.193ZM12.3289 18C12.1489 18 11.9944 17.9355 11.8654 17.8065C11.7364 17.6775 11.6719 17.523 11.6719 17.343V12.357C11.6719 12.177 11.7364 12.0225 11.8654 11.8935C11.9944 11.7645 12.1489 11.7 12.3289 11.7H14.5519C14.7199 11.7 14.8624 11.7585 14.9794 11.8755C15.0964 11.9925 15.1549 12.135 15.1549 12.303C15.1549 12.468 15.0964 12.6105 14.9794 12.7305C14.8624 12.8475 14.7199 12.906 14.5519 12.906H12.9859V13.995H14.3449C14.5069 13.995 14.6464 14.0535 14.7634 14.1705C14.8804 14.2875 14.9389 14.427 14.9389 14.589C14.9389 14.751 14.8804 14.889 14.7634 15.003C14.6464 15.117 14.5069 15.174 14.3449 15.174H12.9859V16.794H14.6329C14.8009 16.794 14.9434 16.8525 15.0604 16.9695C15.1774 17.0865 15.2359 17.229 15.2359 17.397C15.2359 17.562 15.1774 17.7045 15.0604 17.8245C14.9434 17.9415 14.8009 18 14.6329 18H12.3289ZM19.7969 11.592C19.9979 11.592 20.1329 11.691 20.2019 11.889L21.5429 15.579L22.7399 12.06C22.8479 11.748 23.0549 11.592 23.3609 11.592C23.5379 11.592 23.6864 11.6535 23.8064 11.7765C23.9294 11.8995 23.9909 12.051 23.9909 12.231C23.9909 12.318 23.9789 12.39 23.9549 12.447L21.9659 17.811C21.8969 18.009 21.7619 18.108 21.5609 18.108C21.3569 18.108 21.2189 18.006 21.1469 17.802L19.7969 14.076L18.4469 17.802C18.3749 18.006 18.2369 18.108 18.0329 18.108C17.8319 18.108 17.6969 18.009 17.6279 17.811L15.6389 12.447C15.6149 12.39 15.6029 12.318 15.6029 12.231C15.6029 12.051 15.6644 11.8995 15.7874 11.7765C15.9074 11.6535 16.0559 11.592 16.2329 11.592C16.5389 11.592 16.7459 11.748 16.8539 12.06L18.0509 15.579L19.3919 11.889C19.4609 11.691 19.5959 11.592 19.7969 11.592Z" fill="white"/>
</svg>
