<svg width="24" height="24" viewBox="0 0 24 24" fill="none" xmlns="http://www.w3.org/2000/svg">
<path fill-rule="evenodd" clip-rule="evenodd" d="M11.7202 9.08768C12.5835 9.08768 13.2863 9.78954 13.2863 10.6538C13.2863 11.5171 12.5835 12.219 11.7202 12.219C10.8569 12.219 10.1541 11.5171 10.1541 10.6538C10.1541 9.78954 10.8569 9.08768 11.7202 9.08768ZM11.7202 13.8682C13.4926 13.8682 14.9346 12.4262 14.9346 10.6538C14.9346 8.88141 13.4926 7.43848 11.7202 7.43848C9.9478 7.43848 8.5058 8.88141 8.5058 10.6538C8.5058 12.4262 9.9478 13.8682 11.7202 13.8682Z" fill="#959494"/>
<path fill-rule="evenodd" clip-rule="evenodd" d="M11.7202 5.58174C14.5164 5.58174 16.7919 7.85721 16.7919 10.6535V10.8336C16.7919 13.7512 13.0614 17.3305 11.7202 18.5233C10.379 17.3296 6.64845 13.7493 6.64845 10.8336V10.6535C6.64845 7.85721 8.92392 5.58174 11.7202 5.58174ZM11.7202 3.93347C8.01485 3.93347 5.00018 6.94814 5.00018 10.6535V10.8336C5.00018 12.7021 6.06045 14.8665 8.15112 17.2671C9.55672 18.8808 10.9343 20.0307 11.2012 20.25L11.7202 20.6691L12.2382 20.25C12.3007 20.1996 13.7894 18.9891 15.2892 17.2671C17.3799 14.8665 18.4402 12.7021 18.4402 10.8336V10.6535C18.4402 6.94814 15.4255 3.93347 11.7202 3.93347Z" fill="#959494"/>
</svg>
