<svg width="153" height="23" viewBox="0 0 153 23" fill="none" xmlns="http://www.w3.org/2000/svg">
<path d="M22.9796 4.07324H21.325C20.6661 4.07324 20.1327 4.60313 20.1327 5.25754V17.4298C20.1327 18.0842 20.6668 18.6141 21.325 18.6141H22.9796C23.6377 18.6141 24.1719 18.0842 24.1719 17.4298V5.25685C24.1719 4.60313 23.6384 4.07324 22.9796 4.07324Z" fill="white"/>
<path d="M17.0252 4.07324C15.982 4.07324 15.1066 4.69445 14.6825 5.58336L10.2881 14.8551C10.1844 15.0743 9.97752 15.4313 9.80481 15.4313C9.6321 15.4313 9.42526 15.075 9.3215 14.8551L4.89788 5.58336C4.47376 4.69375 3.59837 4.07324 2.55514 4.07324H0L6.97389 17.4893C7.66473 18.8064 9.07984 18.7787 9.80481 18.7787C10.8062 18.7787 11.9797 18.7241 12.6016 17.4893L19.5762 4.07324H17.0252Z" fill="white"/>
<path d="M94.0778 1.84152C94.0778 1.18712 93.5443 0.657227 92.8855 0.657227H91.2308C90.5727 0.657227 90.0386 1.18712 90.0386 1.84152V13.865C90.0386 15.7031 90.6946 16.7732 91.8681 17.5411C93.0074 18.2819 94.3194 18.6112 96.7708 18.6112H98.0989C98.7577 18.6112 99.2911 18.0806 99.2911 17.4269V16.1423H98.2897C97.5647 16.1423 96.0458 16.1147 95.1475 15.5114C93.9733 14.7429 94.0771 13.3711 94.0771 12.3833V1.84152H94.0778Z" fill="white"/>
<path d="M68.2179 16.1416C67.493 16.1416 65.9734 16.114 65.0764 15.5108C63.9023 14.7422 64.006 13.3704 64.006 12.3826V6.53928H67.9234C68.5815 6.53928 69.1156 6.0087 69.1156 5.35499V4.06969H64.006V1.84152C64.006 1.18712 63.4719 0.657227 62.8138 0.657227H61.1591C60.5003 0.657227 59.9668 1.18712 59.9668 1.84152V4.07038H51.5423V1.84152C51.5423 1.18712 51.0082 0.657227 50.35 0.657227H48.6954C48.0366 0.657227 47.5031 1.18712 47.5031 1.84152V4.07038H44.9828V5.35499C44.9828 6.0087 45.5162 6.53928 46.175 6.53928H47.5038V13.8644C47.5038 15.7024 48.1598 16.7725 49.3333 17.5404C50.4726 18.2813 51.7847 18.6105 54.236 18.6105H55.5641C56.2229 18.6105 56.7564 18.08 56.7564 17.4262V16.1416H55.7549C55.03 16.1416 53.5104 16.114 52.6127 15.5108C51.4385 14.7422 51.5423 13.3704 51.5423 12.3826V6.53928H59.9661V13.8644C59.9661 15.7024 60.6222 16.7725 61.7963 17.5404C62.9356 18.2813 64.2477 18.6105 66.6991 18.6105H68.0271C68.6852 18.6105 69.2194 18.08 69.2194 17.4262V16.1416H68.2179Z" fill="white"/>
<path d="M43.5078 17.4278V16.1432H34.5659C33.0811 16.1432 31.3895 15.9786 30.8714 14.4145C30.7328 13.9752 30.6297 13.0427 30.6297 12.4118H41.264C41.9889 12.4118 42.6798 12.3018 43.232 11.8633C43.9911 11.26 44.0949 10.4092 44.0949 9.6683C44.0949 7.83029 43.6457 6.01925 41.5056 4.94979C39.814 4.09892 37.6043 4.0166 35.4635 4.0166C33.7371 4.0166 30.6297 4.0166 28.6275 5.38837C26.6253 6.76013 26.4526 8.76278 26.4526 11.4793C26.4526 13.3997 26.5564 15.4023 27.7647 16.7741C29.2836 18.4751 31.4933 18.6121 33.3576 18.6121H42.3155C42.9744 18.6121 43.5078 18.0815 43.5078 17.4278ZM39.9171 9.09137C39.9171 9.4753 39.8133 9.94224 39.0194 9.94224H33.274C31.8136 9.94224 30.629 10.6056 30.629 11.424V9.94224C30.6639 8.98207 30.629 8.18655 31.4578 7.44567C32.5623 6.45783 34.2197 6.4855 35.2901 6.4855C36.4295 6.4855 37.7415 6.54015 38.7429 7.14406C39.33 7.50032 39.9171 8.18655 39.9171 9.09137Z" fill="white"/>
<path d="M87.1765 17.4278V16.1432H78.2346C76.7498 16.1432 75.0582 15.9786 74.5401 14.4145C74.4015 13.9752 74.2978 13.0427 74.2978 12.4118H84.932C85.657 12.4118 86.3471 12.3018 86.9001 11.8633C87.6591 11.26 87.7636 10.4092 87.7636 9.6683C87.7636 7.83029 87.3144 6.01925 85.1737 4.94979C83.4821 4.09892 81.2723 4.0166 79.1316 4.0166C77.4052 4.0166 74.2978 4.0166 72.2956 5.38837C70.2934 6.76013 70.1207 8.76278 70.1207 11.4793C70.1207 13.3997 70.2244 15.4023 71.4327 16.7741C72.9516 18.4751 75.1613 18.6121 77.0256 18.6121H85.9836C86.6424 18.6121 87.1765 18.0815 87.1765 17.4278ZM83.5858 9.09137C83.5858 9.4753 83.4821 9.94224 82.6881 9.94224H76.9427C75.4824 9.94224 74.2978 10.6056 74.2978 11.424V9.94224C74.3326 8.98207 74.2978 8.18655 75.1265 7.44567C76.231 6.45783 77.8885 6.4855 78.9588 6.4855C80.0982 6.4855 81.4102 6.54015 82.4117 7.14406C82.9988 7.50032 83.5858 8.18655 83.5858 9.09137Z" fill="white"/>
<path d="M22.9796 0H21.325C20.6661 0 20.1327 0.52989 20.1327 1.1843V1.51219V4.06895H20.1494C20.2636 3.39725 21.0325 2.69649 22.153 2.69649H22.9803C23.6384 2.69649 24.1726 2.16591 24.1726 1.51219V1.1843C24.1719 0.52989 23.6384 0 22.9796 0Z" fill="white"/>
<path d="M106.641 22.0023H104.563V8.81246C104.563 8.17119 104.76 7.71532 105.157 7.44415C105.553 7.17367 106.072 7.03809 106.716 7.03809H110.651C111.706 7.03809 112.577 7.16675 113.262 7.42271C113.946 7.67935 114.495 8.04668 114.908 8.52399C115.319 9.00131 115.609 9.58931 115.773 10.2873C115.939 10.986 116.021 11.7767 116.021 12.66C116.021 13.5434 115.938 14.3383 115.773 15.0432C115.608 15.7488 115.319 16.3471 114.908 16.8383C114.495 17.3301 113.946 17.7078 113.262 17.9714C112.577 18.235 111.706 18.3671 110.651 18.3671H106.641V22.0023ZM106.641 16.9144H110.279C111.071 16.9144 111.702 16.8078 112.172 16.5934C112.642 16.3796 113.001 16.0843 113.249 15.7066C113.497 15.3296 113.658 14.8806 113.732 14.3597C113.805 13.8395 113.843 13.2729 113.843 12.66C113.843 12.0471 113.806 11.484 113.732 10.9714C113.657 10.4582 113.496 10.0203 113.249 9.65641C113.002 9.29323 112.642 9.00823 112.172 8.80139C111.702 8.59524 111.071 8.49148 110.279 8.49148H107.409C107.162 8.49148 106.972 8.53783 106.84 8.63052C106.708 8.72322 106.642 8.89754 106.642 9.15419V16.9144H106.641Z" fill="white"/>
<path d="M124.385 6.91309C125.556 6.91309 126.567 7.0127 127.417 7.21262C128.266 7.41254 128.963 7.73628 129.508 8.18524C130.053 8.63419 130.456 9.22565 130.72 9.95961C130.984 10.6943 131.116 11.5949 131.116 12.6637C131.116 13.7325 130.984 14.6408 130.72 15.3893C130.456 16.137 130.053 16.7396 129.508 17.1954C128.963 17.6513 128.267 17.9834 127.417 18.1895C126.566 18.3957 125.556 18.4994 124.385 18.4994C123.214 18.4994 122.203 18.3957 121.354 18.1895C120.504 17.9827 119.807 17.6513 119.262 17.1954C118.718 16.7396 118.314 16.137 118.05 15.3893C117.786 14.6408 117.654 13.7325 117.654 12.6637C117.654 11.5949 117.785 10.6936 118.05 9.95961C118.314 9.22565 118.718 8.63419 119.262 8.18524C119.807 7.73628 120.503 7.41254 121.354 7.21262C122.203 7.01339 123.213 6.91309 124.385 6.91309ZM119.831 12.6637C119.831 13.462 119.913 14.1385 120.078 14.694C120.244 15.2495 120.503 15.7026 120.858 16.0513C121.212 16.4006 121.678 16.6538 122.256 16.8101C122.833 16.9672 123.543 17.0453 124.384 17.0453C125.226 17.0453 125.935 16.9672 126.513 16.8101C127.091 16.6538 127.556 16.4006 127.911 16.0513C128.266 15.7026 128.525 15.2495 128.69 14.694C128.855 14.1385 128.938 13.4613 128.938 12.6637C128.938 11.8654 128.855 11.1923 128.69 10.6438C128.525 10.0952 128.266 9.65316 127.911 9.31834C127.556 8.98353 127.091 8.74141 126.513 8.59199C125.935 8.44188 125.226 8.36717 124.384 8.36717C123.543 8.36717 122.833 8.44188 122.256 8.59199C121.678 8.74141 121.212 8.98422 120.858 9.31834C120.503 9.65316 120.243 10.0952 120.078 10.6438C119.913 11.1923 119.831 11.8654 119.831 12.6637Z" fill="white"/>
<path d="M132.871 16.9137H140.32C141.376 16.9137 141.904 16.4364 141.904 15.4811C141.904 15.1822 141.83 14.9401 141.681 14.7547C141.533 14.5693 141.322 14.413 141.05 14.2843C140.778 14.1563 140.444 14.0456 140.048 13.9529C139.652 13.8603 139.198 13.7572 138.687 13.643L136.287 13.1297C135.032 12.8593 134.117 12.485 133.54 12.0077C132.963 11.5304 132.674 10.8144 132.674 9.85979C132.674 8.90515 132.974 8.1961 133.577 7.73262C134.179 7.26983 135.057 7.03809 136.213 7.03809H143.316V8.49148H136.436C135.825 8.49148 135.392 8.59524 135.136 8.80139C134.88 9.00823 134.752 9.36102 134.752 9.85979C134.752 10.1732 134.814 10.4339 134.938 10.6401C135.062 10.8469 135.231 11.0178 135.445 11.1534C135.66 11.289 135.915 11.3996 136.213 11.4847C136.509 11.5698 136.84 11.6556 137.202 11.7414L139.801 12.3183C140.46 12.4608 141.054 12.6033 141.582 12.7458C142.11 12.8883 142.56 13.0737 142.931 13.302C143.302 13.5303 143.587 13.8153 143.785 14.157C143.983 14.4994 144.082 14.9477 144.082 15.5039C144.082 15.9459 144.029 16.3409 143.921 16.6903C143.814 17.0396 143.637 17.3391 143.389 17.5882C143.141 17.8379 142.811 18.0302 142.399 18.1651C141.987 18.3007 141.467 18.3685 140.84 18.3685H132.871V16.9137H132.871Z" fill="white"/>
<path d="M150.791 18.3661C149.965 18.3661 149.285 18.2845 148.749 18.1206C148.213 17.9566 147.788 17.718 147.474 17.4046C147.161 17.0912 146.938 16.7101 146.807 16.2611C146.674 15.8122 146.608 15.303 146.608 14.7323V8.49054H144.678V7.03715H146.608V3.40332H148.687V7.03715H152.349V8.49054H148.687V14.6258C148.687 15.0678 148.74 15.4352 148.848 15.7264C148.955 16.0183 149.12 16.2535 149.343 16.432C149.566 16.6105 149.854 16.735 150.209 16.8062C150.564 16.8775 150.988 16.9134 151.483 16.9134H152.349V18.3668H150.791V18.3661Z" fill="white"/>
</svg>
