<svg width="137" height="22" viewBox="0 0 137 22" fill="none" xmlns="http://www.w3.org/2000/svg">
<path d="M20.6617 4.07031H19.1737C18.5813 4.07031 18.1016 4.60023 18.1016 5.25466V17.4275C18.1016 18.0819 18.5819 18.6118 19.1737 18.6118H20.6617C21.2536 18.6118 21.7339 18.0819 21.7339 17.4275V5.25397C21.7339 4.60023 21.2542 4.07031 20.6617 4.07031Z" fill="#EE0033"/>
<path d="M15.3103 4.07031C14.3722 4.07031 13.5849 4.69154 13.2035 5.5805L9.25181 14.8526C9.1585 15.0719 8.9725 15.4289 8.81718 15.4289C8.66187 15.4289 8.47587 15.0726 8.38255 14.8526L4.40452 5.5805C4.02313 4.69085 3.23591 4.07031 2.29777 4.07031H0L6.27142 17.487C6.89267 18.8041 8.16524 18.7765 8.81718 18.7765C9.71775 18.7765 10.773 18.7218 11.3323 17.487L17.6043 4.07031H15.3103Z" fill="#EE0033"/>
<path d="M84.6079 1.84011C84.6079 1.18568 84.1282 0.655762 83.5358 0.655762H82.0478C81.4559 0.655762 80.9756 1.18568 80.9756 1.84011V13.8642C80.9756 15.7023 81.5655 16.7725 82.6208 17.5404C83.6454 18.2813 84.8252 18.6106 87.0297 18.6106H88.224C88.8164 18.6106 89.2961 18.08 89.2961 17.4262V16.1416H88.3956C87.7436 16.1416 86.3777 16.1139 85.5699 15.5106C84.514 14.7421 84.6073 13.3702 84.6073 12.3824V1.84011H84.6079Z" fill="#EE0033"/>
<path d="M61.3498 16.1409C60.6978 16.1409 59.3313 16.1132 58.5247 15.51C57.4688 14.7414 57.5621 13.3695 57.5621 12.3817V6.53808H61.0849C61.6767 6.53808 62.157 6.00748 62.157 5.35373V4.06838H57.5621V1.84011C57.5621 1.18568 57.0818 0.655762 56.49 0.655762H55.002C54.4095 0.655762 53.9298 1.18568 53.9298 1.84011V4.06907H46.3539V1.84011C46.3539 1.18568 45.8735 0.655762 45.2817 0.655762H43.7937C43.2012 0.655762 42.7215 1.18568 42.7215 1.84011V4.06907H40.4551V5.35373C40.4551 6.00748 40.9348 6.53808 41.5272 6.53808H42.7222V13.8635C42.7222 15.7016 43.3121 16.7718 44.3674 17.5397C45.3919 18.2806 46.5718 18.6099 48.7763 18.6099H49.9705C50.563 18.6099 51.0427 18.0793 51.0427 17.4255V16.1409H50.1421C49.4902 16.1409 48.1237 16.1132 47.3164 15.51C46.2606 14.7414 46.3539 13.3695 46.3539 12.3817V6.53808H53.9292V13.8635C53.9292 15.7016 54.5191 16.7718 55.575 17.5397C56.5996 18.2806 57.7794 18.6099 59.9839 18.6099H61.1782C61.77 18.6099 62.2504 18.0793 62.2504 17.4255V16.1409H61.3498V16.1409Z" fill="#EE0033"/>
<path d="M39.1195 17.4269V16.1423H31.0782C29.743 16.1423 28.2218 15.9776 27.7559 14.4135C27.6313 13.9742 27.5386 13.0417 27.5386 12.4107H37.1016C37.7536 12.4107 38.3748 12.3008 38.8715 11.8622C39.5541 11.2589 39.6474 10.408 39.6474 9.66709C39.6474 7.829 39.2435 6.01788 37.3189 4.94837C35.7977 4.09746 33.8106 4.01514 31.8855 4.01514C30.333 4.01514 27.5386 4.01514 25.7381 5.38696C23.9375 6.75879 23.7822 8.76153 23.7822 11.4782C23.7822 13.3986 23.8755 15.4014 24.9621 16.7732C26.328 18.4743 28.3151 18.6113 29.9916 18.6113H38.0473C38.6397 18.6113 39.1195 18.0807 39.1195 17.4269ZM35.8904 9.09013C35.8904 9.47408 35.7971 9.94104 35.0832 9.94104H29.9165C28.6032 9.94104 27.5379 10.6045 27.5379 11.4229V9.94104C27.5693 8.98083 27.5379 8.18527 28.2832 7.44436C29.2764 6.45648 30.767 6.48415 31.7295 6.48415C32.7541 6.48415 33.934 6.5388 34.8345 7.14274C35.3625 7.49901 35.8904 8.18527 35.8904 9.09013Z" fill="#EE0033"/>
<path d="M78.3974 17.4269V16.1423H70.3562C69.021 16.1423 67.4998 15.9776 67.0338 14.4135C66.9092 13.9742 66.8159 13.0417 66.8159 12.4107H76.379C77.0309 12.4107 77.6515 12.3007 78.1488 11.8622C78.8314 11.2589 78.9254 10.408 78.9254 9.66709C78.9254 7.829 78.5214 6.01788 76.5963 4.94837C75.0751 4.09746 73.088 4.01514 71.1628 4.01514C69.6103 4.01514 66.8159 4.01514 65.0154 5.38696C63.2149 6.75879 63.0596 8.76153 63.0596 11.4782C63.0596 13.3986 63.1529 15.4014 64.2395 16.7732C65.6053 18.4743 67.5925 18.6113 69.269 18.6113H77.3246C77.9171 18.6113 78.3974 18.0807 78.3974 17.4269ZM75.1684 9.09013C75.1684 9.47408 75.0751 9.94104 74.3611 9.94104H69.1945C67.8812 9.94104 66.8159 10.6045 66.8159 11.4229V9.94104C66.8472 8.98083 66.8159 8.18527 67.5612 7.44436C68.5544 6.45648 70.0449 6.48415 71.0075 6.48415C72.0321 6.48415 73.212 6.5388 74.1125 7.14274C74.6405 7.49901 75.1684 8.18527 75.1684 9.09013Z" fill="#EE0033"/>
<path d="M20.6617 0H19.1737C18.5813 0 18.1016 0.529914 18.1016 1.18435V1.51226V4.06913H18.1166C18.2193 3.3974 18.9107 2.69661 19.9184 2.69661H20.6624C21.2542 2.69661 21.7345 2.16601 21.7345 1.51226V1.18435C21.7339 0.529914 21.2542 0 20.6617 0Z" fill="#EE0033"/>
<path d="M95.8967 22.0005H94.0273V8.8101C94.0273 8.1688 94.2052 7.71291 94.5615 7.44173C94.9179 7.17124 95.3851 7.03564 95.9637 7.03564H99.5021C100.452 7.03564 101.234 7.16432 101.85 7.42028C102.466 7.67694 102.959 8.04428 103.331 8.52162C103.701 8.99895 103.961 9.58698 104.109 10.285C104.257 10.9837 104.331 11.7744 104.331 12.6579C104.331 13.5413 104.257 14.3361 104.109 15.0411C103.961 15.7467 103.701 16.3451 103.331 16.8363C102.959 17.3282 102.466 17.7059 101.85 17.9694C101.234 18.233 100.452 18.3651 99.5021 18.3651H95.8967V22.0005V22.0005ZM95.8967 16.9124H99.1683C99.8804 16.9124 100.448 16.8058 100.871 16.5914C101.293 16.3776 101.616 16.0822 101.839 15.7045C102.062 15.3275 102.206 14.8785 102.273 14.3576C102.339 13.8374 102.373 13.2708 102.373 12.6579C102.373 12.0449 102.34 11.4818 102.273 10.9692C102.206 10.4559 102.061 10.018 101.839 9.65408C101.616 9.29089 101.293 9.00587 100.871 8.79903C100.448 8.59287 99.8798 8.4891 99.1683 8.4891H96.5869C96.3646 8.4891 96.1936 8.53545 96.0752 8.62815C95.9562 8.72085 95.8974 8.89519 95.8974 9.15184V16.9124H95.8967Z" fill="#EE0033"/>
<path d="M111.854 6.90674C112.908 6.90674 113.816 7.00636 114.58 7.20628C115.344 7.40621 115.971 7.72997 116.461 8.17895C116.951 8.62792 117.314 9.2194 117.551 9.9534C117.789 10.6881 117.907 11.5888 117.907 12.6576C117.907 13.7264 117.788 14.6348 117.551 15.3833C117.314 16.1311 116.951 16.7337 116.461 17.1896C115.971 17.6454 115.345 17.9775 114.58 18.1837C113.816 18.3898 112.908 18.4936 111.854 18.4936C110.801 18.4936 109.892 18.3898 109.128 18.1837C108.364 17.9768 107.737 17.6454 107.247 17.1896C106.758 16.7337 106.394 16.1311 106.157 15.3833C105.92 14.6348 105.801 13.7264 105.801 12.6576C105.801 11.5888 105.919 10.6874 106.157 9.9534C106.394 9.2194 106.758 8.62792 107.247 8.17895C107.737 7.72997 108.363 7.40621 109.128 7.20628C109.892 7.00705 110.8 6.90674 111.854 6.90674ZM107.759 12.6576C107.759 13.4559 107.833 14.1325 107.981 14.688C108.13 15.2435 108.363 15.6967 108.682 16.0453C109.001 16.3947 109.42 16.6479 109.94 16.8042C110.459 16.9613 111.097 17.0394 111.854 17.0394C112.61 17.0394 113.248 16.9613 113.767 16.8042C114.287 16.6479 114.706 16.3947 115.025 16.0453C115.344 15.6967 115.577 15.2435 115.726 14.688C115.874 14.1325 115.948 13.4553 115.948 12.6576C115.948 11.8593 115.874 11.1862 115.726 10.6376C115.577 10.089 115.344 9.64693 115.025 9.3121C114.706 8.97728 114.287 8.73515 113.767 8.58572C113.248 8.4356 112.61 8.36089 111.854 8.36089C111.097 8.36089 110.459 8.4356 109.94 8.58572C109.42 8.73515 109.001 8.97797 108.682 9.3121C108.363 9.64693 108.129 10.089 107.981 10.6376C107.833 11.1862 107.759 11.8593 107.759 12.6576Z" fill="#EE0033"/>
<path d="M119.486 16.9117H126.185C127.134 16.9117 127.609 16.4344 127.609 15.479C127.609 15.1801 127.543 14.938 127.409 14.7526C127.275 14.5672 127.086 14.4109 126.841 14.2822C126.596 14.1542 126.296 14.0435 125.94 13.9508C125.584 13.8581 125.176 13.755 124.716 13.6409L122.558 13.1276C121.43 12.8571 120.607 12.4828 120.088 12.0055C119.568 11.5282 119.309 10.8121 119.309 9.85747C119.309 8.9028 119.579 8.19371 120.121 7.73021C120.663 7.2674 121.452 7.03564 122.491 7.03564H128.879V8.4891H122.692C122.142 8.4891 121.753 8.59287 121.523 8.79903C121.293 9.00587 121.178 9.35869 121.178 9.85747C121.178 10.1709 121.234 10.4317 121.345 10.6378C121.456 10.8447 121.608 11.0155 121.801 11.1511C121.994 11.2867 122.224 11.3974 122.491 11.4825C122.758 11.5676 123.055 11.6534 123.381 11.7392L125.718 12.3161C126.311 12.4586 126.845 12.6011 127.32 12.7436C127.794 12.8861 128.199 13.0715 128.533 13.2998C128.867 13.5281 129.123 13.8131 129.301 14.1549C129.479 14.4973 129.568 14.9456 129.568 15.5018C129.568 15.9439 129.52 16.3389 129.423 16.6882C129.327 17.0376 129.167 17.3371 128.945 17.5862C128.722 17.8359 128.425 18.0282 128.054 18.1631C127.684 18.2987 127.216 18.3665 126.652 18.3665H119.486V16.9117H119.486Z" fill="#EE0033"/>
<path d="M135.598 18.3649C134.856 18.3649 134.244 18.2832 133.762 18.1193C133.28 17.9553 132.897 17.7167 132.616 17.4033C132.334 17.0899 132.133 16.7087 132.015 16.2597C131.896 15.8108 131.837 15.3016 131.837 14.7309V8.48882H130.101V7.03536H131.837V3.40137H133.706V7.03536H137V8.48882H133.706V14.6243C133.706 15.0664 133.754 15.4337 133.851 15.725C133.947 16.0169 134.096 16.2521 134.296 16.4306C134.496 16.6091 134.756 16.7336 135.074 16.8049C135.394 16.8761 135.775 16.9121 136.22 16.9121H137V18.3656H135.598V18.3649Z" fill="#EE0033"/>
</svg>
