<svg width="168" height="88" viewBox="0 0 168 88" fill="none" xmlns="http://www.w3.org/2000/svg">
<g filter="url(#filter0_d)">
<rect x="4" y="3" width="160" height="80.0005" rx="8" fill="white"/>
<path d="M84 46.9992C92.2843 46.9992 99 40.2837 99 31.9996C99 23.7156 92.2843 17 84 17C75.7157 17 69 23.7156 69 31.9996C69 40.2837 75.7157 46.9992 84 46.9992Z" fill="#EE596B"/>
<path d="M86.3731 46.8133C85.5997 46.9361 84.8079 47.0005 84.0008 47.0005C75.7163 47.0005 69 40.2844 69 32.0001C69 23.7158 75.7163 17.0012 84.0008 17.0012C84.8079 17.0012 85.5997 17.0657 86.3731 17.1884C79.2164 18.3255 73.746 24.523 73.746 32.0001C73.746 39.4772 79.2164 45.6763 86.3731 46.8133Z" fill="#ED3A4F"/>
<path d="M89.8327 33.6321C90.8549 33.6321 91.6836 32.255 91.6836 30.5564C91.6836 28.8577 90.8549 27.4807 89.8327 27.4807C88.8104 27.4807 87.9818 28.8577 87.9818 30.5564C87.9818 32.255 88.8104 33.6321 89.8327 33.6321Z" fill="black"/>
<path d="M78.1675 33.6321C79.1897 33.6321 80.0184 32.255 80.0184 30.5564C80.0184 28.8577 79.1897 27.4807 78.1675 27.4807C77.1453 27.4807 76.3166 28.8577 76.3166 30.5564C76.3166 32.255 77.1453 33.6321 78.1675 33.6321Z" fill="black"/>
<path d="M78.4925 37.6545C78.1929 37.9902 78.2222 38.5054 78.5579 38.8049C78.8937 39.1044 79.4087 39.0753 79.7084 38.7395C80.7996 37.5167 82.3638 36.8154 83.9999 36.8154C85.6361 36.8154 87.2002 37.5167 88.2915 38.7395C88.4524 38.9198 88.6756 39.0118 88.8997 39.0118C89.0928 39.0118 89.2866 38.9435 89.442 38.8049C89.7777 38.5053 89.807 37.9902 89.5074 37.6545C88.1072 36.0855 86.0999 35.1857 83.9999 35.1857C81.9 35.1857 79.8926 36.0855 78.4925 37.6545Z" fill="black"/>
<path d="M40.9328 59.3595L44.5338 54.9915C44.5858 54.9265 44.6508 54.8745 44.7288 54.8355C44.8111 54.7921 44.8978 54.7705 44.9888 54.7705C45.1534 54.7705 45.2943 54.829 45.4113 54.946C45.5283 55.063 45.5868 55.2038 45.5868 55.3685C45.5868 55.4465 45.5694 55.518 45.5348 55.583C45.5044 55.648 45.4654 55.7108 45.4178 55.7715L42.4018 59.3595L45.9248 63.1035C46.0374 63.2291 46.0938 63.3721 46.0938 63.5325C46.0938 63.6148 46.0764 63.6928 46.0418 63.7665C46.0114 63.8358 45.9659 63.8986 45.9053 63.955C45.8489 64.007 45.7818 64.0481 45.7038 64.0785C45.6301 64.1131 45.5521 64.1305 45.4698 64.1305C45.2921 64.1305 45.1404 64.0611 45.0148 63.9225L40.9328 59.3595V63.5325C40.9328 63.6148 40.9176 63.6928 40.8873 63.7665C40.8569 63.8358 40.8136 63.8986 40.7573 63.955C40.7053 64.007 40.6424 64.0481 40.5688 64.0785C40.4951 64.1131 40.4171 64.1305 40.3348 64.1305C40.1701 64.1305 40.0293 64.072 39.9123 63.955C39.7953 63.838 39.7368 63.6971 39.7368 63.5325V55.3685C39.7368 55.2038 39.7953 55.063 39.9123 54.946C40.0293 54.829 40.1701 54.7705 40.3348 54.7705C40.4171 54.7705 40.4951 54.7878 40.5688 54.8225C40.6424 54.8528 40.7053 54.8961 40.7573 54.9525C40.8136 55.0045 40.8569 55.0673 40.8873 55.141C40.9176 55.2103 40.9328 55.2861 40.9328 55.3685V59.3595ZM48.3692 58.7095C48.8155 58.1028 49.4179 57.7995 50.1762 57.7995C50.4709 57.7995 50.7525 57.8536 51.0212 57.962C51.2899 58.066 51.526 58.2198 51.7297 58.4235C51.9334 58.6228 52.0959 58.8676 52.2172 59.158C52.3385 59.444 52.3992 59.7668 52.3992 60.1265V63.5845C52.3992 63.7361 52.345 63.8661 52.2367 63.9745C52.1327 64.0785 52.0049 64.1305 51.8532 64.1305C51.7015 64.1305 51.5715 64.0785 51.4632 63.9745C51.3592 63.8661 51.3072 63.7361 51.3072 63.5845V60.3605C51.3072 60.1351 51.2704 59.925 51.1967 59.73C51.1274 59.535 51.0277 59.366 50.8977 59.223C50.7677 59.08 50.6117 58.9673 50.4297 58.885C50.252 58.8026 50.0549 58.7615 49.8382 58.7615C49.6215 58.7615 49.4222 58.8026 49.2402 58.885C49.0625 58.963 48.9087 59.0735 48.7787 59.2165C48.6487 59.3595 48.5469 59.5285 48.4732 59.7235C48.4039 59.9141 48.3692 60.1221 48.3692 60.3475V63.5845C48.3692 63.7361 48.315 63.8661 48.2067 63.9745C48.1027 64.0785 47.9749 64.1305 47.8232 64.1305C47.6715 64.1305 47.5415 64.0785 47.4332 63.9745C47.3292 63.8661 47.2772 63.7361 47.2772 63.5845V54.6925C47.2772 54.5408 47.3292 54.413 47.4332 54.309C47.5415 54.2006 47.6715 54.1465 47.8232 54.1465C47.9749 54.1465 48.1027 54.2006 48.2067 54.309C48.315 54.413 48.3692 54.5408 48.3692 54.6925V58.7095ZM55.0372 60.9585C55.0372 61.2705 55.0935 61.5586 55.2062 61.823C55.3188 62.0873 55.4727 62.3148 55.6677 62.5055C55.867 62.6961 56.101 62.8456 56.3697 62.954C56.6383 63.0623 56.9265 63.1165 57.2342 63.1165C57.5418 63.1165 57.83 63.0623 58.0987 62.954C58.3673 62.8456 58.6013 62.6961 58.8007 62.5055C59 62.3148 59.156 62.0873 59.2687 61.823C59.3857 61.5586 59.4442 61.2705 59.4442 60.9585C59.4442 60.6465 59.3857 60.3605 59.2687 60.1005C59.156 59.8361 59 59.6086 58.8007 59.418C58.6013 59.2273 58.3673 59.08 58.0987 58.976C57.83 58.8676 57.5418 58.8135 57.2342 58.8135C56.9265 58.8135 56.6383 58.8676 56.3697 58.976C56.101 59.08 55.867 59.2273 55.6677 59.418C55.4727 59.6086 55.3188 59.8361 55.2062 60.1005C55.0935 60.3605 55.0372 60.6465 55.0372 60.9585ZM53.9322 60.9585C53.9322 60.5078 54.0167 60.0896 54.1857 59.704C54.359 59.3183 54.5952 58.9846 54.8942 58.703C55.1932 58.4213 55.542 58.2003 55.9407 58.04C56.3437 57.8796 56.7748 57.7995 57.2342 57.7995C57.6935 57.7995 58.1225 57.8796 58.5212 58.04C58.9242 58.2003 59.2752 58.4213 59.5742 58.703C59.8732 58.9846 60.1072 59.3183 60.2762 59.704C60.4495 60.0896 60.5362 60.5078 60.5362 60.9585C60.5362 61.4135 60.4495 61.836 60.2762 62.226C60.1072 62.6116 59.8732 62.9453 59.5742 63.227C59.2752 63.5086 58.9242 63.7296 58.5212 63.89C58.1225 64.0503 57.6935 64.1305 57.2342 64.1305C56.7748 64.1305 56.3437 64.0503 55.9407 63.89C55.542 63.7296 55.1932 63.5086 54.8942 63.227C54.5952 62.9453 54.359 62.6116 54.1857 62.226C54.0167 61.836 53.9322 61.4135 53.9322 60.9585ZM55.9862 56.8895C55.8952 56.9675 55.7868 57.0065 55.6612 57.0065C55.5442 57.0065 55.4467 56.9696 55.3687 56.896C55.295 56.818 55.2582 56.7205 55.2582 56.6035C55.2582 56.5255 55.2733 56.4583 55.3037 56.402C55.3383 56.3413 55.3795 56.2915 55.4272 56.2525L57.0132 54.7315C57.0392 54.7055 57.0673 54.6795 57.0977 54.6535C57.1323 54.6275 57.1735 54.6145 57.2212 54.6145C57.2688 54.6145 57.3078 54.6275 57.3382 54.6535C57.3728 54.6795 57.4032 54.7055 57.4292 54.7315L59.0152 56.2525C59.0628 56.3001 59.1018 56.3521 59.1322 56.4085C59.1668 56.4605 59.1842 56.5255 59.1842 56.6035C59.1842 56.7205 59.1452 56.818 59.0672 56.896C58.9935 56.9696 58.8982 57.0065 58.7812 57.0065C58.6555 57.0065 58.5472 56.9675 58.4562 56.8895L57.2212 55.6935L55.9862 56.8895ZM63.2354 58.6575C63.4521 58.3628 63.7121 58.1461 64.0154 58.0075C64.3187 57.8688 64.6611 57.7995 65.0424 57.7995C65.3371 57.7995 65.6187 57.8536 65.8874 57.962C66.1561 58.066 66.3922 58.2198 66.5959 58.4235C66.7996 58.6228 66.9621 58.8676 67.0834 59.158C67.2047 59.444 67.2654 59.7668 67.2654 60.1265V63.5845C67.2654 63.7361 67.2112 63.8661 67.1029 63.9745C66.9989 64.0785 66.8711 64.1305 66.7194 64.1305C66.5677 64.1305 66.4377 64.0785 66.3294 63.9745C66.2254 63.8661 66.1734 63.7361 66.1734 63.5845V60.3735C66.1734 60.1438 66.1366 59.9315 66.0629 59.7365C65.9892 59.5371 65.8874 59.366 65.7574 59.223C65.6274 59.08 65.4714 58.9673 65.2894 58.885C65.1117 58.8026 64.9167 58.7615 64.7044 58.7615C64.4877 58.7615 64.2884 58.8005 64.1064 58.8785C63.9287 58.9565 63.7749 59.0648 63.6449 59.2035C63.5149 59.3421 63.4131 59.5068 63.3394 59.6975C63.2701 59.8881 63.2354 60.0961 63.2354 60.3215V63.5845C63.2354 63.7361 63.1812 63.8661 63.0729 63.9745C62.9689 64.0785 62.8411 64.1305 62.6894 64.1305C62.5377 64.1305 62.4077 64.0785 62.2994 63.9745C62.1954 63.8661 62.1434 63.7361 62.1434 63.5845V58.3455C62.1434 58.1938 62.1954 58.066 62.2994 57.962C62.4077 57.8536 62.5377 57.7995 62.6894 57.7995C62.8411 57.7995 62.9689 57.8536 63.0729 57.962C63.1812 58.066 63.2354 58.1938 63.2354 58.3455V58.6575ZM69.2924 66.0935C69.2924 65.9505 69.3422 65.827 69.4419 65.723C69.5415 65.6233 69.6564 65.5735 69.7864 65.5735C69.8904 65.5735 69.9792 65.5995 70.0529 65.6515C70.1265 65.7035 70.1937 65.7728 70.2544 65.8595C70.445 66.1195 70.692 66.3253 70.9954 66.477C71.303 66.6286 71.641 66.7045 72.0094 66.7045C72.3517 66.7045 72.668 66.6546 72.9584 66.555C73.253 66.4596 73.5044 66.3036 73.7124 66.087C73.9247 65.8703 74.0894 65.5886 74.2064 65.242C74.3277 64.8953 74.3884 64.4728 74.3884 63.9745V62.9085C74.1197 63.3158 73.7752 63.6213 73.3549 63.825C72.9389 64.0286 72.4687 64.1305 71.9444 64.1305C71.511 64.1305 71.1037 64.0503 70.7224 63.89C70.341 63.7296 70.0074 63.5086 69.7214 63.227C69.4354 62.9453 69.21 62.6116 69.0454 62.226C68.8807 61.836 68.7984 61.4135 68.7984 60.9585C68.7984 60.5078 68.8807 60.0896 69.0454 59.704C69.21 59.3183 69.4354 58.9846 69.7214 58.703C70.0074 58.4213 70.341 58.2003 70.7224 58.04C71.1037 57.8796 71.511 57.7995 71.9444 57.7995C72.4687 57.7995 72.941 57.9013 73.3614 58.105C73.786 58.3086 74.1284 58.6141 74.3884 59.0215V58.3455C74.3884 58.1938 74.4404 58.066 74.5444 57.962C74.6527 57.8536 74.7827 57.7995 74.9344 57.7995C75.086 57.7995 75.2139 57.8536 75.3179 57.962C75.4262 58.066 75.4804 58.1938 75.4804 58.3455V63.8445C75.4804 64.5681 75.3894 65.1748 75.2074 65.6645C75.0297 66.1541 74.7849 66.5463 74.4729 66.841C74.1609 67.14 73.7925 67.3523 73.3679 67.478C72.9475 67.6036 72.4947 67.6665 72.0094 67.6665C71.771 67.6665 71.537 67.6426 71.3074 67.595C71.0777 67.5516 70.8545 67.4823 70.6379 67.387C70.4212 67.2916 70.2132 67.1681 70.0139 67.0165C69.8189 66.8691 69.6347 66.6915 69.4614 66.4835C69.4137 66.4228 69.3725 66.36 69.3379 66.295C69.3075 66.2343 69.2924 66.1671 69.2924 66.0935ZM74.3494 60.9585C74.3494 60.6465 74.2909 60.3561 74.1739 60.0875C74.0569 59.8188 73.8965 59.587 73.6929 59.392C73.4935 59.197 73.2574 59.0431 72.9844 58.9305C72.7157 58.8178 72.4297 58.7615 72.1264 58.7615C71.8187 58.7615 71.5284 58.8178 71.2554 58.9305C70.9824 59.0431 70.744 59.197 70.5404 59.392C70.341 59.587 70.1829 59.8188 70.0659 60.0875C69.9489 60.3561 69.8904 60.6465 69.8904 60.9585C69.8904 61.2748 69.9489 61.5673 70.0659 61.836C70.1829 62.1046 70.341 62.3386 70.5404 62.538C70.744 62.733 70.9824 62.8868 71.2554 62.9995C71.5284 63.1121 71.8187 63.1685 72.1264 63.1685C72.4297 63.1685 72.7157 63.1121 72.9844 62.9995C73.2574 62.8868 73.4935 62.733 73.6929 62.538C73.8965 62.3386 74.0569 62.1046 74.1739 61.836C74.2909 61.5673 74.3494 61.2748 74.3494 60.9585ZM82.4942 58.7095C82.9405 58.1028 83.5429 57.7995 84.3012 57.7995C84.5959 57.7995 84.8775 57.8536 85.1462 57.962C85.4149 58.066 85.651 58.2198 85.8547 58.4235C86.0584 58.6228 86.2209 58.8676 86.3422 59.158C86.4635 59.444 86.5242 59.7668 86.5242 60.1265V63.5845C86.5242 63.7361 86.47 63.8661 86.3617 63.9745C86.2577 64.0785 86.1299 64.1305 85.9782 64.1305C85.8265 64.1305 85.6965 64.0785 85.5882 63.9745C85.4842 63.8661 85.4322 63.7361 85.4322 63.5845V60.3605C85.4322 60.1351 85.3954 59.925 85.3217 59.73C85.2524 59.535 85.1527 59.366 85.0227 59.223C84.8927 59.08 84.7367 58.9673 84.5547 58.885C84.377 58.8026 84.1799 58.7615 83.9632 58.7615C83.7465 58.7615 83.5472 58.8026 83.3652 58.885C83.1875 58.963 83.0337 59.0735 82.9037 59.2165C82.7737 59.3595 82.6719 59.5285 82.5982 59.7235C82.5289 59.9141 82.4942 60.1221 82.4942 60.3475V63.5845C82.4942 63.7361 82.44 63.8661 82.3317 63.9745C82.2277 64.0785 82.0999 64.1305 81.9482 64.1305C81.7965 64.1305 81.6665 64.0785 81.5582 63.9745C81.4542 63.8661 81.4022 63.7361 81.4022 63.5845V54.6925C81.4022 54.5408 81.4542 54.413 81.5582 54.309C81.6665 54.2006 81.7965 54.1465 81.9482 54.1465C82.0999 54.1465 82.2277 54.2006 82.3317 54.309C82.44 54.413 82.4942 54.5408 82.4942 54.6925V58.7095ZM93.6472 58.3455C93.6472 58.1938 93.6992 58.066 93.8032 57.962C93.9115 57.8536 94.0415 57.7995 94.1932 57.7995C94.3448 57.7995 94.4727 57.8536 94.5767 57.962C94.685 58.066 94.7392 58.1938 94.7392 58.3455V63.5845C94.7392 63.7361 94.685 63.8661 94.5767 63.9745C94.4727 64.0785 94.3448 64.1305 94.1932 64.1305C94.0415 64.1305 93.9115 64.0785 93.8032 63.9745C93.6992 63.8661 93.6472 63.7361 93.6472 63.5845V62.9085C93.3785 63.3158 93.034 63.6213 92.6137 63.825C92.1977 64.0286 91.7275 64.1305 91.2032 64.1305C90.7698 64.1305 90.3625 64.0503 89.9812 63.89C89.5998 63.7296 89.2662 63.5086 88.9802 63.227C88.6942 62.9453 88.4688 62.6116 88.3042 62.226C88.1395 61.836 88.0572 61.4135 88.0572 60.9585C88.0572 60.5078 88.1395 60.0896 88.3042 59.704C88.4688 59.3183 88.6942 58.9846 88.9802 58.703C89.2662 58.4213 89.5998 58.2003 89.9812 58.04C90.3625 57.8796 90.7698 57.7995 91.2032 57.7995C91.7275 57.7995 92.1998 57.9013 92.6202 58.105C93.0448 58.3086 93.3872 58.6141 93.6472 59.0215V58.3455ZM93.6082 60.9585C93.6082 60.6465 93.5497 60.3561 93.4327 60.0875C93.3157 59.8188 93.1553 59.587 92.9517 59.392C92.7523 59.197 92.5162 59.0431 92.2432 58.9305C91.9745 58.8178 91.6885 58.7615 91.3852 58.7615C91.0775 58.7615 90.7872 58.8178 90.5142 58.9305C90.2412 59.0431 90.0028 59.197 89.7992 59.392C89.5998 59.587 89.4417 59.8188 89.3247 60.0875C89.2077 60.3561 89.1492 60.6465 89.1492 60.9585C89.1492 61.2748 89.2077 61.5673 89.3247 61.836C89.4417 62.1046 89.5998 62.3386 89.7992 62.538C90.0028 62.733 90.2412 62.8868 90.5142 62.9995C90.7872 63.1121 91.0775 63.1685 91.3852 63.1685C91.6885 63.1685 91.9745 63.1121 92.2432 62.9995C92.5162 62.8868 92.7523 62.733 92.9517 62.538C93.1553 62.3386 93.3157 62.1046 93.4327 61.836C93.5497 61.5673 93.6082 61.2748 93.6082 60.9585ZM90.2282 55.0435C90.2282 54.9265 90.2672 54.8268 90.3452 54.7445C90.4275 54.6578 90.5272 54.6145 90.6442 54.6145C90.7525 54.6145 90.8565 54.6578 90.9562 54.7445L92.5422 56.2655C92.5942 56.3131 92.6353 56.363 92.6657 56.415C92.696 56.467 92.7112 56.5298 92.7112 56.6035C92.7112 56.7205 92.67 56.8201 92.5877 56.9025C92.5097 56.9805 92.4122 57.0195 92.2952 57.0195C92.2345 57.0195 92.1782 57.0086 92.1262 56.987C92.0785 56.9653 92.0352 56.9371 91.9962 56.9025L90.3582 55.3555C90.3105 55.3165 90.2758 55.271 90.2542 55.219C90.2368 55.1626 90.2282 55.1041 90.2282 55.0435ZM98.1285 55.4595C98.1285 55.5678 98.109 55.6675 98.07 55.7585C98.031 55.8495 97.9768 55.9296 97.9075 55.999C97.8425 56.064 97.7645 56.116 97.6735 56.155C97.5825 56.194 97.4872 56.2135 97.3875 56.2135C97.2835 56.2135 97.186 56.194 97.095 56.155C97.004 56.116 96.9238 56.064 96.8545 55.999C96.7852 55.9296 96.731 55.8495 96.692 55.7585C96.653 55.6675 96.6335 55.5678 96.6335 55.4595C96.6335 55.3555 96.653 55.258 96.692 55.167C96.731 55.076 96.7852 54.998 96.8545 54.933C96.9238 54.868 97.004 54.816 97.095 54.777C97.186 54.738 97.2835 54.7185 97.3875 54.7185C97.4872 54.7185 97.5825 54.738 97.6735 54.777C97.7645 54.816 97.8425 54.868 97.9075 54.933C97.9768 54.998 98.031 55.076 98.07 55.167C98.109 55.258 98.1285 55.3555 98.1285 55.4595ZM96.8285 58.3455C96.8285 58.1938 96.8827 58.066 96.991 57.962C97.0993 57.8536 97.2315 57.7995 97.3875 57.7995C97.5392 57.7995 97.667 57.8536 97.771 57.962C97.8793 58.066 97.9335 58.1938 97.9335 58.3455V63.5845C97.9335 63.7361 97.8793 63.8661 97.771 63.9745C97.667 64.0785 97.5392 64.1305 97.3875 64.1305C97.2315 64.1305 97.0993 64.0785 96.991 63.9745C96.8827 63.8661 96.8285 63.7361 96.8285 63.5845V58.3455ZM103.988 54.6925C103.988 54.5408 104.04 54.413 104.144 54.309C104.253 54.2006 104.383 54.1465 104.534 54.1465C104.686 54.1465 104.816 54.2006 104.924 54.309C105.037 54.413 105.093 54.5408 105.093 54.6925V63.5845C105.093 63.7361 105.037 63.8661 104.924 63.9745C104.816 64.0785 104.686 64.1305 104.534 64.1305C104.383 64.1305 104.253 64.0785 104.144 63.9745C104.04 63.8661 103.988 63.7361 103.988 63.5845V54.6925ZM107.85 60.9585C107.85 61.2705 107.906 61.5586 108.019 61.823C108.131 62.0873 108.285 62.3148 108.48 62.5055C108.68 62.6961 108.914 62.8456 109.182 62.954C109.451 63.0623 109.739 63.1165 110.047 63.1165C110.354 63.1165 110.643 63.0623 110.911 62.954C111.18 62.8456 111.414 62.6961 111.613 62.5055C111.813 62.3148 111.969 62.0873 112.081 61.823C112.198 61.5586 112.257 61.2705 112.257 60.9585C112.257 60.6465 112.198 60.3605 112.081 60.1005C111.969 59.8361 111.813 59.6086 111.613 59.418C111.414 59.2273 111.18 59.08 110.911 58.976C110.643 58.8676 110.354 58.8135 110.047 58.8135C109.739 58.8135 109.451 58.8676 109.182 58.976C108.914 59.08 108.68 59.2273 108.48 59.418C108.285 59.6086 108.131 59.8361 108.019 60.1005C107.906 60.3605 107.85 60.6465 107.85 60.9585ZM106.745 60.9585C106.745 60.5078 106.829 60.0896 106.998 59.704C107.172 59.3183 107.408 58.9846 107.707 58.703C108.006 58.4213 108.355 58.2003 108.753 58.04C109.156 57.8796 109.587 57.7995 110.047 57.7995C110.506 57.7995 110.935 57.8796 111.334 58.04C111.737 58.2003 112.088 58.4213 112.387 58.703C112.686 58.9846 112.92 59.3183 113.089 59.704C113.262 60.0896 113.349 60.5078 113.349 60.9585C113.349 61.4135 113.262 61.836 113.089 62.226C112.92 62.6116 112.686 62.9453 112.387 63.227C112.088 63.5086 111.737 63.7296 111.334 63.89C110.935 64.0503 110.506 64.1305 110.047 64.1305C109.587 64.1305 109.156 64.0503 108.753 63.89C108.355 63.7296 108.006 63.5086 107.707 63.227C107.408 62.9453 107.172 62.6116 106.998 62.226C106.829 61.836 106.745 61.4135 106.745 60.9585ZM108.669 55.0435C108.669 54.9265 108.708 54.8268 108.786 54.7445C108.868 54.6578 108.968 54.6145 109.085 54.6145C109.193 54.6145 109.297 54.6578 109.397 54.7445L110.983 56.2655C111.035 56.3131 111.076 56.363 111.106 56.415C111.137 56.467 111.152 56.5298 111.152 56.6035C111.152 56.7205 111.111 56.8201 111.028 56.9025C110.95 56.9805 110.853 57.0195 110.736 57.0195C110.675 57.0195 110.619 57.0086 110.567 56.987C110.519 56.9653 110.476 56.9371 110.437 56.9025L108.799 55.3555C108.751 55.3165 108.716 55.271 108.695 55.219C108.677 55.1626 108.669 55.1041 108.669 55.0435ZM116.048 58.6575C116.265 58.3628 116.525 58.1461 116.828 58.0075C117.131 57.8688 117.474 57.7995 117.855 57.7995C118.15 57.7995 118.431 57.8536 118.7 57.962C118.969 58.066 119.205 58.2198 119.408 58.4235C119.612 58.6228 119.775 58.8676 119.896 59.158C120.017 59.444 120.078 59.7668 120.078 60.1265V63.5845C120.078 63.7361 120.024 63.8661 119.915 63.9745C119.811 64.0785 119.684 64.1305 119.532 64.1305C119.38 64.1305 119.25 64.0785 119.142 63.9745C119.038 63.8661 118.986 63.7361 118.986 63.5845V60.3735C118.986 60.1438 118.949 59.9315 118.875 59.7365C118.802 59.5371 118.7 59.366 118.57 59.223C118.44 59.08 118.284 58.9673 118.102 58.885C117.924 58.8026 117.729 58.7615 117.517 58.7615C117.3 58.7615 117.101 58.8005 116.919 58.8785C116.741 58.9565 116.587 59.0648 116.457 59.2035C116.327 59.3421 116.226 59.5068 116.152 59.6975C116.083 59.8881 116.048 60.0961 116.048 60.3215V63.5845C116.048 63.7361 115.994 63.8661 115.885 63.9745C115.781 64.0785 115.654 64.1305 115.502 64.1305C115.35 64.1305 115.22 64.0785 115.112 63.9745C115.008 63.8661 114.956 63.7361 114.956 63.5845V58.3455C114.956 58.1938 115.008 58.066 115.112 57.962C115.22 57.8536 115.35 57.7995 115.502 57.7995C115.654 57.7995 115.781 57.8536 115.885 57.962C115.994 58.066 116.048 58.1938 116.048 58.3455V58.6575ZM122.105 66.0935C122.105 65.9505 122.155 65.827 122.254 65.723C122.354 65.6233 122.469 65.5735 122.599 65.5735C122.703 65.5735 122.792 65.5995 122.865 65.6515C122.939 65.7035 123.006 65.7728 123.067 65.8595C123.258 66.1195 123.505 66.3253 123.808 66.477C124.116 66.6286 124.454 66.7045 124.822 66.7045C125.164 66.7045 125.481 66.6546 125.771 66.555C126.066 66.4596 126.317 66.3036 126.525 66.087C126.737 65.8703 126.902 65.5886 127.019 65.242C127.14 64.8953 127.201 64.4728 127.201 63.9745V62.9085C126.932 63.3158 126.588 63.6213 126.167 63.825C125.751 64.0286 125.281 64.1305 124.757 64.1305C124.324 64.1305 123.916 64.0503 123.535 63.89C123.154 63.7296 122.82 63.5086 122.534 63.227C122.248 62.9453 122.023 62.6116 121.858 62.226C121.693 61.836 121.611 61.4135 121.611 60.9585C121.611 60.5078 121.693 60.0896 121.858 59.704C122.023 59.3183 122.248 58.9846 122.534 58.703C122.82 58.4213 123.154 58.2003 123.535 58.04C123.916 57.8796 124.324 57.7995 124.757 57.7995C125.281 57.7995 125.754 57.9013 126.174 58.105C126.599 58.3086 126.941 58.6141 127.201 59.0215V58.3455C127.201 58.1938 127.253 58.066 127.357 57.962C127.465 57.8536 127.595 57.7995 127.747 57.7995C127.899 57.7995 128.026 57.8536 128.13 57.962C128.239 58.066 128.293 58.1938 128.293 58.3455V63.8445C128.293 64.5681 128.202 65.1748 128.02 65.6645C127.842 66.1541 127.597 66.5463 127.285 66.841C126.973 67.14 126.605 67.3523 126.18 67.478C125.76 67.6036 125.307 67.6665 124.822 67.6665C124.584 67.6665 124.35 67.6426 124.12 67.595C123.89 67.5516 123.667 67.4823 123.45 67.387C123.234 67.2916 123.026 67.1681 122.826 67.0165C122.631 66.8691 122.447 66.6915 122.274 66.4835C122.226 66.4228 122.185 66.36 122.15 66.295C122.12 66.2343 122.105 66.1671 122.105 66.0935ZM127.162 60.9585C127.162 60.6465 127.103 60.3561 126.986 60.0875C126.869 59.8188 126.709 59.587 126.505 59.392C126.306 59.197 126.07 59.0431 125.797 58.9305C125.528 58.8178 125.242 58.7615 124.939 58.7615C124.631 58.7615 124.341 58.8178 124.068 58.9305C123.795 59.0431 123.557 59.197 123.353 59.392C123.154 59.587 122.995 59.8188 122.878 60.0875C122.761 60.3561 122.703 60.6465 122.703 60.9585C122.703 61.2748 122.761 61.5673 122.878 61.836C122.995 62.1046 123.154 62.3386 123.353 62.538C123.557 62.733 123.795 62.8868 124.068 62.9995C124.341 63.1121 124.631 63.1685 124.939 63.1685C125.242 63.1685 125.528 63.1121 125.797 62.9995C126.07 62.8868 126.306 62.733 126.505 62.538C126.709 62.3386 126.869 62.1046 126.986 61.836C127.103 61.5673 127.162 61.2748 127.162 60.9585Z" fill="#E33B3B"/>
<rect x="4.5" y="3.5" width="159" height="79.0005" rx="7.5" stroke="#E33B3B"/>
</g>
<defs>
<filter id="filter0_d" x="0" y="0" width="168" height="88.0005" filterUnits="userSpaceOnUse" color-interpolation-filters="sRGB">
<feFlood flood-opacity="0" result="BackgroundImageFix"/>
<feColorMatrix in="SourceAlpha" type="matrix" values="0 0 0 0 0 0 0 0 0 0 0 0 0 0 0 0 0 0 127 0"/>
<feOffset dy="1"/>
<feGaussianBlur stdDeviation="2"/>
<feColorMatrix type="matrix" values="0 0 0 0 0 0 0 0 0 0 0 0 0 0 0 0 0 0 0.1 0"/>
<feBlend mode="normal" in2="BackgroundImageFix" result="effect1_dropShadow"/>
<feBlend mode="normal" in="SourceGraphic" in2="effect1_dropShadow" result="shape"/>
</filter>
</defs>
</svg>
