<svg width="160" height="80" viewBox="0 0 160 80" fill="none" xmlns="http://www.w3.org/2000/svg">
<rect x="0.5" y="0.5" width="159" height="79.0005" rx="7.5" fill="white"/>
<path d="M80 43.9992C88.2843 43.9992 95 37.2837 95 28.9996C95 20.7156 88.2843 14 80 14C71.7157 14 65 20.7156 65 28.9996C65 37.2837 71.7157 43.9992 80 43.9992Z" fill="#EE596B"/>
<path d="M82.3731 43.8133C81.5997 43.9361 80.8079 44.0005 80.0008 44.0005C71.7163 44.0005 65 37.2844 65 29.0001C65 20.7158 71.7163 14.0012 80.0008 14.0012C80.8079 14.0012 81.5997 14.0657 82.3731 14.1884C75.2164 15.3255 69.746 21.523 69.746 29.0001C69.746 36.4772 75.2164 42.6763 82.3731 43.8133Z" fill="#ED3A4F"/>
<path d="M85.8327 30.6321C86.8549 30.6321 87.6836 29.255 87.6836 27.5564C87.6836 25.8577 86.8549 24.4807 85.8327 24.4807C84.8104 24.4807 83.9818 25.8577 83.9818 27.5564C83.9818 29.255 84.8104 30.6321 85.8327 30.6321Z" fill="black"/>
<path d="M74.1675 30.6321C75.1897 30.6321 76.0184 29.255 76.0184 27.5564C76.0184 25.8577 75.1897 24.4807 74.1675 24.4807C73.1453 24.4807 72.3166 25.8577 72.3166 27.5564C72.3166 29.255 73.1453 30.6321 74.1675 30.6321Z" fill="black"/>
<path d="M74.4925 34.6545C74.1929 34.9902 74.2222 35.5054 74.5579 35.8049C74.8937 36.1044 75.4087 36.0753 75.7084 35.7395C76.7996 34.5167 78.3638 33.8154 79.9999 33.8154C81.6361 33.8154 83.2002 34.5167 84.2915 35.7395C84.4524 35.9198 84.6756 36.0118 84.8997 36.0118C85.0928 36.0118 85.2866 35.9435 85.442 35.8049C85.7777 35.5053 85.807 34.9902 85.5074 34.6545C84.1072 33.0855 82.0999 32.1857 79.9999 32.1857C77.9 32.1857 75.8926 33.0855 74.4925 34.6545Z" fill="black"/>
<path d="M36.9328 56.3595L40.5338 51.9915C40.5858 51.9265 40.6508 51.8745 40.7288 51.8355C40.8111 51.7921 40.8978 51.7705 40.9888 51.7705C41.1534 51.7705 41.2943 51.829 41.4113 51.946C41.5283 52.063 41.5868 52.2038 41.5868 52.3685C41.5868 52.4465 41.5694 52.518 41.5348 52.583C41.5044 52.648 41.4654 52.7108 41.4178 52.7715L38.4018 56.3595L41.9248 60.1035C42.0374 60.2291 42.0938 60.3721 42.0938 60.5325C42.0938 60.6148 42.0764 60.6928 42.0418 60.7665C42.0114 60.8358 41.9659 60.8986 41.9053 60.955C41.8489 61.007 41.7818 61.0481 41.7038 61.0785C41.6301 61.1131 41.5521 61.1305 41.4698 61.1305C41.2921 61.1305 41.1404 61.0611 41.0148 60.9225L36.9328 56.3595V60.5325C36.9328 60.6148 36.9176 60.6928 36.8873 60.7665C36.8569 60.8358 36.8136 60.8986 36.7573 60.955C36.7053 61.007 36.6424 61.0481 36.5688 61.0785C36.4951 61.1131 36.4171 61.1305 36.3348 61.1305C36.1701 61.1305 36.0293 61.072 35.9123 60.955C35.7953 60.838 35.7368 60.6971 35.7368 60.5325V52.3685C35.7368 52.2038 35.7953 52.063 35.9123 51.946C36.0293 51.829 36.1701 51.7705 36.3348 51.7705C36.4171 51.7705 36.4951 51.7878 36.5688 51.8225C36.6424 51.8528 36.7053 51.8961 36.7573 51.9525C36.8136 52.0045 36.8569 52.0673 36.8873 52.141C36.9176 52.2103 36.9328 52.2861 36.9328 52.3685V56.3595ZM44.3692 55.7095C44.8155 55.1028 45.4179 54.7995 46.1762 54.7995C46.4709 54.7995 46.7525 54.8536 47.0212 54.962C47.2899 55.066 47.526 55.2198 47.7297 55.4235C47.9334 55.6228 48.0959 55.8676 48.2172 56.158C48.3385 56.444 48.3992 56.7668 48.3992 57.1265V60.5845C48.3992 60.7361 48.345 60.8661 48.2367 60.9745C48.1327 61.0785 48.0049 61.1305 47.8532 61.1305C47.7015 61.1305 47.5715 61.0785 47.4632 60.9745C47.3592 60.8661 47.3072 60.7361 47.3072 60.5845V57.3605C47.3072 57.1351 47.2704 56.925 47.1967 56.73C47.1274 56.535 47.0277 56.366 46.8977 56.223C46.7677 56.08 46.6117 55.9673 46.4297 55.885C46.252 55.8026 46.0549 55.7615 45.8382 55.7615C45.6215 55.7615 45.4222 55.8026 45.2402 55.885C45.0625 55.963 44.9087 56.0735 44.7787 56.2165C44.6487 56.3595 44.5469 56.5285 44.4732 56.7235C44.4039 56.9141 44.3692 57.1221 44.3692 57.3475V60.5845C44.3692 60.7361 44.315 60.8661 44.2067 60.9745C44.1027 61.0785 43.9749 61.1305 43.8232 61.1305C43.6715 61.1305 43.5415 61.0785 43.4332 60.9745C43.3292 60.8661 43.2772 60.7361 43.2772 60.5845V51.6925C43.2772 51.5408 43.3292 51.413 43.4332 51.309C43.5415 51.2006 43.6715 51.1465 43.8232 51.1465C43.9749 51.1465 44.1027 51.2006 44.2067 51.309C44.315 51.413 44.3692 51.5408 44.3692 51.6925V55.7095ZM51.0372 57.9585C51.0372 58.2705 51.0935 58.5586 51.2062 58.823C51.3188 59.0873 51.4727 59.3148 51.6677 59.5055C51.867 59.6961 52.101 59.8456 52.3697 59.954C52.6383 60.0623 52.9265 60.1165 53.2342 60.1165C53.5418 60.1165 53.83 60.0623 54.0987 59.954C54.3673 59.8456 54.6013 59.6961 54.8007 59.5055C55 59.3148 55.156 59.0873 55.2687 58.823C55.3857 58.5586 55.4442 58.2705 55.4442 57.9585C55.4442 57.6465 55.3857 57.3605 55.2687 57.1005C55.156 56.8361 55 56.6086 54.8007 56.418C54.6013 56.2273 54.3673 56.08 54.0987 55.976C53.83 55.8676 53.5418 55.8135 53.2342 55.8135C52.9265 55.8135 52.6383 55.8676 52.3697 55.976C52.101 56.08 51.867 56.2273 51.6677 56.418C51.4727 56.6086 51.3188 56.8361 51.2062 57.1005C51.0935 57.3605 51.0372 57.6465 51.0372 57.9585ZM49.9322 57.9585C49.9322 57.5078 50.0167 57.0896 50.1857 56.704C50.359 56.3183 50.5952 55.9846 50.8942 55.703C51.1932 55.4213 51.542 55.2003 51.9407 55.04C52.3437 54.8796 52.7748 54.7995 53.2342 54.7995C53.6935 54.7995 54.1225 54.8796 54.5212 55.04C54.9242 55.2003 55.2752 55.4213 55.5742 55.703C55.8732 55.9846 56.1072 56.3183 56.2762 56.704C56.4495 57.0896 56.5362 57.5078 56.5362 57.9585C56.5362 58.4135 56.4495 58.836 56.2762 59.226C56.1072 59.6116 55.8732 59.9453 55.5742 60.227C55.2752 60.5086 54.9242 60.7296 54.5212 60.89C54.1225 61.0503 53.6935 61.1305 53.2342 61.1305C52.7748 61.1305 52.3437 61.0503 51.9407 60.89C51.542 60.7296 51.1932 60.5086 50.8942 60.227C50.5952 59.9453 50.359 59.6116 50.1857 59.226C50.0167 58.836 49.9322 58.4135 49.9322 57.9585ZM51.9862 53.8895C51.8952 53.9675 51.7868 54.0065 51.6612 54.0065C51.5442 54.0065 51.4467 53.9696 51.3687 53.896C51.295 53.818 51.2582 53.7205 51.2582 53.6035C51.2582 53.5255 51.2733 53.4583 51.3037 53.402C51.3383 53.3413 51.3795 53.2915 51.4272 53.2525L53.0132 51.7315C53.0392 51.7055 53.0673 51.6795 53.0977 51.6535C53.1323 51.6275 53.1735 51.6145 53.2212 51.6145C53.2688 51.6145 53.3078 51.6275 53.3382 51.6535C53.3728 51.6795 53.4032 51.7055 53.4292 51.7315L55.0152 53.2525C55.0628 53.3001 55.1018 53.3521 55.1322 53.4085C55.1668 53.4605 55.1842 53.5255 55.1842 53.6035C55.1842 53.7205 55.1452 53.818 55.0672 53.896C54.9935 53.9696 54.8982 54.0065 54.7812 54.0065C54.6555 54.0065 54.5472 53.9675 54.4562 53.8895L53.2212 52.6935L51.9862 53.8895ZM59.2354 55.6575C59.4521 55.3628 59.7121 55.1461 60.0154 55.0075C60.3187 54.8688 60.6611 54.7995 61.0424 54.7995C61.3371 54.7995 61.6187 54.8536 61.8874 54.962C62.1561 55.066 62.3922 55.2198 62.5959 55.4235C62.7996 55.6228 62.9621 55.8676 63.0834 56.158C63.2047 56.444 63.2654 56.7668 63.2654 57.1265V60.5845C63.2654 60.7361 63.2112 60.8661 63.1029 60.9745C62.9989 61.0785 62.8711 61.1305 62.7194 61.1305C62.5677 61.1305 62.4377 61.0785 62.3294 60.9745C62.2254 60.8661 62.1734 60.7361 62.1734 60.5845V57.3735C62.1734 57.1438 62.1366 56.9315 62.0629 56.7365C61.9892 56.5371 61.8874 56.366 61.7574 56.223C61.6274 56.08 61.4714 55.9673 61.2894 55.885C61.1117 55.8026 60.9167 55.7615 60.7044 55.7615C60.4877 55.7615 60.2884 55.8005 60.1064 55.8785C59.9287 55.9565 59.7749 56.0648 59.6449 56.2035C59.5149 56.3421 59.4131 56.5068 59.3394 56.6975C59.2701 56.8881 59.2354 57.0961 59.2354 57.3215V60.5845C59.2354 60.7361 59.1812 60.8661 59.0729 60.9745C58.9689 61.0785 58.8411 61.1305 58.6894 61.1305C58.5377 61.1305 58.4077 61.0785 58.2994 60.9745C58.1954 60.8661 58.1434 60.7361 58.1434 60.5845V55.3455C58.1434 55.1938 58.1954 55.066 58.2994 54.962C58.4077 54.8536 58.5377 54.7995 58.6894 54.7995C58.8411 54.7995 58.9689 54.8536 59.0729 54.962C59.1812 55.066 59.2354 55.1938 59.2354 55.3455V55.6575ZM65.2924 63.0935C65.2924 62.9505 65.3422 62.827 65.4419 62.723C65.5415 62.6233 65.6564 62.5735 65.7864 62.5735C65.8904 62.5735 65.9792 62.5995 66.0529 62.6515C66.1265 62.7035 66.1937 62.7728 66.2544 62.8595C66.445 63.1195 66.692 63.3253 66.9954 63.477C67.303 63.6286 67.641 63.7045 68.0094 63.7045C68.3517 63.7045 68.668 63.6546 68.9584 63.555C69.253 63.4596 69.5044 63.3036 69.7124 63.087C69.9247 62.8703 70.0894 62.5886 70.2064 62.242C70.3277 61.8953 70.3884 61.4728 70.3884 60.9745V59.9085C70.1197 60.3158 69.7752 60.6213 69.3549 60.825C68.9389 61.0286 68.4687 61.1305 67.9444 61.1305C67.511 61.1305 67.1037 61.0503 66.7224 60.89C66.341 60.7296 66.0074 60.5086 65.7214 60.227C65.4354 59.9453 65.21 59.6116 65.0454 59.226C64.8807 58.836 64.7984 58.4135 64.7984 57.9585C64.7984 57.5078 64.8807 57.0896 65.0454 56.704C65.21 56.3183 65.4354 55.9846 65.7214 55.703C66.0074 55.4213 66.341 55.2003 66.7224 55.04C67.1037 54.8796 67.511 54.7995 67.9444 54.7995C68.4687 54.7995 68.941 54.9013 69.3614 55.105C69.786 55.3086 70.1284 55.6141 70.3884 56.0215V55.3455C70.3884 55.1938 70.4404 55.066 70.5444 54.962C70.6527 54.8536 70.7827 54.7995 70.9344 54.7995C71.086 54.7995 71.2139 54.8536 71.3179 54.962C71.4262 55.066 71.4804 55.1938 71.4804 55.3455V60.8445C71.4804 61.5681 71.3894 62.1748 71.2074 62.6645C71.0297 63.1541 70.7849 63.5463 70.4729 63.841C70.1609 64.14 69.7925 64.3523 69.3679 64.478C68.9475 64.6036 68.4947 64.6665 68.0094 64.6665C67.771 64.6665 67.537 64.6426 67.3074 64.595C67.0777 64.5516 66.8545 64.4823 66.6379 64.387C66.4212 64.2916 66.2132 64.1681 66.0139 64.0165C65.8189 63.8691 65.6347 63.6915 65.4614 63.4835C65.4137 63.4228 65.3725 63.36 65.3379 63.295C65.3075 63.2343 65.2924 63.1671 65.2924 63.0935ZM70.3494 57.9585C70.3494 57.6465 70.2909 57.3561 70.1739 57.0875C70.0569 56.8188 69.8965 56.587 69.6929 56.392C69.4935 56.197 69.2574 56.0431 68.9844 55.9305C68.7157 55.8178 68.4297 55.7615 68.1264 55.7615C67.8187 55.7615 67.5284 55.8178 67.2554 55.9305C66.9824 56.0431 66.744 56.197 66.5404 56.392C66.341 56.587 66.1829 56.8188 66.0659 57.0875C65.9489 57.3561 65.8904 57.6465 65.8904 57.9585C65.8904 58.2748 65.9489 58.5673 66.0659 58.836C66.1829 59.1046 66.341 59.3386 66.5404 59.538C66.744 59.733 66.9824 59.8868 67.2554 59.9995C67.5284 60.1121 67.8187 60.1685 68.1264 60.1685C68.4297 60.1685 68.7157 60.1121 68.9844 59.9995C69.2574 59.8868 69.4935 59.733 69.6929 59.538C69.8965 59.3386 70.0569 59.1046 70.1739 58.836C70.2909 58.5673 70.3494 58.2748 70.3494 57.9585ZM78.4942 55.7095C78.9405 55.1028 79.5429 54.7995 80.3012 54.7995C80.5959 54.7995 80.8775 54.8536 81.1462 54.962C81.4149 55.066 81.651 55.2198 81.8547 55.4235C82.0584 55.6228 82.2209 55.8676 82.3422 56.158C82.4635 56.444 82.5242 56.7668 82.5242 57.1265V60.5845C82.5242 60.7361 82.47 60.8661 82.3617 60.9745C82.2577 61.0785 82.1299 61.1305 81.9782 61.1305C81.8265 61.1305 81.6965 61.0785 81.5882 60.9745C81.4842 60.8661 81.4322 60.7361 81.4322 60.5845V57.3605C81.4322 57.1351 81.3954 56.925 81.3217 56.73C81.2524 56.535 81.1527 56.366 81.0227 56.223C80.8927 56.08 80.7367 55.9673 80.5547 55.885C80.377 55.8026 80.1799 55.7615 79.9632 55.7615C79.7465 55.7615 79.5472 55.8026 79.3652 55.885C79.1875 55.963 79.0337 56.0735 78.9037 56.2165C78.7737 56.3595 78.6719 56.5285 78.5982 56.7235C78.5289 56.9141 78.4942 57.1221 78.4942 57.3475V60.5845C78.4942 60.7361 78.44 60.8661 78.3317 60.9745C78.2277 61.0785 78.0999 61.1305 77.9482 61.1305C77.7965 61.1305 77.6665 61.0785 77.5582 60.9745C77.4542 60.8661 77.4022 60.7361 77.4022 60.5845V51.6925C77.4022 51.5408 77.4542 51.413 77.5582 51.309C77.6665 51.2006 77.7965 51.1465 77.9482 51.1465C78.0999 51.1465 78.2277 51.2006 78.3317 51.309C78.44 51.413 78.4942 51.5408 78.4942 51.6925V55.7095ZM89.6472 55.3455C89.6472 55.1938 89.6992 55.066 89.8032 54.962C89.9115 54.8536 90.0415 54.7995 90.1932 54.7995C90.3448 54.7995 90.4727 54.8536 90.5767 54.962C90.685 55.066 90.7392 55.1938 90.7392 55.3455V60.5845C90.7392 60.7361 90.685 60.8661 90.5767 60.9745C90.4727 61.0785 90.3448 61.1305 90.1932 61.1305C90.0415 61.1305 89.9115 61.0785 89.8032 60.9745C89.6992 60.8661 89.6472 60.7361 89.6472 60.5845V59.9085C89.3785 60.3158 89.034 60.6213 88.6137 60.825C88.1977 61.0286 87.7275 61.1305 87.2032 61.1305C86.7698 61.1305 86.3625 61.0503 85.9812 60.89C85.5998 60.7296 85.2662 60.5086 84.9802 60.227C84.6942 59.9453 84.4688 59.6116 84.3042 59.226C84.1395 58.836 84.0572 58.4135 84.0572 57.9585C84.0572 57.5078 84.1395 57.0896 84.3042 56.704C84.4688 56.3183 84.6942 55.9846 84.9802 55.703C85.2662 55.4213 85.5998 55.2003 85.9812 55.04C86.3625 54.8796 86.7698 54.7995 87.2032 54.7995C87.7275 54.7995 88.1998 54.9013 88.6202 55.105C89.0448 55.3086 89.3872 55.6141 89.6472 56.0215V55.3455ZM89.6082 57.9585C89.6082 57.6465 89.5497 57.3561 89.4327 57.0875C89.3157 56.8188 89.1553 56.587 88.9517 56.392C88.7523 56.197 88.5162 56.0431 88.2432 55.9305C87.9745 55.8178 87.6885 55.7615 87.3852 55.7615C87.0775 55.7615 86.7872 55.8178 86.5142 55.9305C86.2412 56.0431 86.0028 56.197 85.7992 56.392C85.5998 56.587 85.4417 56.8188 85.3247 57.0875C85.2077 57.3561 85.1492 57.6465 85.1492 57.9585C85.1492 58.2748 85.2077 58.5673 85.3247 58.836C85.4417 59.1046 85.5998 59.3386 85.7992 59.538C86.0028 59.733 86.2412 59.8868 86.5142 59.9995C86.7872 60.1121 87.0775 60.1685 87.3852 60.1685C87.6885 60.1685 87.9745 60.1121 88.2432 59.9995C88.5162 59.8868 88.7523 59.733 88.9517 59.538C89.1553 59.3386 89.3157 59.1046 89.4327 58.836C89.5497 58.5673 89.6082 58.2748 89.6082 57.9585ZM86.2282 52.0435C86.2282 51.9265 86.2672 51.8268 86.3452 51.7445C86.4275 51.6578 86.5272 51.6145 86.6442 51.6145C86.7525 51.6145 86.8565 51.6578 86.9562 51.7445L88.5422 53.2655C88.5942 53.3131 88.6353 53.363 88.6657 53.415C88.696 53.467 88.7112 53.5298 88.7112 53.6035C88.7112 53.7205 88.67 53.8201 88.5877 53.9025C88.5097 53.9805 88.4122 54.0195 88.2952 54.0195C88.2345 54.0195 88.1782 54.0086 88.1262 53.987C88.0785 53.9653 88.0352 53.9371 87.9962 53.9025L86.3582 52.3555C86.3105 52.3165 86.2758 52.271 86.2542 52.219C86.2368 52.1626 86.2282 52.1041 86.2282 52.0435ZM94.1285 52.4595C94.1285 52.5678 94.109 52.6675 94.07 52.7585C94.031 52.8495 93.9768 52.9296 93.9075 52.999C93.8425 53.064 93.7645 53.116 93.6735 53.155C93.5825 53.194 93.4872 53.2135 93.3875 53.2135C93.2835 53.2135 93.186 53.194 93.095 53.155C93.004 53.116 92.9238 53.064 92.8545 52.999C92.7852 52.9296 92.731 52.8495 92.692 52.7585C92.653 52.6675 92.6335 52.5678 92.6335 52.4595C92.6335 52.3555 92.653 52.258 92.692 52.167C92.731 52.076 92.7852 51.998 92.8545 51.933C92.9238 51.868 93.004 51.816 93.095 51.777C93.186 51.738 93.2835 51.7185 93.3875 51.7185C93.4872 51.7185 93.5825 51.738 93.6735 51.777C93.7645 51.816 93.8425 51.868 93.9075 51.933C93.9768 51.998 94.031 52.076 94.07 52.167C94.109 52.258 94.1285 52.3555 94.1285 52.4595ZM92.8285 55.3455C92.8285 55.1938 92.8827 55.066 92.991 54.962C93.0993 54.8536 93.2315 54.7995 93.3875 54.7995C93.5392 54.7995 93.667 54.8536 93.771 54.962C93.8793 55.066 93.9335 55.1938 93.9335 55.3455V60.5845C93.9335 60.7361 93.8793 60.8661 93.771 60.9745C93.667 61.0785 93.5392 61.1305 93.3875 61.1305C93.2315 61.1305 93.0993 61.0785 92.991 60.9745C92.8827 60.8661 92.8285 60.7361 92.8285 60.5845V55.3455ZM99.9884 51.6925C99.9884 51.5408 100.04 51.413 100.144 51.309C100.253 51.2006 100.383 51.1465 100.534 51.1465C100.686 51.1465 100.816 51.2006 100.924 51.309C101.037 51.413 101.093 51.5408 101.093 51.6925V60.5845C101.093 60.7361 101.037 60.8661 100.924 60.9745C100.816 61.0785 100.686 61.1305 100.534 61.1305C100.383 61.1305 100.253 61.0785 100.144 60.9745C100.04 60.8661 99.9884 60.7361 99.9884 60.5845V51.6925ZM103.85 57.9585C103.85 58.2705 103.906 58.5586 104.019 58.823C104.131 59.0873 104.285 59.3148 104.48 59.5055C104.68 59.6961 104.914 59.8456 105.182 59.954C105.451 60.0623 105.739 60.1165 106.047 60.1165C106.354 60.1165 106.643 60.0623 106.911 59.954C107.18 59.8456 107.414 59.6961 107.613 59.5055C107.813 59.3148 107.969 59.0873 108.081 58.823C108.198 58.5586 108.257 58.2705 108.257 57.9585C108.257 57.6465 108.198 57.3605 108.081 57.1005C107.969 56.8361 107.813 56.6086 107.613 56.418C107.414 56.2273 107.18 56.08 106.911 55.976C106.643 55.8676 106.354 55.8135 106.047 55.8135C105.739 55.8135 105.451 55.8676 105.182 55.976C104.914 56.08 104.68 56.2273 104.48 56.418C104.285 56.6086 104.131 56.8361 104.019 57.1005C103.906 57.3605 103.85 57.6465 103.85 57.9585ZM102.745 57.9585C102.745 57.5078 102.829 57.0896 102.998 56.704C103.172 56.3183 103.408 55.9846 103.707 55.703C104.006 55.4213 104.355 55.2003 104.753 55.04C105.156 54.8796 105.587 54.7995 106.047 54.7995C106.506 54.7995 106.935 54.8796 107.334 55.04C107.737 55.2003 108.088 55.4213 108.387 55.703C108.686 55.9846 108.92 56.3183 109.089 56.704C109.262 57.0896 109.349 57.5078 109.349 57.9585C109.349 58.4135 109.262 58.836 109.089 59.226C108.92 59.6116 108.686 59.9453 108.387 60.227C108.088 60.5086 107.737 60.7296 107.334 60.89C106.935 61.0503 106.506 61.1305 106.047 61.1305C105.587 61.1305 105.156 61.0503 104.753 60.89C104.355 60.7296 104.006 60.5086 103.707 60.227C103.408 59.9453 103.172 59.6116 102.998 59.226C102.829 58.836 102.745 58.4135 102.745 57.9585ZM104.669 52.0435C104.669 51.9265 104.708 51.8268 104.786 51.7445C104.868 51.6578 104.968 51.6145 105.085 51.6145C105.193 51.6145 105.297 51.6578 105.397 51.7445L106.983 53.2655C107.035 53.3131 107.076 53.363 107.106 53.415C107.137 53.467 107.152 53.5298 107.152 53.6035C107.152 53.7205 107.111 53.8201 107.028 53.9025C106.95 53.9805 106.853 54.0195 106.736 54.0195C106.675 54.0195 106.619 54.0086 106.567 53.987C106.519 53.9653 106.476 53.9371 106.437 53.9025L104.799 52.3555C104.751 52.3165 104.716 52.271 104.695 52.219C104.677 52.1626 104.669 52.1041 104.669 52.0435ZM112.048 55.6575C112.265 55.3628 112.525 55.1461 112.828 55.0075C113.131 54.8688 113.474 54.7995 113.855 54.7995C114.15 54.7995 114.431 54.8536 114.7 54.962C114.969 55.066 115.205 55.2198 115.408 55.4235C115.612 55.6228 115.775 55.8676 115.896 56.158C116.017 56.444 116.078 56.7668 116.078 57.1265V60.5845C116.078 60.7361 116.024 60.8661 115.915 60.9745C115.811 61.0785 115.684 61.1305 115.532 61.1305C115.38 61.1305 115.25 61.0785 115.142 60.9745C115.038 60.8661 114.986 60.7361 114.986 60.5845V57.3735C114.986 57.1438 114.949 56.9315 114.875 56.7365C114.802 56.5371 114.7 56.366 114.57 56.223C114.44 56.08 114.284 55.9673 114.102 55.885C113.924 55.8026 113.729 55.7615 113.517 55.7615C113.3 55.7615 113.101 55.8005 112.919 55.8785C112.741 55.9565 112.587 56.0648 112.457 56.2035C112.327 56.3421 112.226 56.5068 112.152 56.6975C112.083 56.8881 112.048 57.0961 112.048 57.3215V60.5845C112.048 60.7361 111.994 60.8661 111.885 60.9745C111.781 61.0785 111.654 61.1305 111.502 61.1305C111.35 61.1305 111.22 61.0785 111.112 60.9745C111.008 60.8661 110.956 60.7361 110.956 60.5845V55.3455C110.956 55.1938 111.008 55.066 111.112 54.962C111.22 54.8536 111.35 54.7995 111.502 54.7995C111.654 54.7995 111.781 54.8536 111.885 54.962C111.994 55.066 112.048 55.1938 112.048 55.3455V55.6575ZM118.105 63.0935C118.105 62.9505 118.155 62.827 118.254 62.723C118.354 62.6233 118.469 62.5735 118.599 62.5735C118.703 62.5735 118.792 62.5995 118.865 62.6515C118.939 62.7035 119.006 62.7728 119.067 62.8595C119.258 63.1195 119.505 63.3253 119.808 63.477C120.116 63.6286 120.454 63.7045 120.822 63.7045C121.164 63.7045 121.481 63.6546 121.771 63.555C122.066 63.4596 122.317 63.3036 122.525 63.087C122.737 62.8703 122.902 62.5886 123.019 62.242C123.14 61.8953 123.201 61.4728 123.201 60.9745V59.9085C122.932 60.3158 122.588 60.6213 122.167 60.825C121.751 61.0286 121.281 61.1305 120.757 61.1305C120.324 61.1305 119.916 61.0503 119.535 60.89C119.154 60.7296 118.82 60.5086 118.534 60.227C118.248 59.9453 118.023 59.6116 117.858 59.226C117.693 58.836 117.611 58.4135 117.611 57.9585C117.611 57.5078 117.693 57.0896 117.858 56.704C118.023 56.3183 118.248 55.9846 118.534 55.703C118.82 55.4213 119.154 55.2003 119.535 55.04C119.916 54.8796 120.324 54.7995 120.757 54.7995C121.281 54.7995 121.754 54.9013 122.174 55.105C122.599 55.3086 122.941 55.6141 123.201 56.0215V55.3455C123.201 55.1938 123.253 55.066 123.357 54.962C123.465 54.8536 123.595 54.7995 123.747 54.7995C123.899 54.7995 124.026 54.8536 124.13 54.962C124.239 55.066 124.293 55.1938 124.293 55.3455V60.8445C124.293 61.5681 124.202 62.1748 124.02 62.6645C123.842 63.1541 123.597 63.5463 123.285 63.841C122.973 64.14 122.605 64.3523 122.18 64.478C121.76 64.6036 121.307 64.6665 120.822 64.6665C120.584 64.6665 120.35 64.6426 120.12 64.595C119.89 64.5516 119.667 64.4823 119.45 64.387C119.234 64.2916 119.026 64.1681 118.826 64.0165C118.631 63.8691 118.447 63.6915 118.274 63.4835C118.226 63.4228 118.185 63.36 118.15 63.295C118.12 63.2343 118.105 63.1671 118.105 63.0935ZM123.162 57.9585C123.162 57.6465 123.103 57.3561 122.986 57.0875C122.869 56.8188 122.709 56.587 122.505 56.392C122.306 56.197 122.07 56.0431 121.797 55.9305C121.528 55.8178 121.242 55.7615 120.939 55.7615C120.631 55.7615 120.341 55.8178 120.068 55.9305C119.795 56.0431 119.557 56.197 119.353 56.392C119.154 56.587 118.995 56.8188 118.878 57.0875C118.761 57.3561 118.703 57.6465 118.703 57.9585C118.703 58.2748 118.761 58.5673 118.878 58.836C118.995 59.1046 119.154 59.3386 119.353 59.538C119.557 59.733 119.795 59.8868 120.068 59.9995C120.341 60.1121 120.631 60.1685 120.939 60.1685C121.242 60.1685 121.528 60.1121 121.797 59.9995C122.07 59.8868 122.306 59.733 122.505 59.538C122.709 59.3386 122.869 59.1046 122.986 58.836C123.103 58.5673 123.162 58.2748 123.162 57.9585Z" fill="#E33B3B"/>
<rect x="0.5" y="0.5" width="159" height="79.0005" rx="7.5" stroke="#F2F2F2"/>
</svg>
