<svg width="68" height="68" viewBox="0 0 68 68" fill="none" xmlns="http://www.w3.org/2000/svg">
<path d="M34 68C52.7777 68 68 52.7777 68 34C68 15.2223 52.7777 0 34 0C15.2223 0 0 15.2223 0 34C0 52.7777 15.2223 68 34 68Z" fill="url(#paint0_linear_70_6697)"/>
<path fill-rule="evenodd" clip-rule="evenodd" d="M25.6798 15.6671C26.3849 15.385 27.1851 15.728 27.4671 16.4331C27.7491 17.1381 27.4062 17.9383 26.7011 18.2204L26.3945 18.343C24.0005 19.3006 22.0907 21.1788 21.0934 23.5566L20.9526 23.8923C20.6588 24.5925 19.853 24.9221 19.1527 24.6284C18.4525 24.3346 18.1229 23.5288 18.4166 22.8285L18.5574 22.4929C19.8398 19.4357 22.2951 17.0209 25.3732 15.7897L25.6798 15.6671ZM42.3201 15.7481C41.615 15.4661 40.8148 15.809 40.5328 16.5141C40.2507 17.2192 40.5937 18.0194 41.2988 18.3014L41.6053 18.424C43.9994 19.3817 45.9091 21.2598 46.9065 23.6376L47.0473 23.9733C47.341 24.6735 48.1469 25.0031 48.8471 24.7094C49.5474 24.4156 49.877 23.6098 49.5832 22.9095L49.4424 22.5739C48.1601 19.5167 45.7047 17.1019 42.6267 15.8707L42.3201 15.7481ZM23.4084 45.0006H44.5914C47.9435 45.0006 49.8569 41.6289 47.8457 39.2662C46.9553 38.2202 46.4066 36.9796 46.2589 35.6786L45.4391 28.4551C44.997 24.5601 42.0892 21.3638 38.1615 20.019V19.8288C38.1615 17.5305 36.2983 15.6673 33.9999 15.6673C31.7016 15.6673 29.8384 17.5305 29.8384 19.8288V20.019C25.9106 21.3638 23.0029 24.5601 22.5608 28.4551L21.7409 35.6786C21.5933 36.9796 21.0446 38.2202 20.1542 39.2662C18.143 41.6289 20.0564 45.0006 23.4084 45.0006ZM39.4488 48.7984C38.6103 50.8658 36.4869 52.3339 33.9999 52.3339C31.513 52.3339 29.3896 50.8658 28.5511 48.7984C28.5161 48.7122 28.4999 48.6196 28.4999 48.5266C28.4999 48.0978 28.8475 47.7502 29.2763 47.7502H38.7235C39.1523 47.7502 39.4999 48.0978 39.4999 48.5266C39.4999 48.6196 39.4838 48.7122 39.4488 48.7984Z" fill="white"/>
<defs>
<linearGradient id="paint0_linear_70_6697" x1="34" y1="0.469524" x2="34" y2="67.4981" gradientUnits="userSpaceOnUse">
<stop stop-color="#F45476"/>
<stop offset="1" stop-color="#EE0033"/>
</linearGradient>
</defs>
</svg>
