<svg width="24" height="24" viewBox="0 0 24 24" fill="none" xmlns="http://www.w3.org/2000/svg">
<path fill-rule="evenodd" clip-rule="evenodd" d="M6.65609 16.3129L7.78409 17.4489C8.17709 17.8419 8.77609 17.9449 9.27209 17.7039C10.6331 17.0429 12.6891 15.8219 14.7531 13.7579C16.8171 11.6939 18.0391 9.63788 18.7001 8.27588C18.9411 7.77988 18.8381 7.18188 18.4441 6.78788L17.3071 5.65388L14.8681 8.08888L16.2151 9.47988L16.0561 9.84088C16.0301 9.89988 15.4041 11.2999 13.8131 12.8909C12.2231 14.4819 10.8111 15.1209 10.7511 15.1469L10.3861 15.3099L9.02109 13.9619L6.65609 16.3129ZM20.0001 7.71488C20.0001 8.07988 19.9191 8.44688 19.7531 8.78788C19.0531 10.2299 17.7611 12.4069 15.5821 14.5859C13.4021 16.7649 11.2261 18.0569 9.78409 18.7579C8.83909 19.2169 7.70209 19.0229 6.95509 18.2759L5.00009 16.3079L9.01809 12.3129L10.6201 13.8949C11.0961 13.6259 12.0041 13.0439 12.9851 12.0629C13.9661 11.0819 14.5411 10.1809 14.8061 9.70988L13.2241 8.07488L17.3061 3.99988L19.2711 5.95888C19.7481 6.43588 20.0001 7.07188 20.0001 7.71488Z" fill="#959494"/>
<path d="M6.65609 16.3129L6.55034 16.2065L6.44402 16.3122L6.54965 16.4186L6.65609 16.3129ZM7.78409 17.4489L7.67765 17.5546L7.67803 17.5549L7.78409 17.4489ZM9.27209 17.7039L9.20656 17.5689L9.20654 17.569L9.27209 17.7039ZM18.7001 8.27588L18.5652 8.21032L18.5651 8.21039L18.7001 8.27588ZM18.4441 6.78788L18.5502 6.68181L18.55 6.68167L18.4441 6.78788ZM17.3071 5.65388L17.413 5.54767L17.307 5.44197L17.2011 5.54772L17.3071 5.65388ZM14.8681 8.08888L14.7621 7.98272L14.6576 8.0871L14.7603 8.19323L14.8681 8.08888ZM16.2151 9.47988L16.3524 9.54034L16.393 9.44801L16.3228 9.37553L16.2151 9.47988ZM16.0561 9.84088L16.1934 9.90137L16.1934 9.90134L16.0561 9.84088ZM13.8131 12.8909L13.707 12.7848L13.707 12.7848L13.8131 12.8909ZM10.7511 15.1469L10.6914 15.0092L10.6899 15.0099L10.7511 15.1469ZM10.3861 15.3099L10.2807 15.4166L10.3536 15.4886L10.4473 15.4468L10.3861 15.3099ZM9.02109 13.9619L9.12649 13.8551L9.02074 13.7507L8.91534 13.8555L9.02109 13.9619ZM19.7531 8.78788L19.6182 8.72222L19.6182 8.72237L19.7531 8.78788ZM15.5821 14.5859L15.6881 14.692L15.6882 14.6919L15.5821 14.5859ZM9.78409 18.7579L9.84963 18.8928L9.84967 18.8928L9.78409 18.7579ZM6.95509 18.2759L6.84867 18.3816L6.84903 18.3819L6.95509 18.2759ZM5.00009 16.3079L4.89433 16.2015L4.78801 16.3072L4.89367 16.4136L5.00009 16.3079ZM9.01809 12.3129L9.12349 12.2061L9.01773 12.1017L8.91233 12.2065L9.01809 12.3129ZM10.6201 13.8949L10.5147 14.0016L10.5953 14.0812L10.6939 14.0255L10.6201 13.8949ZM14.8061 9.70988L14.9368 9.78343L14.9917 9.68595L14.9139 9.60557L14.8061 9.70988ZM13.2241 8.07488L13.1181 7.96872L13.0136 8.07305L13.1163 8.17918L13.2241 8.07488ZM17.3061 3.99988L17.412 3.89365L17.306 3.788L17.2001 3.89372L17.3061 3.99988ZM19.2711 5.95888L19.3772 5.85281L19.377 5.85265L19.2711 5.95888ZM6.54965 16.4186L7.67765 17.5546L7.89053 17.3432L6.76253 16.2072L6.54965 16.4186ZM7.67803 17.5549C8.11566 17.9926 8.7834 18.1081 9.33765 17.8388L9.20654 17.569C8.76878 17.7817 8.23853 17.6912 7.89016 17.3428L7.67803 17.5549ZM9.33762 17.8388C10.7102 17.1722 12.7809 15.9422 14.8592 13.8639L14.647 13.6518C12.5973 15.7016 10.556 16.9136 9.20656 17.5689L9.33762 17.8388ZM14.8592 13.8639C16.9374 11.7857 18.1684 9.71504 18.835 8.34137L18.5651 8.21039C17.9098 9.56071 16.6968 11.602 14.647 13.6518L14.8592 13.8639ZM18.835 8.34143C19.1044 7.78707 18.9887 7.12035 18.5502 6.68181L18.338 6.89394C18.6875 7.24341 18.7778 7.77269 18.5652 8.21032L18.835 8.34143ZM18.55 6.68167L17.413 5.54767L17.2012 5.76008L18.3382 6.89408L18.55 6.68167ZM17.2011 5.54772L14.7621 7.98272L14.9741 8.19503L17.4131 5.76003L17.2011 5.54772ZM14.7603 8.19323L16.1073 9.58423L16.3228 9.37553L14.9758 7.98453L14.7603 8.19323ZM16.0778 9.41942L15.9188 9.78042L16.1934 9.90134L16.3524 9.54034L16.0778 9.41942ZM15.9188 9.78039C15.8979 9.82791 15.2812 11.2106 13.707 12.7848L13.9192 12.9969C15.527 11.3891 16.1623 9.97185 16.1934 9.90137L15.9188 9.78039ZM13.707 12.7848C12.1335 14.3594 10.7387 14.9888 10.6915 15.0092L10.8107 15.2845C10.8835 15.253 12.3127 14.6044 13.9192 12.9969L13.707 12.7848ZM10.6899 15.0099L10.3249 15.1729L10.4473 15.4468L10.8123 15.2838L10.6899 15.0099ZM10.4915 15.2031L9.12649 13.8551L8.91569 14.0686L10.2807 15.4166L10.4915 15.2031ZM8.91534 13.8555L6.55034 16.2065L6.76184 16.4193L9.12684 14.0683L8.91534 13.8555ZM19.8501 7.71488C19.8501 8.05766 19.774 8.40215 19.6182 8.72222L19.888 8.85353C20.0641 8.49161 20.1501 8.1021 20.1501 7.71488H19.8501ZM19.6182 8.72237C18.9238 10.1528 17.6408 12.3151 15.476 14.4798L15.6882 14.6919C17.8814 12.4987 19.1824 10.3069 19.888 8.85338L19.6182 8.72237ZM15.476 14.4798C13.3103 16.6445 11.149 17.9276 9.71851 18.623L9.84967 18.8928C11.3032 18.1862 13.4939 16.8852 15.6881 14.692L15.476 14.4798ZM9.71856 18.623C8.83155 19.0538 7.76334 18.872 7.06116 18.1698L6.84903 18.3819C7.64085 19.1738 8.84663 19.38 9.84963 18.8928L9.71856 18.623ZM7.06151 18.1702L5.10651 16.2022L4.89367 16.4136L6.84867 18.3816L7.06151 18.1702ZM5.10585 16.4142L9.12385 12.4192L8.91233 12.2065L4.89433 16.2015L5.10585 16.4142ZM8.91269 12.4196L10.5147 14.0016L10.7255 13.7881L9.12349 12.2061L8.91269 12.4196ZM10.6939 14.0255C11.179 13.7513 12.0986 13.1615 13.0912 12.1689L12.879 11.9568C11.9096 12.9263 11.0131 13.5005 10.5463 13.7643L10.6939 14.0255ZM13.0912 12.1689C14.0838 11.1764 14.6666 10.2637 14.9368 9.78343L14.6754 9.63633C14.4156 10.0981 13.8484 10.9874 12.879 11.9568L13.0912 12.1689ZM14.9139 9.60557L13.3319 7.97057L13.1163 8.17918L14.6983 9.81418L14.9139 9.60557ZM13.3301 8.18103L17.4121 4.10603L17.2001 3.89372L13.1181 7.96872L13.3301 8.18103ZM17.2002 4.10611L19.1652 6.06511L19.377 5.85265L17.412 3.89365L17.2002 4.10611ZM19.165 6.06494C19.6134 6.51328 19.8501 7.1109 19.8501 7.71488H20.1501C20.1501 7.03286 19.8828 6.35848 19.3772 5.85281L19.165 6.06494Z" fill="#979797"/>
</svg>
