<svg width="28" height="30" viewBox="0 0 28 30" fill="none" xmlns="http://www.w3.org/2000/svg">
<path d="M23.1512 8.23538C22.7836 8.53229 22.7261 9.07026 23.0224 9.43727C24.699 11.5156 25.5852 14.0294 25.5846 16.7056C25.5846 23.0935 20.3878 28.2903 13.9994 28.2903C7.61097 28.2903 2.41417 23.0935 2.41417 16.7056C2.41417 12.2611 4.99975 8.29008 8.80773 6.36273C10.2114 5.65208 11.179 6.64254 10.804 8.17098L10.0848 11.1002C9.97201 11.5584 10.2524 12.0211 10.7112 12.134C10.7795 12.1505 10.8485 12.1585 10.9157 12.1585C11.3004 12.1585 11.6498 11.8975 11.7455 11.5071L13.6352 3.81533C13.7407 3.38677 13.5019 2.94796 13.0842 2.80378L5.10917 0.0472352C4.88577 -0.0296996 4.65269 -0.00975355 4.45608 0.0859875C4.12269 0.248405 3.8993 0.895227 4.06114 1.22918C4.15688 1.42636 4.32785 1.5865 4.55068 1.66344L8.07258 2.88071C9.55998 3.39418 9.50698 4.09685 8.09936 4.80066C3.69699 7.00328 0.705078 11.5823 0.705078 16.7056C0.705078 24.0361 6.66895 29.9999 14 29.9999C21.3304 29.9999 27.2949 24.0361 27.2949 16.7056C27.2949 13.6784 26.2503 10.7161 24.3537 8.36417C24.0568 7.99659 23.5194 7.93903 23.1512 8.23538Z" fill="#0FAFA8"/>
</svg>
