<svg width="23" height="19" viewBox="0 0 23 19" fill="none" xmlns="http://www.w3.org/2000/svg">
<path d="M6.46882 7.18752H0.718758C0.528131 7.18752 0.345313 7.11179 0.210519 6.977C0.0757261 6.8422 0 6.65938 0 6.46876C0 6.27813 0.0757261 6.09531 0.210519 5.96052C0.345313 5.82573 0.528131 5.75 0.718758 5.75H6.46882C6.65945 5.75 6.84227 5.82573 6.97706 5.96052C7.11185 6.09531 7.18758 6.27813 7.18758 6.46876C7.18758 6.65938 7.11185 6.8422 6.97706 6.977C6.84227 7.11179 6.65945 7.18752 6.46882 7.18752Z" fill="#B2DAD9"/>
<path d="M6.46882 12.9375H0.718758C0.528131 12.9375 0.345313 12.8618 0.210519 12.727C0.0757261 12.5922 0 12.4094 0 12.2188C0 12.0281 0.0757261 11.8453 0.210519 11.7105C0.345313 11.5757 0.528131 11.5 0.718758 11.5H6.46882C6.65945 11.5 6.84227 11.5757 6.97706 11.7105C7.11185 11.8453 7.18758 12.0281 7.18758 12.2188C7.18758 12.4094 7.11185 12.5922 6.97706 12.727C6.84227 12.8618 6.65945 12.9375 6.46882 12.9375Z" fill="#B2DAD9"/>
<path d="M14.3752 18.6875H0.718758C0.528132 18.6875 0.345313 18.6118 0.210519 18.477C0.0757261 18.3422 0 18.1594 0 17.9688C0 17.7781 0.0757261 17.5953 0.210519 17.4605C0.345313 17.3257 0.528132 17.25 0.718758 17.25H14.3752C14.5658 17.25 14.7486 17.3257 14.8834 17.4605C15.0182 17.5953 15.0939 17.7781 15.0939 17.9688C15.0939 18.1594 15.0182 18.3422 14.8834 18.477C14.7486 18.6118 14.5658 18.6875 14.3752 18.6875Z" fill="#B2DAD9"/>
<path d="M14.3752 1.43752H0.718758C0.528132 1.43752 0.345313 1.36179 0.210519 1.227C0.0757261 1.0922 0 0.909385 0 0.718758C0 0.528132 0.0757261 0.345313 0.210519 0.210519C0.345313 0.0757261 0.528132 0 0.718758 0H14.3752C14.5658 0 14.7486 0.0757261 14.8834 0.210519C15.0182 0.345313 15.0939 0.528132 15.0939 0.718758C15.0939 0.909385 15.0182 1.0922 14.8834 1.227C14.7486 1.36179 14.5658 1.43752 14.3752 1.43752Z" fill="#B2DAD9"/>
<path d="M22.7895 15.7274L19.3229 12.2608C20.0374 11.0514 20.2862 9.62287 20.0225 8.24313C19.7588 6.8634 19.0009 5.62726 17.8907 4.76655C16.7806 3.90585 15.3946 3.47971 13.9927 3.56807C12.5908 3.65643 11.2692 4.25321 10.276 5.24649C9.28269 6.23976 8.68591 7.56129 8.59755 8.96321C8.50919 10.3651 8.93533 11.7511 9.79603 12.8613C10.6567 13.9714 11.8929 14.7294 13.2726 14.993C14.6523 15.2567 16.0809 15.008 17.2903 14.2935L20.7569 17.76C20.8916 17.8948 21.0744 17.9705 21.265 17.9705C21.4556 17.9705 21.6384 17.8948 21.7732 17.76L22.7895 16.7437C22.9242 16.6089 22.9999 16.4261 22.9999 16.2355C22.9999 16.0449 22.9242 15.8622 22.7895 15.7274ZM10.0625 9.34552C10.0625 8.49258 10.3154 7.65879 10.7892 6.9496C11.2631 6.2404 11.9366 5.68765 12.7247 5.36125C13.5127 5.03484 14.3798 4.94944 15.2163 5.11584C16.0529 5.28224 16.8213 5.69297 17.4244 6.29609C18.0276 6.89921 18.4383 7.66763 18.6047 8.50419C18.7711 9.34074 18.6857 10.2078 18.3593 10.9959C18.0329 11.7839 17.4801 12.4574 16.7709 12.9313C16.0617 13.4051 15.2279 13.6581 14.375 13.6581C13.2316 13.6569 12.1353 13.2022 11.3268 12.3937C10.5183 11.5852 10.0636 10.4889 10.0625 9.34552Z" fill="#B2DAD9"/>
</svg>
