<?xml version="1.0" encoding="UTF-8"?>
<svg width="32px" height="32px" viewBox="0 0 32 32" version="1.1" xmlns="http://www.w3.org/2000/svg" xmlns:xlink="http://www.w3.org/1999/xlink">
    <!-- Generator: Sketch 48.1 (47250) - http://www.bohemiancoding.com/sketch -->
    <title>Weight</title>
    <desc>Created with Sketch.</desc>
    <defs></defs>
    <g id="Icon" stroke="none" stroke-width="1" fill="none" fill-rule="evenodd">
        <g id="Weight" fill="#00857F" fill-rule="nonzero">
            <path d="M26.9811938,26.5873688 L24.4355345,12.3714768 C24.3330811,11.7991714 23.8356102,11.3825709 23.254641,11.3825709 L19.0209398,11.3825709 C19.8147338,10.599964 20.3080458,9.51275192 20.3080458,8.31202343 C20.3080458,5.93434246 18.3755074,4 16.0000439,4 C13.6245804,4 11.691962,5.93434246 11.691962,8.31202343 C11.691962,9.51275192 12.185274,10.599964 12.9790679,11.3825709 L8.74536674,11.3825709 C8.16439753,11.3825709 7.66700662,11.7991714 7.56447323,12.3714768 L5.01881393,26.5873688 C4.95619018,26.9373645 5.05160541,27.2971267 5.27962623,27.5697903 C5.50756707,27.8424539 5.84451962,28 6.19970744,28 L25.8003003,28 C26.1554881,28 26.4924407,27.8424539 26.7203815,27.5697903 C26.9483224,27.2971267 27.0438176,26.9373645 26.9811938,26.5873688 Z M16.0000419,6 C17.1028515,6 18,6.89714848 18,7.9999581 C18,9.10276771 17.1028515,10 16.0000419,10 C14.8972323,10 14,9.10276771 14,7.9999581 C14,6.89714848 14.8972323,6 16.0000419,6 Z M19,22.5737469 C19,22.727319 18.932161,22.8732012 18.8160688,22.9689859 C18.5145135,23.2176642 18.1172177,23.4408979 17.6241813,23.638574 C17.0232591,23.8795624 16.414787,24 15.7987651,24 C15.0157718,24 14.3335522,23.8303695 13.7512309,23.4907693 C13.1693474,23.1513952 12.7317859,22.6659128 12.4390934,22.0343219 C12.1462915,21.4028441 12,20.7160668 12,19.9736507 C12,19.1681321 12.1633607,18.4520653 12.4901915,17.8260157 C12.8169129,17.1997399 13.2951778,16.7196856 13.9249863,16.3852874 C14.4046737,16.1285799 15.002204,16 15.7170301,16 C16.646315,16 17.3720828,16.201521 17.894662,16.6043369 C18.1210473,16.7788301 18.3124189,16.9822736 18.4687769,17.2145543 C18.6182415,17.4365441 18.6485502,17.7216364 18.5494177,17.9717848 C18.4502853,18.2220463 18.2352794,18.4035509 17.9780383,18.4533092 L17.9762876,18.4536485 C17.6749512,18.5118883 17.3694568,18.3739221 17.206315,18.1056798 C17.1019304,17.9340137 16.9687691,17.7871137 16.807159,17.6648667 C16.5159984,17.4450256 16.1526221,17.335105 15.7170301,17.335105 C15.0565846,17.335105 14.5314889,17.5515535 14.1419617,17.9841113 C13.7522157,18.4170083 13.5573427,19.0590031 13.5573427,19.910322 C13.5573427,20.8285884 13.7546229,21.5171751 14.1496209,21.9763083 C14.5444002,22.4353284 15.0617272,22.664895 15.701821,22.664895 C16.0182571,22.664895 16.335678,22.6007746 16.6539742,22.4723078 C16.9720516,22.343841 17.2452677,22.1881202 17.4734037,22.0053716 L17.4734037,21.0236635 L16.3732083,21.0236635 C16.0249316,21.0236635 15.7427433,20.731899 15.7427433,20.3720562 C15.7427433,20.0121003 16.025041,19.720449 16.3732083,19.720449 L18.5111215,19.720449 C18.7811645,19.720449 19,19.946736 19,20.2257216 L19,22.5737469 Z" id="Shape"></path>
        </g>
    </g>
</svg>