<svg width="21" height="20" viewBox="0 0 21 20" fill="none" xmlns="http://www.w3.org/2000/svg">
<path d="M10.1345 11.6667C7.78858 11.6667 5.70769 12.1983 4.34036 12.6608C3.33107 13.0033 2.6582 13.9575 2.6582 15.0267V18.3333C2.6582 18.3333 10.9303 18.3333 10.9652 18.3333" stroke="#9A9FA4" stroke-width="1.7" stroke-miterlimit="10" stroke-linecap="round" stroke-linejoin="round"/>
<path d="M10.1345 11.6667C7.84095 11.6667 5.98102 8.9675 5.98102 6.66666V5.83333C5.98102 3.5325 7.84095 1.66666 10.1345 1.66666C12.4281 1.66666 14.288 3.5325 14.288 5.83333V6.66666C14.288 8.9675 12.4281 11.6667 10.1345 11.6667Z" stroke="#9A9FA4" stroke-width="1.7" stroke-miterlimit="10" stroke-linecap="round" stroke-linejoin="round"/>
<path d="M13.9557 14.88L14.8329 15.76L16.5873 14" stroke="#9E9E9E" stroke-width="0.9" stroke-miterlimit="10" stroke-linecap="square"/>
<path d="M14.9525 18.3333C16.7876 18.3333 18.2753 16.8409 18.2753 15C18.2753 13.159 16.7876 11.6667 14.9525 11.6667C13.1174 11.6667 11.6297 13.159 11.6297 15C11.6297 16.8409 13.1174 18.3333 14.9525 18.3333Z" stroke="#9E9E9E" stroke-miterlimit="10" stroke-linecap="square"/>
</svg>
