<svg width="20" height="28" viewBox="0 0 20 28" fill="none" xmlns="http://www.w3.org/2000/svg">
<g id="file-excel-1">
<path id="Shape" fill-rule="evenodd" clip-rule="evenodd" d="M11.6667 7.4375V0H1.25C0.557292 0 0 0.585156 0 1.3125V26.6875C0 27.4148 0.557292 28 1.25 28H18.75C19.4427 28 20 27.4148 20 26.6875V8.75H12.9167C12.2292 8.75 11.6667 8.15938 11.6667 7.4375ZM14.7969 13.2617L11.6667 18.375L14.7969 23.4883C15.0625 23.9258 14.7656 24.5 14.2708 24.5H12.4531C12.224 24.5 12.0104 24.3687 11.901 24.1555C10.8802 22.1758 10 20.3984 10 20.3984C9.76469 20.9698 9.60205 21.2795 9.03937 22.3511L9.03934 22.3512C8.80495 22.7976 8.50114 23.3762 8.09375 24.1609C7.98438 24.3742 7.77604 24.5055 7.54688 24.5055H5.72917C5.23438 24.5055 4.9375 23.9313 5.20312 23.4938L8.34375 18.3805L5.20312 13.2672C4.93229 12.8297 5.23438 12.2555 5.72917 12.2555H7.54167C7.77083 12.2555 7.98438 12.3867 8.09375 12.6C8.67979 13.7505 8.95413 14.2506 9.14589 14.6001L9.14589 14.6001C9.39893 15.0612 9.50815 15.2603 10 16.3461C10 16.3461 10.3177 15.7063 11.9062 12.6C12.0156 12.3867 12.2292 12.2555 12.4583 12.2555H14.2708C14.7656 12.25 15.0625 12.8242 14.7969 13.2617ZM20 7V6.66641C20 6.32188 19.8698 5.98828 19.6354 5.74219L14.5365 0.382812C14.3021 0.136719 13.9844 0 13.651 0H13.3333V7H20Z" fill="#269C47"/>
</g>
</svg>
