<svg width="22" height="22" viewBox="0 0 22 22" fill="none" xmlns="http://www.w3.org/2000/svg">
<path d="M18.3333 12.1122V5.04165C18.3333 4.95511 18.303 4.8788 18.2613 4.80975L18.268 4.8058L15.518 0.222449C15.4356 0.0846055 15.2861 0 15.125 0H3.20835C3.04721 0 2.89773 0.0846055 2.81536 0.222449L0.0653555 4.8058L0.0720156 4.80975C0.0303789 4.8788 0 4.95511 0 5.04165V17.875C0 18.1283 0.205004 18.3333 0.458348 18.3333H12.1122C12.7128 20.4462 14.6559 22 16.9583 22C19.7379 22 22 19.7383 22 16.9583C22 14.6555 20.446 12.7128 18.3333 12.1122ZM14.8654 0.916652L17.0655 4.5833H11.834L11.1007 0.916652H14.8654ZM8.16737 0.916652H10.1667L10.9074 4.5833H7.43402L8.16737 0.916652ZM11 5.5V7.33335H7.33154L7.32557 5.5H11ZM3.46792 0.916652H7.23366L6.50745 4.5833H1.26788L3.46792 0.916652ZM11.9399 17.4167H0.916652V5.5H6.41665V7.79165C6.41665 8.045 6.62166 8.25 6.875 8.25H11.4583C11.7117 8.25 11.9167 8.045 11.9167 7.79165L11.9094 5.5H17.4167V11.9399C17.2655 11.9262 17.113 11.9167 16.9583 11.9167C14.1787 11.9167 11.9167 14.1784 11.9167 16.9583C11.9167 17.113 11.9262 17.2655 11.9399 17.4167ZM16.9583 21.0833C14.6837 21.0833 12.8333 19.233 12.8333 16.9583C12.8333 14.6837 14.6837 12.8333 16.9583 12.8333C19.233 12.8333 21.0833 14.6837 21.0833 16.9583C21.0833 19.233 19.233 21.0833 16.9583 21.0833Z" fill="#FFFFFF"/>
<path d="M16.25 19.25L14.25 17.25L15 16.5L16.25 17.75L19.25 14.75L20 15.5L16.25 19.25Z" fill="#FFFFFF"/>
</svg>
