<svg width="20" height="20" viewBox="0 0 20 20" fill="none" xmlns="http://www.w3.org/2000/svg">
<path d="M6.875 4.0625V1.875C6.875 1.62636 6.97377 1.3879 7.14959 1.21209C7.3254 1.03627 7.56386 0.9375 7.8125 0.9375H12.1875C12.4361 0.9375 12.6746 1.03627 12.8504 1.21209C13.0262 1.3879 13.125 1.62636 13.125 1.875V4.0625" stroke="white" stroke-width="1.5" stroke-miterlimit="10" stroke-linecap="round" stroke-linejoin="round"/>
<path d="M18.75 4.0625H1.25" stroke="white" stroke-width="1.5" stroke-miterlimit="10" stroke-linecap="round" stroke-linejoin="round"/>
<path d="M16.5625 5.9375L15.7288 17.6112C15.7006 18.0054 15.5242 18.3743 15.2349 18.6436C14.9457 18.9129 14.5652 19.0626 14.17 19.0625H5.83C5.43482 19.0626 5.0543 18.9129 4.76507 18.6436C4.47584 18.3743 4.29939 18.0054 4.27125 17.6112L3.4375 5.9375" stroke="white" stroke-width="1.5" stroke-miterlimit="10" stroke-linecap="round" stroke-linejoin="round"/>
</svg>
