<svg width="21" height="22" viewBox="0 0 21 22" fill="none" xmlns="http://www.w3.org/2000/svg">
<path d="M20.6505 20.2837H19.7005V8.00683C19.7005 7.7952 19.5289 7.62367 19.3172 7.62367H15.9838C15.7722 7.62367 15.6005 7.7952 15.6005 8.00683V20.2837H15.0338V12.671C15.0338 12.4594 14.8622 12.2879 14.6505 12.2879H11.3172C11.1055 12.2879 10.9338 12.4594 10.9338 12.671V20.2837H10.3672V9.33946C10.3672 9.12783 10.1955 8.9563 9.98385 8.9563H6.65051C6.43884 8.9563 6.26718 9.12783 6.26718 9.33946V20.2837H5.70051V14.0037C5.70051 13.7921 5.52885 13.6205 5.31718 13.6205H1.98385C1.77217 13.6205 1.60051 13.7921 1.60051 14.0037V20.2837H0.650513H0.600513V20.3337V21V21.05H0.650513H20.6505H20.7005V21V20.3337V20.2837H20.6505ZM4.93385 20.2837H2.36718V14.3868H4.93385V20.2837ZM9.60051 20.2837H7.03385V9.72262H9.60051V20.2837ZM14.2672 20.2837H11.7005V13.0542H14.2672V20.2837ZM18.9338 20.2837H16.3672V8.38998H18.9338V20.2837Z" fill="#EE0033" stroke="#EE0033" stroke-width="0.1"/>
<path d="M7.53523 3.46893C7.53628 3.46741 7.53734 3.46589 7.5384 3.46437L7.53857 3.46413C7.53978 3.46239 7.54068 3.46087 7.54128 3.45979C7.54068 3.46088 7.53977 3.46239 7.53856 3.46412C7.5385 3.4642 7.53845 3.46428 7.53839 3.46436L7.53523 3.46893ZM7.53523 3.46893C7.23817 3.89805 7.34335 4.48697 7.77158 4.78674C8.20135 5.08754 8.79373 4.9832 9.09472 4.55368C9.39569 4.12417 9.29129 3.53214 8.86153 3.23131L8.86148 3.23128C8.70242 3.11965 8.51285 3.05964 8.31849 3.05944L8.31854 3.00944L8.31857 3.05944C8.26251 3.05948 8.20657 3.06424 8.15132 3.07372L8.14287 3.02444L7.53523 3.46893ZM2.97821 8.00155L2.9782 8.00156L2.97797 8.00179L2.97777 8.00199L2.97821 8.00155ZM2.97821 8.00155C3.34935 7.6308 3.95091 7.63092 4.32185 8.00186M2.97821 8.00155L4.32185 8.00186M4.32185 8.00186C4.69264 8.37266 4.69266 8.97355 4.32196 9.34431M4.32185 8.00186L4.32196 9.34431M4.32196 9.34431C3.94556 9.70246 3.35419 9.70246 2.97779 9.34431C2.6071 8.97359 2.60707 8.37277 2.97774 8.00202L4.32196 9.34431ZM8.31309 5.72471H8.31318C8.41421 5.72476 8.51502 5.71593 8.6145 5.69831C8.92722 5.64353 9.21811 5.50258 9.45465 5.2918L11.3698 6.76331C11.0546 7.63891 11.4964 8.60988 12.3697 8.9452C13.2547 9.285 14.2478 8.84342 14.5878 7.95884C14.7823 7.45285 14.7259 6.88561 14.4375 6.42843L16.739 4.12811C17.5281 4.6241 18.5733 4.40184 19.0905 3.62074C19.6154 2.82824 19.398 1.76054 18.6051 1.23603C17.8122 0.711486 16.744 0.928714 16.2192 1.72121C15.8454 2.28562 15.838 3.01536 16.197 3.58632L13.8954 5.8867C13.2243 5.46575 12.3501 5.55859 11.7826 6.11388L9.90121 4.66864C10.2602 3.81105 9.86952 2.81961 9.01545 2.43958C8.14932 2.05418 7.1346 2.44352 6.74899 3.30922C6.51606 3.83219 6.55971 4.43594 6.86331 4.91924L4.56204 7.21962C3.77492 6.72559 2.73303 6.94781 2.21771 7.72691L2.25941 7.7545L2.21771 7.72691C1.69488 8.51743 1.91219 9.58188 2.7031 10.1045C2.98395 10.29 3.3132 10.389 3.64988 10.3889C4.59792 10.3889 5.3665 9.62071 5.36646 8.67305C5.36646 8.35032 5.27536 8.03439 5.10409 7.76146L7.40622 5.46021C7.67719 5.63211 7.99159 5.72397 8.31309 5.72471ZM12.9832 6.39103H12.9832C13.5079 6.39095 13.9333 6.81602 13.9333 7.34039C13.9334 7.59215 13.8333 7.83362 13.6553 8.01169C13.2789 8.36982 12.6875 8.36982 12.3111 8.01168C11.9404 7.64095 11.9404 7.0401 12.3111 6.66935C12.4893 6.49113 12.7311 6.39099 12.9832 6.39103ZM17.6499 1.72681C18.1746 1.72681 18.5999 2.15192 18.5999 2.67629C18.5999 3.20065 18.1746 3.62576 17.6499 3.62576C17.1252 3.62576 16.6999 3.20065 16.6999 2.67629C16.6999 2.15192 17.1252 1.72681 17.6499 1.72681Z" fill="#EE0033" stroke="#EE0033" stroke-width="0.1"/>
</svg>
