<svg width="20" height="20" viewBox="0 0 20 20" fill="none" xmlns="http://www.w3.org/2000/svg">
<path d="M10.5916 1.56191C10.6139 1.56269 10.6362 1.56269 10.6584 1.56191C12.6473 1.49101 14.5831 2.21166 16.0415 3.56586C17.4916 4.91234 18.3519 6.77592 18.4368 8.75201C18.3643 10.6248 17.5716 12.3978 16.2234 13.7009C16.0408 13.8776 15.9375 14.1209 15.9375 14.375V17.7211L12.894 15.8994C12.696 15.7809 12.4613 15.7395 12.2348 15.7833C11.7042 15.8858 11.1651 15.9374 10.6248 15.9375C10.6137 15.9375 10.6027 15.9378 10.5916 15.9381C8.60272 16.009 6.66687 15.2884 5.20849 13.9341C3.75892 12.5881 2.89867 10.7253 2.81329 8.75001C2.89867 6.77467 3.75892 4.91189 5.20849 3.56586C6.66687 2.21166 8.60272 1.49101 10.5916 1.56191Z" stroke="#44494D" stroke-width="1.5" stroke-linecap="round" stroke-linejoin="round"/>
<path d="M10.625 4.375V9.375" stroke="#44494D" stroke-width="1.5" stroke-linecap="round" stroke-linejoin="round"/>
<path d="M10.625 11.25C10.3778 11.25 10.1361 11.3233 9.93054 11.4607C9.72497 11.598 9.56476 11.7932 9.47015 12.0217C9.37554 12.2501 9.35079 12.5014 9.39902 12.7439C9.44725 12.9864 9.5663 13.2091 9.74111 13.3839C9.91594 13.5588 10.1387 13.6777 10.3811 13.726C10.6236 13.7742 10.8749 13.7495 11.1033 13.6549C11.3318 13.5602 11.527 13.4 11.6643 13.1945C11.8017 12.9889 11.875 12.7473 11.875 12.5C11.875 12.1685 11.7433 11.8505 11.5089 11.6161C11.2745 11.3817 10.9565 11.25 10.625 11.25Z" fill="#44494D"/>
</svg>
