<svg width="20" height="20" viewBox="0 0 20 20" fill="none" xmlns="http://www.w3.org/2000/svg">
<path d="M7.23803 13.4722H3.054C2.67067 13.4722 2.35956 13.1611 2.35956 12.7778C2.35956 12.3944 2.67067 12.0833 3.054 12.0833H7.23803C7.62136 12.0833 7.93247 12.3944 7.93247 12.7778C7.93247 13.1611 7.62171 13.4722 7.23803 13.4722Z" fill="#44494D"/>
<path d="M7.238 10.6944H4.44286C4.05952 10.6944 3.74841 10.3833 3.74841 9.99999C3.74841 9.61665 4.05952 9.30554 4.44286 9.30554H7.238C7.62134 9.30554 7.93245 9.61665 7.93245 9.99999C7.93245 10.3833 7.62169 10.6944 7.238 10.6944Z" fill="#44494D"/>
<path d="M17.6373 16.25H1.66509C1.28175 16.25 0.970642 15.9389 0.970642 15.5556C0.970642 15.1723 1.28175 14.8611 1.66509 14.8611H17.6373C18.0206 14.8611 18.3318 15.1723 18.3318 15.5556C18.3318 15.9389 18.021 16.25 17.6373 16.25Z" fill="#44494D"/>
<path d="M4.44286 8.61112C4.05953 8.61112 3.74841 8.30001 3.74841 7.91668V5.1389C3.74841 4.75557 4.05953 4.44446 4.44286 4.44446C4.8262 4.44446 5.13731 4.75557 5.13731 5.1389V7.91668C5.13731 8.30001 4.82655 8.61112 4.44286 8.61112Z" fill="#44494D"/>
<path d="M11.3873 10.8419C10.8561 10.8419 10.3245 10.6669 9.8814 10.3169C9.58036 10.0794 9.52897 9.64259 9.76647 9.34155C10.004 9.04085 10.4408 8.98912 10.7418 9.22662C11.1217 9.52627 11.6529 9.52627 12.0328 9.22662C12.3345 8.98912 12.771 9.04051 13.0081 9.34155C13.246 9.64259 13.1942 10.0794 12.8932 10.3169C12.4501 10.6669 11.9185 10.8419 11.3873 10.8419Z" fill="#44494D"/>
<path d="M12.4637 10.4667C12.2585 10.4667 12.0554 10.376 11.9182 10.2024C11.6804 9.90138 11.7318 9.46458 12.0331 9.22708L17.9015 4.59374C18.2026 4.35624 18.6394 4.40763 18.8769 4.70867C19.1147 5.00972 19.0633 5.44652 18.7619 5.68402L12.8936 10.3174C12.7661 10.4177 12.614 10.4667 12.4637 10.4667Z" fill="#44494D"/>
<path d="M10.3113 10.4665C10.1606 10.4665 10.0089 10.4176 9.88142 10.3172L4.01269 5.68389C3.71165 5.44604 3.66026 5.00958 3.89776 4.70854C4.13561 4.40785 4.57206 4.35646 4.8731 4.59361L10.7418 9.22694C11.0429 9.46479 11.0943 9.90125 10.8568 10.2023C10.7196 10.3759 10.5165 10.4665 10.3113 10.4665Z" fill="#44494D"/>
<path d="M4.44251 5.83333C4.05918 5.83333 3.74841 5.52222 3.74841 5.13889C3.74841 4.37292 4.37133 3.75 5.13731 3.75C5.52064 3.75 5.83176 4.06111 5.83176 4.44444C5.83176 4.82778 5.52064 5.13889 5.13731 5.13889H5.13661C5.13661 5.52222 4.8262 5.83333 4.44251 5.83333Z" fill="#44494D"/>
<path d="M17.6373 5.13889H5.13732C4.75398 5.13889 4.44287 4.82778 4.44287 4.44444C4.44287 4.06111 4.75398 3.75 5.13732 3.75H17.6373C18.0206 3.75 18.3318 4.06111 18.3318 4.44444C18.3318 4.82778 18.021 5.13889 17.6373 5.13889Z" fill="#44494D"/>
<path d="M18.3318 15.5556C17.9484 15.5556 17.6373 15.2445 17.6373 14.8611V5.1389C17.6373 4.75557 17.9484 4.44446 18.3318 4.44446C18.7151 4.44446 19.0262 4.75557 19.0262 5.1389V14.8611C19.0262 15.2445 18.7155 15.5556 18.3318 15.5556Z" fill="#44494D"/>
<path d="M18.3318 5.83333C17.9484 5.83333 17.6373 5.52222 17.6373 5.13889V5.13819C17.254 5.13819 16.9429 4.82778 16.9429 4.4441C16.9429 4.06076 17.254 3.75 17.6373 3.75C18.4033 3.75 19.0262 4.37292 19.0262 5.13889C19.0262 5.52222 18.7154 5.83333 18.3318 5.83333Z" fill="#44494D"/>
<path d="M17.6373 16.25C17.254 16.25 16.9429 15.9389 16.9429 15.5556C16.9429 15.1722 17.254 14.8611 17.6373 14.8611H17.638C17.638 14.4778 17.9484 14.1667 18.3321 14.1667C18.7154 14.1667 19.0262 14.4778 19.0262 14.8611C19.0262 15.6271 18.4033 16.25 17.6373 16.25Z" fill="#44494D"/>
</svg>
