<svg width="181" height="156" viewBox="0 0 181 156" fill="none" xmlns="http://www.w3.org/2000/svg">
<path fill-rule="evenodd" clip-rule="evenodd" d="M120.676 71.6925C128.421 71.6925 129.008 84.4665 120.324 84.4665C112.245 84.4665 111.708 71.6925 120.676 71.6925ZM60.3383 84.4665C51.6191 84.4665 52.1866 71.6925 59.9853 71.6925C68.8814 71.6925 68.1693 84.4665 60.3383 84.4665ZM81.5096 64.9507C81.5096 68.6107 83.7486 71.4169 86.0963 72.7575C90.074 75.0282 95.2259 72.0199 102.294 78.8237C102.346 78.8742 102.422 78.9467 102.473 78.9982C113.245 89.7607 104.182 106.726 94.5652 107.531C94.5652 113.149 95.4684 116.757 89.2724 116.757C88.3042 116.757 86.6313 115.304 86.2383 113.776C85.8355 112.21 86.0967 109.285 86.0967 107.531C81.9717 107.186 77.0834 102.554 75.3918 99.4897C73.7257 96.4712 70.4161 86.9508 77.9811 86.9508C82.1753 86.9508 81.3917 92.3408 82.3497 94.622C85.8148 102.871 98.8034 100.733 99.0961 91.1793C99.2323 86.732 95.4708 82.7883 91.3478 82.3798C85.786 81.8289 82.3731 81.5301 78.016 76.9803C73.2456 71.9988 71.9952 64.5416 74.696 58.0989C75.5507 56.0599 76.2415 55.3993 77.4709 53.793C78.9853 51.8146 83.1147 48.8782 86.0967 48.6285C86.0967 41.435 85.8084 39.4028 91.0365 39.4028C95.0782 39.4028 94.5649 44.5349 94.5649 48.6285C100.073 49.0895 107.268 56.7355 107.268 63.5314C107.268 66.5829 107.29 69.209 102.68 69.209C98.489 69.209 99.2116 63.6854 98.3152 61.5343C94.7465 52.9699 81.5092 55.8715 81.5092 64.9511L81.5096 64.9507ZM34.227 77.7247C34.227 128.401 94.8085 153.237 129.939 117.91C157.136 90.5597 149.875 44.3574 113.742 26.8602C92.024 16.3436 66.2274 22.6483 50.8995 38.0717C45.3082 43.6978 42.9246 47.5094 39.3999 54.5394C36.592 60.1392 34.2273 69.4362 34.2273 77.7247H34.227Z" fill="#44494D"/>
<path fill-rule="evenodd" clip-rule="evenodd" d="M15.1727 59.2747C15.1727 60.7604 14.9488 61.9146 16.5133 63.2488C18.1655 64.6575 22.1327 65.392 23.7849 60.4837C24.5035 58.3494 24.891 56.6327 25.6218 54.5245C26.9149 50.793 29.8613 44.5922 31.9628 41.3853C36.5631 34.3648 42.0036 27.8053 48.8427 22.8766C54.4705 18.8208 57.2746 17.1954 63.8683 14.2127C84.9156 4.69154 112.48 8.42443 130.909 22.3717C134.558 25.133 138.233 28.0611 141.09 31.6503C141.73 32.455 142.314 32.8692 142.959 33.6732C145.369 36.6733 147.323 39.4008 149.369 42.84C150.978 45.5434 153.418 50.3552 154.422 53.3716C155.476 56.54 157.726 62.3184 157.726 66.0165C155.61 64.5917 151.926 58.0404 147.567 61.8329C143.051 65.7633 149.885 70.7278 153.404 74.2665C154.76 75.6302 160.78 82.339 162.313 82.339C166.247 82.339 165.619 82.0307 168.753 78.8794L177.045 70.5408C179.525 68.047 180.662 67.8998 180.662 64.5972C180.662 62.5412 178.838 60.694 176.075 60.694C173.011 60.694 169.57 66.2304 167.253 67.7908C166.784 66.8076 166.178 62.039 165.774 60.4068C164.086 53.59 161.808 46.5559 158.283 40.6181C155.716 36.2951 154.389 33.7608 151.104 29.7411C142.851 19.6428 132.761 11.1462 120.477 6.24984C101.24 -1.41761 81.4823 -2.4073 62.1524 5.39029C48.4524 10.9169 42.1181 16.2714 32.5438 26.002C31.6809 26.8793 31.4143 27.404 30.6073 28.3126C29.8203 29.1987 29.4633 29.7009 28.7322 30.6848C27.4319 32.4345 26.3468 33.7584 25.2017 35.6506L19.4072 46.5007C18.4403 48.5019 15.1731 56.7699 15.1731 59.275L15.1727 59.2747Z" fill="#44494D"/>
<path fill-rule="evenodd" clip-rule="evenodd" d="M0 90.5014C0 93.7801 2.18616 95.4689 3.88143 95.4689C8.04406 95.4689 10.612 90.2554 13.4083 88.3721C16.4814 101.636 15.2615 101.283 22.3431 115.581C25.6262 122.209 33.0649 131.067 38.192 135.836C59.2555 155.428 90.5096 161.452 118.51 150.774C129.442 146.605 140.734 138.589 148.284 129.974C153.356 124.186 158.554 116.179 161.461 109.16C163.377 104.534 167.352 96.3952 164.183 93.2333C161.607 90.6629 157.835 92.4249 156.876 95.3241C156.533 96.3646 156.284 97.5593 156.042 98.3882C154.666 103.113 152.275 108.216 150.085 112.268C146.891 118.176 141.001 125.655 136.098 129.783C130.263 134.696 124.21 138.83 116.748 141.905C91.3924 152.354 64.0083 146.964 45.2478 130.159C38.8875 124.462 35.7433 120.865 30.9803 112.927C26.3749 105.251 24.5821 98.422 22.5826 89.7911C24.3304 90.9681 27.456 95.4686 29.6398 95.4686C32.5547 95.4686 34.417 93.3604 34.3777 90.9048C34.3336 88.151 31.9208 86.5849 30.4335 85.0896C15.3442 69.9159 18.7367 70.0624 4.14603 84.7346C2.89693 85.9904 0 88.4082 0 90.5007V90.5014Z" fill="#44494D"/>
</svg>
