<svg width="295" height="385" viewBox="0 0 295 385" fill="none" xmlns="http://www.w3.org/2000/svg">
<path d="M39.5947 322.789L44.4995 324.344C43.7476 327.078 42.4943 329.112 40.7397 330.445C38.9966 331.766 36.7806 332.427 34.0918 332.427C30.765 332.427 28.0306 331.294 25.8887 329.026C23.7467 326.748 22.6758 323.637 22.6758 319.695C22.6758 315.525 23.7524 312.29 25.9058 309.988C28.0591 307.675 30.8903 306.519 34.3994 306.519C37.4642 306.519 39.9536 307.425 41.8677 309.236C43.007 310.307 43.8615 311.845 44.4312 313.851L39.4238 315.047C39.1276 313.748 38.5067 312.723 37.561 311.971C36.6268 311.219 35.4875 310.843 34.1431 310.843C32.286 310.843 30.7764 311.509 29.6143 312.842C28.4635 314.175 27.8882 316.334 27.8882 319.319C27.8882 322.487 28.4578 324.743 29.5972 326.087C30.7365 327.431 32.2176 328.104 34.0405 328.104C35.3849 328.104 36.5413 327.676 37.5098 326.822C38.4782 325.967 39.1732 324.623 39.5947 322.789ZM71.4502 332H65.9473L63.7598 326.309H53.7451L51.6772 332H46.311L56.0693 306.946H61.4185L71.4502 332ZM62.1362 322.088L58.6841 312.791L55.3003 322.088H62.1362ZM58.667 304.827L56.7871 306.092H53.4204L57.146 303.87H60.188L63.9136 306.092H60.5469L58.667 304.827ZM57.9663 302.537C58.4106 302.514 58.7354 302.48 58.9404 302.435C59.4987 302.309 59.7835 302.15 59.7949 301.956C59.8063 301.808 59.6582 301.683 59.3506 301.58C58.9062 301.432 58.2056 301.358 57.2485 301.358C57.1574 301.358 56.9466 301.381 56.6162 301.426C56.2858 301.46 56.0067 301.483 55.7788 301.495L55.5908 300.384C56.001 300.327 56.7643 300.304 57.8809 300.315C60.8659 300.327 62.3869 300.726 62.4438 301.512C62.478 302.286 61.5153 302.805 59.5557 303.067V303.289H57.9663V302.537ZM74.2017 332V306.946H79.1235L89.3774 323.677V306.946H94.0771V332H89.0015L78.9014 315.662V332H74.2017ZM114.824 332V311.185H107.39V306.946H127.3V311.185H119.883V332H114.824ZM130.598 332V306.946H135.657V316.807H145.569V306.946H150.627V332H145.569V321.045H135.657V332H130.598ZM178.467 332H172.964L170.776 326.309H160.762L158.694 332H153.328L163.086 306.946H168.435L178.467 332ZM169.153 322.088L165.701 312.791L162.317 322.088H169.153ZM165.684 304.827L163.804 306.092H160.437L164.163 303.87H167.205L170.93 306.092H167.563L165.684 304.827ZM163.376 338.853V334.051H168.179V338.853H163.376ZM181.218 332V306.946H186.14L196.394 323.677V306.946H201.094V332H196.018L185.918 315.662V332H181.218ZM216.27 332V306.946H221.328V318.072L231.548 306.946H238.35L228.916 316.705L238.862 332H232.317L225.43 320.242L221.328 324.429V332H216.27ZM241.511 332V306.946H246.57V316.807H256.482V306.946H261.541V332H256.482V321.045H246.57V332H241.511ZM266.633 332V306.946H271.692V332H266.633ZM80.354 372L88.916 358.926L81.1572 346.946H87.0703L92.0947 354.996L97.0166 346.946H102.878L95.0854 359.114L103.647 372H97.5464L91.9922 363.335L86.4209 372H80.354ZM106.245 372V346.946H124.822V351.185H111.304V356.739H123.882V360.96H111.304V367.779H125.3V372H106.245ZM116.055 344.827L114.175 346.092H110.808L114.534 343.87H117.576L121.301 346.092H117.935L116.055 344.827ZM113.987 343.289L116.055 340.503H121.438L117.029 343.289H113.987ZM129.59 372V346.946H137.708C140.784 346.946 142.789 347.072 143.723 347.322C145.159 347.698 146.361 348.519 147.329 349.783C148.298 351.036 148.782 352.66 148.782 354.654C148.782 356.192 148.503 357.485 147.944 358.533C147.386 359.581 146.674 360.407 145.808 361.011C144.954 361.604 144.082 361.997 143.193 362.19C141.986 362.43 140.237 362.549 137.947 362.549H134.648V372H129.59ZM134.648 351.185V358.294H137.417C139.411 358.294 140.744 358.163 141.416 357.901C142.088 357.639 142.612 357.229 142.988 356.67C143.376 356.112 143.569 355.463 143.569 354.722C143.569 353.811 143.302 353.059 142.766 352.466C142.231 351.874 141.553 351.504 140.732 351.355C140.129 351.242 138.915 351.185 137.092 351.185H134.648ZM162.009 346.946H171.255C173.34 346.946 174.929 347.106 176.023 347.425C177.493 347.858 178.752 348.627 179.8 349.732C180.848 350.837 181.646 352.193 182.192 353.799C182.739 355.394 183.013 357.365 183.013 359.712C183.013 361.775 182.756 363.552 182.244 365.044C181.617 366.867 180.723 368.343 179.561 369.471C178.683 370.325 177.498 370.992 176.006 371.47C174.889 371.823 173.397 372 171.528 372H162.009V346.946ZM167.068 351.185V367.779H170.845C172.257 367.779 173.277 367.699 173.904 367.54C174.724 367.334 175.402 366.987 175.938 366.497C176.484 366.007 176.929 365.204 177.271 364.087C177.612 362.959 177.783 361.427 177.783 359.49C177.783 357.553 177.612 356.067 177.271 355.03C176.929 353.993 176.45 353.184 175.835 352.603C175.22 352.022 174.439 351.629 173.494 351.424C172.787 351.264 171.403 351.185 169.341 351.185H167.068ZM191.506 359.456C191.506 362.213 192.161 364.367 193.472 365.916C194.714 367.374 196.377 368.104 198.462 368.104C200.547 368.104 202.205 367.374 203.435 365.916C204.722 364.389 205.366 362.213 205.366 359.388C205.366 356.585 204.74 354.443 203.486 352.962C202.279 351.549 200.604 350.843 198.462 350.843C196.32 350.843 194.639 351.561 193.42 352.996C192.144 354.489 191.506 356.642 191.506 359.456ZM209.827 346.946H214.629V350.381C214.629 351.794 214.504 352.899 214.253 353.697C214.014 354.494 213.569 355.206 212.92 355.833C212.271 356.448 211.456 356.938 210.476 357.303C210.556 358.009 210.596 358.744 210.596 359.507C210.596 363.518 209.502 366.674 207.314 368.975C205.127 371.277 202.182 372.427 198.479 372.427C194.742 372.427 191.774 371.288 189.575 369.009C187.388 366.719 186.294 363.592 186.294 359.627C186.294 355.434 187.456 352.147 189.78 349.766C191.877 347.601 194.753 346.519 198.411 346.519C202.102 346.519 205.059 347.664 207.28 349.954C208.613 351.344 209.548 353.059 210.083 355.098C211.416 354.494 212.105 353.378 212.151 351.749H209.827V346.946ZM194.326 345.562H192.139C192.127 345.3 192.122 345.095 192.122 344.947C192.122 343.75 192.412 342.833 192.993 342.195C193.574 341.546 194.32 341.221 195.232 341.221C195.631 341.221 196.001 341.267 196.343 341.358C196.685 341.438 197.306 341.683 198.206 342.093C199.117 342.492 199.829 342.691 200.342 342.691C200.706 342.691 201.008 342.577 201.248 342.349C201.498 342.121 201.658 341.74 201.726 341.204H203.948C203.936 342.742 203.646 343.842 203.076 344.502C202.518 345.163 201.794 345.494 200.906 345.494C200.518 345.494 200.137 345.454 199.761 345.374C199.499 345.306 198.844 345.072 197.795 344.673C196.747 344.275 195.984 344.075 195.505 344.075C195.141 344.075 194.856 344.189 194.651 344.417C194.446 344.633 194.338 345.015 194.326 345.562Z" fill="black"/>
<path d="M148 280C70.7999 280 8 217.2 8 140C8 62.7999 70.7999 0 148 0C225.2 0 288 62.7999 288 140C288 217.2 225.2 280 148 280ZM148 11.2724C77.0209 11.2724 19.2724 69.0209 19.2724 140C19.2724 210.979 77.0209 268.728 148 268.728C218.979 268.728 276.728 210.979 276.728 140C276.736 69.0209 218.988 11.2724 148 11.2724Z" fill="#2B2B2B"/>
<path d="M135.67 160.335L109.642 134.446C105.856 130.659 99.7214 130.659 95.9351 134.446C92.1487 138.232 92.1487 144.367 95.9351 148.153L110.162 162.077C110.933 162.83 111.098 164.009 110.569 164.945C109.798 166.322 107.918 166.574 106.809 165.447L88.683 147.122C86.0057 144.445 84.5327 140.892 84.5327 137.106V98.8696C84.5327 93.7056 80.6337 89.2001 75.4871 88.8708C69.8465 88.5069 65.1504 92.9778 65.1504 98.5404V157.459C65.1504 166.418 68.6421 174.839 74.9758 181.182L83.0944 189.465C92.504 199.065 97.7719 211.967 97.7719 225.405V226.913C97.7719 233.515 103.118 238.861 109.72 238.861C120.256 238.861 133.946 238.861 133.946 238.861C139.301 238.861 143.633 234.52 143.633 229.174V179.588C143.641 172.318 140.808 165.482 135.67 160.335Z" fill="#2B2B2B"/>
<path d="M160.338 160.335L186.366 134.446C190.152 130.659 196.286 130.659 200.073 134.446C203.859 138.232 203.859 144.367 200.073 148.153L185.846 162.077C185.075 162.83 184.91 164.009 185.438 164.945C186.21 166.322 188.09 166.574 189.199 165.447L207.325 147.122C210.002 144.445 211.475 140.892 211.475 137.106V98.8696C211.475 93.7056 215.374 89.2001 220.521 88.8708C226.161 88.5069 230.857 92.9778 230.857 98.5404V157.459C230.857 166.418 227.366 174.839 221.032 181.182L212.913 189.465C203.504 199.065 198.236 211.967 198.236 225.405V226.913C198.236 233.515 192.89 238.861 186.288 238.861C175.752 238.861 162.062 238.861 162.062 238.861C156.707 238.861 152.375 234.52 152.375 229.174V179.588C152.366 172.318 155.191 165.482 160.338 160.335Z" fill="#2B2B2B"/>
<path d="M140.782 92.8047L110.154 75.1206C107.797 73.7602 104.842 75.4585 104.842 78.1878V113.305C104.842 114.57 105.518 115.739 106.61 116.372L137.239 134.056C139.595 135.416 142.55 133.718 142.55 130.989V95.8719C142.55 94.6069 141.874 93.4372 140.782 92.8047Z" fill="#2B2B2B"/>
<path d="M180.432 59.3169L149.769 41.6155C148.677 40.983 147.325 40.983 146.233 41.6155L115.752 59.213C113.395 60.5733 113.395 63.9784 115.752 65.3474L146.415 83.0488C147.507 83.6813 148.859 83.6813 149.959 83.0488L180.441 65.4514C182.797 64.091 182.797 60.6773 180.432 59.3169Z" fill="#2B2B2B"/>
<path d="M191.158 113.305V78.3956C191.158 75.675 188.212 73.9681 185.846 75.3284L155.582 92.7959C154.49 93.4284 153.814 94.5981 153.814 95.8631V130.772C153.814 133.501 156.76 135.2 159.125 133.839L189.39 116.372C190.491 115.739 191.158 114.57 191.158 113.305Z" fill="#2B2B2B"/>
</svg>
