<svg width="444" height="630" viewBox="0 0 444 630" fill="none" xmlns="http://www.w3.org/2000/svg">
<rect width="444" height="630" fill="white"/>
<circle cx="222.02" cy="260.024" r="184.017" stroke="black" stroke-width="12.0011"/>
<path d="M269.531 312.841C268.281 312.841 267.07 312.765 265.873 312.683L264.45 312.601C259.95 312.225 255.833 311.412 251.965 310.156L256.736 295.502C259.514 296.405 262.366 296.969 265.466 297.232L266.903 297.314C268.59 297.435 270.343 297.435 272.028 297.322L273.865 297.21C286.975 296.081 298.233 288.92 304.442 277.583C310.312 266.893 310.456 254.623 304.856 243.927L269.522 176.328L234.124 243.927C233.812 244.491 233.638 244.758 233.518 245.036L219.377 238.905C219.712 238.138 220.133 237.359 220.577 236.584L269.537 143.078L318.515 236.787C326.432 251.896 326.222 269.917 317.958 284.992C309.348 300.691 293.25 311.005 274.887 312.577L273.059 312.69C271.893 312.773 270.75 312.841 269.531 312.841Z" fill="black"/>
<path d="M232.598 232.342C218.382 208.878 202.57 188.57 194.41 178.553C193.318 177.211 191.679 176.432 189.95 176.433C188.22 176.433 186.582 177.212 185.489 178.553C177.329 188.573 161.517 208.888 147.301 232.355C128.981 262.597 119.692 287.6 119.692 306.669C119.692 345.409 151.209 376.926 189.949 376.926C228.689 376.926 260.206 345.409 260.206 306.669C260.207 287.588 250.919 262.58 232.598 232.342ZM199.59 351.049C195.488 352.098 191.23 352.63 186.931 352.63C160.683 352.63 139.329 332.792 139.329 308.409C139.329 302.523 140.883 295.645 143.945 287.968C144.462 286.671 145.936 285.931 147.389 286.245C148.841 286.558 149.816 287.823 149.666 289.2C149.487 290.846 149.396 292.455 149.396 293.978C149.396 320.513 170.777 342.734 199.131 345.663C200.542 345.808 201.643 346.864 201.755 348.179C201.868 349.495 200.959 350.699 199.59 351.049Z" fill="black"/>
<path d="M115.214 543.457C116.622 543.457 117.869 543.295 118.954 542.973C120.04 542.621 121.052 542.269 121.99 541.917C122.401 541.741 122.694 541.711 122.87 541.829C123.047 541.917 123.208 542.122 123.355 542.445L124.851 545.613C125.056 546.024 125.129 546.332 125.071 546.537C125.012 546.742 124.851 546.918 124.587 547.065C123.003 548.033 121.33 548.693 119.57 549.045C117.839 549.368 116.123 549.529 114.422 549.529C112.016 549.529 109.933 549.177 108.173 548.473C106.442 547.74 105.005 546.698 103.861 545.349C102.746 543.999 101.91 542.357 101.353 540.42C100.824 538.455 100.56 536.255 100.56 533.82C100.56 531.414 100.898 529.229 101.573 527.263C102.277 525.298 103.245 523.611 104.477 522.203C105.709 520.795 107.19 519.709 108.921 518.946C110.681 518.184 112.618 517.802 114.73 517.802C116.226 517.802 117.693 517.934 119.13 518.198C120.568 518.433 121.976 518.932 123.355 519.694C123.677 519.871 123.868 520.047 123.927 520.223C123.985 520.399 123.912 520.736 123.707 521.235L122.342 524.271C122.196 524.682 122.034 524.931 121.858 525.019C121.712 525.107 121.433 525.078 121.022 524.931C119.966 524.55 118.983 524.271 118.074 524.095C117.165 523.89 116.153 523.787 115.038 523.787C113.835 523.787 112.764 524.051 111.825 524.579C110.916 525.078 110.139 525.782 109.493 526.691C108.877 527.571 108.408 528.627 108.085 529.859C107.762 531.062 107.601 532.382 107.601 533.82C107.601 535.257 107.718 536.563 107.953 537.736C108.217 538.91 108.643 539.922 109.229 540.772C109.845 541.623 110.637 542.283 111.605 542.753C112.574 543.222 113.776 543.457 115.214 543.457ZM155.063 548.121C155.063 548.502 154.99 548.752 154.843 548.869C154.725 548.986 154.447 549.045 154.007 549.045H149.386C149.005 549.045 148.741 548.986 148.594 548.869C148.448 548.722 148.374 548.473 148.374 548.121V535.8H136.449V548.121C136.449 548.502 136.376 548.752 136.229 548.869C136.112 548.986 135.833 549.045 135.393 549.045H130.729C130.377 549.045 130.113 548.986 129.937 548.869C129.79 548.722 129.717 548.473 129.717 548.121V519.166C129.717 518.814 129.79 518.58 129.937 518.462C130.113 518.316 130.377 518.242 130.729 518.242H135.393C135.833 518.242 136.112 518.301 136.229 518.418C136.376 518.536 136.449 518.785 136.449 519.166V530.123H148.374V519.166C148.374 518.814 148.448 518.58 148.594 518.462C148.741 518.316 149.005 518.242 149.386 518.242H154.007C154.447 518.242 154.725 518.301 154.843 518.418C154.99 518.536 155.063 518.785 155.063 519.166V548.121ZM177.751 542.621H167.674L165.958 548.209C165.87 548.502 165.738 548.722 165.562 548.869C165.415 548.986 165.136 549.045 164.726 549.045H159.577C159.254 549.045 159.049 548.957 158.961 548.781C158.902 548.605 158.902 548.4 158.961 548.165L168.114 520.575C168.26 520.076 168.422 519.68 168.598 519.386C168.803 519.064 169.023 518.814 169.258 518.638C169.522 518.462 169.815 518.345 170.138 518.286C170.49 518.198 170.886 518.154 171.326 518.154H173.966C174.465 518.154 174.89 518.184 175.242 518.242C175.594 518.272 175.903 518.374 176.167 518.55C176.431 518.726 176.651 518.976 176.827 519.298C177.032 519.621 177.223 520.047 177.399 520.575L186.551 548.165C186.61 548.341 186.61 548.532 186.551 548.737C186.493 548.942 186.302 549.045 185.979 549.045H180.743C180.42 549.045 180.142 549.016 179.907 548.957C179.702 548.869 179.555 548.664 179.467 548.341L177.751 542.621ZM169.258 537.164H176.167L174.494 531.576L172.866 525.283H172.602L170.93 531.576L169.258 537.164ZM181.007 514.018C181.271 514.253 181.403 514.458 181.403 514.634C181.403 514.781 181.3 514.957 181.095 515.162L179.863 516.526C179.687 516.732 179.496 516.82 179.291 516.79C179.085 516.732 178.865 516.629 178.631 516.482L172.382 513.094L166.31 516.394C166.075 516.541 165.87 516.629 165.694 516.658C165.518 516.658 165.327 516.541 165.122 516.306L163.977 515.118C163.801 514.883 163.699 514.707 163.669 514.59C163.669 514.443 163.772 514.267 163.977 514.062L169.83 509.002C170.241 508.649 170.666 508.371 171.106 508.165C171.575 507.96 172.001 507.857 172.382 507.857C173.233 507.857 174.128 508.239 175.066 509.002L181.007 514.018ZM184.923 501.213C185.099 501.066 185.261 500.963 185.407 500.905C185.554 500.846 185.745 500.934 185.979 501.169L189.016 504.645C189.192 504.821 189.265 504.997 189.236 505.173C189.206 505.32 189.104 505.423 188.928 505.481L180.435 509.838C180.142 509.984 179.922 510.043 179.775 510.014C179.658 509.955 179.526 509.852 179.379 509.706L177.707 507.681C177.56 507.505 177.472 507.359 177.443 507.241C177.443 507.124 177.56 506.963 177.795 506.757L184.923 501.213ZM211.954 523.083C211.954 523.67 211.66 523.963 211.074 523.963H203.109V548.121C203.109 548.502 203.036 548.752 202.889 548.869C202.772 548.986 202.493 549.045 202.053 549.045H197.344C196.992 549.045 196.728 548.986 196.552 548.869C196.406 548.722 196.332 548.473 196.332 548.121V523.963H188.544C187.986 523.963 187.708 523.67 187.708 523.083V519.166C187.708 518.785 187.766 518.536 187.884 518.418C188.001 518.301 188.221 518.242 188.544 518.242H211.074C211.426 518.242 211.66 518.301 211.778 518.418C211.895 518.536 211.954 518.785 211.954 519.166V523.083ZM236.522 549.045C234.88 549.045 233.53 548.81 232.474 548.341C231.447 547.872 230.626 547.256 230.01 546.493C229.394 545.73 228.968 544.865 228.734 543.897C228.499 542.929 228.382 541.946 228.382 540.948V519.122C228.382 518.77 228.455 518.536 228.602 518.418C228.778 518.272 229.042 518.198 229.394 518.198H234.058C234.498 518.198 234.777 518.257 234.894 518.374C235.041 518.492 235.114 518.741 235.114 519.122V540.464C235.114 541.579 235.378 542.327 235.906 542.709C236.464 543.09 237.183 543.281 238.063 543.281H249.24C249.562 543.281 249.782 543.339 249.9 543.457C250.017 543.545 250.076 543.794 250.076 544.205V548.121C250.076 548.737 249.797 549.045 249.24 549.045H236.522ZM280.224 533.556C280.224 536.079 279.945 538.323 279.388 540.288C278.86 542.254 278.024 543.926 276.88 545.305C275.736 546.684 274.298 547.74 272.567 548.473C270.836 549.177 268.783 549.529 266.407 549.529C261.86 549.529 258.471 548.15 256.242 545.393C254.042 542.635 252.941 538.734 252.941 533.688C252.941 531.224 253.25 529.009 253.866 527.043C254.511 525.048 255.42 523.376 256.594 522.027C257.767 520.648 259.19 519.592 260.862 518.858C262.534 518.125 264.427 517.758 266.539 517.758C268.827 517.758 270.822 518.125 272.523 518.858C274.254 519.592 275.677 520.648 276.792 522.027C277.936 523.376 278.786 525.034 279.344 526.999C279.931 528.935 280.224 531.121 280.224 533.556ZM273.227 533.688C273.227 532.368 273.125 531.106 272.919 529.903C272.743 528.701 272.406 527.645 271.907 526.735C271.408 525.826 270.734 525.107 269.883 524.579C269.032 524.022 267.932 523.743 266.583 523.743C265.468 523.743 264.485 524.007 263.634 524.535C262.813 525.034 262.124 525.723 261.566 526.603C261.009 527.483 260.598 528.51 260.334 529.683C260.07 530.857 259.938 532.104 259.938 533.424C259.938 534.979 260.041 536.372 260.246 537.604C260.481 538.836 260.848 539.892 261.346 540.772C261.874 541.652 262.564 542.327 263.414 542.797C264.265 543.266 265.336 543.501 266.627 543.501C267.888 543.501 268.944 543.237 269.795 542.709C270.646 542.151 271.32 541.432 271.819 540.552C272.318 539.643 272.67 538.602 272.875 537.428C273.11 536.225 273.227 534.979 273.227 533.688ZM267.023 506.889C268.343 506.889 269.384 507.227 270.147 507.901C270.91 508.576 271.291 509.486 271.291 510.63C271.291 511.187 271.174 511.671 270.939 512.082C270.734 512.463 270.47 512.83 270.147 513.182C269.824 513.534 269.487 513.886 269.135 514.238C268.812 514.561 268.519 514.942 268.255 515.382C268.196 515.734 268.02 516.042 267.727 516.306C267.463 516.57 267.14 516.702 266.759 516.702H266.319C265.879 516.702 265.512 516.57 265.219 516.306C264.955 516.013 264.823 515.646 264.823 515.206C264.823 514.766 264.881 514.399 264.999 514.106C265.116 513.783 265.277 513.505 265.483 513.27C265.688 513.035 265.908 512.83 266.143 512.654C266.407 512.449 266.671 512.228 266.935 511.994C267.228 511.759 267.419 511.495 267.507 511.202C267.624 510.879 267.683 510.659 267.683 510.542C267.683 510.307 267.448 510.204 266.979 510.234C266.539 510.234 266.113 510.351 265.703 510.586C265.204 510.908 264.749 511.084 264.339 511.114C263.928 511.114 263.576 510.82 263.282 510.234C263.048 509.764 262.96 509.339 263.018 508.958C263.106 508.576 263.297 508.268 263.59 508.033C264.118 507.623 264.691 507.329 265.307 507.153C265.923 506.977 266.495 506.889 267.023 506.889ZM292.61 529.903V548.121C292.61 548.502 292.536 548.752 292.39 548.869C292.272 548.986 292.008 549.045 291.598 549.045H286.977C286.625 549.045 286.361 548.986 286.185 548.869C286.038 548.722 285.965 548.473 285.965 548.121V521.279C285.965 520.135 286.17 519.342 286.581 518.902C286.992 518.433 287.74 518.198 288.825 518.198H290.674C291.114 518.198 291.48 518.228 291.774 518.286C292.096 518.316 292.375 518.404 292.61 518.55C292.844 518.697 293.064 518.902 293.27 519.166C293.475 519.43 293.71 519.768 293.974 520.179L301.455 531.576L305.239 537.516H305.459V519.122C305.459 518.77 305.518 518.536 305.635 518.418C305.782 518.272 306.06 518.198 306.471 518.198H311.091C311.766 518.198 312.103 518.506 312.103 519.122V546.009C312.103 546.948 311.913 547.696 311.531 548.253C311.15 548.781 310.387 549.045 309.243 549.045H307.395C306.955 549.045 306.574 549.03 306.251 549.001C305.958 548.942 305.694 548.84 305.459 548.693C305.224 548.546 305.004 548.356 304.799 548.121C304.593 547.857 304.359 547.52 304.095 547.109L297.054 536.46L292.83 529.903H292.61ZM332.307 543.501C332.865 543.501 333.569 543.471 334.42 543.413C335.27 543.325 336.092 543.134 336.884 542.841L336.928 536.328C335.901 536.269 334.874 536.328 333.848 536.504C332.821 536.68 331.823 536.973 330.855 537.384C330.445 537.531 330.151 537.604 329.975 537.604C329.829 537.604 329.682 537.443 329.535 537.12L328.391 533.556C328.303 533.321 328.274 533.116 328.303 532.94C328.332 532.764 328.508 532.602 328.831 532.456C329.858 531.957 331.061 531.546 332.44 531.224C333.848 530.872 335.256 530.695 336.664 530.695C337.427 530.695 338.131 530.725 338.776 530.784C339.421 530.813 339.994 530.886 340.492 531.004C341.138 531.15 341.651 531.37 342.032 531.664C342.414 531.928 342.707 532.28 342.912 532.72C343.118 533.13 343.25 533.614 343.308 534.172C343.367 534.7 343.396 535.287 343.396 535.932V545.173C343.396 545.584 343.338 545.965 343.22 546.317C343.103 546.64 342.81 546.948 342.34 547.241C341.46 547.769 340.507 548.18 339.48 548.473C338.453 548.766 337.441 548.986 336.444 549.133C335.476 549.309 334.566 549.412 333.716 549.441C332.865 549.5 332.19 549.529 331.691 549.529C329.286 549.529 327.203 549.177 325.443 548.473C323.712 547.74 322.275 546.698 321.13 545.349C320.016 543.97 319.18 542.313 318.622 540.376C318.094 538.44 317.83 536.24 317.83 533.776C317.83 531.37 318.138 529.185 318.754 527.219C319.37 525.254 320.28 523.582 321.483 522.203C322.715 520.795 324.211 519.709 325.971 518.946C327.76 518.184 329.799 517.802 332.087 517.802C333.613 517.802 335.124 517.934 336.62 518.198C338.116 518.433 339.553 518.932 340.932 519.694C341.255 519.871 341.446 520.047 341.504 520.223C341.563 520.399 341.475 520.736 341.24 521.235L339.876 524.359C339.729 524.77 339.568 525.019 339.392 525.107C339.245 525.195 338.967 525.166 338.556 525.019C337.5 524.638 336.473 524.359 335.476 524.183C334.508 524.007 333.466 523.919 332.351 523.919C331.061 523.919 329.946 524.168 329.007 524.667C328.068 525.166 327.291 525.855 326.675 526.735C326.059 527.615 325.604 528.657 325.311 529.859C325.017 531.062 324.871 532.382 324.871 533.82C324.871 535.287 324.988 536.621 325.223 537.824C325.458 538.998 325.854 540.01 326.411 540.86C326.998 541.682 327.76 542.327 328.699 542.797C329.667 543.266 330.87 543.501 332.307 543.501Z" fill="black"/>
</svg>
