<svg width="295" height="385" viewBox="0 0 295 385" fill="none" xmlns="http://www.w3.org/2000/svg">
<path d="M148 280C70.7998 280 8 217.2 8 140C8 62.7999 70.7998 0 148 0C225.2 0 288 62.8085 288 140.009C288 217.2 225.191 280 148 280ZM148 11.2724C77.0209 11.2724 19.2724 69.0209 19.2724 140C19.2724 210.979 77.0209 268.728 148 268.728C218.979 268.728 276.728 210.979 276.728 140C276.728 69.0209 218.979 11.2724 148 11.2724Z" fill="#2B2B2B"/>
<path d="M153.623 132.159H142.359V235.595H153.623V132.159Z" fill="#2B2B2B"/>
<path d="M166.369 241.226H128.055C124.944 241.226 122.423 238.705 122.423 235.594C122.423 232.484 124.944 229.962 128.055 229.962H166.369C169.479 229.962 172.001 232.484 172.001 235.594C172.001 238.705 169.479 241.226 166.369 241.226Z" fill="#2B2B2B"/>
<path d="M177.607 44.4136L169.185 65.6328L178.95 62.2537L157.54 93.6189L165.424 70.3289L156.223 72.5817L162.037 44.4136H116.28C113.256 44.4136 110.812 46.8656 110.812 49.8808V142.443C110.812 162.978 127.457 179.631 148 179.631C168.535 179.631 185.188 162.986 185.188 142.443V49.8808C185.188 46.857 182.736 44.4136 179.721 44.4136H177.607Z" fill="#2B2B2B"/>
<path d="M37.8345 332V306.946H42.8931V316.807H52.8052V306.946H57.8638V332H52.8052V321.045H42.8931V332H37.8345ZM85.7031 332H80.2002L78.0127 326.309H67.998L65.9302 332H60.564L70.3223 306.946H75.6714L85.7031 332ZM76.3892 322.088L72.937 312.791L69.5532 322.088H76.3892ZM75.791 305.511H72.7661L68.0493 300.401H73.4326L75.791 305.511ZM88.4546 332V306.946H93.3765L103.63 323.677V306.946H108.33V332H103.254L93.1543 315.662V332H88.4546ZM125.352 322.789V318.567H136.255V328.548C135.195 329.573 133.657 330.479 131.641 331.265C129.635 332.04 127.602 332.427 125.54 332.427C122.919 332.427 120.635 331.88 118.687 330.787C116.738 329.681 115.274 328.109 114.294 326.07C113.315 324.019 112.825 321.792 112.825 319.388C112.825 316.779 113.372 314.46 114.465 312.432C115.559 310.404 117.16 308.849 119.268 307.767C120.874 306.935 122.874 306.519 125.266 306.519C128.376 306.519 130.803 307.174 132.546 308.484C134.301 309.783 135.429 311.583 135.93 313.885L130.906 314.825C130.553 313.594 129.886 312.626 128.906 311.919C127.938 311.202 126.724 310.843 125.266 310.843C123.056 310.843 121.296 311.543 119.985 312.945C118.687 314.346 118.037 316.425 118.037 319.183C118.037 322.156 118.698 324.389 120.02 325.882C121.341 327.363 123.073 328.104 125.215 328.104C126.274 328.104 127.334 327.898 128.394 327.488C129.465 327.067 130.382 326.56 131.145 325.967V322.789H125.352ZM150.662 306.946H159.907C161.992 306.946 163.582 307.106 164.675 307.425C166.145 307.858 167.404 308.627 168.452 309.732C169.5 310.837 170.298 312.193 170.845 313.799C171.392 315.394 171.665 317.365 171.665 319.712C171.665 321.775 171.409 323.552 170.896 325.044C170.269 326.867 169.375 328.343 168.213 329.471C167.336 330.325 166.151 330.992 164.658 331.47C163.542 331.823 162.049 332 160.181 332H150.662V306.946ZM155.72 311.185V327.779H159.497C160.91 327.779 161.93 327.699 162.556 327.54C163.376 327.334 164.054 326.987 164.59 326.497C165.137 326.007 165.581 325.204 165.923 324.087C166.265 322.959 166.436 321.427 166.436 319.49C166.436 317.553 166.265 316.067 165.923 315.03C165.581 313.993 165.103 313.184 164.487 312.603C163.872 312.022 163.092 311.629 162.146 311.424C161.44 311.264 160.055 311.185 157.993 311.185H155.72ZM175.972 332V306.946H194.548V311.185H181.03V316.739H193.608V320.96H181.03V327.779H195.027V332H175.972ZM185.781 304.827L183.901 306.092H180.535L184.26 303.87H187.302L191.028 306.092H187.661L185.781 304.827ZM180.073 303.289C180.062 302.526 180.375 301.859 181.013 301.29C181.663 300.708 182.506 300.418 183.542 300.418C184.249 300.418 185.212 300.669 186.431 301.17C187.308 301.443 187.946 301.58 188.345 301.58C189.04 301.58 189.456 301.181 189.592 300.384H191.506C191.438 302.286 190.321 303.238 188.157 303.238C187.439 303.238 186.493 302.987 185.32 302.486C184.317 302.155 183.639 301.99 183.286 301.99C182.557 301.99 182.124 302.423 181.987 303.289H180.073ZM215.449 332L206.494 306.946H211.98L218.32 325.489L224.456 306.946H229.822L220.85 332H215.449ZM236.589 319.456C236.589 322.213 237.244 324.367 238.555 325.916C239.797 327.374 241.46 328.104 243.545 328.104C245.63 328.104 247.288 327.374 248.518 325.916C249.806 324.389 250.449 322.213 250.449 319.388C250.449 316.585 249.823 314.443 248.569 312.962C247.362 311.549 245.687 310.843 243.545 310.843C241.403 310.843 239.722 311.561 238.503 312.996C237.227 314.489 236.589 316.642 236.589 319.456ZM254.91 306.946H259.712V310.381C259.712 311.794 259.587 312.899 259.336 313.697C259.097 314.494 258.652 315.206 258.003 315.833C257.354 316.448 256.539 316.938 255.559 317.303C255.639 318.009 255.679 318.744 255.679 319.507C255.679 323.518 254.585 326.674 252.397 328.975C250.21 331.277 247.265 332.427 243.562 332.427C239.825 332.427 236.857 331.288 234.658 329.009C232.471 326.719 231.377 323.592 231.377 319.627C231.377 315.434 232.539 312.147 234.863 309.766C236.96 307.601 239.836 306.519 243.494 306.519C247.185 306.519 250.142 307.664 252.363 309.954C253.696 311.344 254.631 313.059 255.166 315.098C256.499 314.494 257.188 313.378 257.234 311.749H254.91V306.946ZM239.409 305.562H237.222C237.21 305.3 237.205 305.095 237.205 304.947C237.205 303.75 237.495 302.833 238.076 302.195C238.657 301.546 239.403 301.221 240.315 301.221C240.714 301.221 241.084 301.267 241.426 301.358C241.768 301.438 242.389 301.683 243.289 302.093C244.2 302.492 244.912 302.691 245.425 302.691C245.789 302.691 246.091 302.577 246.331 302.349C246.581 302.121 246.741 301.74 246.809 301.204H249.031C249.019 302.742 248.729 303.842 248.159 304.502C247.601 305.163 246.877 305.494 245.989 305.494C245.601 305.494 245.22 305.454 244.844 305.374C244.582 305.306 243.927 305.072 242.878 304.673C241.83 304.275 241.067 304.075 240.588 304.075C240.224 304.075 239.939 304.189 239.734 304.417C239.529 304.633 239.421 305.015 239.409 305.562ZM39.4922 372L48.0542 358.926L40.2954 346.946H46.2085L51.2329 354.996L56.1548 346.946H62.0166L54.2236 359.114L62.7856 372H56.6846L51.1304 363.335L45.5591 372H39.4922ZM65.2295 372V346.946H70.2881V372H65.2295ZM75.1758 372V346.946H80.0977L90.3516 363.677V346.946H95.0513V372H89.9756L79.8755 355.662V372H75.1758ZM110.21 372V346.946H115.132L125.386 363.677V346.946H130.085V372H125.01L114.91 355.662V372H110.21ZM135.469 372V346.946H140.527V356.807H150.439V346.946H155.498V372H150.439V361.045H140.527V372H135.469ZM160.745 372V346.946H179.321V351.185H165.803V356.739H178.381V360.96H165.803V367.779H179.8V372H160.745ZM168.247 378.853V374.051H173.049V378.853H168.247ZM199.47 372V351.185H192.036V346.946H211.946V351.185H204.529V372H199.47ZM235.222 372H229.719L227.532 366.309H217.517L215.449 372H210.083L219.841 346.946H225.19L235.222 372ZM225.908 362.088L222.456 352.791L219.072 362.088H225.908ZM241.289 372V361.456L232.112 346.946H238.042L243.938 356.858L249.714 346.946H255.542L246.331 361.49V372H241.289Z" fill="black"/>
</svg>
