<svg width="445" height="630" viewBox="0 0 445 630" fill="none" xmlns="http://www.w3.org/2000/svg">
<rect width="444" height="630" transform="translate(0.100098)" fill="white"/>
<path d="M52.909 548.301C52.909 548.682 52.8356 548.932 52.6889 549.049C52.5715 549.167 52.2927 549.225 51.8525 549.225H47.2304C46.8489 549.225 46.5848 549.167 46.4381 549.049C46.2913 548.903 46.218 548.653 46.218 548.301V535.975H34.2886V548.301C34.2886 548.682 34.2152 548.932 34.0685 549.049C33.9511 549.167 33.6723 549.225 33.2321 549.225H28.566C28.2138 549.225 27.9497 549.167 27.7736 549.049C27.6269 548.903 27.5535 548.653 27.5535 548.301V519.336C27.5535 518.984 27.6269 518.749 27.7736 518.632C27.9497 518.485 28.2138 518.411 28.566 518.411H33.2321C33.6723 518.411 33.9511 518.47 34.0685 518.587C34.2152 518.705 34.2886 518.954 34.2886 519.336V530.297H46.218V519.336C46.218 518.984 46.2913 518.749 46.4381 518.632C46.5848 518.485 46.8489 518.411 47.2304 518.411H51.8525C52.2927 518.411 52.5715 518.47 52.6889 518.587C52.8356 518.705 52.909 518.954 52.909 519.336V548.301ZM75.605 542.798H65.5245L63.8077 548.389C63.7197 548.682 63.5876 548.903 63.4115 549.049C63.2648 549.167 62.986 549.225 62.5751 549.225H57.4248C57.102 549.225 56.8966 549.137 56.8085 548.961C56.7498 548.785 56.7498 548.58 56.8085 548.345L65.9647 520.744C66.1114 520.246 66.2728 519.849 66.4489 519.556C66.6543 519.233 66.8744 518.984 67.1092 518.808C67.3733 518.632 67.6668 518.514 67.9896 518.455C68.3418 518.367 68.7379 518.323 69.1781 518.323H71.8193C72.3182 518.323 72.7437 518.353 73.0959 518.411C73.4481 518.441 73.7562 518.543 74.0203 518.72C74.2844 518.896 74.5045 519.145 74.6806 519.468C74.8861 519.791 75.0768 520.216 75.2529 520.744L84.409 548.345C84.4677 548.521 84.4677 548.712 84.409 548.917C84.3503 549.123 84.1596 549.225 83.8368 549.225H78.5984C78.2756 549.225 77.9968 549.196 77.762 549.137C77.5566 549.049 77.4099 548.844 77.3218 548.521L75.605 542.798ZM67.1092 537.34H74.0203L72.3476 531.749L70.7188 525.455H70.4547L68.782 531.749L67.1092 537.34ZM73.9323 513.569C74.1671 513.775 74.2698 513.936 74.2404 514.053C74.2404 514.171 74.1671 514.318 74.0203 514.494L72.3476 516.519C72.2008 516.665 72.0541 516.768 71.9074 516.827C71.79 516.856 71.5846 516.797 71.2911 516.651L62.7952 512.293C62.6192 512.234 62.5165 512.131 62.4871 511.984C62.4578 511.808 62.5311 511.632 62.7072 511.456L65.7446 507.979C65.9794 507.744 66.1701 507.656 66.3168 507.715C66.4636 507.773 66.625 507.876 66.8011 508.023L73.9323 513.569ZM94.9858 530.077V548.301C94.9858 548.682 94.9125 548.932 94.7657 549.049C94.6484 549.167 94.3842 549.225 93.9734 549.225H89.3513C88.9991 549.225 88.735 549.167 88.5589 549.049C88.4122 548.903 88.3388 548.653 88.3388 548.301V521.449C88.3388 520.304 88.5443 519.512 88.9551 519.072C89.366 518.602 90.1143 518.367 91.2001 518.367H93.049C93.4892 518.367 93.856 518.397 94.1495 518.455C94.4723 518.485 94.7511 518.573 94.9858 518.72C95.2206 518.866 95.4407 519.072 95.6461 519.336C95.8516 519.6 96.0863 519.937 96.3505 520.348L103.834 531.749L107.62 537.692H107.84V519.292C107.84 518.94 107.898 518.705 108.016 518.587C108.162 518.441 108.441 518.367 108.852 518.367H113.474C114.149 518.367 114.487 518.676 114.487 519.292V546.188C114.487 547.127 114.296 547.875 113.914 548.433C113.533 548.961 112.77 549.225 111.625 549.225H109.777C109.336 549.225 108.955 549.211 108.632 549.181C108.339 549.123 108.074 549.02 107.84 548.873C107.605 548.726 107.385 548.536 107.179 548.301C106.974 548.037 106.739 547.699 106.475 547.288L99.4319 536.636L95.2059 530.077H94.9858ZM134.698 543.679C135.256 543.679 135.96 543.649 136.811 543.591C137.662 543.503 138.484 543.312 139.276 543.019L139.32 536.504C138.293 536.445 137.266 536.504 136.239 536.68C135.212 536.856 134.214 537.149 133.245 537.56C132.834 537.707 132.541 537.78 132.365 537.78C132.218 537.78 132.071 537.619 131.925 537.296L130.78 533.73C130.692 533.496 130.663 533.29 130.692 533.114C130.722 532.938 130.898 532.777 131.22 532.63C132.248 532.131 133.451 531.72 134.83 531.397C136.239 531.045 137.647 530.869 139.056 530.869C139.819 530.869 140.523 530.898 141.169 530.957C141.815 530.986 142.387 531.06 142.886 531.177C143.531 531.324 144.045 531.544 144.426 531.837C144.808 532.102 145.101 532.454 145.307 532.894C145.512 533.305 145.644 533.789 145.703 534.347C145.762 534.875 145.791 535.462 145.791 536.107V545.352C145.791 545.762 145.732 546.144 145.615 546.496C145.498 546.819 145.204 547.127 144.735 547.421C143.854 547.949 142.9 548.36 141.873 548.653C140.846 548.947 139.834 549.167 138.836 549.313C137.867 549.489 136.958 549.592 136.107 549.622C135.256 549.68 134.581 549.71 134.082 549.71C131.675 549.71 129.592 549.357 127.831 548.653C126.099 547.919 124.661 546.878 123.517 545.528C122.402 544.148 121.565 542.49 121.008 540.553C120.48 538.617 120.215 536.416 120.215 533.95C120.215 531.544 120.524 529.358 121.14 527.391C121.756 525.425 122.666 523.752 123.869 522.373C125.102 520.965 126.598 519.879 128.359 519.116C130.149 518.353 132.189 517.971 134.478 517.971C136.004 517.971 137.515 518.103 139.012 518.367C140.509 518.602 141.947 519.101 143.326 519.864C143.649 520.04 143.839 520.216 143.898 520.392C143.957 520.568 143.869 520.906 143.634 521.405L142.269 524.53C142.123 524.941 141.961 525.19 141.785 525.279C141.638 525.367 141.36 525.337 140.949 525.19C139.892 524.809 138.865 524.53 137.867 524.354C136.899 524.178 135.857 524.09 134.742 524.09C133.451 524.09 132.336 524.339 131.396 524.838C130.457 525.337 129.68 526.027 129.063 526.907C128.447 527.788 127.992 528.829 127.699 530.033C127.405 531.236 127.259 532.556 127.259 533.994C127.259 535.462 127.376 536.797 127.611 538C127.846 539.174 128.242 540.187 128.799 541.038C129.386 541.859 130.149 542.505 131.088 542.975C132.057 543.444 133.26 543.679 134.698 543.679ZM177.991 543.635C179.4 543.635 180.647 543.473 181.733 543.151C182.819 542.798 183.831 542.446 184.77 542.094C185.181 541.918 185.475 541.889 185.651 542.006C185.827 542.094 185.988 542.3 186.135 542.622L187.632 545.792C187.837 546.203 187.91 546.511 187.852 546.716C187.793 546.922 187.632 547.098 187.367 547.244C185.783 548.213 184.11 548.873 182.349 549.225C180.618 549.548 178.901 549.71 177.199 549.71C174.792 549.71 172.709 549.357 170.948 548.653C169.217 547.919 167.779 546.878 166.634 545.528C165.519 544.178 164.683 542.534 164.125 540.597C163.597 538.631 163.333 536.43 163.333 533.994C163.333 531.588 163.67 529.402 164.345 527.435C165.049 525.469 166.018 523.782 167.25 522.373C168.483 520.965 169.965 519.879 171.696 519.116C173.457 518.353 175.394 517.971 177.507 517.971C179.004 517.971 180.471 518.103 181.909 518.367C183.347 518.602 184.756 519.101 186.135 519.864C186.458 520.04 186.648 520.216 186.707 520.392C186.766 520.568 186.692 520.906 186.487 521.405L185.122 524.442C184.976 524.853 184.814 525.102 184.638 525.19C184.492 525.279 184.213 525.249 183.802 525.102C182.745 524.721 181.762 524.442 180.853 524.266C179.943 524.061 178.93 523.958 177.815 523.958C176.612 523.958 175.541 524.222 174.602 524.75C173.692 525.249 172.914 525.953 172.269 526.863C171.652 527.744 171.183 528.8 170.86 530.033C170.537 531.236 170.376 532.556 170.376 533.994C170.376 535.432 170.493 536.738 170.728 537.912C170.992 539.086 171.418 540.099 172.005 540.95C172.621 541.801 173.413 542.461 174.382 542.93C175.35 543.4 176.553 543.635 177.991 543.635ZM218.911 533.73C218.911 536.254 218.632 538.499 218.075 540.465C217.547 542.432 216.71 544.104 215.566 545.484C214.421 546.863 212.983 547.919 211.252 548.653C209.52 549.357 207.466 549.71 205.089 549.71C200.54 549.71 197.151 548.33 194.92 545.572C192.719 542.813 191.619 538.91 191.619 533.862C191.619 531.397 191.927 529.182 192.543 527.215C193.189 525.22 194.099 523.547 195.272 522.197C196.446 520.818 197.87 519.761 199.542 519.028C201.215 518.294 203.108 517.927 205.221 517.927C207.51 517.927 209.506 518.294 211.208 519.028C212.939 519.761 214.362 520.818 215.478 522.197C216.622 523.547 217.473 525.205 218.031 527.171C218.618 529.108 218.911 531.295 218.911 533.73ZM211.912 533.862C211.912 532.542 211.809 531.28 211.604 530.077C211.428 528.873 211.09 527.817 210.591 526.907C210.093 525.997 209.418 525.279 208.567 524.75C207.715 524.193 206.615 523.914 205.265 523.914C204.15 523.914 203.167 524.178 202.316 524.706C201.494 525.205 200.804 525.895 200.247 526.775C199.689 527.656 199.278 528.683 199.014 529.857C198.75 531.03 198.618 532.278 198.618 533.598C198.618 535.154 198.721 536.548 198.926 537.78C199.161 539.013 199.528 540.069 200.027 540.95C200.555 541.83 201.245 542.505 202.096 542.975C202.947 543.444 204.018 543.679 205.309 543.679C206.571 543.679 207.627 543.415 208.478 542.886C209.33 542.329 210.004 541.61 210.503 540.729C211.002 539.82 211.354 538.778 211.56 537.604C211.795 536.401 211.912 535.154 211.912 533.862ZM213.629 514.185C213.893 514.42 214.025 514.626 214.025 514.802C214.025 514.949 213.922 515.125 213.717 515.33L212.484 516.695C212.308 516.9 212.117 516.988 211.912 516.959C211.707 516.9 211.486 516.797 211.252 516.651L205.001 513.261L198.926 516.563C198.691 516.709 198.486 516.797 198.31 516.827C198.134 516.827 197.943 516.709 197.738 516.475L196.593 515.286C196.417 515.051 196.314 514.875 196.285 514.758C196.285 514.611 196.388 514.435 196.593 514.23L202.448 509.167C202.859 508.815 203.284 508.536 203.724 508.331C204.194 508.125 204.619 508.023 205.001 508.023C205.852 508.023 206.747 508.404 207.686 509.167L213.629 514.185ZM217.282 506.702C217.517 506.908 217.62 507.069 217.591 507.186C217.591 507.304 217.517 507.45 217.37 507.627L215.698 509.651C215.551 509.798 215.404 509.901 215.258 509.96C215.14 509.989 214.935 509.93 214.641 509.783L206.145 505.426C205.969 505.367 205.867 505.264 205.837 505.117C205.808 504.941 205.881 504.765 206.057 504.589L209.095 501.112C209.33 500.877 209.52 500.789 209.667 500.847C209.814 500.906 209.975 501.009 210.151 501.156L217.282 506.702ZM231.301 530.077V548.301C231.301 548.682 231.228 548.932 231.081 549.049C230.964 549.167 230.7 549.225 230.289 549.225H225.667C225.315 549.225 225.051 549.167 224.874 549.049C224.728 548.903 224.654 548.653 224.654 548.301V521.449C224.654 520.304 224.86 519.512 225.271 519.072C225.682 518.602 226.43 518.367 227.516 518.367H229.365C229.805 518.367 230.172 518.397 230.465 518.455C230.788 518.485 231.067 518.573 231.301 518.72C231.536 518.866 231.756 519.072 231.962 519.336C232.167 519.6 232.402 519.937 232.666 520.348L240.149 531.749L243.935 537.692H244.155V519.292C244.155 518.94 244.214 518.705 244.331 518.587C244.478 518.441 244.757 518.367 245.168 518.367H249.79C250.465 518.367 250.802 518.676 250.802 519.292V546.188C250.802 547.127 250.611 547.875 250.23 548.433C249.848 548.961 249.085 549.225 247.941 549.225H246.092C245.652 549.225 245.27 549.211 244.948 549.181C244.654 549.123 244.39 549.02 244.155 548.873C243.92 548.726 243.7 548.536 243.495 548.301C243.289 548.037 243.055 547.699 242.791 547.288L235.747 536.636L231.522 530.077H231.301ZM271.014 543.679C271.571 543.679 272.275 543.649 273.127 543.591C273.978 543.503 274.799 543.312 275.592 543.019L275.636 536.504C274.609 536.445 273.581 536.504 272.554 536.68C271.527 536.856 270.529 537.149 269.561 537.56C269.15 537.707 268.857 537.78 268.681 537.78C268.534 537.78 268.387 537.619 268.24 537.296L267.096 533.73C267.008 533.496 266.978 533.29 267.008 533.114C267.037 532.938 267.213 532.777 267.536 532.63C268.563 532.131 269.766 531.72 271.146 531.397C272.554 531.045 273.963 530.869 275.372 530.869C276.135 530.869 276.839 530.898 277.484 530.957C278.13 530.986 278.702 531.06 279.201 531.177C279.847 531.324 280.36 531.544 280.742 531.837C281.123 532.102 281.417 532.454 281.622 532.894C281.828 533.305 281.96 533.789 282.019 534.347C282.077 534.875 282.107 535.462 282.107 536.107V545.352C282.107 545.762 282.048 546.144 281.93 546.496C281.813 546.819 281.52 547.127 281.05 547.421C280.17 547.949 279.216 548.36 278.189 548.653C277.162 548.947 276.149 549.167 275.151 549.313C274.183 549.489 273.273 549.592 272.422 549.622C271.571 549.68 270.896 549.71 270.397 549.71C267.991 549.71 265.907 549.357 264.146 548.653C262.415 547.919 260.977 546.878 259.832 545.528C258.717 544.148 257.881 542.49 257.323 540.553C256.795 538.617 256.531 536.416 256.531 533.95C256.531 531.544 256.839 529.358 257.455 527.391C258.072 525.425 258.981 523.752 260.185 522.373C261.417 520.965 262.914 519.879 264.675 519.116C266.465 518.353 268.504 517.971 270.793 517.971C272.319 517.971 273.831 518.103 275.328 518.367C276.824 518.602 278.262 519.101 279.641 519.864C279.964 520.04 280.155 520.216 280.214 520.392C280.272 520.568 280.184 520.906 279.95 521.405L278.585 524.53C278.438 524.941 278.277 525.19 278.101 525.279C277.954 525.367 277.675 525.337 277.264 525.19C276.208 524.809 275.181 524.53 274.183 524.354C273.215 524.178 272.173 524.09 271.058 524.09C269.766 524.09 268.651 524.339 267.712 524.838C266.773 525.337 265.995 526.027 265.379 526.907C264.763 527.788 264.308 528.829 264.014 530.033C263.721 531.236 263.574 532.556 263.574 533.994C263.574 535.462 263.692 536.797 263.926 538C264.161 539.174 264.557 540.187 265.115 541.038C265.702 541.859 266.465 542.505 267.404 542.975C268.372 543.444 269.576 543.679 271.014 543.679ZM316.42 529.592L326.676 548.125C326.882 548.448 326.94 548.712 326.852 548.917C326.764 549.123 326.559 549.225 326.236 549.225H321.13C320.514 549.225 320.059 549.196 319.765 549.137C319.501 549.049 319.222 548.741 318.929 548.213L311.842 535.051L307.176 540.641V548.301C307.176 548.712 307.117 548.976 306.999 549.093C306.882 549.181 306.603 549.225 306.163 549.225H301.541C301.189 549.225 300.925 549.167 300.749 549.049C300.602 548.903 300.529 548.653 300.529 548.301V519.336C300.529 518.984 300.602 518.749 300.749 518.632C300.925 518.485 301.189 518.411 301.541 518.411H306.163C306.603 518.411 306.882 518.47 306.999 518.587C307.117 518.676 307.176 518.925 307.176 519.336V531.133L307.352 531.221L311.49 525.983L316.992 519.116C317.256 518.822 317.52 518.632 317.784 518.543C318.048 518.455 318.474 518.411 319.061 518.411H324.739C325.004 518.411 325.18 518.499 325.268 518.676C325.385 518.822 325.341 519.013 325.136 519.248L316.42 529.592ZM352.631 548.213C352.631 548.565 352.573 548.829 352.455 549.005C352.338 549.152 352.103 549.225 351.751 549.225H338.721C337.078 549.225 335.728 548.991 334.671 548.521C333.644 548.051 332.822 547.435 332.206 546.672C331.59 545.909 331.164 545.043 330.929 544.075C330.695 543.107 330.577 542.123 330.577 541.126V526.511C330.577 525.455 330.724 524.442 331.018 523.474C331.311 522.505 331.766 521.64 332.382 520.877C333.028 520.114 333.864 519.512 334.891 519.072C335.918 518.602 337.18 518.367 338.677 518.367H351.311C351.663 518.367 351.883 518.441 351.971 518.587C352.088 518.734 352.147 519.013 352.147 519.424V523.166C352.147 523.547 352.088 523.811 351.971 523.958C351.854 524.075 351.634 524.134 351.311 524.134H340.13C338.985 524.134 338.222 524.398 337.841 524.926C337.459 525.455 337.268 526.1 337.268 526.863V530.253H349.902C350.254 530.253 350.474 530.326 350.562 530.473C350.68 530.62 350.738 530.898 350.738 531.309V534.743C350.738 535.095 350.68 535.359 350.562 535.535C350.474 535.682 350.254 535.755 349.902 535.755H337.268V540.774C337.268 541.801 337.503 542.505 337.973 542.886C338.472 543.239 339.191 543.415 340.13 543.415H351.751C352.132 543.415 352.367 543.488 352.455 543.635C352.573 543.752 352.631 544.031 352.631 544.471V548.213ZM351.003 514.185C351.267 514.42 351.399 514.626 351.399 514.802C351.399 514.949 351.296 515.125 351.091 515.33L349.858 516.695C349.682 516.9 349.491 516.988 349.286 516.959C349.08 516.9 348.86 516.797 348.625 516.651L342.375 513.261L336.3 516.563C336.065 516.709 335.86 516.797 335.684 516.827C335.508 516.827 335.317 516.709 335.111 516.475L333.967 515.286C333.791 515.051 333.688 514.875 333.659 514.758C333.659 514.611 333.761 514.435 333.967 514.23L339.821 509.167C340.232 508.815 340.658 508.536 341.098 508.331C341.568 508.125 341.993 508.023 342.375 508.023C343.226 508.023 344.121 508.404 345.06 509.167L351.003 514.185ZM355.14 506.702C355.375 506.908 355.478 507.069 355.449 507.186C355.449 507.304 355.375 507.45 355.228 507.627L353.556 509.651C353.409 509.798 353.262 509.901 353.116 509.96C352.998 509.989 352.793 509.93 352.499 509.783L344.003 505.426C343.827 505.367 343.725 505.264 343.695 505.117C343.666 504.941 343.739 504.765 343.915 504.589L346.953 501.112C347.187 500.877 347.378 500.789 347.525 500.847C347.672 500.906 347.833 501.009 348.009 501.156L355.14 506.702ZM364.221 530.077V548.301C364.221 548.682 364.148 548.932 364.001 549.049C363.883 549.167 363.619 549.225 363.208 549.225H358.586C358.234 549.225 357.97 549.167 357.794 549.049C357.647 548.903 357.574 548.653 357.574 548.301V521.449C357.574 520.304 357.779 519.512 358.19 519.072C358.601 518.602 359.349 518.367 360.435 518.367H362.284C362.724 518.367 363.091 518.397 363.385 518.455C363.707 518.485 363.986 518.573 364.221 518.72C364.456 518.866 364.676 519.072 364.881 519.336C365.087 519.6 365.321 519.937 365.586 520.348L373.069 531.749L376.855 537.692H377.075V519.292C377.075 518.94 377.133 518.705 377.251 518.587C377.398 518.441 377.676 518.367 378.087 518.367H382.709C383.384 518.367 383.722 518.676 383.722 519.292V546.188C383.722 547.127 383.531 547.875 383.149 548.433C382.768 548.961 382.005 549.225 380.86 549.225H379.012C378.571 549.225 378.19 549.211 377.867 549.181C377.574 549.123 377.309 549.02 377.075 548.873C376.84 548.726 376.62 548.536 376.414 548.301C376.209 548.037 375.974 547.699 375.71 547.288L368.667 536.636L364.441 530.077H364.221ZM415.686 548.301C415.686 548.682 415.613 548.932 415.466 549.049C415.349 549.167 415.07 549.225 414.63 549.225H410.008C409.626 549.225 409.362 549.167 409.215 549.049C409.069 548.903 408.995 548.653 408.995 548.301V535.975H397.066V548.301C397.066 548.682 396.993 548.932 396.846 549.049C396.728 549.167 396.45 549.225 396.009 549.225H391.343C390.991 549.225 390.727 549.167 390.551 549.049C390.404 548.903 390.331 548.653 390.331 548.301V519.336C390.331 518.984 390.404 518.749 390.551 518.632C390.727 518.485 390.991 518.411 391.343 518.411H396.009C396.45 518.411 396.728 518.47 396.846 518.587C396.993 518.705 397.066 518.954 397.066 519.336V530.297H408.995V519.336C408.995 518.984 409.069 518.749 409.215 518.632C409.362 518.485 409.626 518.411 410.008 518.411H414.63C415.07 518.411 415.349 518.47 415.466 518.587C415.613 518.705 415.686 518.954 415.686 519.336V548.301Z" fill="black"/>
<path d="M352.323 166H301.775L272.54 188.381H315.743C318.031 188.395 320.283 188.896 322.318 189.845L352.323 166Z" fill="black"/>
<path d="M227.027 268.953H246.747V277.905H227.027V268.953Z" fill="black"/>
<path d="M330.528 201.809V284.198L358.621 258.684C359.567 257.857 360.101 256.716 360.1 255.523V171.715L329.183 196.285C330.064 198.017 330.522 199.901 330.528 201.809Z" fill="black"/>
<path d="M319.138 294.553L319.192 294.468L319.286 294.387C320.159 293.567 320.655 292.475 320.671 291.335V201.81C320.671 199.338 318.465 197.334 315.742 197.334H212.242C209.521 197.334 207.314 199.338 207.314 201.81V291.335C207.314 293.807 209.52 295.811 212.242 295.811H315.742C317.01 295.804 318.226 295.353 319.138 294.553ZM256.599 277.906C256.599 282.85 252.186 286.859 246.742 286.859H227.028C221.584 286.859 217.17 282.85 217.17 277.906V268.953C217.17 264.009 221.584 260.001 227.028 260.001H246.742C252.186 260.001 256.599 264.009 256.599 268.953V277.906ZM305.885 286.859H291.099C288.377 286.859 286.17 284.855 286.17 282.382C286.17 279.91 288.377 277.906 291.099 277.906H305.885C308.607 277.906 310.814 279.91 310.814 282.382C310.813 284.855 308.607 286.859 305.885 286.859ZM305.885 268.954H291.099C288.377 268.954 286.17 266.95 286.17 264.478C286.17 262.006 288.377 260.001 291.099 260.001H305.885C308.607 260.001 310.814 262.005 310.814 264.478C310.813 266.949 308.607 268.954 305.885 268.954Z" fill="black"/>
<path d="M199.103 190.032L229.108 166.188H189.29L157.61 188.569H192.528C194.816 188.582 197.067 189.084 199.103 190.032Z" fill="black"/>
<path d="M134.893 167.477C134.68 167.675 134.448 167.855 134.198 168.014L101.975 188.569H141.552L173.232 166.188H138.314C137.029 166.183 135.797 166.648 134.893 167.477Z" fill="black"/>
<path d="M245.993 167.477C245.78 167.675 245.548 167.855 245.298 168.014L217.477 188.569H252.652L284.332 166.188H249.414C248.13 166.183 246.897 166.648 245.993 167.477Z" fill="black"/>
<path d="M103.814 269.143H123.534V278.095H103.814V269.143Z" fill="black"/>
<path d="M89.0285 296.001H192.528C193.818 296.005 195.058 295.546 195.978 294.725L196.077 294.635C196.966 293.801 197.461 292.685 197.457 291.524V202C197.457 199.528 195.251 197.523 192.528 197.523H89.0285C86.3068 197.523 84.0999 199.527 84.0999 202V291.524C84.0999 293.997 86.3068 296.001 89.0285 296.001ZM167.886 260.191H182.672C185.393 260.191 187.6 262.195 187.6 264.667C187.6 267.139 185.394 269.143 182.672 269.143H167.886C165.164 269.143 162.957 267.139 162.957 264.667C162.957 262.195 165.163 260.191 167.886 260.191ZM167.886 278.096H182.672C185.393 278.096 187.6 280.1 187.6 282.572C187.6 285.045 185.394 287.049 182.672 287.049H167.886C165.164 287.049 162.957 285.045 162.957 282.572C162.957 280.1 165.163 278.096 167.886 278.096ZM93.9571 269.143C93.9571 264.199 98.3704 260.191 103.814 260.191H123.528C128.972 260.191 133.386 264.199 133.386 269.143V278.096C133.386 283.04 128.972 287.049 123.528 287.049H103.814C98.3704 287.049 93.9571 283.04 93.9571 278.096V269.143Z" fill="black"/>
<path d="M114.151 329.149L84.1377 314.822V349.478L114.151 335.152V329.149ZM330.249 335.152L360.263 349.478V314.822L330.249 329.149V335.152ZM111.15 335.152H333.25V329.149H111.15V335.152Z" fill="black"/>
<path d="M183.212 384.724C183.212 385.099 183.156 385.362 183.044 385.512C182.969 385.662 182.725 385.737 182.312 385.737H163.35C162.937 385.737 162.675 385.662 162.562 385.512C162.487 385.362 162.449 385.099 162.449 384.724V381.798C162.449 381.423 162.487 381.16 162.562 381.01C162.675 380.86 162.937 380.785 163.35 380.785H169.989V353.439L163.575 354.452C163.2 354.527 162.956 354.508 162.843 354.395C162.731 354.245 162.675 354.02 162.675 353.72V351.075C162.675 350.738 162.731 350.475 162.843 350.288C162.956 350.1 163.218 349.95 163.631 349.838L172.128 347.362C172.99 347.099 173.759 347.099 174.435 347.362C175.11 347.587 175.447 348.149 175.447 349.05V380.785H182.312C182.725 380.785 182.969 380.86 183.044 381.01C183.156 381.16 183.212 381.423 183.212 381.798V384.724Z" fill="black"/>
<path d="M201.372 381.967C201.372 383.205 200.94 384.255 200.078 385.118C199.252 385.98 198.183 386.412 196.87 386.412C195.632 386.412 194.582 385.999 193.719 385.174C192.856 384.311 192.425 383.242 192.425 381.967C192.425 380.691 192.856 379.622 193.719 378.759C194.582 377.897 195.632 377.465 196.87 377.465C198.183 377.465 199.252 377.897 200.078 378.759C200.94 379.585 201.372 380.654 201.372 381.967Z" fill="black"/>
<path d="M235.211 373.301C235.211 375.327 234.854 377.165 234.142 378.816C233.467 380.429 232.491 381.817 231.216 382.98C229.94 384.105 228.402 384.968 226.602 385.568C224.801 386.168 222.794 386.468 220.581 386.468C219.418 386.468 218.237 386.412 217.036 386.299C215.836 386.187 214.673 385.999 213.548 385.737C212.422 385.437 211.334 385.043 210.284 384.555C209.271 384.067 208.333 383.448 207.471 382.698C207.133 382.398 207.096 382.023 207.358 381.573L209.215 378.759C209.553 378.234 210.059 378.197 210.734 378.647C212.122 379.585 213.623 380.279 215.236 380.729C216.886 381.141 218.612 381.348 220.412 381.348C223.263 381.348 225.514 380.654 227.164 379.266C228.815 377.84 229.64 375.946 229.64 373.583C229.64 372.345 229.415 371.313 228.965 370.488C228.515 369.625 227.915 368.931 227.164 368.406C226.452 367.843 225.626 367.449 224.689 367.224C223.751 366.962 222.776 366.831 221.763 366.831C220.712 366.831 219.793 366.887 219.006 366.999C218.255 367.112 217.543 367.262 216.867 367.449C216.23 367.637 215.592 367.881 214.954 368.181C214.317 368.444 213.604 368.744 212.816 369.081C212.291 369.306 211.841 369.419 211.466 369.419C211.091 369.381 210.697 369.269 210.284 369.081L209.44 368.744C208.952 368.556 208.558 368.256 208.258 367.843C207.958 367.431 207.846 366.831 207.921 366.043L209.327 351.582C209.44 350.344 209.853 349.444 210.565 348.881C211.278 348.281 212.066 347.981 212.929 347.981H231.666C232.079 347.981 232.341 348.056 232.454 348.206C232.566 348.356 232.623 348.618 232.623 348.994V351.919C232.623 352.295 232.566 352.557 232.454 352.707C232.341 352.857 232.079 352.932 231.666 352.932H214.673L213.548 363.511C214.973 362.873 216.455 362.46 217.993 362.273C219.568 362.048 221.05 361.935 222.438 361.935C224.239 361.935 225.908 362.198 227.446 362.723C228.984 363.248 230.334 364.017 231.497 365.03C232.66 366.005 233.56 367.206 234.198 368.631C234.873 370.019 235.211 371.576 235.211 373.301Z" fill="black"/>
<path d="M284.88 384.836C284.88 385.249 284.805 385.512 284.655 385.624C284.505 385.699 284.243 385.737 283.867 385.737H280.379C280.041 385.737 279.779 385.699 279.591 385.624C279.441 385.512 279.366 385.249 279.366 384.836V370.094C279.366 366.793 278.766 364.373 277.565 362.835C276.365 361.26 274.321 360.472 271.432 360.472C270.869 360.472 270.269 360.51 269.632 360.585C269.031 360.66 268.412 360.772 267.775 360.922C267.175 361.072 266.593 361.241 266.03 361.429C265.468 361.616 264.98 361.823 264.567 362.048C265.093 363.136 265.43 364.336 265.58 365.649C265.73 366.924 265.805 368.331 265.805 369.869V384.836C265.805 385.249 265.73 385.512 265.58 385.624C265.43 385.699 265.168 385.737 264.793 385.737H261.304C260.966 385.737 260.704 385.699 260.516 385.624C260.366 385.512 260.291 385.249 260.291 384.836V369.925C260.291 368.5 260.179 367.206 259.953 366.043C259.766 364.88 259.372 363.886 258.772 363.061C258.172 362.235 257.328 361.598 256.24 361.147C255.152 360.697 253.745 360.472 252.02 360.472C251.757 360.472 251.419 360.491 251.007 360.528C250.594 360.528 250.144 360.547 249.656 360.585C249.206 360.622 248.756 360.679 248.306 360.754C247.893 360.791 247.556 360.829 247.293 360.866V384.836C247.293 385.249 247.218 385.512 247.068 385.624C246.918 385.699 246.655 385.737 246.28 385.737H242.792C242.454 385.737 242.191 385.699 242.004 385.624C241.854 385.512 241.779 385.249 241.779 384.836V360.979C241.779 359.591 242.023 358.522 242.51 357.771C242.998 356.984 244.067 356.402 245.718 356.027C245.98 355.99 246.355 355.952 246.843 355.915C247.368 355.839 247.931 355.783 248.531 355.746C249.131 355.671 249.713 355.633 250.275 355.633C250.876 355.596 251.382 355.577 251.795 355.577C254.045 355.577 255.94 355.802 257.478 356.252C259.053 356.702 260.441 357.452 261.642 358.503C262.992 357.565 264.567 356.852 266.368 356.365C268.169 355.839 270.138 355.577 272.276 355.577C274.564 355.577 276.496 355.914 278.072 356.59C279.685 357.227 280.998 358.165 282.011 359.403C283.023 360.604 283.755 362.048 284.205 363.736C284.655 365.424 284.88 367.281 284.88 369.306V384.836Z" fill="black"/>
<path d="M215.197 71.0017C219.531 68.4997 224.87 68.4997 229.204 71.0017L382.478 159.495C386.811 161.997 389.481 166.621 389.481 171.625V348.611C389.481 353.615 386.811 358.238 382.478 360.74L229.204 449.233C224.87 451.735 219.531 451.735 215.197 449.233L61.9228 360.74C57.5892 358.238 54.9196 353.615 54.9196 348.611V171.625C54.9196 166.621 57.5892 161.997 61.9228 159.495L215.197 71.0017Z" stroke="black" stroke-width="12.0054"/>
</svg>
