<svg width="445" height="630" viewBox="0 0 445 630" fill="none" xmlns="http://www.w3.org/2000/svg">
<rect width="444" height="630" transform="translate(0.346191)" fill="white"/>
<path d="M53.3915 548.301C53.3915 548.682 53.3182 548.932 53.1714 549.049C53.054 549.167 52.7752 549.225 52.335 549.225H47.713C47.3314 549.225 47.0673 549.167 46.9206 549.049C46.7739 548.903 46.7005 548.653 46.7005 548.301V535.975H34.7711V548.301C34.7711 548.682 34.6977 548.932 34.551 549.049C34.4336 549.167 34.1548 549.225 33.7146 549.225H29.0485C28.6964 549.225 28.4322 549.167 28.2562 549.049C28.1094 548.903 28.0361 548.653 28.0361 548.301V519.336C28.0361 518.984 28.1094 518.749 28.2562 518.632C28.4322 518.485 28.6964 518.411 29.0485 518.411H33.7146C34.1548 518.411 34.4336 518.47 34.551 518.587C34.6977 518.705 34.7711 518.954 34.7711 519.336V530.297H46.7005V519.336C46.7005 518.984 46.7739 518.749 46.9206 518.632C47.0673 518.485 47.3314 518.411 47.713 518.411H52.335C52.7752 518.411 53.054 518.47 53.1714 518.587C53.3182 518.705 53.3915 518.954 53.3915 519.336V548.301ZM76.0876 542.798H66.007L64.2902 548.389C64.2022 548.682 64.0701 548.903 63.8941 549.049C63.7473 549.167 63.4685 549.225 63.0577 549.225H57.9073C57.5845 549.225 57.3791 549.137 57.2911 548.961C57.2324 548.785 57.2324 548.58 57.2911 548.345L66.4472 520.744C66.5939 520.246 66.7553 519.849 66.9314 519.556C67.1369 519.233 67.357 518.984 67.5917 518.808C67.8558 518.632 68.1493 518.514 68.4721 518.455C68.8243 518.367 69.2205 518.323 69.6607 518.323H72.3019C72.8008 518.323 73.2263 518.353 73.5784 518.411C73.9306 518.441 74.2387 518.543 74.5029 518.72C74.767 518.896 74.9871 519.145 75.1632 519.468C75.3686 519.791 75.5593 520.216 75.7354 520.744L84.8916 548.345C84.9502 548.521 84.9502 548.712 84.8916 548.917C84.8329 549.123 84.6421 549.225 84.3193 549.225H79.0809C78.7581 549.225 78.4793 549.196 78.2445 549.137C78.0391 549.049 77.8924 548.844 77.8043 548.521L76.0876 542.798ZM67.5917 537.34H74.5029L72.8301 531.749L71.2014 525.455H70.9372L69.2645 531.749L67.5917 537.34ZM74.4148 513.569C74.6496 513.775 74.7523 513.936 74.723 514.053C74.723 514.171 74.6496 514.318 74.5029 514.494L72.8301 516.519C72.6834 516.665 72.5366 516.768 72.3899 516.827C72.2725 516.856 72.0671 516.797 71.7736 516.651L63.2778 512.293C63.1017 512.234 62.999 512.131 62.9696 511.984C62.9403 511.808 63.0137 511.632 63.1897 511.456L66.2271 507.979C66.4619 507.744 66.6526 507.656 66.7994 507.715C66.9461 507.773 67.1075 507.876 67.2836 508.023L74.4148 513.569ZM95.4684 530.077V548.301C95.4684 548.682 95.395 548.932 95.2483 549.049C95.1309 549.167 94.8668 549.225 94.4559 549.225H89.8338C89.4817 549.225 89.2175 549.167 89.0415 549.049C88.8947 548.903 88.8214 548.653 88.8214 548.301V521.449C88.8214 520.304 89.0268 519.512 89.4376 519.072C89.8485 518.602 90.5968 518.367 91.6827 518.367H93.5315C93.9717 518.367 94.3385 518.397 94.632 518.455C94.9548 518.485 95.2336 518.573 95.4684 518.72C95.7031 518.866 95.9232 519.072 96.1287 519.336C96.3341 519.6 96.5689 519.937 96.833 520.348L104.316 531.749L108.102 537.692H108.322V519.292C108.322 518.94 108.381 518.705 108.498 518.587C108.645 518.441 108.924 518.367 109.335 518.367H113.957C114.632 518.367 114.969 518.676 114.969 519.292V546.188C114.969 547.127 114.778 547.875 114.397 548.433C114.015 548.961 113.252 549.225 112.108 549.225H110.259C109.819 549.225 109.437 549.211 109.115 549.181C108.821 549.123 108.557 549.02 108.322 548.873C108.087 548.726 107.867 548.536 107.662 548.301C107.456 548.037 107.222 547.699 106.958 547.288L99.9144 536.636L95.6885 530.077H95.4684ZM135.181 543.679C135.738 543.679 136.442 543.649 137.293 543.591C138.145 543.503 138.966 543.312 139.759 543.019L139.803 536.504C138.775 536.445 137.748 536.504 136.721 536.68C135.694 536.856 134.696 537.149 133.728 537.56C133.317 537.707 133.024 537.78 132.847 537.78C132.701 537.78 132.554 537.619 132.407 537.296L131.263 533.73C131.175 533.496 131.145 533.29 131.175 533.114C131.204 532.938 131.38 532.777 131.703 532.63C132.73 532.131 133.933 531.72 135.313 531.397C136.721 531.045 138.13 530.869 139.538 530.869C140.302 530.869 141.006 530.898 141.651 530.957C142.297 530.986 142.869 531.06 143.368 531.177C144.014 531.324 144.527 531.544 144.909 531.837C145.29 532.102 145.584 532.454 145.789 532.894C145.995 533.305 146.127 533.789 146.185 534.347C146.244 534.875 146.274 535.462 146.274 536.107V545.352C146.274 545.762 146.215 546.144 146.097 546.496C145.98 546.819 145.687 547.127 145.217 547.421C144.337 547.949 143.383 548.36 142.356 548.653C141.329 548.947 140.316 549.167 139.318 549.313C138.35 549.489 137.44 549.592 136.589 549.622C135.738 549.68 135.063 549.71 134.564 549.71C132.158 549.71 130.074 549.357 128.313 548.653C126.582 547.919 125.144 546.878 123.999 545.528C122.884 544.148 122.048 542.49 121.49 540.553C120.962 538.617 120.698 536.416 120.698 533.95C120.698 531.544 121.006 529.358 121.622 527.391C122.239 525.425 123.148 523.752 124.352 522.373C125.584 520.965 127.081 519.879 128.842 519.116C130.632 518.353 132.671 517.971 134.96 517.971C136.486 517.971 137.998 518.103 139.494 518.367C140.991 518.602 142.429 519.101 143.808 519.864C144.131 520.04 144.322 520.216 144.381 520.392C144.439 520.568 144.351 520.906 144.117 521.405L142.752 524.53C142.605 524.941 142.444 525.19 142.268 525.279C142.121 525.367 141.842 525.337 141.431 525.19C140.375 524.809 139.348 524.53 138.35 524.354C137.382 524.178 136.34 524.09 135.225 524.09C133.933 524.09 132.818 524.339 131.879 524.838C130.94 525.337 130.162 526.027 129.546 526.907C128.93 527.788 128.475 528.829 128.181 530.033C127.888 531.236 127.741 532.556 127.741 533.994C127.741 535.462 127.859 536.797 128.093 538C128.328 539.174 128.724 540.187 129.282 541.038C129.869 541.859 130.632 542.505 131.571 542.975C132.539 543.444 133.743 543.679 135.181 543.679ZM178.298 543.679C178.855 543.679 179.56 543.649 180.411 543.591C181.262 543.503 182.083 543.312 182.876 543.019L182.92 536.504C181.893 536.445 180.866 536.504 179.838 536.68C178.811 536.856 177.813 537.149 176.845 537.56C176.434 537.707 176.141 537.78 175.965 537.78C175.818 537.78 175.671 537.619 175.524 537.296L174.38 533.73C174.292 533.496 174.263 533.29 174.292 533.114C174.321 532.938 174.497 532.777 174.82 532.63C175.847 532.131 177.05 531.72 178.43 531.397C179.838 531.045 181.247 530.869 182.656 530.869C183.419 530.869 184.123 530.898 184.769 530.957C185.414 530.986 185.986 531.06 186.485 531.177C187.131 531.324 187.645 531.544 188.026 531.837C188.408 532.102 188.701 532.454 188.906 532.894C189.112 533.305 189.244 533.789 189.303 534.347C189.361 534.875 189.391 535.462 189.391 536.107V545.352C189.391 545.762 189.332 546.144 189.215 546.496C189.097 546.819 188.804 547.127 188.334 547.421C187.454 547.949 186.5 548.36 185.473 548.653C184.446 548.947 183.433 549.167 182.436 549.313C181.467 549.489 180.557 549.592 179.706 549.622C178.855 549.68 178.18 549.71 177.681 549.71C175.275 549.71 173.191 549.357 171.431 548.653C169.699 547.919 168.261 546.878 167.117 545.528C166.001 544.148 165.165 542.49 164.607 540.553C164.079 538.617 163.815 536.416 163.815 533.95C163.815 531.544 164.123 529.358 164.74 527.391C165.356 525.425 166.266 523.752 167.469 522.373C168.701 520.965 170.198 519.879 171.959 519.116C173.749 518.353 175.789 517.971 178.078 517.971C179.604 517.971 181.115 518.103 182.612 518.367C184.108 518.602 185.546 519.101 186.926 519.864C187.248 520.04 187.439 520.216 187.498 520.392C187.557 520.568 187.468 520.906 187.234 521.405L185.869 524.53C185.722 524.941 185.561 525.19 185.385 525.279C185.238 525.367 184.959 525.337 184.549 525.19C183.492 524.809 182.465 524.53 181.467 524.354C180.499 524.178 179.457 524.09 178.342 524.09C177.05 524.09 175.935 524.339 174.996 524.838C174.057 525.337 173.279 526.027 172.663 526.907C172.047 527.788 171.592 528.829 171.299 530.033C171.005 531.236 170.858 532.556 170.858 533.994C170.858 535.462 170.976 536.797 171.21 538C171.445 539.174 171.841 540.187 172.399 541.038C172.986 541.859 173.749 542.505 174.688 542.975C175.656 543.444 176.86 543.679 178.298 543.679ZM202.481 548.301C202.481 548.682 202.408 548.932 202.261 549.049C202.144 549.167 201.865 549.225 201.425 549.225H196.759C196.407 549.225 196.143 549.167 195.967 549.049C195.82 548.903 195.746 548.653 195.746 548.301V519.336C195.746 518.984 195.82 518.749 195.967 518.632C196.143 518.485 196.407 518.411 196.759 518.411H201.425C201.865 518.411 202.144 518.47 202.261 518.587C202.408 518.705 202.481 518.954 202.481 519.336V548.301ZM225.772 542.798H215.692L213.975 548.389C213.887 548.682 213.755 548.903 213.579 549.049C213.432 549.167 213.153 549.225 212.743 549.225H207.592C207.269 549.225 207.064 549.137 206.976 548.961C206.917 548.785 206.917 548.58 206.976 548.345L216.132 520.744C216.279 520.246 216.44 519.849 216.616 519.556C216.822 519.233 217.042 518.984 217.277 518.808C217.541 518.632 217.834 518.514 218.157 518.455C218.509 518.367 218.905 518.323 219.346 518.323H221.987C222.486 518.323 222.911 518.353 223.263 518.411C223.615 518.441 223.924 518.543 224.188 518.72C224.452 518.896 224.672 519.145 224.848 519.468C225.053 519.791 225.244 520.216 225.42 520.744L234.576 548.345C234.635 548.521 234.635 548.712 234.576 548.917C234.518 549.123 234.327 549.225 234.004 549.225H228.766C228.443 549.225 228.164 549.196 227.929 549.137C227.724 549.049 227.577 548.844 227.489 548.521L225.772 542.798ZM224.716 508.023C224.892 507.876 225.053 507.773 225.2 507.715C225.347 507.656 225.538 507.744 225.772 507.979L228.81 511.456C228.986 511.632 229.059 511.808 229.03 511.984C229.001 512.131 228.898 512.234 228.722 512.293L220.226 516.651C219.932 516.797 219.712 516.856 219.566 516.827C219.448 516.768 219.316 516.665 219.169 516.519L217.497 514.494C217.35 514.318 217.262 514.171 217.233 514.053C217.233 513.936 217.35 513.775 217.585 513.569L224.716 508.023ZM217.277 537.34H224.188L222.515 531.749L220.886 525.455H220.622L218.949 531.749L217.277 537.34ZM272.627 523.254C272.627 523.841 272.333 524.134 271.746 524.134H263.779V548.301C263.779 548.682 263.705 548.932 263.558 549.049C263.441 549.167 263.162 549.225 262.722 549.225H258.012C257.66 549.225 257.396 549.167 257.22 549.049C257.073 548.903 256.999 548.653 256.999 548.301V524.134H249.208C248.65 524.134 248.372 523.841 248.372 523.254V519.336C248.372 518.954 248.43 518.705 248.548 518.587C248.665 518.47 248.885 518.411 249.208 518.411H271.746C272.098 518.411 272.333 518.47 272.45 518.587C272.568 518.705 272.627 518.954 272.627 519.336V523.254ZM295.835 534.787C296.832 535.227 297.537 535.858 297.948 536.68C298.358 537.472 298.696 538.382 298.96 539.409L301.205 548.213C301.264 548.389 301.249 548.609 301.161 548.873C301.102 549.108 300.897 549.225 300.545 549.225H295.923C295.6 549.225 295.262 549.196 294.91 549.137C294.558 549.049 294.309 548.785 294.162 548.345L292.225 540.553C291.843 539.115 291.271 538.118 290.508 537.56C289.775 537.002 288.747 536.724 287.427 536.724H283.157V548.301C283.157 548.712 283.098 548.976 282.981 549.093C282.863 549.181 282.585 549.225 282.144 549.225H277.434C277.082 549.225 276.818 549.167 276.642 549.049C276.495 548.903 276.422 548.653 276.422 548.301V521.053C276.422 520.172 276.598 519.512 276.95 519.072C277.302 518.602 278.007 518.367 279.063 518.367H289.848C293.047 518.367 295.512 519.174 297.243 520.788C299.004 522.403 299.884 524.574 299.884 527.303C299.884 528.8 299.532 530.209 298.828 531.529C298.124 532.85 297.111 533.862 295.791 534.567L295.835 534.787ZM293.017 527.744C293.017 527.362 292.959 526.966 292.841 526.555C292.724 526.144 292.518 525.777 292.225 525.455C291.961 525.102 291.579 524.824 291.08 524.618C290.582 524.383 289.951 524.266 289.188 524.266H283.201V531.309H289.056C290.347 531.309 291.33 530.986 292.005 530.341C292.68 529.666 293.017 528.8 293.017 527.744ZM313.176 548.301C313.176 548.682 313.103 548.932 312.956 549.049C312.839 549.167 312.56 549.225 312.12 549.225H307.453C307.101 549.225 306.837 549.167 306.661 549.049C306.514 548.903 306.441 548.653 306.441 548.301V519.336C306.441 518.984 306.514 518.749 306.661 518.632C306.837 518.485 307.101 518.411 307.453 518.411H312.12C312.56 518.411 312.839 518.47 312.956 518.587C313.103 518.705 313.176 518.954 313.176 519.336V548.301ZM312.736 553.979C312.736 554.801 312.442 555.476 311.855 556.004C311.298 556.562 310.623 556.841 309.831 556.841C309.009 556.841 308.305 556.562 307.718 556.004C307.16 555.476 306.881 554.801 306.881 553.979C306.881 553.187 307.16 552.497 307.718 551.911C308.305 551.353 309.009 551.074 309.831 551.074C310.623 551.074 311.298 551.353 311.855 551.911C312.442 552.497 312.736 553.187 312.736 553.979ZM346.773 543.635C348.181 543.635 349.428 543.473 350.514 543.151C351.6 542.798 352.613 542.446 353.552 542.094C353.962 541.918 354.256 541.889 354.432 542.006C354.608 542.094 354.769 542.3 354.916 542.622L356.413 545.792C356.618 546.203 356.692 546.511 356.633 546.716C356.574 546.922 356.413 547.098 356.149 547.244C354.564 548.213 352.891 548.873 351.131 549.225C349.399 549.548 347.682 549.71 345.98 549.71C343.574 549.71 341.49 549.357 339.729 548.653C337.998 547.919 336.56 546.878 335.415 545.528C334.3 544.178 333.464 542.534 332.906 540.597C332.378 538.631 332.114 536.43 332.114 533.994C332.114 531.588 332.451 529.402 333.126 527.435C333.831 525.469 334.799 523.782 336.032 522.373C337.264 520.965 338.746 519.879 340.478 519.116C342.238 518.353 344.175 517.971 346.288 517.971C347.785 517.971 349.252 518.103 350.69 518.367C352.128 518.602 353.537 519.101 354.916 519.864C355.239 520.04 355.43 520.216 355.488 520.392C355.547 520.568 355.474 520.906 355.268 521.405L353.904 524.442C353.757 524.853 353.596 525.102 353.42 525.19C353.273 525.279 352.994 525.249 352.583 525.102C351.527 524.721 350.544 524.442 349.634 524.266C348.724 524.061 347.712 523.958 346.596 523.958C345.393 523.958 344.322 524.222 343.383 524.75C342.473 525.249 341.696 525.953 341.05 526.863C340.434 527.744 339.964 528.8 339.641 530.033C339.318 531.236 339.157 532.556 339.157 533.994C339.157 535.432 339.274 536.738 339.509 537.912C339.773 539.086 340.199 540.099 340.786 540.95C341.402 541.801 342.194 542.461 343.163 542.93C344.131 543.4 345.335 543.635 346.773 543.635ZM377.392 542.798H367.311L365.595 548.389C365.506 548.682 365.374 548.903 365.198 549.049C365.052 549.167 364.773 549.225 364.362 549.225H359.212C358.889 549.225 358.683 549.137 358.595 548.961C358.537 548.785 358.537 548.58 358.595 548.345L367.751 520.744C367.898 520.246 368.06 519.849 368.236 519.556C368.441 519.233 368.661 518.984 368.896 518.808C369.16 518.632 369.454 518.514 369.776 518.455C370.129 518.367 370.525 518.323 370.965 518.323H373.606C374.105 518.323 374.531 518.353 374.883 518.411C375.235 518.441 375.543 518.543 375.807 518.72C376.071 518.896 376.291 519.145 376.467 519.468C376.673 519.791 376.864 520.216 377.04 520.744L386.196 548.345C386.255 548.521 386.255 548.712 386.196 548.917C386.137 549.123 385.946 549.225 385.624 549.225H380.385C380.062 549.225 379.784 549.196 379.549 549.137C379.343 549.049 379.197 548.844 379.109 548.521L377.392 542.798ZM368.896 537.34H375.807L374.134 531.749L372.506 525.455H372.242L370.569 531.749L368.896 537.34ZM416.538 533.73C416.538 536.254 416.259 538.499 415.701 540.465C415.173 542.432 414.337 544.104 413.192 545.484C412.048 546.863 410.61 547.919 408.878 548.653C407.147 549.357 405.092 549.71 402.715 549.71C398.167 549.71 394.777 548.33 392.547 545.572C390.346 542.813 389.245 538.91 389.245 533.862C389.245 531.397 389.553 529.182 390.17 527.215C390.815 525.22 391.725 523.547 392.899 522.197C394.073 520.818 395.496 519.761 397.169 519.028C398.842 518.294 400.734 517.927 402.847 517.927C405.136 517.927 407.132 518.294 408.834 519.028C410.566 519.761 411.989 520.818 413.104 522.197C414.249 523.547 415.1 525.205 415.657 527.171C416.244 529.108 416.538 531.295 416.538 533.73ZM409.538 533.862C409.538 532.542 409.436 531.28 409.23 530.077C409.054 528.873 408.717 527.817 408.218 526.907C407.719 525.997 407.044 525.279 406.193 524.75C405.342 524.193 404.241 523.914 402.891 523.914C401.776 523.914 400.793 524.178 399.942 524.706C399.12 525.205 398.431 525.895 397.873 526.775C397.316 527.656 396.905 528.683 396.641 529.857C396.376 531.03 396.244 532.278 396.244 533.598C396.244 535.154 396.347 536.548 396.553 537.78C396.787 539.013 397.154 540.069 397.653 540.95C398.181 541.83 398.871 542.505 399.722 542.975C400.573 543.444 401.644 543.679 402.935 543.679C404.197 543.679 405.254 543.415 406.105 542.886C406.956 542.329 407.631 541.61 408.13 540.729C408.629 539.82 408.981 538.778 409.186 537.604C409.421 536.401 409.538 535.154 409.538 533.862Z" fill="black"/>
<path d="M217.229 369.515C219.824 372.985 225.057 372.666 227.423 369.515L336.596 249.378C338.356 247.498 338.842 244.769 337.81 242.467C337.554 241.828 339.793 244.973 300.367 189.855C299.215 188.278 297.394 187.307 295.451 187.307C273.765 187.182 170.898 187.306 149.201 187.307C147.258 187.307 145.438 188.278 144.285 189.855C105.274 244.481 107.303 241.468 106.903 242.467C105.871 244.769 106.296 247.498 107.995 249.378L217.229 369.515ZM207.883 199.43L171.654 238.285H124.623L152.355 199.43H207.883ZM292.296 199.43L320.09 238.285H272.998L236.83 199.43H292.296ZM260.314 251.5L222.327 347.876L184.398 251.5H260.314Z" fill="black"/>
<path d="M222.339 173.589C225.69 173.589 228.407 170.878 228.407 167.528V154.061C228.407 150.711 225.69 148 222.339 148C218.987 148 216.27 150.711 216.27 154.061V167.528C216.27 170.878 218.987 173.589 222.339 173.589Z" fill="black"/>
<path d="M174.608 169.794C176.546 172.52 180.344 173.157 183.071 171.218C185.8 169.277 186.437 165.491 184.494 162.765L176.674 151.794C174.733 149.065 170.946 148.425 168.211 150.367C165.482 152.309 164.845 156.094 166.789 158.82L174.608 169.794Z" fill="black"/>
<path d="M270.069 169.795L277.889 158.821C279.833 156.095 279.196 152.309 276.466 150.368C273.729 148.426 269.942 149.063 268.004 151.794L260.184 162.766C258.24 165.492 258.877 169.277 261.606 171.219C264.331 173.157 268.13 172.523 270.069 169.795Z" fill="black"/>
<path d="M205.266 67.6298C214.652 58.1983 229.918 58.1983 239.304 67.6298L404.054 233.176C413.377 242.543 413.377 257.683 404.054 267.05L239.304 432.596C229.918 442.027 214.652 442.027 205.266 432.596L40.5162 267.05C31.1939 257.683 31.1939 242.543 40.5162 233.176L205.266 67.6298Z" stroke="black" stroke-width="12.0054"/>
</svg>
