<svg width="295" height="376" viewBox="0 0 295 376" fill="none" xmlns="http://www.w3.org/2000/svg">
<path d="M14.8315 322.968V297.914H19.8901V307.775H29.8022V297.914H34.8608V322.968H29.8022V312.013H19.8901V322.968H14.8315ZM62.7002 322.968H57.1973L55.0098 317.277H44.9951L42.9272 322.968H37.561L47.3193 297.914H52.6685L62.7002 322.968ZM53.3862 313.056L49.9341 303.759L46.5503 313.056H53.3862ZM52.7881 296.479H49.7632L45.0464 291.369H50.4297L52.7881 296.479ZM65.4517 322.968V297.914H70.3735L80.6274 314.645V297.914H85.3271V322.968H80.2515L70.1514 306.63V322.968H65.4517ZM102.349 313.756V309.535H113.252V319.516C112.192 320.541 110.654 321.447 108.638 322.233C106.632 323.008 104.599 323.395 102.537 323.395C99.9162 323.395 97.6318 322.848 95.6836 321.754C93.7354 320.649 92.2713 319.077 91.2915 317.038C90.3117 314.987 89.8218 312.759 89.8218 310.355C89.8218 307.746 90.3687 305.428 91.4624 303.4C92.5562 301.372 94.1569 299.817 96.2646 298.734C97.8711 297.903 99.8706 297.487 102.263 297.487C105.374 297.487 107.8 298.142 109.543 299.452C111.298 300.751 112.426 302.551 112.927 304.853L107.903 305.792C107.55 304.562 106.883 303.594 105.903 302.887C104.935 302.169 103.722 301.811 102.263 301.811C100.053 301.811 98.2926 302.511 96.9824 303.913C95.6836 305.314 95.0342 307.393 95.0342 310.15C95.0342 313.124 95.695 315.357 97.0166 316.85C98.3382 318.331 100.07 319.071 102.212 319.071C103.271 319.071 104.331 318.866 105.391 318.456C106.462 318.035 107.379 317.528 108.142 316.935V313.756H102.349ZM127.659 297.914H136.904C138.989 297.914 140.579 298.074 141.672 298.393C143.142 298.826 144.401 299.595 145.449 300.7C146.497 301.805 147.295 303.161 147.842 304.767C148.389 306.362 148.662 308.333 148.662 310.68C148.662 312.742 148.406 314.52 147.893 316.012C147.266 317.835 146.372 319.311 145.21 320.438C144.333 321.293 143.148 321.959 141.655 322.438C140.539 322.791 139.046 322.968 137.178 322.968H127.659V297.914ZM132.717 302.152V318.747H136.494C137.907 318.747 138.927 318.667 139.553 318.507C140.374 318.302 141.051 317.955 141.587 317.465C142.134 316.975 142.578 316.172 142.92 315.055C143.262 313.927 143.433 312.395 143.433 310.458C143.433 308.521 143.262 307.034 142.92 305.998C142.578 304.961 142.1 304.152 141.484 303.571C140.869 302.99 140.089 302.597 139.143 302.392C138.437 302.232 137.052 302.152 134.99 302.152H132.717ZM152.969 322.968V297.914H171.545V302.152H158.027V307.707H170.605V311.928H158.027V318.747H172.024V322.968H152.969ZM162.778 295.795L160.898 297.06H157.532L161.257 294.838H164.299L168.025 297.06H164.658L162.778 295.795ZM157.07 294.257C157.059 293.493 157.372 292.827 158.01 292.257C158.66 291.676 159.503 291.386 160.54 291.386C161.246 291.386 162.209 291.636 163.428 292.138C164.305 292.411 164.943 292.548 165.342 292.548C166.037 292.548 166.453 292.149 166.589 291.352H168.503C168.435 293.254 167.319 294.206 165.154 294.206C164.436 294.206 163.49 293.955 162.317 293.454C161.314 293.123 160.636 292.958 160.283 292.958C159.554 292.958 159.121 293.391 158.984 294.257H157.07ZM202.085 313.756L206.99 315.312C206.238 318.046 204.985 320.08 203.23 321.413C201.487 322.734 199.271 323.395 196.582 323.395C193.255 323.395 190.521 322.261 188.379 319.994C186.237 317.715 185.166 314.605 185.166 310.663C185.166 306.493 186.243 303.257 188.396 300.956C190.549 298.643 193.381 297.487 196.89 297.487C199.954 297.487 202.444 298.393 204.358 300.204C205.497 301.275 206.352 302.813 206.921 304.818L201.914 306.015C201.618 304.716 200.997 303.69 200.051 302.938C199.117 302.187 197.978 301.811 196.633 301.811C194.776 301.811 193.267 302.477 192.104 303.81C190.954 305.143 190.378 307.302 190.378 310.287C190.378 313.454 190.948 315.71 192.087 317.055C193.227 318.399 194.708 319.071 196.531 319.071C197.875 319.071 199.032 318.644 200 317.79C200.968 316.935 201.663 315.591 202.085 313.756ZM211.365 322.968V297.914H216.423V307.775H226.335V297.914H231.394V322.968H226.335V312.013H216.423V322.968H211.365ZM259.233 322.968H253.73L251.543 317.277H241.528L239.46 322.968H234.094L243.853 297.914H249.202L259.233 322.968ZM249.919 313.056L246.467 303.759L243.083 313.056H249.919ZM243.562 296.479L245.92 291.369H251.304L246.604 296.479H243.562ZM268.513 322.968V312.423L259.336 297.914H265.266L271.162 307.826L276.938 297.914H282.766L273.555 312.458V322.968H268.513Z" fill="black"/>
<path d="M147.484 270.968C72.774 270.968 12 210.194 12 135.484C12 60.774 72.774 0 147.484 0C222.194 0 282.968 60.774 282.968 135.484C282.968 210.194 222.194 270.968 147.484 270.968ZM147.484 10.9088C78.7944 10.9088 22.9004 66.7944 22.9004 135.484C22.9004 204.173 78.786 260.059 147.484 260.059C216.182 260.059 272.059 204.173 272.059 135.484C272.067 66.7944 216.182 10.9088 147.484 10.9088Z" fill="#2B2B2B"/>
<path d="M210.756 151.289C207.226 137.043 208.694 126 209.918 120.567C210.32 118.789 208.744 117.196 206.967 117.59C195.815 120.038 188.226 125.489 183.086 131.45C179.07 111.62 168.84 93.6091 165.05 87.4042C163.751 85.1906 162.325 82.9938 160.757 80.8137C151.123 67.4146 155.894 53.9064 161.051 45.4209C162.401 43.1989 159.835 40.6918 157.629 42.0669C118.019 66.7857 124.467 111.05 124.467 111.05C121.96 98.313 103.781 90.2803 95.8659 87.3539C94.3398 86.7921 92.8054 88.1757 93.2162 89.752C100.981 119.577 86.3489 120.298 81.8462 173.107C79.0875 205.422 93.5684 221.79 115.218 228.716C116.686 229.185 117.675 227.24 116.459 226.301C107.404 219.308 101.844 210.068 98.8509 203.829C97.9956 202.051 99.6224 200.064 101.526 200.584C104.955 201.515 109.307 201.792 112.72 201.833C113.944 201.85 114.338 200.215 113.248 199.637C95.8575 190.363 94.5411 165.393 103.211 149.101C110.171 136.028 108.502 119.083 107.135 111.075C106.917 109.817 108.536 109.104 109.332 110.102C132.55 139.232 105.316 166.726 115.176 175.815C125.44 185.282 143.291 169.778 135.376 150.275C129.624 136.104 131.175 120.516 132.458 113.062C132.634 112.014 134.043 111.762 134.554 112.693C136.877 116.861 141.79 121.212 141.79 121.212C139.627 111.804 142.738 102.137 144.759 97.2565C145.253 96.0491 146.939 96.0407 147.475 97.2314C155.382 114.714 179.975 123.258 169.461 150.132C158.325 178.599 182.206 186.556 179.975 174.188C178.441 165.703 183.027 157.041 186.046 152.446C186.767 151.348 188.461 151.801 188.57 153.109C189.693 166.005 198.229 178.372 197.047 190.514C194.976 209.824 186.231 220.7 177.812 226.779C176.538 227.701 177.519 229.705 179.019 229.235C213.884 218.176 217.339 177.853 210.756 151.289Z" fill="#2B2B2B"/>
</svg>
