<svg width="280" height="380" viewBox="0 0 280 380" fill="none" xmlns="http://www.w3.org/2000/svg">
<path d="M90.0034 332V306.946H95.062V316.807H104.974V306.946H110.033V332H104.974V321.045H95.062V332H90.0034ZM137.872 332H132.369L130.182 326.309H120.167L118.099 332H112.733L122.491 306.946H127.84L137.872 332ZM128.558 322.088L125.106 312.791L121.722 322.088H128.558ZM127.96 305.511H124.935L120.218 300.401H125.602L127.96 305.511ZM140.624 332V306.946H145.545L155.799 323.677V306.946H160.499V332H155.423L145.323 315.662V332H140.624ZM177.521 322.789V318.567H188.424V328.548C187.364 329.573 185.826 330.479 183.81 331.265C181.804 332.04 179.771 332.427 177.708 332.427C175.088 332.427 172.804 331.88 170.855 330.787C168.907 329.681 167.443 328.109 166.463 326.07C165.484 324.019 164.994 321.792 164.994 319.388C164.994 316.779 165.541 314.46 166.634 312.432C167.728 310.404 169.329 308.849 171.437 307.767C173.043 306.935 175.042 306.519 177.435 306.519C180.545 306.519 182.972 307.174 184.715 308.484C186.47 309.783 187.598 311.583 188.099 313.885L183.075 314.825C182.722 313.594 182.055 312.626 181.075 311.919C180.107 311.202 178.893 310.843 177.435 310.843C175.225 310.843 173.465 311.543 172.154 312.945C170.855 314.346 170.206 316.425 170.206 319.183C170.206 322.156 170.867 324.389 172.188 325.882C173.51 327.363 175.242 328.104 177.384 328.104C178.443 328.104 179.503 327.898 180.562 327.488C181.633 327.067 182.551 326.56 183.314 325.967V322.789H177.521ZM37.9648 362.789L42.8696 364.344C42.1177 367.078 40.8644 369.112 39.1099 370.445C37.3667 371.766 35.1507 372.427 32.4619 372.427C29.1351 372.427 26.4007 371.294 24.2588 369.026C22.1169 366.748 21.0459 363.637 21.0459 359.695C21.0459 355.525 22.1226 352.29 24.2759 349.988C26.4292 347.675 29.2604 346.519 32.7695 346.519C35.8343 346.519 38.3237 347.425 40.2378 349.236C41.3771 350.307 42.2316 351.845 42.8013 353.851L37.7939 355.047C37.4977 353.748 36.8768 352.723 35.9312 351.971C34.9969 351.219 33.8576 350.843 32.5132 350.843C30.6561 350.843 29.1465 351.509 27.9844 352.842C26.8337 354.175 26.2583 356.334 26.2583 359.319C26.2583 362.487 26.828 364.743 27.9673 366.087C29.1066 367.431 30.5877 368.104 32.4106 368.104C33.755 368.104 34.9115 367.676 35.8799 366.822C36.8483 365.967 37.5433 364.623 37.9648 362.789ZM69.8203 372H64.3174L62.1299 366.309H52.1152L50.0474 372H44.6812L54.4395 346.946H59.7886L69.8203 372ZM60.5063 362.088L57.0542 352.791L53.6704 362.088H60.5063ZM57.0371 344.827L55.1572 346.092H51.7905L55.5161 343.87H58.5581L62.2837 346.092H58.917L57.0371 344.827ZM59.0537 343.289H56.0288L51.6538 340.503H57.0371L59.0537 343.289ZM72.5718 372V346.946H77.4937L87.7476 363.677V346.946H92.4473V372H87.3716L77.2715 355.662V372H72.5718ZM119.21 362.789V358.567H130.113V368.548C129.054 369.573 127.516 370.479 125.499 371.265C123.494 372.04 121.46 372.427 119.398 372.427C116.778 372.427 114.493 371.88 112.545 370.787C110.597 369.681 109.133 368.109 108.153 366.07C107.173 364.019 106.683 361.792 106.683 359.388C106.683 356.779 107.23 354.46 108.324 352.432C109.417 350.404 111.018 348.849 113.126 347.767C114.732 346.935 116.732 346.519 119.125 346.519C122.235 346.519 124.662 347.174 126.405 348.484C128.159 349.783 129.287 351.583 129.789 353.885L124.764 354.825C124.411 353.594 123.744 352.626 122.765 351.919C121.796 351.202 120.583 350.843 119.125 350.843C116.914 350.843 115.154 351.543 113.844 352.945C112.545 354.346 111.896 356.425 111.896 359.183C111.896 362.156 112.556 364.389 113.878 365.882C115.2 367.363 116.931 368.104 119.073 368.104C120.133 368.104 121.192 367.898 122.252 367.488C123.323 367.067 124.24 366.56 125.003 365.967V362.789H119.21ZM134.642 372V346.946H139.701V372H134.642ZM166.224 346.946H171.026V350.381C171.026 351.794 170.901 352.899 170.65 353.697C170.411 354.494 169.967 355.206 169.317 355.833C168.269 356.836 166.657 357.502 164.481 357.833V360.105C164.481 363.056 164.344 365.181 164.071 366.48C163.809 367.699 163.307 368.747 162.567 369.625C160.949 371.493 158.357 372.427 154.791 372.427C150.826 372.427 148.035 371.43 146.417 369.437C145.699 368.559 145.226 367.636 144.999 366.668C144.668 365.244 144.503 363.125 144.503 360.311V346.946H149.562V360.516C149.562 362.692 149.624 364.087 149.75 364.703C150.217 366.97 151.846 368.104 154.637 368.104C157.326 368.104 158.847 367.09 159.2 365.062C159.348 364.207 159.422 362.789 159.422 360.806V346.946H164.481V355.884C166.133 355.577 167.284 354.979 167.933 354.09C168.32 353.566 168.526 352.785 168.548 351.749H166.224V346.946ZM150.792 345.562H148.604C148.593 345.3 148.587 345.095 148.587 344.947C148.587 343.75 148.878 342.833 149.459 342.195C150.04 341.546 150.786 341.221 151.698 341.221C152.097 341.221 152.467 341.267 152.809 341.358C153.15 341.438 153.771 341.683 154.671 342.093C155.583 342.492 156.295 342.691 156.808 342.691C157.172 342.691 157.474 342.577 157.713 342.349C157.964 342.121 158.124 341.74 158.192 341.204H160.414C160.402 342.742 160.112 343.842 159.542 344.502C158.984 345.163 158.26 345.494 157.372 345.494C156.984 345.494 156.603 345.454 156.227 345.374C155.965 345.306 155.309 345.072 154.261 344.673C153.213 344.275 152.45 344.075 151.971 344.075C151.607 344.075 151.322 344.189 151.117 344.417C150.912 344.633 150.803 345.015 150.792 345.562ZM183.399 372V346.946H188.458V358.072L198.678 346.946H205.479L196.046 356.705L205.992 372H199.447L192.56 360.242L188.458 364.429V372H183.399ZM208.641 372V346.946H213.7V356.807H223.612V346.946H228.67V372H223.612V361.045H213.7V372H208.641ZM232.892 359.627C232.892 357.075 233.273 354.933 234.037 353.201C234.606 351.925 235.381 350.78 236.361 349.766C237.352 348.752 238.434 348 239.608 347.51C241.169 346.849 242.969 346.519 245.008 346.519C248.7 346.519 251.651 347.664 253.861 349.954C256.083 352.244 257.193 355.429 257.193 359.507C257.193 363.552 256.094 366.719 253.895 369.009C251.696 371.288 248.757 372.427 245.077 372.427C241.351 372.427 238.389 371.294 236.19 369.026C233.991 366.748 232.892 363.615 232.892 359.627ZM238.104 359.456C238.104 362.293 238.759 364.446 240.069 365.916C241.38 367.374 243.043 368.104 245.06 368.104C247.076 368.104 248.728 367.38 250.016 365.933C251.314 364.475 251.964 362.293 251.964 359.388C251.964 356.517 251.332 354.375 250.067 352.962C248.814 351.549 247.145 350.843 245.06 350.843C242.975 350.843 241.294 351.561 240.018 352.996C238.742 354.42 238.104 356.574 238.104 359.456ZM239.061 345.511L242.65 340.469H247.093L250.631 345.511H246.769L244.786 342.964L242.94 345.511H239.061Z" fill="black"/>
<path d="M140 280C62.7998 280 0 217.2 0 140C0 62.8086 62.7998 0 140 0C217.2 0 280 62.7999 280 140C280 217.192 217.191 280 140 280ZM140 11.2638C69.0209 11.2638 11.2724 69.0123 11.2724 139.991C11.2724 210.971 69.0209 268.728 140 268.728C210.979 268.728 268.728 210.979 268.728 139.991C268.728 69.0037 210.979 11.2638 140 11.2638Z" fill="#2B2B2B"/>
<path d="M240.516 129.646L241.773 131.283C241.773 131.283 241.773 131.283 242.102 131.283C242.353 131.283 242.353 130.348 242.336 129.888C239.277 83.8976 194.629 47.4116 139.983 47.4116C85.4488 47.4116 40.8703 83.7503 37.6558 129.611C37.7337 130.937 39.51 129.568 39.51 129.568C42.4039 126.05 48.0531 123.659 54.5428 123.659C61.223 123.659 67.0195 126.189 69.8268 129.88C70.7539 131.101 72.5128 131.101 73.4399 129.88C76.2472 126.189 82.035 123.659 88.724 123.659C95.4042 123.659 101.201 126.189 104.008 129.88C104.935 131.101 106.694 131.101 107.621 129.88C110.428 126.189 116.216 123.659 122.905 123.659C129.585 123.659 135.373 126.189 138.189 129.88C139.116 131.101 140.875 131.101 141.802 129.88C144.61 126.189 150.397 123.659 157.086 123.659C163.775 123.659 169.563 126.189 172.37 129.88C173.298 131.101 175.056 131.101 175.984 129.88C178.791 126.189 184.579 123.659 191.268 123.659C197.948 123.659 203.744 126.189 206.552 129.88C207.479 131.101 209.238 131.101 210.165 129.88C212.972 126.189 218.76 123.659 225.449 123.659C231.964 123.659 237.64 126.085 240.516 129.646Z" fill="#2B2B2B"/>
<path d="M131.014 241.227H130.876C123.953 241.149 118.338 235.491 118.338 228.551C118.338 225.44 120.86 222.919 123.97 222.919C127.081 222.919 129.602 225.44 129.602 228.551C129.602 229.305 130.2 229.92 130.936 229.954C131.682 229.92 132.271 229.305 132.271 228.551V44.4141C132.271 41.3036 134.792 38.7822 137.903 38.7822C141.013 38.7822 143.535 41.3036 143.535 44.4141V228.551C143.552 235.491 137.937 241.149 131.014 241.227Z" fill="#2B2B2B"/>
</svg>
