<svg width="315" height="444" viewBox="0 0 315 444" fill="none" xmlns="http://www.w3.org/2000/svg">
<rect width="315" height="444" fill="white"/>
<path d="M42.8057 384V358.946H47.8643V368.807H57.7764V358.946H62.835V384H57.7764V373.045H47.8643V384H42.8057ZM90.6743 384H85.1714L82.9839 378.309H72.9692L70.9014 384H65.5352L75.2935 358.946H80.6426L90.6743 384ZM81.3604 374.088L77.9082 364.791L74.5244 374.088H81.3604ZM80.7622 357.511H77.7373L73.0205 352.401H78.4038L80.7622 357.511ZM93.4258 384V358.946H98.3477L108.602 375.677V358.946H113.301V384H108.226L98.1255 367.662V384H93.4258ZM130.323 374.789V370.567H141.226V380.548C140.167 381.573 138.628 382.479 136.612 383.265C134.607 384.04 132.573 384.427 130.511 384.427C127.89 384.427 125.606 383.88 123.658 382.787C121.709 381.681 120.245 380.109 119.266 378.07C118.286 376.019 117.796 373.792 117.796 371.388C117.796 368.779 118.343 366.46 119.437 364.432C120.53 362.404 122.131 360.849 124.239 359.767C125.845 358.935 127.845 358.519 130.237 358.519C133.348 358.519 135.774 359.174 137.518 360.484C139.272 361.783 140.4 363.583 140.901 365.885L135.877 366.825C135.524 365.594 134.857 364.626 133.877 363.919C132.909 363.202 131.696 362.843 130.237 362.843C128.027 362.843 126.267 363.543 124.957 364.945C123.658 366.346 123.008 368.425 123.008 371.183C123.008 374.156 123.669 376.389 124.991 377.882C126.312 379.363 128.044 380.104 130.186 380.104C131.246 380.104 132.305 379.898 133.365 379.488C134.436 379.067 135.353 378.56 136.116 377.967V374.789H130.323ZM171.68 374.789L176.585 376.344C175.833 379.078 174.58 381.112 172.825 382.445C171.082 383.766 168.866 384.427 166.177 384.427C162.85 384.427 160.116 383.294 157.974 381.026C155.832 378.748 154.761 375.637 154.761 371.695C154.761 367.525 155.838 364.29 157.991 361.988C160.145 359.675 162.976 358.519 166.485 358.519C169.55 358.519 172.039 359.425 173.953 361.236C175.092 362.307 175.947 363.845 176.517 365.851L171.509 367.047C171.213 365.748 170.592 364.723 169.646 363.971C168.712 363.219 167.573 362.843 166.229 362.843C164.371 362.843 162.862 363.509 161.7 364.842C160.549 366.175 159.974 368.334 159.974 371.319C159.974 374.487 160.543 376.743 161.683 378.087C162.822 379.431 164.303 380.104 166.126 380.104C167.47 380.104 168.627 379.676 169.595 378.822C170.564 377.967 171.259 376.623 171.68 374.789ZM179.917 371.627C179.917 369.075 180.299 366.933 181.062 365.201C181.632 363.925 182.407 362.78 183.387 361.766C184.378 360.752 185.46 360 186.634 359.51C188.195 358.849 189.995 358.519 192.034 358.519C195.726 358.519 198.676 359.664 200.887 361.954C203.108 364.244 204.219 367.429 204.219 371.507C204.219 375.552 203.12 378.719 200.921 381.009C198.722 383.288 195.783 384.427 192.103 384.427C188.377 384.427 185.415 383.294 183.216 381.026C181.017 378.748 179.917 375.615 179.917 371.627ZM185.13 371.456C185.13 374.293 185.785 376.446 187.095 377.916C188.405 379.374 190.069 380.104 192.085 380.104C194.102 380.104 195.754 379.38 197.042 377.933C198.34 376.475 198.99 374.293 198.99 371.388C198.99 368.517 198.357 366.375 197.093 364.962C195.84 363.549 194.17 362.843 192.085 362.843C190 362.843 188.32 363.561 187.044 364.996C185.768 366.42 185.13 368.574 185.13 371.456ZM188.958 357.511L191.316 352.401H196.7L192 357.511H188.958ZM217.925 384V358.946H226.043C229.119 358.946 231.124 359.072 232.059 359.322C233.494 359.698 234.696 360.519 235.665 361.783C236.633 363.036 237.117 364.66 237.117 366.654C237.117 368.192 236.838 369.485 236.28 370.533C235.722 371.581 235.009 372.407 234.144 373.011C233.289 373.604 232.417 373.997 231.529 374.19C230.321 374.43 228.572 374.549 226.282 374.549H222.984V384H217.925ZM222.984 363.185V370.294H225.752C227.746 370.294 229.079 370.163 229.751 369.901C230.424 369.639 230.948 369.229 231.324 368.67C231.711 368.112 231.905 367.463 231.905 366.722C231.905 365.811 231.637 365.059 231.102 364.466C230.566 363.874 229.888 363.504 229.068 363.355C228.464 363.242 227.251 363.185 225.428 363.185H222.984ZM241.116 384V358.946H246.175V384H241.116ZM251.062 384V358.946H255.984L266.238 375.677V358.946H270.938V384H265.862L255.762 367.662V384H251.062Z" fill="black"/>
<path d="M158 332C80.7998 332 18 269.2 18 192C18 114.809 80.7998 52 158 52C235.191 52 298 114.8 298 192C298 269.192 235.2 332 158 332ZM158 63.2638C87.0209 63.2638 29.2724 121.012 29.2724 191.991C29.2724 262.97 87.0209 320.728 158 320.728C228.979 320.728 286.728 262.979 286.728 191.991C286.728 121.004 228.988 63.2638 158 63.2638Z" fill="#2B2B2B"/>
<path d="M121.469 224.546V245.198H195.066V222.218C192.921 220.963 190.554 219.942 187.912 219.184C179.253 216.699 171.497 219.04 163.467 221.891C154.141 225.2 144.449 227.842 134.143 227.188C129.631 226.901 125.458 225.907 121.469 224.546Z" fill="#303030"/>
<path d="M178.011 158.177L163.48 162.35L172.597 126.133L138.8 171.178L152.965 167.503L143.848 203.719L178.011 158.177Z" fill="#303030"/>
<path d="M198.074 103.988H117.925C114.289 103.988 111.333 106.944 111.333 110.58V283.709C111.333 287.345 114.289 290.301 117.925 290.301H198.074C201.71 290.301 204.666 287.345 204.666 283.709V110.58C204.666 106.944 201.71 103.988 198.074 103.988ZM200.991 283.709C200.991 285.318 199.683 286.626 198.074 286.626H117.925C116.316 286.626 115.008 285.318 115.008 283.709V110.58C115.008 108.971 116.316 107.663 117.925 107.663H198.074C199.683 107.663 200.991 108.971 200.991 110.58V283.709Z" fill="#303030"/>
<path d="M170.973 93.0669H145.024C141.768 93.0669 139.139 95.6958 139.139 98.9525V106.944H176.846V98.9525C176.846 95.6958 174.217 93.0669 170.973 93.0669Z" fill="#303030"/>
<path d="M193.484 252.163H122.503C121.783 252.163 121.195 252.751 121.195 253.471V279.224C121.195 279.943 121.783 280.531 122.503 280.531H193.484C194.203 280.531 194.792 279.943 194.792 279.224V253.471C194.792 252.751 194.216 252.163 193.484 252.163Z" fill="#303030"/>
</svg>
