<svg width="445" height="630" viewBox="0 0 445 630" fill="none" xmlns="http://www.w3.org/2000/svg">
<rect width="444" height="630" transform="translate(0.838379)" fill="white"/>
<path d="M41.0448 545.343C41.0448 545.707 40.9748 545.945 40.8347 546.057C40.7226 546.169 40.4565 546.225 40.0363 546.225H35.6243C35.2602 546.225 35.0081 546.169 34.868 546.057C34.7279 545.917 34.6579 545.679 34.6579 545.343V533.578H23.2707V545.343C23.2707 545.707 23.2007 545.945 23.0607 546.057C22.9486 546.169 22.6825 546.225 22.2623 546.225H17.8083C17.4721 546.225 17.22 546.169 17.0519 546.057C16.9119 545.917 16.8418 545.679 16.8418 545.343V517.694C16.8418 517.358 16.9119 517.134 17.0519 517.022C17.22 516.882 17.4721 516.812 17.8083 516.812H22.2623C22.6825 516.812 22.9486 516.868 23.0607 516.98C23.2007 517.092 23.2707 517.33 23.2707 517.694V528.157H34.6579V517.694C34.6579 517.358 34.7279 517.134 34.868 517.022C35.0081 516.882 35.2602 516.812 35.6243 516.812H40.0363C40.4565 516.812 40.7226 516.868 40.8347 516.98C40.9748 517.092 41.0448 517.33 41.0448 517.694V545.343ZM62.7092 540.091H53.0868L51.4481 545.427C51.3641 545.707 51.238 545.917 51.0699 546.057C50.9299 546.169 50.6637 546.225 50.2716 546.225H45.3553C45.0472 546.225 44.8511 546.141 44.7671 545.973C44.7111 545.805 44.7111 545.609 44.7671 545.385L53.507 519.039C53.6471 518.563 53.8012 518.185 53.9692 517.905C54.1653 517.596 54.3754 517.358 54.5995 517.19C54.8516 517.022 55.1318 516.91 55.4399 516.854C55.7761 516.77 56.1542 516.728 56.5744 516.728H59.0956C59.5718 516.728 59.978 516.756 60.3141 516.812C60.6503 516.84 60.9444 516.938 61.1965 517.106C61.4486 517.274 61.6587 517.512 61.8268 517.82C62.0229 518.129 62.205 518.535 62.373 519.039L71.113 545.385C71.169 545.553 71.169 545.735 71.113 545.931C71.057 546.127 70.8749 546.225 70.5667 546.225H65.5665C65.2583 546.225 64.9922 546.197 64.7681 546.141C64.572 546.057 64.432 545.861 64.3479 545.553L62.7092 540.091ZM54.5995 534.88H61.1965L59.5998 529.544L58.0451 523.535H57.793L56.1962 529.544L54.5995 534.88ZM61.1125 512.19C61.3366 512.386 61.4346 512.54 61.4066 512.652C61.4066 512.764 61.3366 512.904 61.1965 513.072L59.5998 515.005C59.4597 515.145 59.3197 515.243 59.1796 515.299C59.0675 515.327 58.8715 515.271 58.5913 515.131L50.4817 510.971C50.3136 510.915 50.2155 510.817 50.1875 510.677C50.1595 510.509 50.2296 510.341 50.3976 510.173L53.2969 506.854C53.521 506.629 53.7031 506.545 53.8432 506.601C53.9832 506.657 54.1373 506.755 54.3054 506.896L61.1125 512.19ZM81.209 527.947V545.343C81.209 545.707 81.139 545.945 80.999 546.057C80.8869 546.169 80.6348 546.225 80.2426 546.225H75.8306C75.4945 546.225 75.2423 546.169 75.0743 546.057C74.9342 545.917 74.8642 545.679 74.8642 545.343V519.711C74.8642 518.619 75.0603 517.863 75.4524 517.442C75.8446 516.994 76.5589 516.77 77.5954 516.77H79.3602C79.7804 516.77 80.1306 516.798 80.4107 516.854C80.7188 516.882 80.9849 516.966 81.209 517.106C81.4332 517.246 81.6432 517.442 81.8393 517.694C82.0354 517.947 82.2595 518.269 82.5116 518.661L89.6549 529.544L93.2685 535.216H93.4786V517.652C93.4786 517.316 93.5346 517.092 93.6467 516.98C93.7867 516.84 94.0529 516.77 94.445 516.77H98.857C99.5013 516.77 99.8235 517.064 99.8235 517.652V543.326C99.8235 544.222 99.6414 544.937 99.2772 545.469C98.9131 545.973 98.1847 546.225 97.0922 546.225H95.3274C94.9072 546.225 94.5431 546.211 94.2349 546.183C93.9548 546.127 93.7027 546.029 93.4786 545.889C93.2545 545.749 93.0444 545.567 92.8483 545.343C92.6522 545.091 92.4281 544.769 92.176 544.377L85.453 534.208L81.4191 527.947H81.209ZM119.116 540.931C119.648 540.931 120.321 540.903 121.133 540.847C121.945 540.763 122.73 540.581 123.486 540.301L123.528 534.082C122.548 534.026 121.567 534.082 120.587 534.25C119.606 534.418 118.654 534.698 117.729 535.09C117.337 535.23 117.057 535.3 116.889 535.3C116.749 535.3 116.609 535.146 116.469 534.838L115.376 531.435C115.292 531.211 115.264 531.014 115.292 530.846C115.32 530.678 115.488 530.524 115.797 530.384C116.777 529.908 117.926 529.516 119.242 529.208C120.587 528.871 121.931 528.703 123.276 528.703C124.004 528.703 124.677 528.731 125.293 528.787C125.909 528.815 126.455 528.885 126.932 528.998C127.548 529.138 128.038 529.348 128.402 529.628C128.766 529.88 129.047 530.216 129.243 530.636C129.439 531.028 129.565 531.491 129.621 532.023C129.677 532.527 129.705 533.087 129.705 533.704V542.528C129.705 542.92 129.649 543.284 129.537 543.62C129.425 543.928 129.145 544.222 128.696 544.503C127.856 545.007 126.946 545.399 125.965 545.679C124.985 545.959 124.018 546.169 123.066 546.309C122.141 546.477 121.273 546.576 120.461 546.604C119.648 546.66 119.004 546.688 118.528 546.688C116.231 546.688 114.242 546.351 112.561 545.679C110.908 544.979 109.536 543.984 108.443 542.696C107.379 541.379 106.58 539.796 106.048 537.948C105.544 536.099 105.292 533.998 105.292 531.645C105.292 529.348 105.586 527.261 106.174 525.384C106.763 523.507 107.631 521.91 108.779 520.594C109.956 519.249 111.385 518.213 113.065 517.484C114.774 516.756 116.721 516.392 118.906 516.392C120.363 516.392 121.805 516.518 123.234 516.77C124.663 516.994 126.035 517.47 127.352 518.199C127.66 518.367 127.842 518.535 127.898 518.703C127.954 518.871 127.87 519.193 127.646 519.669L126.343 522.653C126.203 523.045 126.049 523.283 125.881 523.367C125.741 523.451 125.475 523.423 125.083 523.283C124.074 522.919 123.094 522.653 122.141 522.485C121.217 522.317 120.223 522.232 119.158 522.232C117.926 522.232 116.861 522.471 115.965 522.947C115.068 523.423 114.326 524.081 113.738 524.922C113.149 525.762 112.715 526.757 112.435 527.905C112.155 529.054 112.015 530.314 112.015 531.687C112.015 533.087 112.127 534.362 112.351 535.51C112.575 536.631 112.953 537.597 113.486 538.41C114.046 539.194 114.774 539.81 115.671 540.259C116.595 540.707 117.743 540.931 119.116 540.931ZM153.634 527.947V545.343C153.634 545.707 153.564 545.945 153.424 546.057C153.312 546.169 153.06 546.225 152.668 546.225H148.256C147.92 546.225 147.668 546.169 147.5 546.057C147.36 545.917 147.29 545.679 147.29 545.343V519.711C147.29 518.619 147.486 517.863 147.878 517.442C148.27 516.994 148.984 516.77 150.021 516.77H151.786C152.206 516.77 152.556 516.798 152.836 516.854C153.144 516.882 153.41 516.966 153.634 517.106C153.858 517.246 154.069 517.442 154.265 517.694C154.461 517.947 154.685 518.269 154.937 518.661L162.08 529.544L165.694 535.216H165.904V517.652C165.904 517.316 165.96 517.092 166.072 516.98C166.212 516.84 166.478 516.77 166.87 516.77H171.282C171.927 516.77 172.249 517.064 172.249 517.652V543.326C172.249 544.222 172.067 544.937 171.703 545.469C171.338 545.973 170.61 546.225 169.518 546.225H167.753C167.333 546.225 166.968 546.211 166.66 546.183C166.38 546.127 166.128 546.029 165.904 545.889C165.68 545.749 165.47 545.567 165.274 545.343C165.078 545.091 164.853 544.769 164.601 544.377L157.878 534.208L153.844 527.947H153.634ZM191.541 540.931C192.074 540.931 192.746 540.903 193.558 540.847C194.371 540.763 195.155 540.581 195.911 540.301L195.953 534.082C194.973 534.026 193.993 534.082 193.012 534.25C192.032 534.418 191.079 534.698 190.155 535.09C189.763 535.23 189.483 535.3 189.314 535.3C189.174 535.3 189.034 535.146 188.894 534.838L187.802 531.435C187.718 531.211 187.69 531.014 187.718 530.846C187.746 530.678 187.914 530.524 188.222 530.384C189.202 529.908 190.351 529.516 191.667 529.208C193.012 528.871 194.357 528.703 195.701 528.703C196.43 528.703 197.102 528.731 197.718 528.787C198.335 528.815 198.881 528.885 199.357 528.998C199.973 529.138 200.463 529.348 200.828 529.628C201.192 529.88 201.472 530.216 201.668 530.636C201.864 531.028 201.99 531.491 202.046 532.023C202.102 532.527 202.13 533.087 202.13 533.704V542.528C202.13 542.92 202.074 543.284 201.962 543.62C201.85 543.928 201.57 544.222 201.122 544.503C200.281 545.007 199.371 545.399 198.391 545.679C197.41 545.959 196.444 546.169 195.491 546.309C194.567 546.477 193.698 546.576 192.886 546.604C192.074 546.66 191.429 546.688 190.953 546.688C188.656 546.688 186.667 546.351 184.986 545.679C183.334 544.979 181.961 543.984 180.869 542.696C179.804 541.379 179.006 539.796 178.474 537.948C177.969 536.099 177.717 533.998 177.717 531.645C177.717 529.348 178.011 527.261 178.6 525.384C179.188 523.507 180.056 521.91 181.205 520.594C182.381 519.249 183.81 518.213 185.491 517.484C187.199 516.756 189.146 516.392 191.331 516.392C192.788 516.392 194.231 516.518 195.659 516.77C197.088 516.994 198.461 517.47 199.777 518.199C200.085 518.367 200.267 518.535 200.323 518.703C200.379 518.871 200.295 519.193 200.071 519.669L198.769 522.653C198.629 523.045 198.475 523.283 198.307 523.367C198.166 523.451 197.9 523.423 197.508 523.283C196.5 522.919 195.519 522.653 194.567 522.485C193.642 522.317 192.648 522.232 191.583 522.232C190.351 522.232 189.286 522.471 188.39 522.947C187.494 523.423 186.751 524.081 186.163 524.922C185.575 525.762 185.141 526.757 184.86 527.905C184.58 529.054 184.44 530.314 184.44 531.687C184.44 533.087 184.552 534.362 184.776 535.51C185 536.631 185.379 537.597 185.911 538.41C186.471 539.194 187.199 539.81 188.096 540.259C189.02 540.707 190.169 540.931 191.541 540.931ZM231.476 542.149C231.476 543.13 231.251 543.97 230.803 544.671C230.383 545.371 229.585 545.875 228.408 546.183C227.848 546.323 227.232 546.421 226.559 546.477C225.887 546.561 225.215 546.618 224.542 546.646C223.87 546.674 223.24 546.688 222.652 546.688C222.063 546.716 221.587 546.73 221.223 546.73C218.814 546.73 216.741 546.533 215.004 546.141C213.295 545.721 211.895 545.021 210.802 544.04C209.71 543.06 208.911 541.757 208.407 540.133C207.903 538.508 207.651 536.463 207.651 533.998L207.609 517.694C207.609 517.358 207.693 517.134 207.861 517.022C208.029 516.882 208.267 516.812 208.575 516.812H213.071C213.491 516.812 213.758 516.868 213.87 516.98C214.01 517.092 214.08 517.33 214.08 517.694V534.376C214.08 535.525 214.178 536.533 214.374 537.401C214.57 538.242 214.92 538.942 215.424 539.502C215.929 540.063 216.601 540.483 217.441 540.763C218.31 541.015 219.416 541.141 220.761 541.141C220.957 541.141 221.223 541.141 221.559 541.141C221.895 541.113 222.259 541.099 222.652 541.099C223.072 541.071 223.492 541.043 223.912 541.015C224.36 540.959 224.767 540.889 225.131 540.805V517.694C225.131 517.358 225.201 517.134 225.341 517.022C225.509 516.882 225.761 516.812 226.097 516.812H230.551C230.971 516.812 231.223 516.868 231.307 516.98C231.42 517.092 231.476 517.33 231.476 517.694V542.149ZM247.896 529.544L250.67 523.325L253.443 517.568C253.583 517.288 253.723 517.092 253.863 516.98C254.031 516.84 254.269 516.77 254.577 516.77H259.914C260.306 516.77 260.502 516.854 260.502 517.022C260.53 517.19 260.502 517.358 260.418 517.526L251.048 535.384V545.385C251.048 545.693 250.992 545.917 250.88 546.057C250.768 546.169 250.516 546.225 250.123 546.225H245.543C244.955 546.225 244.661 545.945 244.661 545.385V535.468L235.039 517.568C234.955 517.428 234.941 517.26 234.997 517.064C235.081 516.868 235.277 516.77 235.585 516.77H240.879C241.271 516.77 241.538 516.84 241.678 516.98C241.846 517.12 242 517.358 242.14 517.694L244.955 523.535L247.644 529.544H247.896ZM285.083 545.259C285.083 545.595 285.027 545.847 284.915 546.015C284.803 546.155 284.579 546.225 284.243 546.225H271.805C270.237 546.225 268.948 546.001 267.94 545.553C266.959 545.105 266.175 544.517 265.586 543.788C264.998 543.06 264.592 542.234 264.368 541.309C264.144 540.385 264.032 539.446 264.032 538.494V524.544C264.032 523.535 264.172 522.569 264.452 521.644C264.732 520.72 265.166 519.893 265.755 519.165C266.371 518.437 267.169 517.863 268.15 517.442C269.13 516.994 270.335 516.77 271.763 516.77H283.823C284.159 516.77 284.369 516.84 284.453 516.98C284.565 517.12 284.621 517.386 284.621 517.778V521.35C284.621 521.714 284.565 521.966 284.453 522.106C284.341 522.218 284.131 522.275 283.823 522.275H273.15C272.057 522.275 271.329 522.527 270.965 523.031C270.601 523.535 270.419 524.151 270.419 524.88V528.115H282.478C282.814 528.115 283.024 528.185 283.108 528.325C283.22 528.465 283.276 528.731 283.276 529.124V532.401C283.276 532.737 283.22 532.989 283.108 533.157C283.024 533.297 282.814 533.368 282.478 533.368H270.419V538.158C270.419 539.138 270.643 539.81 271.091 540.175C271.567 540.511 272.253 540.679 273.15 540.679H284.243C284.607 540.679 284.831 540.749 284.915 540.889C285.027 541.001 285.083 541.267 285.083 541.687V545.259ZM283.529 512.778C283.781 513.002 283.907 513.198 283.907 513.366C283.907 513.507 283.809 513.675 283.613 513.871L282.436 515.173C282.268 515.369 282.086 515.453 281.89 515.425C281.694 515.369 281.484 515.271 281.26 515.131L275.293 511.896L269.494 515.047C269.27 515.187 269.074 515.271 268.906 515.299C268.738 515.299 268.556 515.187 268.36 514.963L267.267 513.829C267.099 513.605 267.001 513.437 266.973 513.324C266.973 513.184 267.071 513.016 267.267 512.82L272.856 507.988C273.248 507.652 273.654 507.386 274.074 507.19C274.523 506.994 274.929 506.896 275.293 506.896C276.105 506.896 276.96 507.26 277.856 507.988L283.529 512.778ZM296.146 527.947V545.343C296.146 545.707 296.076 545.945 295.936 546.057C295.824 546.169 295.572 546.225 295.18 546.225H290.768C290.432 546.225 290.179 546.169 290.011 546.057C289.871 545.917 289.801 545.679 289.801 545.343V519.711C289.801 518.619 289.997 517.863 290.39 517.442C290.782 516.994 291.496 516.77 292.533 516.77H294.297C294.717 516.77 295.068 516.798 295.348 516.854C295.656 516.882 295.922 516.966 296.146 517.106C296.37 517.246 296.58 517.442 296.776 517.694C296.973 517.947 297.197 518.269 297.449 518.661L304.592 529.544L308.206 535.216H308.416V517.652C308.416 517.316 308.472 517.092 308.584 516.98C308.724 516.84 308.99 516.77 309.382 516.77H313.794C314.438 516.77 314.761 517.064 314.761 517.652V543.326C314.761 544.222 314.578 544.937 314.214 545.469C313.85 545.973 313.122 546.225 312.029 546.225H310.265C309.844 546.225 309.48 546.211 309.172 546.183C308.892 546.127 308.64 546.029 308.416 545.889C308.192 545.749 307.981 545.567 307.785 545.343C307.589 545.091 307.365 544.769 307.113 544.377L300.39 534.208L296.356 527.947H296.146ZM348.302 527.485L358.093 545.175C358.289 545.483 358.345 545.735 358.261 545.931C358.177 546.127 357.981 546.225 357.672 546.225H352.798C352.21 546.225 351.776 546.197 351.496 546.141C351.244 546.057 350.977 545.763 350.697 545.259L343.932 532.695L339.478 538.032V545.343C339.478 545.735 339.422 545.987 339.31 546.099C339.198 546.183 338.932 546.225 338.512 546.225H334.1C333.764 546.225 333.512 546.169 333.343 546.057C333.203 545.917 333.133 545.679 333.133 545.343V517.694C333.133 517.358 333.203 517.134 333.343 517.022C333.512 516.882 333.764 516.812 334.1 516.812H338.512C338.932 516.812 339.198 516.868 339.31 516.98C339.422 517.064 339.478 517.302 339.478 517.694V528.956L339.646 529.04L343.596 524.039L348.848 517.484C349.101 517.204 349.353 517.022 349.605 516.938C349.857 516.854 350.263 516.812 350.823 516.812H356.244C356.496 516.812 356.664 516.896 356.748 517.064C356.86 517.204 356.818 517.386 356.622 517.61L348.302 527.485ZM386.019 545.343C386.019 545.707 385.949 545.945 385.809 546.057C385.697 546.169 385.431 546.225 385.011 546.225H380.599C380.235 546.225 379.982 546.169 379.842 546.057C379.702 545.917 379.632 545.679 379.632 545.343V533.578H368.245V545.343C368.245 545.707 368.175 545.945 368.035 546.057C367.923 546.169 367.657 546.225 367.237 546.225H362.783C362.447 546.225 362.194 546.169 362.026 546.057C361.886 545.917 361.816 545.679 361.816 545.343V517.694C361.816 517.358 361.886 517.134 362.026 517.022C362.194 516.882 362.447 516.812 362.783 516.812H367.237C367.657 516.812 367.923 516.868 368.035 516.98C368.175 517.092 368.245 517.33 368.245 517.694V528.157H379.632V517.694C379.632 517.358 379.702 517.134 379.842 517.022C379.982 516.882 380.235 516.812 380.599 516.812H385.011C385.431 516.812 385.697 516.868 385.809 516.98C385.949 517.092 386.019 517.33 386.019 517.694V545.343ZM417.516 531.435C417.516 533.844 417.25 535.987 416.718 537.864C416.213 539.74 415.415 541.337 414.323 542.654C413.23 543.97 411.857 544.979 410.205 545.679C408.552 546.351 406.591 546.688 404.322 546.688C399.98 546.688 396.745 545.371 394.616 542.738C392.515 540.105 391.464 536.379 391.464 531.561C391.464 529.208 391.758 527.093 392.347 525.216C392.963 523.311 393.831 521.714 394.952 520.426C396.072 519.109 397.431 518.101 399.028 517.4C400.624 516.7 402.431 516.35 404.448 516.35C406.633 516.35 408.538 516.7 410.163 517.4C411.815 518.101 413.174 519.109 414.239 520.426C415.331 521.714 416.143 523.297 416.676 525.174C417.236 527.023 417.516 529.11 417.516 531.435ZM410.835 531.561C410.835 530.3 410.737 529.096 410.541 527.947C410.373 526.799 410.051 525.79 409.574 524.922C409.098 524.053 408.454 523.367 407.642 522.863C406.829 522.331 405.779 522.064 404.49 522.064C403.426 522.064 402.487 522.317 401.675 522.821C400.891 523.297 400.232 523.955 399.7 524.796C399.168 525.636 398.776 526.616 398.523 527.737C398.271 528.857 398.145 530.048 398.145 531.309C398.145 532.793 398.243 534.124 398.439 535.3C398.664 536.477 399.014 537.485 399.49 538.326C399.994 539.166 400.652 539.81 401.465 540.259C402.277 540.707 403.3 540.931 404.532 540.931C405.737 540.931 406.745 540.679 407.558 540.175C408.37 539.642 409.014 538.956 409.49 538.116C409.967 537.247 410.303 536.253 410.499 535.132C410.723 533.984 410.835 532.793 410.835 531.561ZM412.474 512.778C412.726 513.002 412.852 513.198 412.852 513.366C412.852 513.507 412.754 513.675 412.558 513.871L411.381 515.173C411.213 515.369 411.031 515.453 410.835 515.425C410.639 515.369 410.429 515.271 410.205 515.131L404.238 511.896L398.439 515.047C398.215 515.187 398.019 515.271 397.851 515.299C397.683 515.299 397.501 515.187 397.305 514.963L396.212 513.829C396.044 513.605 395.946 513.437 395.918 513.324C395.918 513.184 396.016 513.016 396.212 512.82L401.801 507.988C402.193 507.652 402.599 507.386 403.019 507.19C403.468 506.994 403.874 506.896 404.238 506.896C405.05 506.896 405.905 507.26 406.801 507.988L412.474 512.778ZM416.171 500.551C416.339 500.411 416.494 500.313 416.634 500.257C416.774 500.201 416.956 500.285 417.18 500.509L420.079 503.828C420.247 503.996 420.317 504.164 420.289 504.332C420.261 504.472 420.163 504.57 419.995 504.627L411.885 508.786C411.605 508.926 411.395 508.982 411.255 508.954C411.143 508.898 411.017 508.8 410.877 508.66L409.28 506.727C409.14 506.559 409.056 506.419 409.028 506.307C409.028 506.195 409.14 506.041 409.364 505.845L416.171 500.551ZM429.973 545.343C429.973 545.707 429.903 545.945 429.763 546.057C429.651 546.169 429.385 546.225 428.965 546.225H424.511C424.175 546.225 423.923 546.169 423.755 546.057C423.615 545.917 423.544 545.679 423.544 545.343V517.694C423.544 517.358 423.615 517.134 423.755 517.022C423.923 516.882 424.175 516.812 424.511 516.812H428.965C429.385 516.812 429.651 516.868 429.763 516.98C429.903 517.092 429.973 517.33 429.973 517.694V545.343Z" fill="black"/>
<path d="M407.318 404.852L373.805 206.589C370.654 187.895 354.305 174.232 335.17 174.232H284.818C290.722 164.045 294.098 152.244 294.098 139.677C294.098 101.276 262.556 70.0317 223.771 70.0317C184.995 70.0317 153.444 101.276 153.444 139.677C153.444 152.244 156.821 164.045 162.725 174.232H112.373C93.2297 174.232 76.8891 187.911 73.7374 206.605L40.233 404.893C38.3287 416.134 41.5303 427.705 48.9729 436.401C56.4239 445.106 67.3509 450.204 78.8766 450.204H368.699C380.225 450.204 391.152 445.106 398.603 436.401C406.037 427.689 409.231 416.102 407.318 404.852ZM223.78 110.607C239.962 110.607 253.134 123.651 253.134 139.685C253.134 155.719 239.962 168.756 223.78 168.756C207.589 168.756 194.416 155.711 194.416 139.677C194.416 123.643 207.589 110.607 223.78 110.607Z" fill="black"/>
<path d="M352.909 220.513L352.91 220.514L382.415 391.576L382.416 391.578C383.943 400.383 381.396 409.469 375.438 416.313C369.45 423.168 360.655 427.193 351.372 427.193H96.2018C86.9181 427.193 78.1225 423.168 72.134 416.312C66.1695 409.482 63.6153 400.41 65.1361 391.612L65.1364 391.611L94.6348 220.528L94.635 220.527C97.1508 205.904 110.232 195.088 125.693 195.088H170.025H277.519H321.851C337.307 195.088 350.394 205.892 352.909 220.513Z" stroke="white" stroke-width="6.00272"/>
<mask id="path-4-outside-1_5947_27067" maskUnits="userSpaceOnUse" x="114.729" y="287.13" width="216" height="78" fill="black">
<rect fill="white" x="114.729" y="287.13" width="216" height="78"/>
<path d="M145.328 344.937C145.328 345.468 145.248 345.84 145.087 346.052C144.98 346.265 144.633 346.371 144.044 346.371H117.012C116.424 346.371 116.05 346.265 115.889 346.052C115.782 345.84 115.729 345.468 115.729 344.937V340.794C115.729 340.263 115.782 339.891 115.889 339.679C116.05 339.466 116.424 339.36 117.012 339.36H126.478V300.639L117.333 302.073C116.799 302.179 116.451 302.153 116.29 301.993C116.13 301.781 116.05 301.462 116.05 301.037V297.293C116.05 296.815 116.13 296.443 116.29 296.177C116.451 295.912 116.825 295.699 117.413 295.54L129.526 292.034C130.756 291.663 131.852 291.663 132.814 292.034C133.777 292.353 134.258 293.15 134.258 294.425V339.36H144.044C144.633 339.36 144.98 339.466 145.087 339.679C145.248 339.891 145.328 340.263 145.328 340.794V344.937Z"/>
<path d="M198.969 319.521C198.969 323.664 198.541 327.436 197.685 330.835C196.883 334.234 195.6 337.156 193.835 339.599C192.124 341.989 189.905 343.875 187.177 345.256C184.504 346.584 181.295 347.248 177.552 347.248C173.915 347.248 170.76 346.61 168.087 345.335C165.413 344.008 163.193 342.149 161.429 339.758C159.718 337.315 158.434 334.394 157.579 330.994C156.723 327.595 156.295 323.824 156.295 319.681C156.295 315.538 156.723 311.767 157.579 308.367C158.488 304.968 159.825 302.047 161.589 299.603C163.354 297.16 165.573 295.274 168.247 293.946C170.921 292.619 174.076 291.955 177.712 291.955C181.562 291.955 184.824 292.619 187.498 293.946C190.225 295.274 192.418 297.133 194.076 299.524C195.787 301.914 197.017 304.809 197.766 308.208C198.568 311.607 198.969 315.378 198.969 319.521ZM191.028 319.681C191.028 317.078 190.814 314.502 190.386 311.953C189.958 309.403 189.209 307.146 188.14 305.18C187.124 303.215 185.76 301.622 184.049 300.4C182.338 299.178 180.172 298.568 177.552 298.568C174.985 298.568 172.846 299.178 171.135 300.4C169.423 301.569 168.06 303.135 167.044 305.101C166.081 307.066 165.386 309.323 164.958 311.873C164.53 314.369 164.316 316.919 164.316 319.521C164.316 322.177 164.504 324.78 164.878 327.329C165.306 329.826 166.028 332.083 167.044 334.102C168.06 336.067 169.423 337.66 171.135 338.882C172.846 340.104 175.038 340.714 177.712 340.714C180.279 340.714 182.418 340.104 184.129 338.882C185.84 337.66 187.204 336.067 188.22 334.102C189.236 332.083 189.958 329.826 190.386 327.329C190.814 324.78 191.028 322.23 191.028 319.681Z"/>
<path d="M246.674 319.521C246.674 323.664 246.246 327.436 245.39 330.835C244.588 334.234 243.305 337.156 241.54 339.599C239.829 341.989 237.61 343.875 234.882 345.256C232.209 346.584 229 347.248 225.257 347.248C221.62 347.248 218.465 346.61 215.792 345.335C213.118 344.008 210.899 342.149 209.134 339.758C207.423 337.315 206.139 334.394 205.284 330.994C204.428 327.595 204 323.824 204 319.681C204 315.538 204.428 311.767 205.284 308.367C206.193 304.968 207.53 302.047 209.294 299.603C211.059 297.16 213.278 295.274 215.952 293.946C218.626 292.619 221.781 291.955 225.417 291.955C229.268 291.955 232.53 292.619 235.203 293.946C237.931 295.274 240.123 297.133 241.781 299.524C243.492 301.914 244.722 304.809 245.471 308.208C246.273 311.607 246.674 315.378 246.674 319.521ZM238.733 319.681C238.733 317.078 238.519 314.502 238.091 311.953C237.663 309.403 236.915 307.146 235.845 305.18C234.829 303.215 233.465 301.622 231.754 300.4C230.043 299.178 227.877 298.568 225.257 298.568C222.69 298.568 220.551 299.178 218.84 300.4C217.129 301.569 215.765 303.135 214.749 305.101C213.786 307.066 213.091 309.323 212.663 311.873C212.235 314.369 212.022 316.919 212.022 319.521C212.022 322.177 212.209 324.78 212.583 327.329C213.011 329.826 213.733 332.083 214.749 334.102C215.765 336.067 217.129 337.66 218.84 338.882C220.551 340.104 222.743 340.714 225.417 340.714C227.984 340.714 230.123 340.104 231.834 338.882C233.546 337.66 234.909 336.067 235.925 334.102C236.941 332.083 237.663 329.826 238.091 327.329C238.519 324.78 238.733 322.23 238.733 319.681Z"/>
<path d="M262.534 322.947L277.614 305.18C277.775 304.968 277.935 304.809 278.096 304.702C278.31 304.596 278.657 304.543 279.138 304.543H286.197C286.465 304.543 286.625 304.676 286.678 304.941C286.785 305.154 286.759 305.366 286.598 305.579L275.93 318.326L288.283 345.415C288.39 345.628 288.416 345.84 288.363 346.052C288.309 346.265 288.069 346.371 287.641 346.371H281.705C281.117 346.371 280.689 346.318 280.422 346.212C280.208 346.052 280.021 345.813 279.86 345.495L270.475 324.621L262.213 334.022V345.096C262.213 345.681 262.106 346.052 261.892 346.212C261.679 346.318 261.304 346.371 260.769 346.371H255.796C255.315 346.371 254.941 346.318 254.673 346.212C254.459 346.052 254.352 345.681 254.352 345.096V289.405C254.352 288.821 254.459 288.476 254.673 288.369C254.941 288.21 255.315 288.13 255.796 288.13H260.769C261.304 288.13 261.679 288.21 261.892 288.369C262.106 288.476 262.213 288.821 262.213 289.405V322.788L262.534 322.947Z"/>
<path d="M321.885 311.554C320.441 311.129 318.944 310.837 317.393 310.678C315.895 310.465 314.532 310.359 313.302 310.359C311.537 310.359 309.906 310.651 308.409 311.235C306.911 311.767 305.628 312.643 304.559 313.865C303.543 315.086 302.74 316.653 302.152 318.565C301.564 320.478 301.27 322.815 301.27 325.577C301.27 330.569 302.232 334.314 304.157 336.81C306.136 339.307 308.89 340.555 312.419 340.555C313.382 340.555 314.692 340.475 316.35 340.316C318.061 340.157 319.906 339.785 321.885 339.201V311.554ZM313.061 303.746C315.628 303.746 318.275 303.959 321.002 304.384C323.783 304.755 326.377 305.446 328.783 306.455C329.478 306.721 329.826 307.252 329.826 308.049V342.866C329.826 346.424 329.398 349.425 328.542 351.869C327.687 354.365 326.403 356.437 324.692 358.083C322.981 359.783 320.842 361.084 318.275 361.987C315.708 362.943 312.687 363.66 309.211 364.138C308.783 364.191 308.462 364.165 308.248 364.059C308.034 363.952 307.874 363.687 307.767 363.262L307.125 358.242C307.125 357.605 307.42 357.233 308.008 357.127C310.307 356.808 312.313 356.383 314.024 355.852C315.735 355.321 317.152 354.631 318.275 353.781C319.452 352.984 320.307 351.948 320.842 350.674C321.43 349.452 321.724 347.965 321.724 346.212V345.813C320.013 346.292 318.222 346.663 316.35 346.929C314.478 347.194 312.847 347.327 311.457 347.327C308.302 347.327 305.575 346.823 303.275 345.813C300.976 344.751 299.077 343.29 297.58 341.431C296.136 339.519 295.04 337.262 294.291 334.659C293.596 332.057 293.248 329.188 293.248 326.055C293.248 322.815 293.623 319.84 294.371 317.131C295.174 314.369 296.377 312.006 297.981 310.04C299.639 308.022 301.698 306.482 304.157 305.419C306.671 304.304 309.639 303.746 313.061 303.746Z"/>
</mask>
<path d="M145.328 344.937C145.328 345.468 145.248 345.84 145.087 346.052C144.98 346.265 144.633 346.371 144.044 346.371H117.012C116.424 346.371 116.05 346.265 115.889 346.052C115.782 345.84 115.729 345.468 115.729 344.937V340.794C115.729 340.263 115.782 339.891 115.889 339.679C116.05 339.466 116.424 339.36 117.012 339.36H126.478V300.639L117.333 302.073C116.799 302.179 116.451 302.153 116.29 301.993C116.13 301.781 116.05 301.462 116.05 301.037V297.293C116.05 296.815 116.13 296.443 116.29 296.177C116.451 295.912 116.825 295.699 117.413 295.54L129.526 292.034C130.756 291.663 131.852 291.663 132.814 292.034C133.777 292.353 134.258 293.15 134.258 294.425V339.36H144.044C144.633 339.36 144.98 339.466 145.087 339.679C145.248 339.891 145.328 340.263 145.328 340.794V344.937Z" fill="white"/>
<path d="M198.969 319.521C198.969 323.664 198.541 327.436 197.685 330.835C196.883 334.234 195.6 337.156 193.835 339.599C192.124 341.989 189.905 343.875 187.177 345.256C184.504 346.584 181.295 347.248 177.552 347.248C173.915 347.248 170.76 346.61 168.087 345.335C165.413 344.008 163.193 342.149 161.429 339.758C159.718 337.315 158.434 334.394 157.579 330.994C156.723 327.595 156.295 323.824 156.295 319.681C156.295 315.538 156.723 311.767 157.579 308.367C158.488 304.968 159.825 302.047 161.589 299.603C163.354 297.16 165.573 295.274 168.247 293.946C170.921 292.619 174.076 291.955 177.712 291.955C181.562 291.955 184.824 292.619 187.498 293.946C190.225 295.274 192.418 297.133 194.076 299.524C195.787 301.914 197.017 304.809 197.766 308.208C198.568 311.607 198.969 315.378 198.969 319.521ZM191.028 319.681C191.028 317.078 190.814 314.502 190.386 311.953C189.958 309.403 189.209 307.146 188.14 305.18C187.124 303.215 185.76 301.622 184.049 300.4C182.338 299.178 180.172 298.568 177.552 298.568C174.985 298.568 172.846 299.178 171.135 300.4C169.423 301.569 168.06 303.135 167.044 305.101C166.081 307.066 165.386 309.323 164.958 311.873C164.53 314.369 164.316 316.919 164.316 319.521C164.316 322.177 164.504 324.78 164.878 327.329C165.306 329.826 166.028 332.083 167.044 334.102C168.06 336.067 169.423 337.66 171.135 338.882C172.846 340.104 175.038 340.714 177.712 340.714C180.279 340.714 182.418 340.104 184.129 338.882C185.84 337.66 187.204 336.067 188.22 334.102C189.236 332.083 189.958 329.826 190.386 327.329C190.814 324.78 191.028 322.23 191.028 319.681Z" fill="white"/>
<path d="M246.674 319.521C246.674 323.664 246.246 327.436 245.39 330.835C244.588 334.234 243.305 337.156 241.54 339.599C239.829 341.989 237.61 343.875 234.882 345.256C232.209 346.584 229 347.248 225.257 347.248C221.62 347.248 218.465 346.61 215.792 345.335C213.118 344.008 210.899 342.149 209.134 339.758C207.423 337.315 206.139 334.394 205.284 330.994C204.428 327.595 204 323.824 204 319.681C204 315.538 204.428 311.767 205.284 308.367C206.193 304.968 207.53 302.047 209.294 299.603C211.059 297.16 213.278 295.274 215.952 293.946C218.626 292.619 221.781 291.955 225.417 291.955C229.268 291.955 232.53 292.619 235.203 293.946C237.931 295.274 240.123 297.133 241.781 299.524C243.492 301.914 244.722 304.809 245.471 308.208C246.273 311.607 246.674 315.378 246.674 319.521ZM238.733 319.681C238.733 317.078 238.519 314.502 238.091 311.953C237.663 309.403 236.915 307.146 235.845 305.18C234.829 303.215 233.465 301.622 231.754 300.4C230.043 299.178 227.877 298.568 225.257 298.568C222.69 298.568 220.551 299.178 218.84 300.4C217.129 301.569 215.765 303.135 214.749 305.101C213.786 307.066 213.091 309.323 212.663 311.873C212.235 314.369 212.022 316.919 212.022 319.521C212.022 322.177 212.209 324.78 212.583 327.329C213.011 329.826 213.733 332.083 214.749 334.102C215.765 336.067 217.129 337.66 218.84 338.882C220.551 340.104 222.743 340.714 225.417 340.714C227.984 340.714 230.123 340.104 231.834 338.882C233.546 337.66 234.909 336.067 235.925 334.102C236.941 332.083 237.663 329.826 238.091 327.329C238.519 324.78 238.733 322.23 238.733 319.681Z" fill="white"/>
<path d="M262.534 322.947L277.614 305.18C277.775 304.968 277.935 304.809 278.096 304.702C278.31 304.596 278.657 304.543 279.138 304.543H286.197C286.465 304.543 286.625 304.676 286.678 304.941C286.785 305.154 286.759 305.366 286.598 305.579L275.93 318.326L288.283 345.415C288.39 345.628 288.416 345.84 288.363 346.052C288.309 346.265 288.069 346.371 287.641 346.371H281.705C281.117 346.371 280.689 346.318 280.422 346.212C280.208 346.052 280.021 345.813 279.86 345.495L270.475 324.621L262.213 334.022V345.096C262.213 345.681 262.106 346.052 261.892 346.212C261.679 346.318 261.304 346.371 260.769 346.371H255.796C255.315 346.371 254.941 346.318 254.673 346.212C254.459 346.052 254.352 345.681 254.352 345.096V289.405C254.352 288.821 254.459 288.476 254.673 288.369C254.941 288.21 255.315 288.13 255.796 288.13H260.769C261.304 288.13 261.679 288.21 261.892 288.369C262.106 288.476 262.213 288.821 262.213 289.405V322.788L262.534 322.947Z" fill="white"/>
<path d="M321.885 311.554C320.441 311.129 318.944 310.837 317.393 310.678C315.895 310.465 314.532 310.359 313.302 310.359C311.537 310.359 309.906 310.651 308.409 311.235C306.911 311.767 305.628 312.643 304.559 313.865C303.543 315.086 302.74 316.653 302.152 318.565C301.564 320.478 301.27 322.815 301.27 325.577C301.27 330.569 302.232 334.314 304.157 336.81C306.136 339.307 308.89 340.555 312.419 340.555C313.382 340.555 314.692 340.475 316.35 340.316C318.061 340.157 319.906 339.785 321.885 339.201V311.554ZM313.061 303.746C315.628 303.746 318.275 303.959 321.002 304.384C323.783 304.755 326.377 305.446 328.783 306.455C329.478 306.721 329.826 307.252 329.826 308.049V342.866C329.826 346.424 329.398 349.425 328.542 351.869C327.687 354.365 326.403 356.437 324.692 358.083C322.981 359.783 320.842 361.084 318.275 361.987C315.708 362.943 312.687 363.66 309.211 364.138C308.783 364.191 308.462 364.165 308.248 364.059C308.034 363.952 307.874 363.687 307.767 363.262L307.125 358.242C307.125 357.605 307.42 357.233 308.008 357.127C310.307 356.808 312.313 356.383 314.024 355.852C315.735 355.321 317.152 354.631 318.275 353.781C319.452 352.984 320.307 351.948 320.842 350.674C321.43 349.452 321.724 347.965 321.724 346.212V345.813C320.013 346.292 318.222 346.663 316.35 346.929C314.478 347.194 312.847 347.327 311.457 347.327C308.302 347.327 305.575 346.823 303.275 345.813C300.976 344.751 299.077 343.29 297.58 341.431C296.136 339.519 295.04 337.262 294.291 334.659C293.596 332.057 293.248 329.188 293.248 326.055C293.248 322.815 293.623 319.84 294.371 317.131C295.174 314.369 296.377 312.006 297.981 310.04C299.639 308.022 301.698 306.482 304.157 305.419C306.671 304.304 309.639 303.746 313.061 303.746Z" fill="white"/>
<path d="M145.328 344.937C145.328 345.468 145.248 345.84 145.087 346.052C144.98 346.265 144.633 346.371 144.044 346.371H117.012C116.424 346.371 116.05 346.265 115.889 346.052C115.782 345.84 115.729 345.468 115.729 344.937V340.794C115.729 340.263 115.782 339.891 115.889 339.679C116.05 339.466 116.424 339.36 117.012 339.36H126.478V300.639L117.333 302.073C116.799 302.179 116.451 302.153 116.29 301.993C116.13 301.781 116.05 301.462 116.05 301.037V297.293C116.05 296.815 116.13 296.443 116.29 296.177C116.451 295.912 116.825 295.699 117.413 295.54L129.526 292.034C130.756 291.663 131.852 291.663 132.814 292.034C133.777 292.353 134.258 293.15 134.258 294.425V339.36H144.044C144.633 339.36 144.98 339.466 145.087 339.679C145.248 339.891 145.328 340.263 145.328 340.794V344.937Z" stroke="white" stroke-width="1.20054" mask="url(#path-4-outside-1_5947_27067)"/>
<path d="M198.969 319.521C198.969 323.664 198.541 327.436 197.685 330.835C196.883 334.234 195.6 337.156 193.835 339.599C192.124 341.989 189.905 343.875 187.177 345.256C184.504 346.584 181.295 347.248 177.552 347.248C173.915 347.248 170.76 346.61 168.087 345.335C165.413 344.008 163.193 342.149 161.429 339.758C159.718 337.315 158.434 334.394 157.579 330.994C156.723 327.595 156.295 323.824 156.295 319.681C156.295 315.538 156.723 311.767 157.579 308.367C158.488 304.968 159.825 302.047 161.589 299.603C163.354 297.16 165.573 295.274 168.247 293.946C170.921 292.619 174.076 291.955 177.712 291.955C181.562 291.955 184.824 292.619 187.498 293.946C190.225 295.274 192.418 297.133 194.076 299.524C195.787 301.914 197.017 304.809 197.766 308.208C198.568 311.607 198.969 315.378 198.969 319.521ZM191.028 319.681C191.028 317.078 190.814 314.502 190.386 311.953C189.958 309.403 189.209 307.146 188.14 305.18C187.124 303.215 185.76 301.622 184.049 300.4C182.338 299.178 180.172 298.568 177.552 298.568C174.985 298.568 172.846 299.178 171.135 300.4C169.423 301.569 168.06 303.135 167.044 305.101C166.081 307.066 165.386 309.323 164.958 311.873C164.53 314.369 164.316 316.919 164.316 319.521C164.316 322.177 164.504 324.78 164.878 327.329C165.306 329.826 166.028 332.083 167.044 334.102C168.06 336.067 169.423 337.66 171.135 338.882C172.846 340.104 175.038 340.714 177.712 340.714C180.279 340.714 182.418 340.104 184.129 338.882C185.84 337.66 187.204 336.067 188.22 334.102C189.236 332.083 189.958 329.826 190.386 327.329C190.814 324.78 191.028 322.23 191.028 319.681Z" stroke="white" stroke-width="1.20054" mask="url(#path-4-outside-1_5947_27067)"/>
<path d="M246.674 319.521C246.674 323.664 246.246 327.436 245.39 330.835C244.588 334.234 243.305 337.156 241.54 339.599C239.829 341.989 237.61 343.875 234.882 345.256C232.209 346.584 229 347.248 225.257 347.248C221.62 347.248 218.465 346.61 215.792 345.335C213.118 344.008 210.899 342.149 209.134 339.758C207.423 337.315 206.139 334.394 205.284 330.994C204.428 327.595 204 323.824 204 319.681C204 315.538 204.428 311.767 205.284 308.367C206.193 304.968 207.53 302.047 209.294 299.603C211.059 297.16 213.278 295.274 215.952 293.946C218.626 292.619 221.781 291.955 225.417 291.955C229.268 291.955 232.53 292.619 235.203 293.946C237.931 295.274 240.123 297.133 241.781 299.524C243.492 301.914 244.722 304.809 245.471 308.208C246.273 311.607 246.674 315.378 246.674 319.521ZM238.733 319.681C238.733 317.078 238.519 314.502 238.091 311.953C237.663 309.403 236.915 307.146 235.845 305.18C234.829 303.215 233.465 301.622 231.754 300.4C230.043 299.178 227.877 298.568 225.257 298.568C222.69 298.568 220.551 299.178 218.84 300.4C217.129 301.569 215.765 303.135 214.749 305.101C213.786 307.066 213.091 309.323 212.663 311.873C212.235 314.369 212.022 316.919 212.022 319.521C212.022 322.177 212.209 324.78 212.583 327.329C213.011 329.826 213.733 332.083 214.749 334.102C215.765 336.067 217.129 337.66 218.84 338.882C220.551 340.104 222.743 340.714 225.417 340.714C227.984 340.714 230.123 340.104 231.834 338.882C233.546 337.66 234.909 336.067 235.925 334.102C236.941 332.083 237.663 329.826 238.091 327.329C238.519 324.78 238.733 322.23 238.733 319.681Z" stroke="white" stroke-width="1.20054" mask="url(#path-4-outside-1_5947_27067)"/>
<path d="M262.534 322.947L277.614 305.18C277.775 304.968 277.935 304.809 278.096 304.702C278.31 304.596 278.657 304.543 279.138 304.543H286.197C286.465 304.543 286.625 304.676 286.678 304.941C286.785 305.154 286.759 305.366 286.598 305.579L275.93 318.326L288.283 345.415C288.39 345.628 288.416 345.84 288.363 346.052C288.309 346.265 288.069 346.371 287.641 346.371H281.705C281.117 346.371 280.689 346.318 280.422 346.212C280.208 346.052 280.021 345.813 279.86 345.495L270.475 324.621L262.213 334.022V345.096C262.213 345.681 262.106 346.052 261.892 346.212C261.679 346.318 261.304 346.371 260.769 346.371H255.796C255.315 346.371 254.941 346.318 254.673 346.212C254.459 346.052 254.352 345.681 254.352 345.096V289.405C254.352 288.821 254.459 288.476 254.673 288.369C254.941 288.21 255.315 288.13 255.796 288.13H260.769C261.304 288.13 261.679 288.21 261.892 288.369C262.106 288.476 262.213 288.821 262.213 289.405V322.788L262.534 322.947Z" stroke="white" stroke-width="1.20054" mask="url(#path-4-outside-1_5947_27067)"/>
<path d="M321.885 311.554C320.441 311.129 318.944 310.837 317.393 310.678C315.895 310.465 314.532 310.359 313.302 310.359C311.537 310.359 309.906 310.651 308.409 311.235C306.911 311.767 305.628 312.643 304.559 313.865C303.543 315.086 302.74 316.653 302.152 318.565C301.564 320.478 301.27 322.815 301.27 325.577C301.27 330.569 302.232 334.314 304.157 336.81C306.136 339.307 308.89 340.555 312.419 340.555C313.382 340.555 314.692 340.475 316.35 340.316C318.061 340.157 319.906 339.785 321.885 339.201V311.554ZM313.061 303.746C315.628 303.746 318.275 303.959 321.002 304.384C323.783 304.755 326.377 305.446 328.783 306.455C329.478 306.721 329.826 307.252 329.826 308.049V342.866C329.826 346.424 329.398 349.425 328.542 351.869C327.687 354.365 326.403 356.437 324.692 358.083C322.981 359.783 320.842 361.084 318.275 361.987C315.708 362.943 312.687 363.66 309.211 364.138C308.783 364.191 308.462 364.165 308.248 364.059C308.034 363.952 307.874 363.687 307.767 363.262L307.125 358.242C307.125 357.605 307.42 357.233 308.008 357.127C310.307 356.808 312.313 356.383 314.024 355.852C315.735 355.321 317.152 354.631 318.275 353.781C319.452 352.984 320.307 351.948 320.842 350.674C321.43 349.452 321.724 347.965 321.724 346.212V345.813C320.013 346.292 318.222 346.663 316.35 346.929C314.478 347.194 312.847 347.327 311.457 347.327C308.302 347.327 305.575 346.823 303.275 345.813C300.976 344.751 299.077 343.29 297.58 341.431C296.136 339.519 295.04 337.262 294.291 334.659C293.596 332.057 293.248 329.188 293.248 326.055C293.248 322.815 293.623 319.84 294.371 317.131C295.174 314.369 296.377 312.006 297.981 310.04C299.639 308.022 301.698 306.482 304.157 305.419C306.671 304.304 309.639 303.746 313.061 303.746Z" stroke="white" stroke-width="1.20054" mask="url(#path-4-outside-1_5947_27067)"/>
</svg>
