<svg width="280" height="340" viewBox="0 0 280 340" fill="none" xmlns="http://www.w3.org/2000/svg">
<path d="M37.9951 332V306.946H43.0537V316.807H52.9658V306.946H58.0244V332H52.9658V321.045H43.0537V332H37.9951ZM85.8638 332H80.3608L78.1733 326.309H68.1587L66.0908 332H60.7246L70.4829 306.946H75.832L85.8638 332ZM76.5498 322.088L73.0977 312.791L69.7139 322.088H76.5498ZM75.9517 305.511H72.9268L68.21 300.401H73.5933L75.9517 305.511ZM88.6152 332V306.946H93.5371L103.791 323.677V306.946H108.491V332H103.415L93.3149 315.662V332H88.6152ZM125.512 322.789V318.567H136.416V328.548C135.356 329.573 133.818 330.479 131.801 331.265C129.796 332.04 127.762 332.427 125.7 332.427C123.08 332.427 120.795 331.88 118.847 330.787C116.899 329.681 115.435 328.109 114.455 326.07C113.475 324.019 112.985 321.792 112.985 319.388C112.985 316.779 113.532 314.46 114.626 312.432C115.72 310.404 117.32 308.849 119.428 307.767C121.035 306.935 123.034 306.519 125.427 306.519C128.537 306.519 130.964 307.174 132.707 308.484C134.462 309.783 135.59 311.583 136.091 313.885L131.066 314.825C130.713 313.594 130.047 312.626 129.067 311.919C128.098 311.202 126.885 310.843 125.427 310.843C123.216 310.843 121.456 311.543 120.146 312.945C118.847 314.346 118.198 316.425 118.198 319.183C118.198 322.156 118.859 324.389 120.18 325.882C121.502 327.363 123.234 328.104 125.375 328.104C126.435 328.104 127.495 327.898 128.554 327.488C129.625 327.067 130.542 326.56 131.306 325.967V322.789H125.512ZM150.976 332V307.151H156.035V327.779H168.613V332H150.976ZM194.829 332H189.326L187.138 326.309H177.124L175.056 332H169.689L179.448 306.946H184.797L194.829 332ZM185.515 322.088L182.062 312.791L178.679 322.088H185.515ZM179.738 338.853V334.051H184.541V338.853H179.738ZM197.58 332V306.946H202.502L212.756 323.677V306.946H217.456V332H212.38L202.28 315.662V332H197.58ZM222.839 332V306.946H227.897V316.807H237.81V306.946H242.868V332H237.81V321.045H227.897V332H222.839Z" fill="black"/>
<path d="M140 280C62.7999 280 0 217.2 0 140C0 62.7998 62.7999 0 140 0C217.2 0 280 62.7998 280 140C280 217.2 217.2 280 140 280ZM140 11.2724C69.0209 11.2724 11.2724 69.0209 11.2724 140C11.2724 210.979 69.0209 268.728 140 268.728C210.979 268.728 268.728 210.979 268.728 140C268.736 69.0209 210.988 11.2724 140 11.2724Z" fill="#2B2B2B"/>
<path d="M139.723 183.218L102.301 161.609V118.391L139.723 96.7817L177.153 118.391V161.609L139.723 183.218ZM113.565 155.102L139.723 170.204L165.881 155.102V124.898L139.723 109.796L113.565 124.898V155.102Z" fill="#2B2B2B"/>
<path d="M139.757 249.545C136.647 249.545 134.125 247.023 134.125 243.913V176.711C134.125 173.601 136.647 171.08 139.757 171.08C142.868 171.08 145.389 173.601 145.389 176.711V243.913C145.389 247.023 142.868 249.545 139.757 249.545Z" fill="#2B2B2B"/>
<path d="M164.131 249.544C162.692 249.544 161.245 248.99 160.145 247.898L139.697 227.45L119.596 247.551C117.395 249.752 113.825 249.752 111.624 247.551C109.423 245.351 109.423 241.781 111.624 239.58L139.697 211.507L168.108 239.918C170.309 242.119 170.309 245.689 168.108 247.889C167.016 248.99 165.578 249.544 164.131 249.544Z" fill="#2B2B2B"/>
<path d="M139.706 108.921C136.595 108.921 134.074 106.399 134.074 103.289V36.0875C134.074 32.9769 136.595 30.4556 139.706 30.4556C142.816 30.4556 145.338 32.9769 145.338 36.0875V103.289C145.346 106.399 142.816 108.921 139.706 108.921Z" fill="#2B2B2B"/>
<path d="M139.663 68.4924L111.591 40.4196C109.39 38.2188 109.39 34.6491 111.591 32.4483C113.791 30.2476 117.361 30.2476 119.562 32.4483L139.663 52.5498L160.111 32.1017C162.312 29.901 165.882 29.901 168.083 32.1017C170.283 34.3025 170.283 37.8723 168.083 40.073L139.663 68.4924Z" fill="#2B2B2B"/>
<path d="M49.0846 196.206C47.1091 196.206 45.1942 195.166 44.1631 193.321C42.6468 190.6 43.6173 187.169 46.3379 185.653L105.005 152.893C107.717 151.376 111.157 152.347 112.673 155.067C114.189 157.788 113.219 161.219 110.498 162.735L51.8312 195.496C50.9561 195.972 50.0203 196.206 49.0846 196.206Z" fill="#2B2B2B"/>
<path d="M60.9723 217.494C60.4611 217.494 59.9499 217.425 59.4301 217.278C56.4322 216.429 54.6992 213.318 55.5483 210.32L63.433 182.499L36.0793 174.744C33.0814 173.895 31.3485 170.785 32.1976 167.787C33.0467 164.797 36.1573 163.056 39.1552 163.905L77.3481 174.727L66.3963 213.388C65.6858 215.874 63.4243 217.494 60.9723 217.494Z" fill="#2B2B2B"/>
<path d="M171.843 127.61C169.867 127.61 167.952 126.57 166.921 124.724C165.405 122.004 166.376 118.573 169.096 117.056L227.772 84.2959C230.484 82.7796 233.923 83.7501 235.44 86.4707C236.956 89.1913 235.986 92.6225 233.265 94.1387L174.598 126.899C173.714 127.384 172.77 127.61 171.843 127.61Z" fill="#2B2B2B"/>
<path d="M242.397 116.138C241.886 116.138 241.375 116.068 240.855 115.921L202.194 104.961L213.016 66.7678C213.865 63.7699 216.985 62.037 219.974 62.8861C222.972 63.7352 224.705 66.8457 223.855 69.8436L216.101 97.1973L243.922 105.082C246.92 105.931 248.653 109.042 247.804 112.04C247.111 114.518 244.849 116.138 242.397 116.138Z" fill="#2B2B2B"/>
<path d="M108.193 127.038C107.231 127.038 106.252 126.787 105.359 126.267L47.325 92.3803C44.639 90.812 43.7293 87.3635 45.2976 84.6776C46.8658 81.9916 50.3142 81.0818 53.0002 82.6501L111.035 116.537C113.721 118.105 114.63 121.553 113.062 124.239C112.022 126.042 110.134 127.038 108.193 127.038Z" fill="#2B2B2B"/>
<path d="M37.8726 114.215C35.3773 114.215 33.0898 112.542 32.4313 110.012C31.6429 107.006 33.4364 103.921 36.4517 103.133L64.4204 95.7852L57.1943 68.2929C56.4058 65.2863 58.1994 62.2017 61.2146 61.4133C64.2298 60.6248 67.3057 62.4184 68.0942 65.4336L78.1795 103.826L39.3196 114.033C38.8344 114.154 38.3492 114.215 37.8726 114.215Z" fill="#2B2B2B"/>
<path d="M229.651 197.904C228.69 197.904 227.711 197.653 226.818 197.133L168.792 163.246C166.106 161.678 165.197 158.23 166.765 155.544C168.333 152.858 171.782 151.948 174.468 153.516L232.493 187.403C235.179 188.971 236.089 192.42 234.521 195.106C233.472 196.899 231.592 197.904 229.651 197.904Z" fill="#2B2B2B"/>
<path d="M217.366 218.959C214.87 218.959 212.583 217.287 211.925 214.757L201.718 175.897L240.11 165.811C243.125 165.023 246.201 166.816 246.989 169.832C247.778 172.838 245.984 175.923 242.969 176.711L215.477 183.937L222.824 211.906C223.613 214.913 221.819 217.997 218.804 218.786C218.319 218.898 217.834 218.959 217.366 218.959Z" fill="#2B2B2B"/>
<path d="M155.57 212.677C154.131 212.677 152.684 212.123 151.584 211.031L139.809 199.256L128.251 210.815C126.05 213.015 122.48 213.015 120.279 210.815C118.079 208.614 118.079 205.044 120.279 202.843L139.8 183.322L159.547 203.069C161.747 205.269 161.747 208.839 159.547 211.04C158.455 212.132 157.017 212.677 155.57 212.677Z" fill="#2B2B2B"/>
<path d="M139.783 96.6866L120.262 77.1656C118.062 74.9649 118.062 71.3951 120.262 69.1943C122.463 66.9936 126.033 66.9936 128.234 69.1943L139.792 80.7527L151.567 68.9777C153.768 66.777 157.338 66.777 159.538 68.9777C161.739 71.1785 161.739 74.7482 159.538 76.949L139.783 96.6866Z" fill="#2B2B2B"/>
<path d="M89.0097 192.004C88.4985 192.004 87.9874 191.934 87.4675 191.787C84.4696 190.938 82.7367 187.827 83.5858 184.829L88.126 168.8L72.4001 164.347C69.4022 163.498 67.6693 160.387 68.5184 157.389C69.3675 154.4 72.478 152.658 75.4759 153.508L102.041 161.037L94.425 187.905C93.7232 190.383 91.4618 192.004 89.0097 192.004Z" fill="#2B2B2B"/>
<path d="M206.067 126.605C205.556 126.605 205.045 126.536 204.525 126.388L177.657 118.772L185.186 92.2071C186.035 89.2178 189.146 87.4763 192.144 88.3254C195.142 89.1745 196.874 92.285 196.025 95.2829L191.572 111.009L207.601 115.549C210.599 116.398 212.332 119.509 211.483 122.507C210.79 124.985 208.528 126.605 206.067 126.605Z" fill="#2B2B2B"/>
<path d="M74.1075 125.357C71.6121 125.357 69.3247 123.685 68.6662 121.155C67.8777 118.148 69.6713 115.064 72.6865 114.275L88.7936 110.038L84.6434 94.2343C83.8549 91.2277 85.6485 88.1432 88.6637 87.3547C91.6789 86.5662 94.7548 88.3597 95.5432 91.3749L102.561 118.079L75.5544 125.175C75.0606 125.296 74.5754 125.357 74.1075 125.357Z" fill="#2B2B2B"/>
<path d="M189.915 192.948C187.42 192.948 185.133 191.276 184.474 188.746L177.378 161.739L204.082 154.721C207.097 153.932 210.173 155.726 210.961 158.741C211.75 161.748 209.956 164.832 206.941 165.621L191.137 169.771L195.365 185.878C196.154 188.885 194.36 191.969 191.345 192.758C190.869 192.888 190.392 192.948 189.915 192.948Z" fill="#2B2B2B"/>
</svg>
