<svg width="444" height="631" viewBox="0 0 444 631" fill="none" xmlns="http://www.w3.org/2000/svg">
<rect width="444" height="630" transform="translate(0 0.652344)" fill="white"/>
<path d="M119.363 551.284C119.363 551.667 119.289 551.918 119.142 552.036C119.024 552.154 118.744 552.213 118.301 552.213H113.658C113.274 552.213 113.009 552.154 112.862 552.036C112.714 551.889 112.64 551.638 112.64 551.284V538.901H100.655V551.284C100.655 551.667 100.581 551.918 100.434 552.036C100.316 552.154 100.036 552.213 99.5937 552.213H94.9057C94.5519 552.213 94.2866 552.154 94.1097 552.036C93.9622 551.889 93.8885 551.638 93.8885 551.284V522.183C93.8885 521.829 93.9622 521.594 94.1097 521.476C94.2866 521.328 94.5519 521.255 94.9057 521.255H99.5937C100.036 521.255 100.316 521.313 100.434 521.431C100.581 521.549 100.655 521.8 100.655 522.183V533.196H112.64V522.183C112.64 521.829 112.714 521.594 112.862 521.476C113.009 521.328 113.274 521.255 113.658 521.255H118.301C118.744 521.255 119.024 521.313 119.142 521.431C119.289 521.549 119.363 521.8 119.363 522.183V551.284ZM152.514 536.645C152.514 539.181 152.234 541.436 151.674 543.412C151.143 545.387 150.303 547.068 149.153 548.454C148.003 549.839 146.558 550.901 144.819 551.638C143.079 552.346 141.015 552.699 138.627 552.699C134.057 552.699 130.652 551.314 128.411 548.542C126.2 545.771 125.094 541.849 125.094 536.778C125.094 534.301 125.404 532.075 126.023 530.1C126.671 528.095 127.585 526.414 128.765 525.058C129.944 523.672 131.374 522.611 133.055 521.874C134.735 521.137 136.637 520.768 138.76 520.768C141.06 520.768 143.065 521.137 144.775 521.874C146.514 522.611 147.944 523.672 149.065 525.058C150.214 526.414 151.069 528.08 151.63 530.056C152.219 532.002 152.514 534.198 152.514 536.645ZM145.482 536.778C145.482 535.451 145.379 534.183 145.173 532.974C144.996 531.766 144.657 530.704 144.155 529.79C143.654 528.876 142.976 528.154 142.121 527.623C141.266 527.063 140.16 526.783 138.804 526.783C137.684 526.783 136.696 527.048 135.841 527.579C135.015 528.08 134.322 528.773 133.762 529.658C133.202 530.542 132.789 531.574 132.524 532.753C132.259 533.933 132.126 535.186 132.126 536.513C132.126 538.075 132.229 539.476 132.435 540.714C132.671 541.952 133.04 543.014 133.541 543.898C134.072 544.783 134.765 545.461 135.62 545.933C136.475 546.405 137.551 546.64 138.848 546.64C140.116 546.64 141.178 546.375 142.033 545.844C142.888 545.284 143.566 544.562 144.067 543.677C144.568 542.763 144.922 541.717 145.128 540.537C145.364 539.328 145.482 538.075 145.482 536.778ZM147.207 517.009C147.472 517.245 147.605 517.451 147.605 517.628C147.605 517.775 147.502 517.952 147.296 518.159L146.057 519.53C145.88 519.736 145.689 519.825 145.482 519.795C145.276 519.736 145.055 519.633 144.819 519.485L138.539 516.08L132.435 519.397C132.2 519.544 131.993 519.633 131.816 519.662C131.639 519.662 131.448 519.544 131.241 519.309L130.092 518.114C129.915 517.879 129.811 517.702 129.782 517.584C129.782 517.436 129.885 517.259 130.092 517.053L135.974 511.967C136.386 511.613 136.814 511.333 137.256 511.127C137.728 510.92 138.155 510.817 138.539 510.817C139.394 510.817 140.293 511.2 141.237 511.967L147.207 517.009ZM150.878 509.49C151.114 509.697 151.217 509.859 151.187 509.977C151.187 510.095 151.114 510.242 150.966 510.419L149.286 512.454C149.138 512.601 148.991 512.704 148.843 512.763C148.725 512.793 148.519 512.734 148.224 512.586L139.689 508.208C139.512 508.149 139.408 508.046 139.379 507.898C139.35 507.721 139.423 507.544 139.6 507.367L142.652 503.874C142.888 503.638 143.079 503.549 143.227 503.608C143.374 503.667 143.536 503.77 143.713 503.918L150.878 509.49ZM170.407 529.702C170.407 528.463 170.614 527.299 171.026 526.208C171.469 525.117 172.117 524.173 172.972 523.377C173.827 522.552 174.918 521.903 176.245 521.431C177.572 520.96 179.134 520.724 180.933 520.724C181.759 520.724 182.614 520.768 183.498 520.856C184.412 520.945 185.297 521.078 186.152 521.255C187.036 521.431 187.877 521.653 188.673 521.918C189.469 522.154 190.191 522.434 190.84 522.758C191.193 522.935 191.385 523.112 191.415 523.289C191.474 523.436 191.429 523.731 191.282 524.173L190.132 527.49C189.985 527.903 189.837 528.139 189.69 528.198C189.542 528.257 189.292 528.242 188.938 528.154C187.552 527.741 186.166 527.402 184.781 527.137C183.424 526.871 182.142 526.739 180.933 526.739C179.636 526.739 178.722 526.974 178.191 527.446C177.66 527.918 177.395 528.493 177.395 529.171C177.395 529.554 177.483 529.908 177.66 530.232C177.837 530.557 178.117 530.881 178.501 531.205C178.913 531.5 179.444 531.81 180.093 532.134C180.771 532.459 181.596 532.812 182.569 533.196C184.073 533.785 185.459 534.39 186.727 535.009C187.994 535.599 189.071 536.277 189.955 537.043C190.869 537.81 191.577 538.709 192.078 539.741C192.609 540.773 192.874 542.011 192.874 543.456C192.874 545.019 192.594 546.375 192.034 547.525C191.474 548.675 190.692 549.633 189.69 550.4C188.687 551.166 187.464 551.741 186.019 552.124C184.604 552.508 183.041 552.699 181.331 552.699C180.388 552.699 179.4 552.64 178.368 552.522C177.336 552.434 176.304 552.287 175.272 552.08C174.27 551.844 173.282 551.549 172.309 551.196C171.336 550.842 170.437 550.414 169.611 549.913C169.375 549.766 169.228 549.604 169.169 549.427C169.139 549.25 169.198 548.97 169.346 548.586L170.849 545.048C170.997 544.694 171.159 544.488 171.336 544.429C171.513 544.37 171.763 544.414 172.088 544.562C172.677 544.798 173.326 545.048 174.034 545.314C174.741 545.549 175.464 545.771 176.201 545.977C176.967 546.154 177.734 546.316 178.501 546.463C179.297 546.581 180.078 546.64 180.845 546.64C181.759 546.64 182.525 546.552 183.144 546.375C183.763 546.198 184.265 545.977 184.648 545.712C185.031 545.417 185.297 545.092 185.444 544.739C185.592 544.355 185.665 543.957 185.665 543.545C185.665 543.102 185.577 542.704 185.4 542.35C185.252 541.997 184.987 541.658 184.604 541.333C184.25 540.979 183.749 540.655 183.1 540.36C182.481 540.036 181.7 539.697 180.756 539.343C179.193 538.753 177.778 538.149 176.51 537.53C175.243 536.911 174.152 536.232 173.238 535.495C172.324 534.729 171.616 533.888 171.115 532.974C170.643 532.031 170.407 530.94 170.407 529.702ZM224.036 536.645C224.036 539.181 223.756 541.436 223.196 543.412C222.665 545.387 221.825 547.068 220.675 548.454C219.525 549.839 218.081 550.901 216.341 551.638C214.601 552.346 212.537 552.699 210.149 552.699C205.579 552.699 202.174 551.314 199.933 548.542C197.722 545.771 196.616 541.849 196.616 536.778C196.616 534.301 196.926 532.075 197.545 530.1C198.193 528.095 199.107 526.414 200.287 525.058C201.466 523.672 202.896 522.611 204.577 521.874C206.257 521.137 208.159 520.768 210.282 520.768C212.582 520.768 214.587 521.137 216.297 521.874C216.709 522.051 217.108 522.257 217.491 522.493C218.316 522.051 218.877 521.594 219.171 521.122C219.466 520.621 219.614 519.898 219.614 518.955C219.614 518.188 219.732 517.628 219.967 517.274C220.203 516.92 220.631 516.773 221.25 516.832H222.046C223.078 516.832 223.624 517.481 223.682 518.778C223.682 520.282 223.447 521.505 222.975 522.449C222.533 523.363 221.972 524.114 221.294 524.704H221.339C221.191 524.852 220.985 525.014 220.719 525.191C221.781 526.547 222.592 528.169 223.152 530.056C223.741 532.002 224.036 534.198 224.036 536.645ZM217.004 536.778C217.004 535.451 216.901 534.183 216.695 532.974C216.518 531.766 216.179 530.704 215.678 529.79C215.176 528.876 214.498 528.154 213.643 527.623C212.788 527.063 211.682 526.783 210.326 526.783C209.206 526.783 208.218 527.048 207.363 527.579C206.537 528.08 205.845 528.773 205.284 529.658C204.724 530.542 204.311 531.574 204.046 532.753C203.781 533.933 203.648 535.186 203.648 536.513C203.648 538.075 203.751 539.476 203.958 540.714C204.193 541.952 204.562 543.014 205.063 543.898C205.594 544.783 206.287 545.461 207.142 545.933C207.997 546.405 209.073 546.64 210.37 546.64C211.638 546.64 212.7 546.375 213.555 545.844C214.41 545.284 215.088 544.562 215.589 543.677C216.09 542.763 216.444 541.717 216.651 540.537C216.886 539.328 217.004 538.075 217.004 536.778ZM264.087 526.119C264.087 526.709 263.792 527.004 263.202 527.004H255.197V551.284C255.197 551.667 255.123 551.918 254.976 552.036C254.858 552.154 254.578 552.213 254.136 552.213H249.404C249.05 552.213 248.784 552.154 248.607 552.036C248.46 551.889 248.386 551.638 248.386 551.284V527.004H240.558C239.998 527.004 239.718 526.709 239.718 526.119V522.183C239.718 521.8 239.777 521.549 239.895 521.431C240.013 521.313 240.234 521.255 240.558 521.255H263.202C263.556 521.255 263.792 521.313 263.91 521.431C264.028 521.549 264.087 521.8 264.087 522.183V526.119ZM293.374 551.284C293.374 551.667 293.3 551.918 293.153 552.036C293.035 552.154 292.755 552.213 292.313 552.213H287.669C287.286 552.213 287.02 552.154 286.873 552.036C286.725 551.889 286.652 551.638 286.652 551.284V538.901H274.666V551.284C274.666 551.667 274.593 551.918 274.445 552.036C274.327 552.154 274.047 552.213 273.605 552.213H268.917C268.563 552.213 268.298 552.154 268.121 552.036C267.973 551.889 267.9 551.638 267.9 551.284V522.183C267.9 521.829 267.973 521.594 268.121 521.476C268.298 521.328 268.563 521.255 268.917 521.255H273.605C274.047 521.255 274.327 521.313 274.445 521.431C274.593 521.549 274.666 521.8 274.666 522.183V533.196H286.652V522.183C286.652 521.829 286.725 521.594 286.873 521.476C287.02 521.328 287.286 521.255 287.669 521.255H292.313C292.755 521.255 293.035 521.313 293.153 521.431C293.3 521.549 293.374 521.8 293.374 522.183V551.284ZM316.176 545.756H306.049L304.324 551.373C304.235 551.667 304.103 551.889 303.926 552.036C303.778 552.154 303.498 552.213 303.086 552.213H297.911C297.587 552.213 297.38 552.124 297.292 551.948C297.233 551.771 297.233 551.564 297.292 551.328L306.491 523.599C306.638 523.097 306.801 522.699 306.977 522.404C307.184 522.08 307.405 521.829 307.641 521.653C307.906 521.476 308.201 521.358 308.525 521.299C308.879 521.21 309.277 521.166 309.719 521.166H312.373C312.874 521.166 313.302 521.196 313.656 521.255C314.009 521.284 314.319 521.387 314.584 521.564C314.85 521.741 315.071 521.992 315.248 522.316C315.454 522.64 315.646 523.068 315.823 523.599L325.022 551.328C325.081 551.505 325.081 551.697 325.022 551.903C324.963 552.11 324.771 552.213 324.447 552.213H319.184C318.86 552.213 318.579 552.183 318.344 552.124C318.137 552.036 317.99 551.83 317.901 551.505L316.176 545.756ZM307.641 540.272H314.584L312.904 534.655L311.267 528.331H311.002L309.321 534.655L307.641 540.272ZM319.449 517.009C319.715 517.245 319.847 517.451 319.847 517.628C319.847 517.775 319.744 517.952 319.538 518.159L318.299 519.53C318.122 519.736 317.931 519.825 317.724 519.795C317.518 519.736 317.297 519.633 317.061 519.485L310.781 516.08L304.678 519.397C304.442 519.544 304.235 519.633 304.058 519.662C303.882 519.662 303.69 519.544 303.484 519.309L302.334 518.114C302.157 517.879 302.054 517.702 302.024 517.584C302.024 517.436 302.127 517.259 302.334 517.053L308.216 511.967C308.629 511.613 309.056 511.333 309.498 511.127C309.97 510.92 310.398 510.817 310.781 510.817C311.636 510.817 312.535 511.2 313.479 511.967L319.449 517.009ZM322.589 509.49C322.825 509.697 322.928 509.859 322.899 509.977C322.899 510.095 322.825 510.242 322.678 510.419L320.997 512.454C320.85 512.601 320.702 512.704 320.555 512.763C320.437 512.793 320.231 512.734 319.936 512.586L311.4 508.208C311.223 508.149 311.12 508.046 311.09 507.898C311.061 507.721 311.135 507.544 311.312 507.367L314.363 503.874C314.599 503.638 314.791 503.549 314.938 503.608C315.086 503.667 315.248 503.77 315.425 503.918L322.589 509.49ZM354.046 547.923C354.046 548.955 353.81 549.839 353.339 550.577C352.896 551.314 352.056 551.844 350.818 552.169C350.228 552.316 349.579 552.419 348.872 552.478C348.164 552.567 347.457 552.626 346.749 552.655C346.041 552.685 345.378 552.699 344.759 552.699C344.14 552.729 343.638 552.744 343.255 552.744C340.719 552.744 338.538 552.537 336.71 552.124C334.911 551.682 333.437 550.945 332.287 549.913C331.137 548.881 330.297 547.51 329.766 545.8C329.235 544.09 328.97 541.938 328.97 539.343L328.926 522.183C328.926 521.829 329.014 521.594 329.191 521.476C329.368 521.328 329.619 521.255 329.943 521.255H334.675C335.117 521.255 335.397 521.313 335.515 521.431C335.663 521.549 335.737 521.8 335.737 522.183V539.741C335.737 540.95 335.84 542.011 336.046 542.925C336.253 543.81 336.621 544.547 337.152 545.137C337.683 545.726 338.39 546.169 339.275 546.463C340.189 546.729 341.353 546.862 342.769 546.862C342.975 546.862 343.255 546.862 343.609 546.862C343.963 546.832 344.346 546.817 344.759 546.817C345.201 546.788 345.643 546.758 346.086 546.729C346.557 546.67 346.985 546.596 347.368 546.508V522.183C347.368 521.829 347.442 521.594 347.589 521.476C347.766 521.328 348.031 521.255 348.385 521.255H353.073C353.516 521.255 353.781 521.313 353.869 521.431C353.987 521.549 354.046 521.8 354.046 522.183V547.923Z" fill="black"/>
<path fill-rule="evenodd" clip-rule="evenodd" d="M162.859 173.436H296.966C305.437 173.436 312.305 180.241 312.305 188.636V196.912H119.05C115.479 196.912 112.4 199.399 111.681 202.865L92 297.748V169.852C92 161.457 98.8676 154.652 107.339 154.652H147.667C151.902 154.652 155.336 158.055 155.336 162.252V165.982C155.336 170.099 158.704 173.436 162.859 173.436ZM125.183 211.817H336.659C345.798 211.817 352.91 219.687 351.905 228.689L338.355 350.049C337.496 357.75 330.928 363.577 323.109 363.577H103.046C98.222 363.577 94.6135 359.191 95.5844 354.51L125.183 211.817Z" fill="black"/>
<path d="M146.967 304.906C146.967 305.197 146.911 305.387 146.798 305.476C146.708 305.566 146.493 305.61 146.155 305.61H142.601C142.308 305.61 142.105 305.566 141.992 305.476C141.879 305.364 141.823 305.174 141.823 304.906V295.516H132.652V304.906C132.652 305.197 132.595 305.387 132.482 305.476C132.392 305.566 132.178 305.61 131.839 305.61H128.252C127.981 305.61 127.778 305.566 127.643 305.476C127.53 305.364 127.474 305.174 127.474 304.906V282.84C127.474 282.571 127.53 282.392 127.643 282.303C127.778 282.191 127.981 282.135 128.252 282.135H131.839C132.178 282.135 132.392 282.18 132.482 282.269C132.595 282.359 132.652 282.549 132.652 282.84V291.19H141.823V282.84C141.823 282.571 141.879 282.392 141.992 282.303C142.105 282.191 142.308 282.135 142.601 282.135H146.155C146.493 282.135 146.708 282.18 146.798 282.269C146.911 282.359 146.967 282.549 146.967 282.84V304.906Z" fill="white"/>
<path d="M172.335 293.806C172.335 295.728 172.121 297.439 171.692 298.937C171.286 300.435 170.643 301.709 169.763 302.76C168.883 303.811 167.777 304.615 166.446 305.174C165.115 305.711 163.536 305.979 161.708 305.979C158.211 305.979 155.605 304.928 153.891 302.827C152.199 300.725 151.353 297.752 151.353 293.906C151.353 292.028 151.589 290.34 152.063 288.842C152.56 287.322 153.259 286.048 154.161 285.019C155.064 283.969 156.158 283.164 157.444 282.605C158.73 282.046 160.185 281.766 161.81 281.766C163.57 281.766 165.104 282.046 166.413 282.605C167.744 283.164 168.838 283.969 169.695 285.019C170.575 286.048 171.229 287.311 171.658 288.809C172.109 290.284 172.335 291.95 172.335 293.806ZM166.954 293.906C166.954 292.9 166.875 291.939 166.717 291.022C166.582 290.106 166.322 289.301 165.939 288.608C165.555 287.915 165.036 287.367 164.382 286.964C163.728 286.54 162.882 286.327 161.844 286.327C160.986 286.327 160.231 286.529 159.576 286.931C158.945 287.311 158.414 287.836 157.986 288.507C157.557 289.178 157.241 289.96 157.038 290.855C156.835 291.749 156.734 292.699 156.734 293.705C156.734 294.89 156.812 295.952 156.97 296.891C157.151 297.83 157.433 298.635 157.816 299.306C158.223 299.976 158.753 300.491 159.407 300.848C160.061 301.206 160.885 301.385 161.878 301.385C162.848 301.385 163.66 301.184 164.314 300.781C164.969 300.356 165.487 299.809 165.871 299.138C166.255 298.445 166.525 297.651 166.683 296.757C166.864 295.84 166.954 294.89 166.954 293.906ZM168.274 278.916C168.477 279.095 168.578 279.251 168.578 279.385C168.578 279.497 168.499 279.631 168.342 279.788L167.394 280.827C167.259 280.984 167.112 281.051 166.954 281.029C166.796 280.984 166.627 280.906 166.446 280.794L161.641 278.212L156.97 280.727C156.79 280.839 156.632 280.906 156.497 280.928C156.361 280.928 156.215 280.839 156.057 280.66L155.177 279.754C155.041 279.575 154.962 279.441 154.94 279.352C154.94 279.24 155.019 279.106 155.177 278.949L159.678 275.093C159.994 274.825 160.321 274.612 160.659 274.456C161.02 274.299 161.347 274.221 161.641 274.221C162.295 274.221 162.983 274.512 163.705 275.093L168.274 278.916ZM171.083 273.215C171.263 273.371 171.342 273.494 171.32 273.584C171.32 273.673 171.263 273.785 171.15 273.919L169.864 275.462C169.752 275.574 169.639 275.652 169.526 275.697C169.436 275.719 169.278 275.674 169.052 275.562L162.521 272.242C162.385 272.198 162.306 272.119 162.284 272.008C162.261 271.873 162.318 271.739 162.453 271.605L164.788 268.956C164.969 268.777 165.115 268.71 165.228 268.755C165.341 268.799 165.465 268.878 165.6 268.989L171.083 273.215Z" fill="white"/>
<path d="M186.027 288.541C186.027 287.602 186.185 286.719 186.501 285.891C186.839 285.064 187.336 284.349 187.99 283.745C188.644 283.119 189.479 282.627 190.494 282.269C191.509 281.912 192.705 281.733 194.082 281.733C194.713 281.733 195.368 281.766 196.044 281.834C196.744 281.901 197.421 282.001 198.075 282.135C198.752 282.269 199.395 282.437 200.004 282.638C200.613 282.817 201.166 283.03 201.662 283.276C201.933 283.41 202.08 283.544 202.102 283.678C202.147 283.79 202.114 284.013 202.001 284.349L201.121 286.864C201.008 287.177 200.895 287.356 200.782 287.4C200.67 287.445 200.478 287.434 200.207 287.367C199.147 287.054 198.086 286.797 197.026 286.596C195.988 286.394 195.007 286.294 194.082 286.294C193.089 286.294 192.389 286.473 191.983 286.83C191.577 287.188 191.374 287.624 191.374 288.138C191.374 288.429 191.442 288.697 191.577 288.943C191.713 289.189 191.927 289.435 192.22 289.681C192.536 289.904 192.942 290.139 193.439 290.385C193.957 290.631 194.589 290.899 195.334 291.19C196.484 291.637 197.545 292.095 198.515 292.565C199.485 293.012 200.309 293.526 200.985 294.108C201.685 294.689 202.226 295.371 202.61 296.153C203.016 296.936 203.219 297.875 203.219 298.97C203.219 300.155 203.005 301.184 202.576 302.056C202.147 302.927 201.549 303.654 200.782 304.235C200.015 304.817 199.079 305.253 197.973 305.543C196.89 305.834 195.695 305.979 194.386 305.979C193.664 305.979 192.908 305.934 192.119 305.845C191.329 305.778 190.539 305.666 189.75 305.51C188.983 305.331 188.227 305.107 187.482 304.839C186.738 304.571 186.05 304.246 185.418 303.866C185.237 303.755 185.124 303.632 185.079 303.498C185.057 303.363 185.102 303.151 185.215 302.86L186.365 300.178C186.478 299.909 186.602 299.753 186.738 299.708C186.873 299.663 187.065 299.697 187.313 299.809C187.764 299.987 188.261 300.178 188.802 300.379C189.344 300.558 189.896 300.725 190.46 300.882C191.047 301.016 191.634 301.139 192.22 301.251C192.829 301.34 193.427 301.385 194.014 301.385C194.713 301.385 195.3 301.318 195.774 301.184C196.247 301.049 196.631 300.882 196.924 300.681C197.218 300.457 197.421 300.211 197.533 299.943C197.646 299.652 197.703 299.35 197.703 299.037C197.703 298.702 197.635 298.4 197.5 298.132C197.387 297.864 197.184 297.606 196.89 297.361C196.62 297.092 196.236 296.846 195.74 296.623C195.266 296.377 194.668 296.12 193.946 295.851C192.75 295.404 191.667 294.946 190.697 294.476C189.727 294.007 188.892 293.493 188.193 292.934C187.493 292.353 186.952 291.715 186.568 291.022C186.207 290.307 186.027 289.48 186.027 288.541Z" fill="white"/>
<path d="M221.278 283.443C221.752 283.22 222.135 283.018 222.428 282.84C222.744 282.638 222.992 282.437 223.173 282.236C223.376 282.012 223.511 281.755 223.579 281.465C223.647 281.174 223.681 280.816 223.681 280.391C223.681 279.81 223.771 279.385 223.951 279.117C224.132 278.849 224.459 278.737 224.933 278.782H225.542C226.332 278.782 226.749 279.274 226.794 280.257C226.794 281.398 226.614 282.325 226.253 283.041C225.914 283.734 225.486 284.304 224.967 284.751H225C224.933 284.818 224.809 284.919 224.628 285.053C224.47 285.187 224.301 285.31 224.121 285.422L221.278 283.443ZM227.065 293.806C227.065 295.728 226.851 297.439 226.422 298.937C226.016 300.435 225.373 301.709 224.493 302.76C223.613 303.811 222.507 304.615 221.176 305.174C219.845 305.711 218.266 305.979 216.438 305.979C212.941 305.979 210.335 304.928 208.621 302.827C206.928 300.725 206.082 297.752 206.082 293.906C206.082 292.028 206.319 290.34 206.793 288.842C207.289 287.322 207.989 286.048 208.891 285.019C209.794 283.969 210.888 283.164 212.174 282.605C213.46 282.046 214.915 281.766 216.54 281.766C218.3 281.766 219.834 282.046 221.142 282.605C222.474 283.164 223.568 283.969 224.425 285.019C225.305 286.048 225.959 287.311 226.388 288.809C226.839 290.284 227.065 291.95 227.065 293.806ZM221.684 293.906C221.684 292.9 221.605 291.939 221.447 291.022C221.312 290.106 221.052 289.301 220.669 288.608C220.285 287.915 219.766 287.367 219.112 286.964C218.458 286.54 217.611 286.327 216.574 286.327C215.716 286.327 214.96 286.529 214.306 286.931C213.674 287.311 213.144 287.836 212.716 288.507C212.287 289.178 211.971 289.96 211.768 290.855C211.565 291.749 211.463 292.699 211.463 293.705C211.463 294.89 211.542 295.952 211.7 296.891C211.881 297.83 212.163 298.635 212.546 299.306C212.952 299.976 213.483 300.491 214.137 300.848C214.791 301.206 215.615 301.385 216.607 301.385C217.578 301.385 218.39 301.184 219.044 300.781C219.698 300.356 220.217 299.809 220.601 299.138C220.984 298.445 221.255 297.651 221.413 296.757C221.594 295.84 221.684 294.89 221.684 293.906Z" fill="white"/>
<path d="M257.712 285.824C257.712 286.271 257.486 286.495 257.035 286.495H250.91V304.906C250.91 305.197 250.853 305.387 250.74 305.476C250.65 305.566 250.436 305.61 250.097 305.61H246.476C246.206 305.61 246.002 305.566 245.867 305.476C245.754 305.364 245.698 305.174 245.698 304.906V286.495H239.708C239.279 286.495 239.065 286.271 239.065 285.824V282.84C239.065 282.549 239.11 282.359 239.2 282.269C239.29 282.18 239.46 282.135 239.708 282.135H257.035C257.306 282.135 257.486 282.18 257.577 282.269C257.667 282.359 257.712 282.549 257.712 282.84V285.824Z" fill="white"/>
<path d="M280.123 304.906C280.123 305.197 280.067 305.387 279.954 305.476C279.864 305.566 279.649 305.61 279.311 305.61H275.758C275.464 305.61 275.261 305.566 275.148 305.476C275.036 305.364 274.979 305.174 274.979 304.906V295.516H265.808V304.906C265.808 305.197 265.751 305.387 265.639 305.476C265.548 305.566 265.334 305.61 264.996 305.61H261.408C261.138 305.61 260.934 305.566 260.799 305.476C260.686 305.364 260.63 305.174 260.63 304.906V282.84C260.63 282.571 260.686 282.392 260.799 282.303C260.934 282.191 261.138 282.135 261.408 282.135H264.996C265.334 282.135 265.548 282.18 265.639 282.269C265.751 282.359 265.808 282.549 265.808 282.84V291.19H274.979V282.84C274.979 282.571 275.036 282.392 275.148 282.303C275.261 282.191 275.464 282.135 275.758 282.135H279.311C279.649 282.135 279.864 282.18 279.954 282.269C280.067 282.359 280.123 282.549 280.123 282.84V304.906Z" fill="white"/>
<path d="M297.572 300.714H289.822L288.502 304.973C288.435 305.197 288.333 305.364 288.198 305.476C288.085 305.566 287.871 305.61 287.555 305.61H283.595C283.347 305.61 283.189 305.543 283.121 305.409C283.076 305.275 283.076 305.118 283.121 304.94L290.161 283.913C290.273 283.533 290.397 283.231 290.533 283.007C290.691 282.761 290.86 282.571 291.04 282.437C291.244 282.303 291.469 282.214 291.717 282.169C291.988 282.102 292.293 282.068 292.631 282.068H294.662C295.045 282.068 295.372 282.091 295.643 282.135C295.914 282.158 296.151 282.236 296.354 282.37C296.557 282.504 296.726 282.694 296.861 282.94C297.019 283.186 297.166 283.51 297.301 283.913L304.341 304.94C304.386 305.074 304.386 305.219 304.341 305.376C304.295 305.532 304.149 305.61 303.901 305.61H299.873C299.625 305.61 299.411 305.588 299.23 305.543C299.072 305.476 298.96 305.32 298.892 305.074L297.572 300.714ZM291.04 296.556H296.354L295.068 292.297L293.816 287.501H293.613L292.326 292.297L291.04 296.556ZM300.076 278.916C300.279 279.095 300.381 279.251 300.381 279.385C300.381 279.497 300.302 279.631 300.144 279.788L299.197 280.827C299.061 280.984 298.915 281.051 298.757 281.029C298.599 280.984 298.429 280.906 298.249 280.794L293.443 278.212L288.773 280.727C288.592 280.839 288.435 280.906 288.299 280.928C288.164 280.928 288.017 280.839 287.859 280.66L286.979 279.754C286.844 279.575 286.765 279.441 286.742 279.352C286.742 279.24 286.821 279.106 286.979 278.949L291.48 275.093C291.796 274.825 292.123 274.612 292.462 274.456C292.823 274.299 293.15 274.221 293.443 274.221C294.098 274.221 294.786 274.512 295.508 275.093L300.076 278.916ZM302.479 273.215C302.66 273.371 302.739 273.494 302.716 273.584C302.716 273.673 302.66 273.785 302.547 273.919L301.261 275.462C301.148 275.574 301.035 275.652 300.923 275.697C300.832 275.719 300.674 275.674 300.449 275.562L293.917 272.242C293.782 272.198 293.703 272.119 293.68 272.008C293.658 271.873 293.714 271.739 293.849 271.605L296.185 268.956C296.365 268.777 296.512 268.71 296.624 268.755C296.737 268.799 296.861 268.878 296.997 268.989L302.479 273.215Z" fill="white"/>
<path d="M326.551 302.357C326.551 303.14 326.37 303.811 326.009 304.369C325.671 304.928 325.028 305.331 324.08 305.577C323.629 305.689 323.133 305.767 322.591 305.811C322.05 305.879 321.508 305.923 320.967 305.946C320.425 305.968 319.917 305.979 319.444 305.979C318.97 306.002 318.586 306.013 318.293 306.013C316.353 306.013 314.683 305.856 313.284 305.543C311.908 305.208 310.78 304.649 309.9 303.866C309.02 303.084 308.377 302.044 307.971 300.748C307.565 299.451 307.362 297.819 307.362 295.851L307.328 282.84C307.328 282.571 307.396 282.392 307.531 282.303C307.666 282.191 307.858 282.135 308.106 282.135H311.728C312.066 282.135 312.28 282.18 312.371 282.269C312.483 282.359 312.54 282.549 312.54 282.84V296.153C312.54 297.07 312.619 297.875 312.777 298.568C312.935 299.239 313.217 299.797 313.623 300.245C314.029 300.692 314.57 301.027 315.247 301.251C315.947 301.452 316.838 301.552 317.921 301.552C318.079 301.552 318.293 301.552 318.564 301.552C318.834 301.53 319.128 301.519 319.444 301.519C319.782 301.497 320.121 301.474 320.459 301.452C320.82 301.407 321.147 301.351 321.44 301.284V282.84C321.44 282.571 321.497 282.392 321.61 282.303C321.745 282.191 321.948 282.135 322.219 282.135H325.806C326.145 282.135 326.348 282.18 326.415 282.269C326.505 282.359 326.551 282.549 326.551 282.84V302.357Z" fill="white"/>
<rect x="38.1954" y="77.0431" width="369.892" height="369.892" rx="54.2776" stroke="black" stroke-width="12.0617"/>
</svg>
