<svg width="445" height="630" viewBox="0 0 445 630" fill="none" xmlns="http://www.w3.org/2000/svg">
<rect width="444" height="630" transform="translate(0.592285)" fill="white"/>
<path d="M150.665 518.287C150.665 518.669 150.592 518.918 150.445 519.036C150.327 519.153 150.049 519.212 149.608 519.212H144.986C144.605 519.212 144.341 519.153 144.194 519.036C144.047 518.889 143.974 518.639 143.974 518.287V505.962H132.045V518.287C132.045 518.669 131.971 518.918 131.824 519.036C131.707 519.153 131.428 519.212 130.988 519.212H126.322C125.97 519.212 125.706 519.153 125.53 519.036C125.383 518.889 125.309 518.639 125.309 518.287V489.322C125.309 488.97 125.383 488.735 125.53 488.618C125.706 488.471 125.97 488.398 126.322 488.398H130.988C131.428 488.398 131.707 488.456 131.824 488.574C131.971 488.691 132.045 488.941 132.045 489.322V500.283H143.974V489.322C143.974 488.97 144.047 488.735 144.194 488.618C144.341 488.471 144.605 488.398 144.986 488.398H149.608C150.049 488.398 150.327 488.456 150.445 488.574C150.592 488.691 150.665 488.941 150.665 489.322V518.287ZM183.662 503.717C183.662 506.24 183.383 508.485 182.825 510.452C182.297 512.418 181.461 514.091 180.316 515.47C179.172 516.849 177.734 517.906 176.002 518.639C174.271 519.344 172.216 519.696 169.839 519.696C165.291 519.696 161.901 518.317 159.671 515.558C157.47 512.799 156.369 508.896 156.369 503.849C156.369 501.384 156.677 499.168 157.294 497.202C157.939 495.206 158.849 493.533 160.023 492.183C161.197 490.804 162.62 489.748 164.293 489.014C165.966 488.28 167.858 487.914 169.971 487.914C172.26 487.914 174.256 488.28 175.958 489.014C177.69 489.748 179.113 490.804 180.228 492.183C181.373 493.533 182.224 495.191 182.781 497.158C183.368 499.095 183.662 501.281 183.662 503.717ZM176.662 503.849C176.662 502.528 176.56 501.266 176.354 500.063C176.178 498.86 175.841 497.803 175.342 496.894C174.843 495.984 174.168 495.265 173.317 494.737C172.466 494.179 171.365 493.9 170.015 493.9C168.9 493.9 167.917 494.164 167.066 494.693C166.244 495.191 165.555 495.881 164.997 496.762C164.44 497.642 164.029 498.669 163.765 499.843C163.501 501.017 163.368 502.264 163.368 503.585C163.368 505.14 163.471 506.534 163.677 507.766C163.911 508.999 164.278 510.056 164.777 510.936C165.305 511.816 165.995 512.491 166.846 512.961C167.697 513.43 168.768 513.665 170.059 513.665C171.321 513.665 172.378 513.401 173.229 512.873C174.08 512.315 174.755 511.596 175.254 510.716C175.753 509.806 176.105 508.764 176.31 507.59C176.545 506.387 176.662 505.14 176.662 503.849ZM174.55 477.745C174.726 477.598 174.887 477.495 175.034 477.437C175.18 477.378 175.371 477.466 175.606 477.701L178.643 481.178C178.819 481.355 178.893 481.531 178.863 481.707C178.834 481.853 178.731 481.956 178.555 482.015L170.059 486.373C169.766 486.52 169.546 486.578 169.399 486.549C169.282 486.49 169.15 486.387 169.003 486.241L167.33 484.216C167.184 484.04 167.095 483.893 167.066 483.776C167.066 483.658 167.184 483.497 167.418 483.291L174.55 477.745ZM205.516 512.785H195.436L193.719 518.375C193.631 518.669 193.499 518.889 193.323 519.036C193.176 519.153 192.897 519.212 192.486 519.212H187.336C187.013 519.212 186.808 519.124 186.72 518.948C186.661 518.771 186.661 518.566 186.72 518.331L195.876 490.731C196.023 490.232 196.184 489.836 196.36 489.542C196.565 489.219 196.786 488.97 197.02 488.794C197.284 488.618 197.578 488.5 197.901 488.442C198.253 488.354 198.649 488.31 199.089 488.31H201.73C202.229 488.31 202.655 488.339 203.007 488.398C203.359 488.427 203.667 488.53 203.931 488.706C204.196 488.882 204.416 489.131 204.592 489.454C204.797 489.777 204.988 490.203 205.164 490.731L214.32 518.331C214.379 518.507 214.379 518.698 214.32 518.904C214.261 519.109 214.071 519.212 213.748 519.212H208.509C208.187 519.212 207.908 519.182 207.673 519.124C207.468 519.036 207.321 518.83 207.233 518.507L205.516 512.785ZM197.02 507.326H203.931L202.259 501.736L200.63 495.441H200.366L198.693 501.736L197.02 507.326ZM233.53 519.212C232.473 519.212 231.769 519.006 231.417 518.595C231.065 518.155 230.888 517.466 230.888 516.526V505.345H228.82C228.497 505.345 228.291 505.287 228.203 505.169C228.115 505.023 228.071 504.788 228.071 504.465V502.616C228.071 502.205 228.115 501.941 228.203 501.824C228.291 501.706 228.497 501.648 228.82 501.648H230.888V491.083C230.888 490.144 231.065 489.454 231.417 489.014C231.769 488.574 232.473 488.354 233.53 488.354H241.761C244.344 488.354 246.53 488.765 248.32 489.586C250.11 490.408 251.563 491.508 252.678 492.888C253.793 494.267 254.601 495.896 255.099 497.774C255.598 499.623 255.848 501.574 255.848 503.629C255.848 505.654 255.628 507.605 255.187 509.483C254.747 511.361 253.999 513.02 252.942 514.458C251.886 515.896 250.477 517.055 248.717 517.935C246.985 518.786 244.828 519.212 242.246 519.212H233.53ZM248.937 503.629C248.937 502.279 248.819 501.031 248.584 499.887C248.35 498.742 247.924 497.759 247.308 496.938C246.721 496.087 245.914 495.426 244.887 494.957C243.86 494.458 242.568 494.208 241.013 494.208H237.624V501.648H242.862C243.185 501.648 243.39 501.706 243.478 501.824C243.566 501.941 243.61 502.205 243.61 502.616V504.465C243.61 504.788 243.566 505.023 243.478 505.169C243.39 505.287 243.185 505.345 242.862 505.345H237.624V513.313H241.145C242.671 513.313 243.933 513.078 244.931 512.609C245.958 512.11 246.765 511.435 247.352 510.584C247.939 509.733 248.35 508.72 248.584 507.546C248.819 506.343 248.937 505.037 248.937 503.629ZM287.994 503.717C287.994 506.24 287.715 508.485 287.158 510.452C286.629 512.418 285.793 514.091 284.648 515.47C283.504 516.849 282.066 517.906 280.335 518.639C278.603 519.344 276.549 519.696 274.172 519.696C269.623 519.696 266.233 518.317 264.003 515.558C261.802 512.799 260.702 508.896 260.702 503.849C260.702 501.384 261.01 499.168 261.626 497.202C262.272 495.206 263.181 493.533 264.355 492.183C265.529 490.804 266.952 489.748 268.625 489.014C270.298 488.28 272.191 487.914 274.304 487.914C276.593 487.914 278.588 488.28 280.291 489.014C280.701 489.19 281.098 489.396 281.479 489.63C282.301 489.19 282.858 488.735 283.152 488.266C283.445 487.767 283.592 487.048 283.592 486.109C283.592 485.346 283.709 484.788 283.944 484.436C284.179 484.084 284.604 483.937 285.221 483.996H286.013C287.04 483.996 287.583 484.641 287.642 485.933C287.642 487.429 287.407 488.647 286.938 489.586C286.497 490.496 285.94 491.244 285.265 491.831H285.309C285.162 491.978 284.957 492.139 284.692 492.316C285.749 493.665 286.556 495.28 287.114 497.158C287.701 499.095 287.994 501.281 287.994 503.717ZM280.995 503.849C280.995 502.528 280.892 501.266 280.687 500.063C280.511 498.86 280.173 497.803 279.674 496.894C279.175 495.984 278.5 495.265 277.649 494.737C276.798 494.179 275.698 493.9 274.348 493.9C273.233 493.9 272.25 494.164 271.398 494.693C270.577 495.191 269.887 495.881 269.33 496.762C268.772 497.642 268.361 498.669 268.097 499.843C267.833 501.017 267.701 502.264 267.701 503.585C267.701 505.14 267.804 506.534 268.009 507.766C268.244 508.999 268.611 510.056 269.109 510.936C269.638 511.816 270.327 512.491 271.178 512.961C272.029 513.43 273.101 513.665 274.392 513.665C275.654 513.665 276.71 513.401 277.561 512.873C278.412 512.315 279.087 511.596 279.586 510.716C280.085 509.806 280.437 508.764 280.643 507.59C280.877 506.387 280.995 505.14 280.995 503.849ZM300.384 500.063V518.287C300.384 518.669 300.311 518.918 300.164 519.036C300.047 519.153 299.783 519.212 299.372 519.212H294.75C294.398 519.212 294.133 519.153 293.957 519.036C293.811 518.889 293.737 518.639 293.737 518.287V491.435C293.737 490.291 293.943 489.498 294.354 489.058C294.764 488.588 295.513 488.354 296.599 488.354H298.447C298.888 488.354 299.254 488.383 299.548 488.442C299.871 488.471 300.149 488.559 300.384 488.706C300.619 488.853 300.839 489.058 301.045 489.322C301.25 489.586 301.485 489.924 301.749 490.335L309.232 501.736L313.018 507.678H313.238V489.278C313.238 488.926 313.297 488.691 313.414 488.574C313.561 488.427 313.84 488.354 314.251 488.354H318.873C319.548 488.354 319.885 488.662 319.885 489.278V516.174C319.885 517.113 319.694 517.862 319.313 518.419C318.931 518.948 318.168 519.212 317.024 519.212H315.175C314.735 519.212 314.353 519.197 314.03 519.168C313.737 519.109 313.473 519.006 313.238 518.86C313.003 518.713 312.783 518.522 312.578 518.287C312.372 518.023 312.138 517.686 311.873 517.275L304.83 506.622L300.604 500.063H300.384ZM35.5465 575.665C36.1041 575.665 36.8084 575.636 37.6595 575.577C38.5105 575.489 39.3322 575.298 40.1246 575.005L40.1686 568.49C39.1415 568.431 38.1143 568.49 37.0872 568.666C36.0601 568.842 35.0623 569.136 34.0938 569.546C33.683 569.693 33.3895 569.766 33.2134 569.766C33.0667 569.766 32.92 569.605 32.7732 569.282L31.6287 565.717C31.5407 565.482 31.5113 565.276 31.5407 565.1C31.57 564.924 31.7461 564.763 32.0689 564.616C33.0961 564.117 34.2993 563.706 35.6786 563.384C37.0872 563.031 38.4958 562.855 39.9045 562.855C40.6675 562.855 41.3718 562.885 42.0174 562.943C42.6631 562.973 43.2353 563.046 43.7342 563.164C44.3798 563.31 44.8934 563.53 45.2749 563.824C45.6564 564.088 45.9499 564.44 46.1553 564.88C46.3607 565.291 46.4928 565.775 46.5515 566.333C46.6102 566.861 46.6395 567.448 46.6395 568.094V577.338C46.6395 577.749 46.5808 578.13 46.4634 578.482C46.3461 578.805 46.0526 579.113 45.583 579.407C44.7026 579.935 43.7489 580.346 42.7217 580.639C41.6946 580.933 40.6822 581.153 39.6844 581.3C38.7159 581.476 37.8062 581.579 36.9551 581.608C36.1041 581.667 35.4291 581.696 34.9302 581.696C32.5238 581.696 30.4402 581.344 28.6794 580.639C26.9479 579.906 25.51 578.864 24.3654 577.514C23.2503 576.135 22.4139 574.477 21.8563 572.54C21.3281 570.603 21.0639 568.402 21.0639 565.937C21.0639 563.53 21.3721 561.344 21.9884 559.378C22.6046 557.412 23.5144 555.739 24.7176 554.36C25.9502 552.951 27.4468 551.865 29.2076 551.102C30.9978 550.339 33.0374 549.958 35.3264 549.958C36.8524 549.958 38.3638 550.09 39.8605 550.354C41.3571 550.588 42.7951 551.087 44.1744 551.85C44.4972 552.026 44.688 552.203 44.7467 552.379C44.8054 552.555 44.7173 552.892 44.4825 553.391L43.1179 556.516C42.9712 556.927 42.8098 557.177 42.6337 557.265C42.487 557.353 42.2082 557.324 41.7973 557.177C40.7408 556.795 39.7137 556.516 38.7159 556.34C37.7475 556.164 36.7057 556.076 35.5905 556.076C34.2993 556.076 33.1841 556.326 32.245 556.825C31.3059 557.324 30.5282 558.013 29.912 558.894C29.2957 559.774 28.8408 560.816 28.5473 562.019C28.2539 563.222 28.1071 564.543 28.1071 565.981C28.1071 567.448 28.2245 568.783 28.4593 569.987C28.6941 571.16 29.0902 572.173 29.6478 573.024C30.2348 573.846 30.9978 574.491 31.9369 574.961C32.9053 575.43 34.1085 575.665 35.5465 575.665ZM59.7303 580.287C59.7303 580.669 59.6569 580.918 59.5102 581.036C59.3928 581.153 59.114 581.212 58.6738 581.212H54.0077C53.6555 581.212 53.3914 581.153 53.2153 581.036C53.0686 580.889 52.9952 580.639 52.9952 580.287V551.322C52.9952 550.97 53.0686 550.735 53.2153 550.618C53.3914 550.471 53.6555 550.398 54.0077 550.398H58.6738C59.114 550.398 59.3928 550.456 59.5102 550.574C59.6569 550.691 59.7303 550.941 59.7303 551.322V580.287ZM83.0213 574.785H72.9407L71.224 580.375C71.1359 580.669 71.0039 580.889 70.8278 581.036C70.681 581.153 70.4022 581.212 69.9914 581.212H64.8411C64.5183 581.212 64.3128 581.124 64.2248 580.948C64.1661 580.771 64.1661 580.566 64.2248 580.331L73.3809 552.731C73.5277 552.232 73.6891 551.836 73.8651 551.542C74.0706 551.219 74.2907 550.97 74.5254 550.794C74.7896 550.618 75.083 550.5 75.4058 550.442C75.758 550.354 76.1542 550.31 76.5944 550.31H79.2356C79.7345 550.31 80.16 550.339 80.5122 550.398C80.8643 550.427 81.1725 550.53 81.4366 550.706C81.7007 550.882 81.9208 551.131 82.0969 551.454C82.3023 551.777 82.493 552.203 82.6691 552.731L91.8253 580.331C91.884 580.507 91.884 580.698 91.8253 580.904C91.7666 581.109 91.5758 581.212 91.253 581.212H86.0146C85.6918 581.212 85.413 581.182 85.1783 581.124C84.9728 581.036 84.8261 580.83 84.7381 580.507L83.0213 574.785ZM74.5254 569.326H81.4366L79.7638 563.736L78.1351 557.441H77.871L76.1982 563.736L74.5254 569.326ZM86.2788 546.172C86.5429 546.407 86.6749 546.612 86.6749 546.788C86.6749 546.935 86.5722 547.111 86.3668 547.316L85.1342 548.681C84.9582 548.886 84.7674 548.974 84.562 548.945C84.3566 548.886 84.1365 548.784 83.9017 548.637L77.6509 545.247L71.5761 548.549C71.3413 548.696 71.1359 548.784 70.9598 548.813C70.7838 548.813 70.593 548.696 70.3876 548.461L69.2431 547.272C69.067 547.038 68.9643 546.861 68.9349 546.744C68.9349 546.597 69.0376 546.421 69.2431 546.216L75.0977 541.154C75.5086 540.801 75.9341 540.523 76.3743 540.317C76.8438 540.112 77.2694 540.009 77.6509 540.009C78.5019 540.009 79.397 540.391 80.3361 541.154L86.2788 546.172ZM90.1965 533.362C90.3726 533.215 90.534 533.113 90.6808 533.054C90.8275 532.995 91.0182 533.083 91.253 533.318L94.2904 536.796C94.4665 536.972 94.5398 537.148 94.5105 537.324C94.4811 537.471 94.3784 537.573 94.2023 537.632L85.7065 541.99C85.413 542.137 85.1929 542.195 85.0462 542.166C84.9288 542.107 84.7968 542.005 84.65 541.858L82.9773 539.833C82.8305 539.657 82.7425 539.51 82.7131 539.393C82.7131 539.275 82.8305 539.114 83.0653 538.909L90.1965 533.362ZM106.364 563.736L109.269 557.221L112.175 551.19C112.321 550.897 112.468 550.691 112.615 550.574C112.791 550.427 113.04 550.354 113.363 550.354H118.954C119.364 550.354 119.57 550.442 119.57 550.618C119.599 550.794 119.57 550.97 119.482 551.146L109.665 569.855V580.331C109.665 580.654 109.607 580.889 109.489 581.036C109.372 581.153 109.108 581.212 108.697 581.212H103.899C103.282 581.212 102.974 580.918 102.974 580.331V569.943L92.8938 551.19C92.8057 551.043 92.7911 550.867 92.8498 550.662C92.9378 550.456 93.1432 550.354 93.466 550.354H99.0125C99.4234 550.354 99.7022 550.427 99.8489 550.574C100.025 550.721 100.186 550.97 100.333 551.322L103.282 557.441L106.1 563.736H106.364ZM149.684 575.621C151.093 575.621 152.34 575.46 153.426 575.137C154.512 574.785 155.524 574.433 156.463 574.08C156.874 573.904 157.168 573.875 157.344 573.992C157.52 574.08 157.681 574.286 157.828 574.609L159.325 577.778C159.53 578.189 159.603 578.497 159.545 578.703C159.486 578.908 159.325 579.084 159.061 579.231C157.476 580.199 155.803 580.86 154.042 581.212C152.311 581.534 150.594 581.696 148.892 581.696C146.486 581.696 144.402 581.344 142.641 580.639C140.91 579.906 139.472 578.864 138.327 577.514C137.212 576.164 136.376 574.521 135.818 572.584C135.29 570.618 135.026 568.417 135.026 565.981C135.026 563.574 135.363 561.388 136.038 559.422C136.742 557.456 137.711 555.768 138.943 554.36C140.176 552.951 141.658 551.865 143.389 551.102C145.15 550.339 147.087 549.958 149.2 549.958C150.697 549.958 152.164 550.09 153.602 550.354C155.04 550.588 156.449 551.087 157.828 551.85C158.151 552.026 158.342 552.203 158.4 552.379C158.459 552.555 158.386 552.892 158.18 553.391L156.816 556.428C156.669 556.839 156.507 557.089 156.331 557.177C156.185 557.265 155.906 557.235 155.495 557.089C154.438 556.707 153.455 556.428 152.546 556.252C151.636 556.047 150.623 555.944 149.508 555.944C148.305 555.944 147.234 556.208 146.295 556.737C145.385 557.235 144.607 557.94 143.962 558.85C143.345 559.73 142.876 560.786 142.553 562.019C142.23 563.222 142.069 564.543 142.069 565.981C142.069 567.419 142.186 568.725 142.421 569.899C142.685 571.072 143.111 572.085 143.698 572.936C144.314 573.787 145.106 574.447 146.075 574.917C147.043 575.386 148.246 575.621 149.684 575.621ZM189.548 580.287C189.548 580.669 189.474 580.918 189.328 581.036C189.21 581.153 188.931 581.212 188.491 581.212H183.869C183.488 581.212 183.224 581.153 183.077 581.036C182.93 580.889 182.857 580.639 182.857 580.287V567.962H170.927V580.287C170.927 580.669 170.854 580.918 170.707 581.036C170.59 581.153 170.311 581.212 169.871 581.212H165.205C164.853 581.212 164.588 581.153 164.412 581.036C164.266 580.889 164.192 580.639 164.192 580.287V551.322C164.192 550.97 164.266 550.735 164.412 550.618C164.588 550.471 164.853 550.398 165.205 550.398H169.871C170.311 550.398 170.59 550.456 170.707 550.574C170.854 550.691 170.927 550.941 170.927 551.322V562.283H182.857V551.322C182.857 550.97 182.93 550.735 183.077 550.618C183.224 550.471 183.488 550.398 183.869 550.398H188.491C188.931 550.398 189.21 550.456 189.328 550.574C189.474 550.691 189.548 550.941 189.548 551.322V580.287ZM221.092 576.942C221.092 577.969 220.857 578.849 220.387 579.583C219.947 580.317 219.111 580.845 217.878 581.168C217.291 581.314 216.646 581.417 215.941 581.476C215.237 581.564 214.533 581.623 213.829 581.652C213.124 581.681 212.464 581.696 211.848 581.696C211.231 581.725 210.732 581.74 210.351 581.74C207.827 581.74 205.655 581.534 203.836 581.124C202.046 580.683 200.579 579.95 199.434 578.923C198.289 577.896 197.453 576.531 196.925 574.829C196.397 573.127 196.133 570.984 196.133 568.402L196.088 551.322C196.088 550.97 196.177 550.735 196.353 550.618C196.529 550.471 196.778 550.398 197.101 550.398H201.811C202.251 550.398 202.53 550.456 202.647 550.574C202.794 550.691 202.868 550.941 202.868 551.322V568.798C202.868 570.001 202.97 571.058 203.176 571.967C203.381 572.848 203.748 573.582 204.276 574.168C204.804 574.755 205.509 575.196 206.389 575.489C207.299 575.753 208.458 575.885 209.867 575.885C210.072 575.885 210.351 575.885 210.703 575.885C211.055 575.856 211.437 575.841 211.848 575.841C212.288 575.812 212.728 575.783 213.168 575.753C213.638 575.695 214.063 575.621 214.445 575.533V551.322C214.445 550.97 214.518 550.735 214.665 550.618C214.841 550.471 215.105 550.398 215.457 550.398H217.614C218.524 549.928 219.14 549.459 219.463 548.989C219.786 548.49 219.947 547.757 219.947 546.788C219.947 546.025 220.065 545.467 220.299 545.115C220.534 544.763 220.96 544.616 221.576 544.675H222.368C223.396 544.675 223.938 545.321 223.997 546.612C223.997 548.109 223.762 549.327 223.293 550.266C222.853 551.175 222.295 551.924 221.62 552.511H221.664C221.605 552.569 221.532 552.643 221.444 552.731C221.356 552.819 221.239 552.907 221.092 552.995V576.942ZM212.684 540.009C212.86 539.862 213.021 539.76 213.168 539.701C213.315 539.642 213.506 539.73 213.74 539.965L216.778 543.443C216.954 543.619 217.027 543.795 216.998 543.971C216.969 544.118 216.866 544.22 216.69 544.279L208.194 548.637C207.901 548.784 207.68 548.842 207.534 548.813C207.416 548.754 207.284 548.652 207.137 548.505L205.465 546.48C205.318 546.304 205.23 546.157 205.201 546.04C205.201 545.922 205.318 545.761 205.553 545.556L212.684 540.009ZM234.333 562.063V580.287C234.333 580.669 234.259 580.918 234.113 581.036C233.995 581.153 233.731 581.212 233.32 581.212H228.698C228.346 581.212 228.082 581.153 227.906 581.036C227.759 580.889 227.686 580.639 227.686 580.287V553.435C227.686 552.291 227.891 551.498 228.302 551.058C228.713 550.588 229.461 550.354 230.547 550.354H232.396C232.836 550.354 233.203 550.383 233.496 550.442C233.819 550.471 234.098 550.559 234.333 550.706C234.568 550.853 234.788 551.058 234.993 551.322C235.199 551.586 235.433 551.924 235.697 552.335L243.181 563.736L246.967 569.678H247.187V551.278C247.187 550.926 247.245 550.691 247.363 550.574C247.509 550.427 247.788 550.354 248.199 550.354H252.821C253.496 550.354 253.834 550.662 253.834 551.278V578.174C253.834 579.113 253.643 579.862 253.261 580.419C252.88 580.948 252.117 581.212 250.972 581.212H249.124C248.683 581.212 248.302 581.197 247.979 581.168C247.686 581.109 247.421 581.006 247.187 580.86C246.952 580.713 246.732 580.522 246.526 580.287C246.321 580.023 246.086 579.686 245.822 579.275L238.779 568.622L234.553 562.063H234.333ZM274.045 575.665C274.603 575.665 275.307 575.636 276.158 575.577C277.009 575.489 277.831 575.298 278.623 575.005L278.667 568.49C277.64 568.431 276.613 568.49 275.586 568.666C274.559 568.842 273.561 569.136 272.592 569.546C272.181 569.693 271.888 569.766 271.712 569.766C271.565 569.766 271.418 569.605 271.272 569.282L270.127 565.717C270.039 565.482 270.01 565.276 270.039 565.1C270.069 564.924 270.245 564.763 270.567 564.616C271.595 564.117 272.798 563.706 274.177 563.384C275.586 563.031 276.994 562.855 278.403 562.855C279.166 562.855 279.87 562.885 280.516 562.943C281.162 562.973 281.734 563.046 282.233 563.164C282.878 563.31 283.392 563.53 283.773 563.824C284.155 564.088 284.448 564.44 284.654 564.88C284.859 565.291 284.991 565.775 285.05 566.333C285.109 566.861 285.138 567.448 285.138 568.094V577.338C285.138 577.749 285.079 578.13 284.962 578.482C284.845 578.805 284.551 579.113 284.082 579.407C283.201 579.935 282.247 580.346 281.22 580.639C280.193 580.933 279.181 581.153 278.183 581.3C277.214 581.476 276.305 581.579 275.454 581.608C274.603 581.667 273.928 581.696 273.429 581.696C271.022 581.696 268.939 581.344 267.178 580.639C265.446 579.906 264.008 578.864 262.864 577.514C261.749 576.135 260.912 574.477 260.355 572.54C259.827 570.603 259.562 568.402 259.562 565.937C259.562 563.53 259.871 561.344 260.487 559.378C261.103 557.412 262.013 555.739 263.216 554.36C264.449 552.951 265.945 551.865 267.706 551.102C269.496 550.339 271.536 549.958 273.825 549.958C275.351 549.958 276.862 550.09 278.359 550.354C279.856 550.588 281.294 551.087 282.673 551.85C282.996 552.026 283.186 552.203 283.245 552.379C283.304 552.555 283.216 552.892 282.981 553.391L281.616 556.516C281.47 556.927 281.308 557.177 281.132 557.265C280.985 557.353 280.707 557.324 280.296 557.177C279.239 556.795 278.212 556.516 277.214 556.34C276.246 556.164 275.204 556.076 274.089 556.076C272.798 556.076 271.683 556.326 270.744 556.825C269.804 557.324 269.027 558.013 268.41 558.894C267.794 559.774 267.339 560.816 267.046 562.019C266.752 563.222 266.606 564.543 266.606 565.981C266.606 567.448 266.723 568.783 266.958 569.987C267.193 571.16 267.589 572.173 268.146 573.024C268.733 573.846 269.496 574.491 270.435 574.961C271.404 575.43 272.607 575.665 274.045 575.665ZM310.207 562.063V580.287C310.207 580.669 310.134 580.918 309.987 581.036C309.87 581.153 309.605 581.212 309.195 581.212H304.572C304.22 581.212 303.956 581.153 303.78 581.036C303.633 580.889 303.56 580.639 303.56 580.287V553.435C303.56 552.291 303.765 551.498 304.176 551.058C304.587 550.588 305.335 550.354 306.421 550.354H308.27C308.71 550.354 309.077 550.383 309.371 550.442C309.693 550.471 309.972 550.559 310.207 550.706C310.442 550.853 310.662 551.058 310.867 551.322C311.073 551.586 311.308 551.924 311.572 552.335L319.055 563.736L322.841 569.678H323.061V551.278C323.061 550.926 323.12 550.691 323.237 550.574C323.384 550.427 323.662 550.354 324.073 550.354H328.695C329.37 550.354 329.708 550.662 329.708 551.278V578.174C329.708 579.113 329.517 579.862 329.136 580.419C328.754 580.948 327.991 581.212 326.847 581.212H324.998C324.558 581.212 324.176 581.197 323.853 581.168C323.56 581.109 323.296 581.006 323.061 580.86C322.826 580.713 322.606 580.522 322.401 580.287C322.195 580.023 321.96 579.686 321.696 579.275L314.653 568.622L310.427 562.063H310.207ZM361.672 580.287C361.672 580.669 361.599 580.918 361.452 581.036C361.335 581.153 361.056 581.212 360.616 581.212H355.994C355.612 581.212 355.348 581.153 355.202 581.036C355.055 580.889 354.981 580.639 354.981 580.287V567.962H343.052V580.287C343.052 580.669 342.979 580.918 342.832 581.036C342.715 581.153 342.436 581.212 341.996 581.212H337.329C336.977 581.212 336.713 581.153 336.537 581.036C336.39 580.889 336.317 580.639 336.317 580.287V551.322C336.317 550.97 336.39 550.735 336.537 550.618C336.713 550.471 336.977 550.398 337.329 550.398H341.996C342.436 550.398 342.715 550.456 342.832 550.574C342.979 550.691 343.052 550.941 343.052 551.322V562.283H354.981V551.322C354.981 550.97 355.055 550.735 355.202 550.618C355.348 550.471 355.612 550.398 355.994 550.398H360.616C361.056 550.398 361.335 550.456 361.452 550.574C361.599 550.691 361.672 550.941 361.672 551.322V580.287ZM382.3 585.966C382.3 586.788 382.006 587.462 381.419 587.991C380.862 588.548 380.187 588.827 379.394 588.827C378.573 588.827 377.868 588.548 377.281 587.991C376.724 587.462 376.445 586.788 376.445 585.966C376.445 585.173 376.724 584.484 377.281 583.897C377.868 583.339 378.573 583.061 379.394 583.061C380.187 583.061 380.862 583.339 381.419 583.897C382.006 584.484 382.3 585.173 382.3 585.966ZM384.369 574.785H374.288L372.571 580.375C372.483 580.669 372.351 580.889 372.175 581.036C372.028 581.153 371.749 581.212 371.339 581.212H366.188C365.865 581.212 365.66 581.124 365.572 580.948C365.513 580.771 365.513 580.566 365.572 580.331L374.728 552.731C374.875 552.232 375.036 551.836 375.212 551.542C375.418 551.219 375.638 550.97 375.873 550.794C376.137 550.618 376.43 550.5 376.753 550.442C377.105 550.354 377.501 550.31 377.942 550.31H380.583C381.082 550.31 381.507 550.339 381.859 550.398C382.212 550.427 382.52 550.53 382.784 550.706C383.048 550.882 383.268 551.131 383.444 551.454C383.65 551.777 383.84 552.203 384.016 552.731L393.173 580.331C393.231 580.507 393.231 580.698 393.173 580.904C393.114 581.109 392.923 581.212 392.6 581.212H387.362C387.039 581.212 386.76 581.182 386.526 581.124C386.32 581.036 386.173 580.83 386.085 580.507L384.369 574.785ZM375.873 569.326H382.784L381.111 563.736L379.482 557.441H379.218L377.545 563.736L375.873 569.326ZM387.626 546.172C387.89 546.407 388.022 546.612 388.022 546.788C388.022 546.935 387.919 547.111 387.714 547.316L386.481 548.681C386.305 548.886 386.115 548.974 385.909 548.945C385.704 548.886 385.484 548.784 385.249 548.637L378.998 545.247L372.923 548.549C372.689 548.696 372.483 548.784 372.307 548.813C372.131 548.813 371.94 548.696 371.735 548.461L370.59 547.272C370.414 547.038 370.312 546.861 370.282 546.744C370.282 546.597 370.385 546.421 370.59 546.216L376.445 541.154C376.856 540.801 377.281 540.523 377.722 540.317C378.191 540.112 378.617 540.009 378.998 540.009C379.849 540.009 380.744 540.391 381.683 541.154L387.626 546.172ZM403.749 562.063V580.287C403.749 580.669 403.676 580.918 403.529 581.036C403.412 581.153 403.148 581.212 402.737 581.212H398.115C397.763 581.212 397.499 581.153 397.322 581.036C397.176 580.889 397.102 580.639 397.102 580.287V553.435C397.102 552.291 397.308 551.498 397.719 551.058C398.129 550.588 398.878 550.354 399.964 550.354H401.812C402.253 550.354 402.619 550.383 402.913 550.442C403.236 550.471 403.515 550.559 403.749 550.706C403.984 550.853 404.204 551.058 404.41 551.322C404.615 551.586 404.85 551.924 405.114 552.335L412.597 563.736L416.383 569.678H416.603V551.278C416.603 550.926 416.662 550.691 416.779 550.574C416.926 550.427 417.205 550.354 417.616 550.354H422.238C422.913 550.354 423.25 550.662 423.25 551.278V578.174C423.25 579.113 423.059 579.862 422.678 580.419C422.296 580.948 421.533 581.212 420.389 581.212H418.54C418.1 581.212 417.718 581.197 417.396 581.168C417.102 581.109 416.838 581.006 416.603 580.86C416.368 580.713 416.148 580.522 415.943 580.287C415.737 580.023 415.503 579.686 415.239 579.275L408.195 568.622L403.969 562.063H403.749Z" fill="black"/>
<circle cx="222.693" cy="230.104" r="184.083" stroke="black" stroke-width="12.0054"/>
<path d="M154.592 173.844C154.592 175.786 156.166 177.359 158.108 177.359H200.403C202.345 177.359 203.918 175.786 203.918 173.844C203.918 171.902 202.345 170.328 200.403 170.328H158.108C156.166 170.328 154.592 171.902 154.592 173.844Z" fill="black"/>
<path d="M176.17 185.862H158.108C156.166 185.862 154.592 187.435 154.592 189.377C154.592 191.319 156.166 192.893 158.108 192.893H176.17C178.112 192.893 179.686 191.319 179.686 189.377C179.686 187.435 178.112 185.862 176.17 185.862Z" fill="black"/>
<path d="M288.563 316.275C287.516 316.275 286.859 315.536 285.288 313.163C283.637 310.669 281.142 306.9 276.15 306.9C271.159 306.9 268.664 310.669 267.013 313.163C265.441 315.536 264.785 316.275 263.738 316.275C262.69 316.275 262.033 315.536 260.461 313.162C258.811 310.668 256.315 306.9 251.323 306.9C246.331 306.9 243.835 310.669 242.184 313.162C240.613 315.535 239.956 316.275 238.909 316.275C236.967 316.275 235.393 317.849 235.393 319.791C235.393 321.733 236.967 323.306 238.909 323.306C243.901 323.306 246.397 319.538 248.047 317.044C249.619 314.671 250.276 313.931 251.323 313.931C252.37 313.931 253.027 314.67 254.599 317.044C256.25 319.538 258.746 323.306 263.738 323.306C268.73 323.306 271.225 319.538 272.876 317.044C274.447 314.671 275.104 313.931 276.15 313.931C277.197 313.931 277.854 314.67 279.425 317.044C281.076 319.538 283.571 323.306 288.563 323.306C290.505 323.306 292.079 321.733 292.079 319.791C292.079 317.849 290.505 316.275 288.563 316.275Z" fill="black"/>
<path d="M154.799 213.759V286.78C154.799 291.333 158.503 295.037 163.057 295.037H197.653C199.595 295.037 201.168 293.464 201.168 291.522C201.168 289.58 199.595 288.006 197.653 288.006H163.057C162.381 288.006 161.83 287.456 161.83 286.78V268.576H250.663V288.006H211.709C209.767 288.006 208.193 289.58 208.193 291.522C208.193 293.464 209.767 295.037 211.709 295.037H283.503C288.056 295.037 291.76 291.333 291.76 286.78V213.759C291.76 209.206 288.056 205.501 283.503 205.501H163.057C158.504 205.501 154.799 209.206 154.799 213.759ZM163.057 212.533H250.663V231.964H161.83V213.759C161.83 213.083 162.381 212.533 163.057 212.533ZM161.83 261.545V238.996H250.663V261.545H161.83ZM284.73 261.545H257.694V238.996H284.73V261.545ZM283.503 288.007H257.694V268.576H284.73V286.78C284.73 287.456 284.179 288.007 283.503 288.007ZM284.73 213.759V231.964H257.694V212.533H283.503C284.179 212.533 284.73 213.083 284.73 213.759Z" fill="black"/>
<path fill-rule="evenodd" clip-rule="evenodd" d="M146.153 110.05C136.486 110.05 128.65 117.886 128.65 127.553V332.655C128.65 342.322 136.487 350.158 146.153 350.158H300.608C310.274 350.158 318.111 342.322 318.111 332.655V127.553C318.111 117.886 310.274 110.05 300.608 110.05H146.153ZM148.968 122.913C143.667 122.913 139.369 127.21 139.369 132.511V327.697C139.369 332.998 143.667 337.296 148.968 337.296H296.989C302.29 337.296 306.588 332.998 306.588 327.697V132.511C306.588 127.21 302.29 122.913 296.989 122.913H148.968Z" fill="black"/>
<path d="M170.318 159.127C170.318 159.409 170.263 159.594 170.155 159.681C170.068 159.768 169.861 159.812 169.535 159.812H166.111C165.829 159.812 165.633 159.768 165.525 159.681C165.416 159.572 165.361 159.388 165.361 159.127V149.997H156.525V159.127C156.525 159.409 156.471 159.594 156.362 159.681C156.275 159.768 156.068 159.812 155.742 159.812H152.286C152.025 159.812 151.83 159.768 151.699 159.681C151.59 159.572 151.536 159.388 151.536 159.127V137.671C151.536 137.411 151.59 137.237 151.699 137.15C151.83 137.041 152.025 136.987 152.286 136.987H155.742C156.068 136.987 156.275 137.03 156.362 137.117C156.471 137.204 156.525 137.389 156.525 137.671V145.791H165.361V137.671C165.361 137.411 165.416 137.237 165.525 137.15C165.633 137.041 165.829 136.987 166.111 136.987H169.535C169.861 136.987 170.068 137.03 170.155 137.117C170.263 137.204 170.318 137.389 170.318 137.671V159.127Z" fill="black"/>
<path d="M194.759 148.334C194.759 150.203 194.553 151.866 194.14 153.323C193.749 154.779 193.129 156.018 192.281 157.04C191.434 158.062 190.368 158.844 189.086 159.388C187.803 159.909 186.282 160.17 184.521 160.17C181.151 160.17 178.641 159.149 176.989 157.105C175.358 155.062 174.543 152.171 174.543 148.432C174.543 146.606 174.771 144.964 175.228 143.508C175.706 142.03 176.38 140.791 177.25 139.791C178.119 138.769 179.173 137.987 180.412 137.443C181.651 136.9 183.054 136.628 184.619 136.628C186.314 136.628 187.792 136.9 189.053 137.443C190.336 137.987 191.39 138.769 192.216 139.791C193.064 140.791 193.694 142.019 194.107 143.475C194.542 144.91 194.759 146.53 194.759 148.334ZM189.575 148.432C189.575 147.453 189.499 146.519 189.347 145.627C189.216 144.736 188.966 143.954 188.597 143.28C188.227 142.606 187.727 142.073 187.097 141.682C186.466 141.269 185.651 141.063 184.651 141.063C183.825 141.063 183.097 141.258 182.467 141.649C181.858 142.019 181.347 142.53 180.934 143.182C180.521 143.834 180.217 144.595 180.021 145.464C179.825 146.334 179.728 147.258 179.728 148.236C179.728 149.388 179.804 150.421 179.956 151.334C180.13 152.247 180.402 153.029 180.771 153.681C181.162 154.334 181.673 154.834 182.304 155.181C182.934 155.529 183.727 155.703 184.684 155.703C185.619 155.703 186.401 155.507 187.032 155.116C187.662 154.703 188.162 154.171 188.532 153.518C188.901 152.845 189.162 152.073 189.314 151.203C189.488 150.312 189.575 149.388 189.575 148.432ZM188.01 129.096C188.14 128.987 188.26 128.911 188.368 128.868C188.477 128.824 188.618 128.889 188.792 129.063L191.042 131.639C191.173 131.77 191.227 131.9 191.205 132.03C191.184 132.139 191.107 132.215 190.977 132.259L184.684 135.487C184.467 135.595 184.303 135.639 184.195 135.617C184.108 135.574 184.01 135.498 183.901 135.389L182.662 133.889C182.554 133.759 182.488 133.65 182.467 133.563C182.467 133.476 182.554 133.356 182.727 133.204L188.01 129.096Z" fill="black"/>
<path d="M210.948 155.051H203.481L202.209 159.192C202.144 159.409 202.046 159.572 201.916 159.681C201.807 159.768 201.6 159.812 201.296 159.812H197.481C197.242 159.812 197.09 159.746 197.025 159.616C196.981 159.485 196.981 159.333 197.025 159.159L203.807 138.715C203.916 138.345 204.035 138.052 204.166 137.834C204.318 137.595 204.481 137.411 204.655 137.28C204.85 137.15 205.068 137.063 205.307 137.019C205.568 136.954 205.861 136.921 206.187 136.921H208.144C208.513 136.921 208.828 136.943 209.089 136.987C209.35 137.008 209.578 137.084 209.774 137.215C209.97 137.345 210.133 137.53 210.263 137.769C210.415 138.008 210.556 138.324 210.687 138.715L217.469 159.159C217.513 159.29 217.513 159.431 217.469 159.583C217.426 159.735 217.284 159.812 217.045 159.812H213.165C212.926 159.812 212.719 159.79 212.545 159.746C212.393 159.681 212.285 159.529 212.219 159.29L210.948 155.051ZM204.655 151.008H209.774L208.535 146.867L207.328 142.204H207.133L205.894 146.867L204.655 151.008Z" fill="black"/>
<path d="M231.698 159.812C230.916 159.812 230.394 159.659 230.133 159.355C229.872 159.029 229.742 158.518 229.742 157.822V149.54H228.209C227.97 149.54 227.818 149.497 227.753 149.41C227.688 149.301 227.655 149.127 227.655 148.888V147.519C227.655 147.214 227.688 147.019 227.753 146.932C227.818 146.845 227.97 146.801 228.209 146.801H229.742V138.976C229.742 138.28 229.872 137.769 230.133 137.443C230.394 137.117 230.916 136.954 231.698 136.954H237.796C239.709 136.954 241.328 137.258 242.654 137.867C243.98 138.476 245.056 139.291 245.882 140.313C246.708 141.334 247.306 142.541 247.676 143.932C248.045 145.301 248.23 146.747 248.23 148.269C248.23 149.769 248.067 151.214 247.741 152.605C247.415 153.997 246.86 155.225 246.078 156.29C245.295 157.355 244.252 158.214 242.948 158.866C241.665 159.496 240.067 159.812 238.154 159.812H231.698ZM243.111 148.269C243.111 147.269 243.024 146.345 242.85 145.497C242.676 144.649 242.361 143.921 241.904 143.312C241.469 142.682 240.872 142.193 240.111 141.845C239.35 141.476 238.394 141.291 237.241 141.291H234.731V146.801H238.611C238.85 146.801 239.002 146.845 239.067 146.932C239.133 147.019 239.165 147.214 239.165 147.519V148.888C239.165 149.127 239.133 149.301 239.067 149.41C239.002 149.497 238.85 149.54 238.611 149.54H234.731V155.442H237.339C238.47 155.442 239.404 155.268 240.143 154.92C240.904 154.551 241.502 154.051 241.937 153.421C242.372 152.79 242.676 152.04 242.85 151.171C243.024 150.279 243.111 149.312 243.111 148.269Z" fill="black"/>
<path d="M266.466 138.258C266.922 138.041 267.292 137.845 267.575 137.671C267.879 137.476 268.118 137.28 268.292 137.084C268.488 136.867 268.618 136.617 268.683 136.335C268.748 136.052 268.781 135.704 268.781 135.291C268.781 134.726 268.868 134.313 269.042 134.052C269.216 133.791 269.531 133.682 269.987 133.726H270.574C271.335 133.726 271.737 134.204 271.781 135.161C271.781 136.269 271.607 137.171 271.259 137.867C270.933 138.541 270.52 139.095 270.02 139.53H270.053C269.987 139.595 269.868 139.693 269.694 139.823C269.542 139.954 269.379 140.073 269.205 140.182L266.466 138.258ZM272.042 148.334C272.042 150.203 271.835 151.866 271.422 153.323C271.031 154.779 270.411 156.018 269.564 157.04C268.716 158.062 267.651 158.844 266.368 159.388C265.086 159.909 263.564 160.17 261.803 160.17C258.434 160.17 255.923 159.149 254.271 157.105C252.641 155.062 251.825 152.171 251.825 148.432C251.825 146.606 252.054 144.964 252.51 143.508C252.988 142.03 253.662 140.791 254.532 139.791C255.401 138.769 256.456 137.987 257.695 137.443C258.934 136.9 260.336 136.628 261.901 136.628C263.596 136.628 265.075 136.9 266.335 137.443C267.618 137.987 268.672 138.769 269.498 139.791C270.346 140.791 270.977 142.019 271.39 143.475C271.824 144.91 272.042 146.53 272.042 148.334ZM266.857 148.432C266.857 147.453 266.781 146.519 266.629 145.627C266.498 144.736 266.249 143.954 265.879 143.28C265.509 142.606 265.009 142.073 264.379 141.682C263.749 141.269 262.933 141.063 261.934 141.063C261.107 141.063 260.379 141.258 259.749 141.649C259.14 142.019 258.629 142.53 258.216 143.182C257.803 143.834 257.499 144.595 257.303 145.464C257.108 146.334 257.01 147.258 257.01 148.236C257.01 149.388 257.086 150.421 257.238 151.334C257.412 152.247 257.684 153.029 258.053 153.681C258.445 154.334 258.955 154.834 259.586 155.181C260.216 155.529 261.01 155.703 261.966 155.703C262.901 155.703 263.683 155.507 264.314 155.116C264.944 154.703 265.444 154.171 265.814 153.518C266.183 152.845 266.444 152.073 266.596 151.203C266.77 150.312 266.857 149.388 266.857 148.432Z" fill="black"/>
<path d="M281.22 145.627V159.127C281.22 159.409 281.165 159.594 281.056 159.681C280.97 159.768 280.774 159.812 280.47 159.812H277.046C276.785 159.812 276.589 159.768 276.459 159.681C276.35 159.572 276.296 159.388 276.296 159.127V139.237C276.296 138.389 276.448 137.802 276.752 137.476C277.057 137.128 277.611 136.954 278.415 136.954H279.785C280.111 136.954 280.383 136.976 280.6 137.019C280.839 137.041 281.046 137.106 281.22 137.215C281.393 137.324 281.556 137.476 281.709 137.671C281.861 137.867 282.035 138.117 282.23 138.421L287.773 146.867L290.578 151.268H290.741V137.639C290.741 137.378 290.784 137.204 290.871 137.117C290.98 137.008 291.186 136.954 291.491 136.954H294.914C295.414 136.954 295.664 137.182 295.664 137.639V157.562C295.664 158.257 295.523 158.812 295.24 159.225C294.958 159.616 294.393 159.812 293.545 159.812H292.175C291.849 159.812 291.567 159.801 291.328 159.779C291.11 159.735 290.915 159.659 290.741 159.551C290.567 159.442 290.404 159.301 290.252 159.127C290.099 158.931 289.926 158.681 289.73 158.377L284.513 150.486L281.383 145.627H281.22Z" fill="black"/>
</svg>
