<svg width="295" height="385" viewBox="0 0 295 385" fill="none" xmlns="http://www.w3.org/2000/svg">
<path d="M84.9341 332V306.946H89.9927V318.072L100.212 306.946H107.014L97.5806 316.705L107.527 332H100.981L94.0942 320.242L89.9927 324.429V332H84.9341ZM110.176 332V306.946H115.234V316.807H125.146V306.946H130.205V332H125.146V321.045H115.234V332H110.176ZM134.426 319.627C134.426 317.075 134.808 314.933 135.571 313.201C136.141 311.925 136.916 310.78 137.896 309.766C138.887 308.752 139.969 308 141.143 307.51C142.703 306.849 144.504 306.519 146.543 306.519C150.234 306.519 153.185 307.664 155.396 309.954C157.617 312.244 158.728 315.429 158.728 319.507C158.728 323.552 157.629 326.719 155.43 329.009C153.231 331.288 150.291 332.427 146.611 332.427C142.886 332.427 139.924 331.294 137.725 329.026C135.526 326.748 134.426 323.615 134.426 319.627ZM139.639 319.456C139.639 322.293 140.294 324.446 141.604 325.916C142.914 327.374 144.578 328.104 146.594 328.104C148.611 328.104 150.263 327.38 151.55 325.933C152.849 324.475 153.499 322.293 153.499 319.388C153.499 316.517 152.866 314.375 151.602 312.962C150.348 311.549 148.679 310.843 146.594 310.843C144.509 310.843 142.829 311.561 141.553 312.996C140.277 314.42 139.639 316.574 139.639 319.456ZM140.596 305.511L144.185 300.469H148.628L152.166 305.511H148.303L146.321 302.964L144.475 305.511H140.596ZM162.744 332V306.946H167.666L177.92 323.677V306.946H182.62V332H177.544L167.444 315.662V332H162.744ZM199.641 322.789V318.567H210.544V328.548C209.485 329.573 207.947 330.479 205.93 331.265C203.925 332.04 201.891 332.427 199.829 332.427C197.209 332.427 194.924 331.88 192.976 330.787C191.028 329.681 189.564 328.109 188.584 326.07C187.604 324.019 187.114 321.792 187.114 319.388C187.114 316.779 187.661 314.46 188.755 312.432C189.849 310.404 191.449 308.849 193.557 307.767C195.164 306.935 197.163 306.519 199.556 306.519C202.666 306.519 205.093 307.174 206.836 308.484C208.59 309.783 209.718 311.583 210.22 313.885L205.195 314.825C204.842 313.594 204.176 312.626 203.196 311.919C202.227 311.202 201.014 310.843 199.556 310.843C197.345 310.843 195.585 311.543 194.275 312.945C192.976 314.346 192.327 316.425 192.327 319.183C192.327 322.156 192.987 324.389 194.309 325.882C195.631 327.363 197.362 328.104 199.504 328.104C200.564 328.104 201.624 327.898 202.683 327.488C203.754 327.067 204.671 326.56 205.435 325.967V322.789H199.641ZM70.271 346.946H79.5166C81.6016 346.946 83.1909 347.106 84.2847 347.425C85.7544 347.858 87.0133 348.627 88.0615 349.732C89.1097 350.837 89.9072 352.193 90.4541 353.799C91.001 355.394 91.2744 357.365 91.2744 359.712C91.2744 361.775 91.0181 363.552 90.5054 365.044C89.8787 366.867 88.9844 368.343 87.8223 369.471C86.945 370.325 85.7601 370.992 84.2676 371.47C83.151 371.823 81.6585 372 79.79 372H70.271V346.946ZM75.3296 351.185V367.779H79.1064C80.5192 367.779 81.5389 367.699 82.1655 367.54C82.9858 367.334 83.6637 366.987 84.1992 366.497C84.7461 366.007 85.1904 365.204 85.5322 364.087C85.874 362.959 86.0449 361.427 86.0449 359.49C86.0449 357.553 85.874 356.067 85.5322 355.03C85.1904 353.993 84.7119 353.184 84.0967 352.603C83.4814 352.022 82.701 351.629 81.7554 351.424C81.049 351.264 79.6647 351.185 77.6025 351.185H75.3296ZM118.174 372H112.671L110.483 366.309H100.469L98.4009 372H93.0347L102.793 346.946H108.142L118.174 372ZM108.86 362.088L105.408 352.791L102.024 362.088H108.86ZM105.391 344.827L103.511 346.092H100.144L103.87 343.87H106.912L110.637 346.092H107.271L105.391 344.827ZM99.6826 343.289C99.6712 342.526 99.9845 341.859 100.623 341.29C101.272 340.708 102.115 340.418 103.152 340.418C103.858 340.418 104.821 340.669 106.04 341.17C106.917 341.443 107.555 341.58 107.954 341.58C108.649 341.58 109.065 341.181 109.202 340.384H111.116C111.047 342.286 109.931 343.238 107.766 343.238C107.048 343.238 106.103 342.987 104.929 342.486C103.927 342.155 103.249 341.99 102.896 341.99C102.166 341.99 101.733 342.423 101.597 343.289H99.6826ZM120.806 372V346.946H128.376L132.922 364.036L137.417 346.946H145.005V372H140.305V352.278L135.332 372H130.461L125.505 352.278V372H120.806ZM159.907 372V347.151H164.966V367.779H177.544V372H159.907ZM181.167 372V346.946H199.744V351.185H186.226V356.739H198.804V360.96H186.226V367.779H200.222V372H181.167ZM184.38 345.511L187.969 340.469H192.412L195.95 345.511H192.087L190.105 342.964L188.259 345.511H184.38ZM204.563 372V346.946H209.485L219.739 363.677V346.946H224.438V372H219.363L209.263 355.662V372H204.563Z" fill="black"/>
<path fill-rule="evenodd" clip-rule="evenodd" d="M106.058 64.3436C104.012 65.1611 100.151 65.8897 97.8951 66.6089C82.9293 71.3752 73.3226 82.4015 78.466 98.8285C79.7024 102.777 83.1543 110.256 84.8944 114.045C91.122 127.595 87.5287 136.868 90.3691 151.202C92.8243 163.588 100.313 171.8 115.352 169.574C126.476 167.927 133.831 156.102 129.669 143.339C126.072 132.31 109.991 111.68 125.292 95.8696C127.618 93.4669 128.337 92.8837 129.701 89.4925C134.632 77.2433 131.848 64.4823 116.287 63.8856C114.078 63.8008 107.774 63.658 106.058 64.3449V64.3436Z" fill="#18110B"/>
<path fill-rule="evenodd" clip-rule="evenodd" d="M172.392 132.566C166.274 135.103 164.15 138.008 162.944 145.884C161.238 157.041 165.19 159.644 167.009 163.777C172.443 176.122 164.808 188.641 158.095 196.256C151.67 203.541 142.43 215.205 148.772 227.147C153.765 236.55 169.237 241.098 179.365 232.508C188.791 224.513 189.825 211.694 193.223 201.285C197.062 189.527 204.549 183.165 210.632 173.729C217.641 162.86 216.002 151.205 205.738 142.893C198.448 136.987 182.555 128.354 172.392 132.566Z" fill="#18110B"/>
<path fill-rule="evenodd" clip-rule="evenodd" d="M114.76 43.7016C113.426 44.5542 112.582 46.1461 112.263 47.5899C111.786 49.7488 112.17 52.3239 112.823 53.7313C114.668 57.7165 118.484 58.4842 121.596 56.9906C129.061 53.4094 121.253 39.5508 114.76 43.7016Z" fill="#18110B"/>
<path fill-rule="evenodd" clip-rule="evenodd" d="M182.993 111.277C173.629 115.804 175.196 126.829 183.796 125.339C189.074 124.424 191.487 115.246 188.036 112.245C186.982 111.33 184.779 110.414 182.994 111.277H182.993Z" fill="#18110B"/>
<path fill-rule="evenodd" clip-rule="evenodd" d="M194.648 116.909C189.955 119.717 189.675 128.081 196.458 126.307C198.657 125.732 199.565 122.893 199.339 120.182C199.124 117.628 197.019 115.489 194.648 116.909Z" fill="#18110B"/>
<path fill-rule="evenodd" clip-rule="evenodd" d="M103.915 46.5173C100.042 48.8513 100.713 58.1053 107.24 55.8722C109.494 55.1019 109.821 52.1133 109.069 49.5099C108.263 46.7126 106.151 45.1705 103.914 46.5187L103.915 46.5173Z" fill="#18110B"/>
<path fill-rule="evenodd" clip-rule="evenodd" d="M205.381 122.661C203.324 122.53 201.193 122.351 199.64 125.634C198.457 128.14 198.547 131.538 201.405 132.203C206.039 133.282 207.383 127.38 207.06 125.492C206.823 124.109 206.098 123.719 205.381 122.661Z" fill="#18110B"/>
<path fill-rule="evenodd" clip-rule="evenodd" d="M100.387 58.7909C101.235 48.0865 94.5954 49.6367 93.6068 51.9195C92.6788 54.0636 92.2923 60.8879 97.4856 60.2212C99.2822 59.9896 99.0533 59.4145 100.387 58.7909Z" fill="#18110B"/>
<path fill-rule="evenodd" clip-rule="evenodd" d="M86.8686 58.2639C82.7487 62.5279 87.0828 69.9299 91.8531 66.175C93.9043 64.5589 93.3306 58.6235 90.4255 57.7413C89.2484 57.3844 87.6672 57.4383 86.8686 58.2653V58.2639Z" fill="#18110B"/>
<path fill-rule="evenodd" clip-rule="evenodd" d="M207.485 131.692C205.605 132.894 204.557 135.134 204.58 137.096C204.635 141.72 213.931 142.011 212.521 133.821C212.207 131.995 211.039 130.69 209.198 130.876C206.537 131.144 207.991 131.367 207.485 131.692Z" fill="#18110B"/>
<path fill-rule="evenodd" clip-rule="evenodd" d="M78.9283 66.2119C75.2286 69.8577 78.2172 76.9783 82.8583 74.0759C86.8085 71.6058 82.2294 62.9593 78.9283 66.2119Z" fill="#18110B"/>
<path fill-rule="evenodd" clip-rule="evenodd" d="M211.741 148.253C213.313 149.298 215.234 150.276 216.964 148.66C218.295 147.418 219.002 144.695 218.221 142.595C216.524 138.031 210.693 141.336 211.741 148.253Z" fill="#18110B"/>
<path d="M236.742 236.555L236.747 236.561L236.753 236.566C237.591 237.374 238.733 237.816 239.874 237.816C240.821 237.816 241.672 237.538 242.492 236.923C244.218 235.628 244.478 233.238 242.917 231.704C242.916 231.703 242.915 231.702 242.913 231.701L57.3919 45.2637L57.392 45.2637L57.3851 45.257C55.9054 43.8074 53.3237 43.6343 51.642 44.8955C49.9153 46.1906 49.6555 48.5813 51.2168 50.1148C51.218 50.116 51.2192 50.1172 51.2204 50.1183L236.742 236.555Z" fill="#2B2B2B" stroke="white" stroke-width="1.5"/>
<path d="M148 280C70.7998 280 8 217.2 8 140C8 62.8086 70.7998 0 148 0C225.191 0 288 62.7999 288 140C288 217.192 225.2 280 148 280ZM148 11.2638C77.0209 11.2638 19.2724 69.0123 19.2724 139.991C19.2724 210.97 77.0209 268.728 148 268.728C218.979 268.728 276.728 210.979 276.728 139.991C276.728 69.0036 218.988 11.2638 148 11.2638Z" fill="#2B2B2B"/>
</svg>
