<svg width="315" height="444" viewBox="0 0 315 444" fill="none" xmlns="http://www.w3.org/2000/svg">
<rect width="315" height="444" fill="white"/>
<path d="M95.4341 364V338.946H100.493V350.072L110.712 338.946H117.514L108.081 348.705L118.027 364H111.481L104.594 352.242L100.493 356.429V364H95.4341ZM120.676 364V338.946H125.734V348.807H135.646V338.946H140.705V364H135.646V353.045H125.734V364H120.676ZM144.926 351.627C144.926 349.075 145.308 346.933 146.071 345.201C146.641 343.925 147.416 342.78 148.396 341.766C149.387 340.752 150.469 340 151.643 339.51C153.203 338.849 155.004 338.519 157.043 338.519C160.734 338.519 163.685 339.664 165.896 341.954C168.117 344.244 169.228 347.429 169.228 351.507C169.228 355.552 168.129 358.719 165.93 361.009C163.731 363.288 160.791 364.427 157.111 364.427C153.386 364.427 150.424 363.294 148.225 361.026C146.026 358.748 144.926 355.615 144.926 351.627ZM150.139 351.456C150.139 354.293 150.794 356.446 152.104 357.916C153.414 359.374 155.078 360.104 157.094 360.104C159.111 360.104 160.763 359.38 162.05 357.933C163.349 356.475 163.999 354.293 163.999 351.388C163.999 348.517 163.366 346.375 162.102 344.962C160.848 343.549 159.179 342.843 157.094 342.843C155.009 342.843 153.329 343.561 152.053 344.996C150.777 346.42 150.139 348.574 150.139 351.456ZM151.096 337.511L154.685 332.469H159.128L162.666 337.511H158.803L156.821 334.964L154.975 337.511H151.096ZM173.244 364V338.946H178.166L188.42 355.677V338.946H193.12V364H188.044L177.944 347.662V364H173.244ZM210.141 354.789V350.567H221.044V360.548C219.985 361.573 218.447 362.479 216.43 363.265C214.425 364.04 212.391 364.427 210.329 364.427C207.709 364.427 205.424 363.88 203.476 362.787C201.528 361.681 200.064 360.109 199.084 358.07C198.104 356.019 197.614 353.792 197.614 351.388C197.614 348.779 198.161 346.46 199.255 344.432C200.349 342.404 201.949 340.849 204.057 339.767C205.664 338.935 207.663 338.519 210.056 338.519C213.166 338.519 215.593 339.174 217.336 340.484C219.09 341.783 220.218 343.583 220.72 345.885L215.695 346.825C215.342 345.594 214.676 344.626 213.696 343.919C212.727 343.202 211.514 342.843 210.056 342.843C207.845 342.843 206.085 343.543 204.775 344.945C203.476 346.346 202.827 348.425 202.827 351.183C202.827 354.156 203.487 356.389 204.809 357.882C206.131 359.363 207.862 360.104 210.004 360.104C211.064 360.104 212.124 359.898 213.183 359.488C214.254 359.067 215.171 358.56 215.935 357.967V354.789H210.141ZM53.2563 404L61.8184 390.926L54.0596 378.946H59.9727L64.9971 386.996L69.9189 378.946H75.7808L67.9878 391.114L76.5498 404H70.4487L64.8945 395.335L59.3232 404H53.2563ZM79.1475 404V378.946H97.7241V383.185H84.2061V388.739H96.7842V392.96H84.2061V399.779H98.2026V404H79.1475ZM88.957 376.827L87.0771 378.092H83.7104L87.436 375.87H90.478L94.2036 378.092H90.8369L88.957 376.827ZM86.8892 375.289L88.957 372.503H94.3403L89.9312 375.289H86.8892ZM102.492 404V378.946H110.61C113.686 378.946 115.691 379.072 116.625 379.322C118.061 379.698 119.263 380.519 120.231 381.783C121.2 383.036 121.684 384.66 121.684 386.654C121.684 388.192 121.405 389.485 120.847 390.533C120.288 391.581 119.576 392.407 118.71 393.011C117.856 393.604 116.984 393.997 116.096 394.19C114.888 394.43 113.139 394.549 110.849 394.549H107.551V404H102.492ZM107.551 383.185V390.294H110.319C112.313 390.294 113.646 390.163 114.318 389.901C114.991 389.639 115.515 389.229 115.891 388.67C116.278 388.112 116.472 387.463 116.472 386.722C116.472 385.811 116.204 385.059 115.668 384.466C115.133 383.874 114.455 383.504 113.635 383.355C113.031 383.242 111.818 383.185 109.995 383.185H107.551ZM150.959 394.789L155.864 396.344C155.112 399.078 153.859 401.112 152.104 402.445C150.361 403.766 148.145 404.427 145.456 404.427C142.129 404.427 139.395 403.294 137.253 401.026C135.111 398.748 134.04 395.637 134.04 391.695C134.04 387.525 135.117 384.29 137.27 381.988C139.423 379.675 142.255 378.519 145.764 378.519C148.828 378.519 151.318 379.425 153.232 381.236C154.371 382.307 155.226 383.845 155.795 385.851L150.788 387.047C150.492 385.748 149.871 384.723 148.925 383.971C147.991 383.219 146.852 382.843 145.507 382.843C143.65 382.843 142.141 383.509 140.979 384.842C139.828 386.175 139.252 388.334 139.252 391.319C139.252 394.487 139.822 396.743 140.961 398.087C142.101 399.431 143.582 400.104 145.405 400.104C146.749 400.104 147.906 399.676 148.874 398.822C149.842 397.967 150.537 396.623 150.959 394.789ZM160.239 404V378.946H165.297V388.807H175.209V378.946H180.268V404H175.209V393.045H165.297V404H160.239ZM184.489 391.627C184.489 389.075 184.871 386.933 185.634 385.201C186.204 383.925 186.979 382.78 187.958 381.766C188.95 380.752 190.032 380 191.206 379.51C192.766 378.849 194.567 378.519 196.606 378.519C200.297 378.519 203.248 379.664 205.458 381.954C207.68 384.244 208.791 387.429 208.791 391.507C208.791 395.552 207.692 398.719 205.493 401.009C203.294 403.288 200.354 404.427 196.674 404.427C192.949 404.427 189.986 403.294 187.788 401.026C185.589 398.748 184.489 395.615 184.489 391.627ZM189.702 391.456C189.702 394.293 190.357 396.446 191.667 397.916C192.977 399.374 194.641 400.104 196.657 400.104C198.674 400.104 200.326 399.38 201.613 397.933C202.912 396.475 203.562 394.293 203.562 391.388C203.562 388.517 202.929 386.375 201.665 384.962C200.411 383.549 198.742 382.843 196.657 382.843C194.572 382.843 192.892 383.561 191.616 384.996C190.34 386.42 189.702 388.574 189.702 391.456ZM196.572 376.827L194.692 378.092H191.325L195.051 375.87H198.093L201.818 378.092H198.452L196.572 376.827ZM198.588 375.289H195.563L191.188 372.503H196.572L198.588 375.289ZM212.807 404V378.946H217.729L227.983 395.677V378.946H232.683V404H227.607L217.507 387.662V404H212.807ZM249.704 394.789V390.567H260.607V400.548C259.548 401.573 258.01 402.479 255.993 403.265C253.988 404.04 251.954 404.427 249.892 404.427C247.272 404.427 244.987 403.88 243.039 402.787C241.091 401.681 239.627 400.109 238.647 398.07C237.667 396.019 237.177 393.792 237.177 391.388C237.177 388.779 237.724 386.46 238.818 384.432C239.912 382.404 241.512 380.849 243.62 379.767C245.227 378.935 247.226 378.519 249.619 378.519C252.729 378.519 255.156 379.174 256.899 380.484C258.653 381.783 259.781 383.583 260.283 385.885L255.258 386.825C254.905 385.594 254.239 384.626 253.259 383.919C252.29 383.202 251.077 382.843 249.619 382.843C247.408 382.843 245.648 383.543 244.338 384.945C243.039 386.346 242.39 388.425 242.39 391.183C242.39 394.156 243.05 396.389 244.372 397.882C245.694 399.363 247.425 400.104 249.567 400.104C250.627 400.104 251.687 399.898 252.746 399.488C253.817 399.067 254.734 398.56 255.498 397.967V394.789H249.704Z" fill="black"/>
<path d="M157.91 210.149L113.416 193.623C113.341 193.623 113.192 193.623 113.117 193.697C113.042 193.772 112.967 193.847 112.967 193.996V257.26C112.967 257.409 113.042 257.484 113.192 257.559L157.685 274.085C157.76 274.085 157.76 274.085 157.835 274.085C157.91 274.085 157.984 274.085 158.059 274.01C158.134 273.936 158.209 273.861 158.209 273.711V210.448C158.134 210.298 158.059 210.224 157.91 210.149Z" fill="#353331"/>
<path d="M207.04 193.623C206.965 193.548 206.816 193.548 206.741 193.548L162.247 210.074C162.098 210.149 162.023 210.224 162.023 210.373V273.637C162.023 273.711 162.098 273.861 162.172 273.936C162.247 274.01 162.322 274.01 162.397 274.01C162.472 274.01 162.472 274.01 162.546 274.01L207.04 257.484C207.19 257.409 207.264 257.335 207.264 257.185V193.922C207.19 193.772 207.115 193.697 207.04 193.623Z" fill="#353331"/>
<path d="M204.872 190.258C204.872 190.108 204.797 189.959 204.647 189.959L159.854 175.078C159.78 175.078 159.705 175.078 159.63 175.078L114.239 189.136C114.089 189.211 114.015 189.286 114.015 189.435C114.015 189.585 114.089 189.734 114.239 189.734L159.854 206.784C159.854 206.784 159.929 206.784 160.004 206.784C160.079 206.784 160.079 206.784 160.154 206.784L204.722 190.557C204.722 190.482 204.872 190.407 204.872 190.258Z" fill="#353331"/>
<path d="M157.91 105.458L113.416 88.9316C113.341 88.9316 113.192 88.9317 113.117 89.0064C113.042 89.0812 112.967 89.156 112.967 89.3056V152.569C112.967 152.718 113.042 152.793 113.192 152.868L157.685 169.394C157.76 169.394 157.76 169.394 157.835 169.394C157.91 169.394 157.984 169.394 158.059 169.319C158.134 169.245 158.209 169.17 158.209 169.02V105.757C158.134 105.607 158.059 105.533 157.91 105.458Z" fill="#353331"/>
<path d="M207.04 88.9317C206.965 88.8569 206.816 88.8569 206.741 88.8569L162.247 105.383C162.098 105.458 162.023 105.533 162.023 105.682V168.946C162.023 169.02 162.098 169.17 162.172 169.245C162.247 169.32 162.322 169.32 162.397 169.32C162.472 169.32 162.472 169.32 162.546 169.32L207.04 152.793C207.19 152.719 207.264 152.644 207.264 152.494V89.2309C207.19 89.0813 207.115 89.0065 207.04 88.9317Z" fill="#353331"/>
<path d="M204.872 85.5669C204.872 85.4174 204.797 85.2678 204.647 85.2678L159.854 70.3867C159.78 70.3867 159.705 70.3867 159.63 70.3867L114.239 84.4452C114.089 84.52 114.015 84.5948 114.015 84.7444C114.015 84.8939 114.089 85.0435 114.239 85.0435L159.854 102.093C159.854 102.093 159.929 102.093 160.004 102.093C160.079 102.093 160.079 102.093 160.154 102.093L204.722 85.8661C204.722 85.7913 204.872 85.7165 204.872 85.5669Z" fill="#353331"/>
<path d="M76.3804 104.285L76.3804 104.285L76.3791 104.284C75.4108 103.335 75.5421 101.853 76.6608 101.014C77.7886 100.168 79.5597 100.29 80.5452 101.254C80.5454 101.255 80.5456 101.255 80.5459 101.255L239.293 260.786L239.295 260.787C240.263 261.736 240.132 263.218 239.013 264.057C238.445 264.483 237.883 264.663 237.248 264.663C236.471 264.663 235.693 264.36 235.128 263.816C235.128 263.815 235.127 263.815 235.127 263.815L76.3804 104.285Z" fill="#353331" stroke="white" stroke-width="0.3"/>
<path d="M78.4254 264.659C77.7849 264.659 77.1498 264.476 76.6601 264.116C76.0984 263.695 75.7889 263.128 75.7373 262.546C75.6858 261.965 75.8907 261.356 76.3815 260.844C76.3817 260.844 76.382 260.844 76.3823 260.843L235.128 101.315C235.128 101.314 235.128 101.314 235.129 101.314C236.112 100.351 237.81 100.225 239.015 101.075C239.576 101.496 239.885 102.062 239.936 102.643C239.988 103.225 239.783 103.834 239.292 104.346C239.292 104.346 239.292 104.346 239.292 104.346L80.5488 263.872C79.9819 264.356 79.2023 264.659 78.4254 264.659Z" fill="#353331" stroke="white" stroke-width="0.3"/>
<path d="M158 312C80.7998 312 18 249.2 18 172C18 94.8086 80.7998 32 158 32C235.191 32 298 94.7999 298 172C298 249.192 235.2 312 158 312ZM158 43.2638C87.0209 43.2638 29.2724 101.012 29.2724 171.991C29.2724 242.97 87.0209 300.728 158 300.728C228.979 300.728 286.728 242.979 286.728 171.991C286.728 101.004 228.988 43.2638 158 43.2638Z" fill="#2B2B2B"/>
</svg>
