<svg width="295" height="385" viewBox="0 0 295 385" fill="none" xmlns="http://www.w3.org/2000/svg">
<path d="M15.7886 306.946H25.0171C27.1362 306.946 28.7427 307.111 29.8364 307.442C31.3175 307.886 32.5822 308.672 33.6304 309.8C34.6785 310.917 35.4647 312.273 35.9888 313.868C36.5243 315.463 36.792 317.434 36.792 319.781C36.792 321.843 36.4958 323.706 35.9033 325.369C35.3223 327.021 34.4621 328.4 33.3228 329.505C32.4455 330.337 31.2663 330.992 29.7852 331.47C28.6686 331.823 27.1704 332 25.2905 332H15.7886V321.062H13.1909V317.884H15.7886V306.946ZM20.8301 311.185V317.884H26.1963V321.062H20.8301V327.779H24.624C26.2988 327.779 27.5065 327.642 28.2471 327.369C29.2269 327.027 29.9731 326.4 30.4858 325.489C31.2036 324.201 31.5625 322.236 31.5625 319.593C31.5625 317.713 31.4087 316.266 31.1011 315.252C30.8049 314.227 30.3605 313.401 29.7681 312.774C29.187 312.147 28.4237 311.709 27.478 311.458C26.7489 311.276 25.2962 311.185 23.1201 311.185H20.8301ZM41.0815 332V306.946H59.6582V311.185H46.1401V316.739H58.7183V320.96H46.1401V327.779H60.1367V332H41.0815ZM50.8911 304.827L49.0112 306.092H45.6445L49.3701 303.87H52.4121L56.1377 306.092H52.771L50.8911 304.827ZM50.1904 302.537C50.6348 302.514 50.9595 302.48 51.1646 302.435C51.7228 302.309 52.0076 302.15 52.019 301.956C52.0304 301.808 51.8823 301.683 51.5747 301.58C51.1304 301.432 50.4297 301.358 49.4727 301.358C49.3815 301.358 49.1707 301.381 48.8403 301.426C48.5099 301.46 48.2308 301.483 48.0029 301.495L47.8149 300.384C48.2251 300.327 48.9884 300.304 50.105 300.315C53.09 300.327 54.611 300.726 54.668 301.512C54.7021 302.286 53.7394 302.805 51.7798 303.067V303.289H50.1904V302.537ZM74.1846 332V306.946H79.2432V316.807H89.1553V306.946H94.2139V332H89.1553V321.045H79.2432V332H74.1846ZM122.053 332H116.55L114.363 326.309H104.348L102.28 332H96.9141L106.672 306.946H112.021L122.053 332ZM112.739 322.088L109.287 312.791L105.903 322.088H112.739ZM112.141 305.511H109.116L104.399 300.401H109.783L112.141 305.511ZM124.805 332V306.946H129.727L139.98 323.677V306.946H144.68V332H139.604L129.504 315.662V332H124.805ZM161.702 322.789V318.567H172.605V328.548C171.545 329.573 170.007 330.479 167.991 331.265C165.986 332.04 163.952 332.427 161.89 332.427C159.269 332.427 156.985 331.88 155.037 330.787C153.088 329.681 151.624 328.109 150.645 326.07C149.665 324.019 149.175 321.792 149.175 319.388C149.175 316.779 149.722 314.46 150.815 312.432C151.909 310.404 153.51 308.849 155.618 307.767C157.224 306.935 159.224 306.519 161.616 306.519C164.727 306.519 167.153 307.174 168.896 308.484C170.651 309.783 171.779 311.583 172.28 313.885L167.256 314.825C166.903 313.594 166.236 312.626 165.256 311.919C164.288 311.202 163.075 310.843 161.616 310.843C159.406 310.843 157.646 311.543 156.335 312.945C155.037 314.346 154.387 316.425 154.387 319.183C154.387 322.156 155.048 324.389 156.37 325.882C157.691 327.363 159.423 328.104 161.565 328.104C162.625 328.104 163.684 327.898 164.744 327.488C165.815 327.067 166.732 326.56 167.495 325.967V322.789H161.702ZM192.668 332V311.185H185.234V306.946H205.144V311.185H197.727V332H192.668ZM208.442 332V306.946H213.501V316.807H223.413V306.946H228.472V332H223.413V321.045H213.501V332H208.442ZM233.718 332V306.946H252.295V311.185H238.777V316.739H251.355V320.96H238.777V327.779H252.773V332H233.718ZM256.038 319.627C256.038 317.075 256.419 314.933 257.183 313.201C257.752 311.925 258.527 310.78 259.507 309.766C260.498 308.752 261.58 308 262.754 307.51C264.315 306.849 266.115 306.519 268.154 306.519C271.846 306.519 274.797 307.664 277.007 309.954C279.229 312.244 280.339 315.429 280.339 319.507C280.339 323.552 279.24 326.719 277.041 329.009C274.842 331.288 271.903 332.427 268.223 332.427C264.497 332.427 261.535 331.294 259.336 329.026C257.137 326.748 256.038 323.615 256.038 319.627ZM261.25 319.456C261.25 322.293 261.905 324.446 263.215 325.916C264.526 327.374 266.189 328.104 268.206 328.104C270.222 328.104 271.874 327.38 273.162 325.933C274.46 324.475 275.11 322.293 275.11 319.388C275.11 316.517 274.478 314.375 273.213 312.962C271.96 311.549 270.291 310.843 268.206 310.843C266.121 310.843 264.44 311.561 263.164 312.996C261.888 314.42 261.25 316.574 261.25 319.456ZM34.7412 362.789L39.646 364.344C38.894 367.078 37.6408 369.112 35.8862 370.445C34.1431 371.766 31.9271 372.427 29.2383 372.427C25.9115 372.427 23.1771 371.294 21.0352 369.026C18.8932 366.748 17.8223 363.637 17.8223 359.695C17.8223 355.525 18.8989 352.29 21.0522 349.988C23.2056 347.675 26.0368 346.519 29.5459 346.519C32.6107 346.519 35.1001 347.425 37.0142 349.236C38.1535 350.307 39.008 351.845 39.5776 353.851L34.5703 355.047C34.2741 353.748 33.6532 352.723 32.7075 351.971C31.7733 351.219 30.634 350.843 29.2896 350.843C27.4325 350.843 25.9229 351.509 24.7607 352.842C23.61 354.175 23.0347 356.334 23.0347 359.319C23.0347 362.487 23.6043 364.743 24.7437 366.087C25.883 367.431 27.3641 368.104 29.187 368.104C30.5314 368.104 31.6878 367.676 32.6562 366.822C33.6247 365.967 34.3197 364.623 34.7412 362.789ZM44.021 372V346.946H49.0796V356.807H58.9917V346.946H64.0503V372H58.9917V361.045H49.0796V372H44.021ZM69.1431 372V346.946H74.2017V372H69.1431ZM79.0381 372V346.946H97.6147V351.185H84.0967V356.739H96.6748V360.96H84.0967V367.779H98.0933V372H79.0381ZM88.8477 344.827L86.9678 346.092H83.6011L87.3267 343.87H90.3687L94.0942 346.092H90.7275L88.8477 344.827ZM90.8643 343.289H87.8394L83.4644 340.503H88.8477L90.8643 343.289ZM102.349 346.946H107.407V360.516C107.407 362.669 107.47 364.065 107.595 364.703C107.812 365.728 108.324 366.554 109.133 367.181C109.954 367.796 111.07 368.104 112.483 368.104C113.918 368.104 115.001 367.813 115.73 367.232C116.459 366.639 116.898 365.916 117.046 365.062C117.194 364.207 117.268 362.789 117.268 360.806V346.946H122.327V360.105C122.327 363.113 122.19 365.238 121.917 366.48C121.643 367.722 121.136 368.77 120.396 369.625C119.666 370.479 118.687 371.163 117.456 371.675C116.226 372.177 114.619 372.427 112.637 372.427C110.244 372.427 108.427 372.154 107.185 371.607C105.955 371.049 104.98 370.331 104.263 369.454C103.545 368.565 103.072 367.636 102.844 366.668C102.514 365.232 102.349 363.113 102.349 360.311V346.946ZM137.349 372V346.946H144.919L149.465 364.036L153.96 346.946H161.548V372H156.848V352.278L151.875 372H147.004L142.048 352.278V372H137.349ZM166.538 346.946H171.597V360.516C171.597 362.669 171.659 364.065 171.785 364.703C172.001 365.728 172.514 366.554 173.323 367.181C174.143 367.796 175.26 368.104 176.672 368.104C178.108 368.104 179.19 367.813 179.919 367.232C180.649 366.639 181.087 365.916 181.235 365.062C181.383 364.207 181.458 362.789 181.458 360.806V346.946H186.516V360.105C186.516 363.113 186.379 365.238 186.106 366.48C185.833 367.722 185.326 368.77 184.585 369.625C183.856 370.479 182.876 371.163 181.646 371.675C180.415 372.177 178.809 372.427 176.826 372.427C174.434 372.427 172.616 372.154 171.375 371.607C170.144 371.049 169.17 370.331 168.452 369.454C167.734 368.565 167.262 367.636 167.034 366.668C166.703 365.232 166.538 363.113 166.538 360.311V346.946ZM172.827 344.725H170.64C170.628 344.463 170.623 344.257 170.623 344.109C170.623 342.913 170.913 341.996 171.494 341.358C172.075 340.708 172.821 340.384 173.733 340.384C174.132 340.384 174.502 340.429 174.844 340.521C175.186 340.6 175.806 340.845 176.707 341.255C177.618 341.654 178.33 341.854 178.843 341.854C179.207 341.854 179.509 341.74 179.749 341.512C179.999 341.284 180.159 340.902 180.227 340.367H182.449C182.437 341.905 182.147 343.004 181.577 343.665C181.019 344.326 180.295 344.656 179.407 344.656C179.019 344.656 178.638 344.616 178.262 344.537C178 344.468 177.345 344.235 176.296 343.836C175.248 343.437 174.485 343.238 174.006 343.238C173.642 343.238 173.357 343.352 173.152 343.58C172.947 343.796 172.839 344.178 172.827 344.725ZM191.711 372V346.946H196.77V372H191.711ZM216.987 372V351.185H209.553V346.946H229.463V351.185H222.046V372H216.987ZM232.744 372V346.946H251.321V351.185H237.803V356.739H250.381V360.96H237.803V367.779H251.799V372H232.744ZM235.957 345.511L239.546 340.469H243.989L247.527 345.511H243.665L241.682 342.964L239.836 345.511H235.957ZM256.14 372V346.946H261.062L271.316 363.677V346.946H276.016V372H270.94L260.84 355.662V372H256.14Z" fill="black"/>
<path d="M148 280C70.7998 280 8 217.2 8 140C8 62.8085 70.7998 0 148 0C225.191 0 288 62.7998 288 140C288 217.2 225.2 280 148 280ZM148 11.2724C77.0209 11.2724 19.2724 69.0209 19.2724 140C19.2724 210.979 77.0209 268.736 148 268.736C218.979 268.736 276.728 210.988 276.728 140C276.728 69.0209 218.988 11.2724 148 11.2724Z" fill="#2B2B2B"/>
<path d="M206.805 221.507H89.1936C87.4434 221.507 86.0225 220.086 86.0225 218.335V205.443C86.0225 203.692 87.4434 202.271 89.1936 202.271H206.805C208.555 202.271 209.976 203.692 209.976 205.443V218.335C209.976 220.094 208.555 221.507 206.805 221.507Z" fill="#2B2B2B"/>
<path d="M144.699 103.479L121.279 62.9212C117.882 57.038 109.382 57.038 105.986 62.9212L82.566 103.479C79.1695 109.363 83.4151 116.719 90.208 116.719H100.397C102.581 116.719 104.348 118.486 104.348 120.67V183.106C104.348 185.306 106.133 187.1 108.343 187.1H118.913C121.114 187.1 122.908 185.315 122.908 183.106V120.67C122.908 118.486 124.675 116.719 126.859 116.719H137.048C143.85 116.719 148.095 109.363 144.699 103.479Z" fill="#2B2B2B"/>
<path d="M213.433 103.479L190.014 62.9212C186.617 57.038 178.117 57.038 174.721 62.9212L151.301 103.479C147.904 109.363 152.15 116.719 158.943 116.719H169.132C171.316 116.719 173.083 118.486 173.083 120.67V183.106C173.083 185.306 174.868 187.1 177.078 187.1H187.639C189.84 187.1 191.634 185.315 191.634 183.106V120.67C191.634 118.486 193.401 116.719 195.585 116.719H205.774C212.584 116.719 216.83 109.363 213.433 103.479Z" fill="#2B2B2B"/>
</svg>
