<svg width="315" height="444" viewBox="0 0 315 444" fill="none" xmlns="http://www.w3.org/2000/svg">
<rect width="315" height="444" fill="white"/>
<path d="M18.457 384V363.185H11.0229V358.946H30.9326V363.185H23.5156V384H18.457ZM34.231 384V358.946H44.8779C47.5553 358.946 49.4979 359.174 50.7056 359.63C51.9246 360.074 52.8988 360.872 53.6279 362.022C54.3571 363.173 54.7217 364.489 54.7217 365.97C54.7217 367.85 54.1691 369.405 53.064 370.636C51.9588 371.855 50.3068 372.624 48.1079 372.943C49.2017 373.581 50.1017 374.282 50.8081 375.045C51.5259 375.808 52.4886 377.164 53.6963 379.112L56.7554 384H50.7056L47.0483 378.548C45.7495 376.6 44.8608 375.375 44.3823 374.874C43.9038 374.361 43.3968 374.014 42.8613 373.832C42.3258 373.638 41.4771 373.541 40.3149 373.541H39.2896V384H34.231ZM39.2896 369.542H43.0322C45.459 369.542 46.9743 369.439 47.5781 369.234C48.182 369.029 48.6548 368.676 48.9966 368.175C49.3384 367.674 49.5093 367.047 49.5093 366.295C49.5093 365.452 49.2814 364.774 48.8257 364.261C48.3813 363.737 47.749 363.407 46.9287 363.27C46.5186 363.213 45.2881 363.185 43.2373 363.185H39.2896V369.542ZM82.0996 384H76.5967L74.4092 378.309H64.3945L62.3267 384H56.9604L66.7188 358.946H72.0679L82.0996 384ZM72.7856 374.088L69.3335 364.791L65.9497 374.088H72.7856ZM66.4282 357.511L68.7866 352.401H74.1699L69.4702 357.511H66.4282ZM84.8511 384V358.946H89.7729L100.027 375.677V358.946H104.727V384H99.6509L89.5508 367.662V384H84.8511ZM110.11 384V358.946H115.168V368.807H125.081V358.946H130.139V384H125.081V373.045H115.168V384H110.11ZM142.581 384L151.143 370.926L143.384 358.946H149.297L154.321 366.996L159.243 358.946H165.105L157.312 371.114L165.874 384H159.773L154.219 375.335L148.647 384H142.581ZM191.064 384H185.562L183.374 378.309H173.359L171.292 384H165.925L175.684 358.946H181.033L191.064 384ZM181.75 374.088L178.298 364.791L174.915 374.088H181.75ZM202.258 384V358.946H207.18L217.434 375.677V358.946H222.134V384H217.058L206.958 367.662V384H202.258ZM227.517 384V358.946H232.576V368.807H242.488V358.946H247.546V384H242.488V373.045H232.576V384H227.517ZM252.639 384V358.946H257.698V384H252.639ZM262.534 384V358.946H281.111V363.185H267.593V368.739H280.171V372.96H267.593V379.779H281.589V384H262.534ZM272.344 356.827L270.464 358.092H267.097L270.823 355.87H273.865L277.59 358.092H274.224L272.344 356.827ZM270.037 390.853V386.051H274.839V390.853H270.037ZM291.519 384V363.185H284.084V358.946H303.994V363.185H296.577V384H291.519Z" fill="black"/>
<path d="M157 332C79.7998 332 17 269.2 17 192C17 114.809 79.7998 52 157 52C234.191 52 297 114.8 297 192C297 269.192 234.2 332 157 332ZM157 63.2638C86.0209 63.2638 28.2724 121.012 28.2724 191.991C28.2724 262.97 86.0209 320.728 157 320.728C227.979 320.728 285.728 262.979 285.728 191.991C285.728 121.004 227.988 63.2638 157 63.2638Z" fill="#2B2B2B"/>
<path d="M142.522 222.806L100.797 207.308C100.727 207.308 100.586 207.308 100.516 207.378C100.446 207.448 100.376 207.518 100.376 207.658V266.985C100.376 267.125 100.446 267.195 100.586 267.266L142.311 282.763C142.382 282.763 142.382 282.763 142.452 282.763C142.522 282.763 142.592 282.763 142.662 282.693C142.732 282.623 142.802 282.553 142.802 282.413V223.086C142.732 222.946 142.662 222.876 142.522 222.806Z" fill="#353331"/>
<path d="M188.595 207.307C188.525 207.237 188.385 207.237 188.314 207.237L146.589 222.735C146.449 222.805 146.379 222.875 146.379 223.016V282.343C146.379 282.413 146.449 282.553 146.519 282.623C146.589 282.693 146.659 282.693 146.73 282.693C146.8 282.693 146.8 282.693 146.87 282.693L188.595 267.195C188.735 267.125 188.805 267.055 188.805 266.915V207.588C188.735 207.448 188.665 207.378 188.595 207.307Z" fill="#353331"/>
<path d="M186.562 204.152C186.562 204.012 186.492 203.872 186.351 203.872L144.346 189.917C144.276 189.917 144.206 189.917 144.135 189.917L101.569 203.1C101.429 203.17 101.358 203.241 101.358 203.381C101.358 203.521 101.429 203.661 101.569 203.661L144.346 219.65C144.346 219.65 144.416 219.65 144.486 219.65C144.556 219.65 144.556 219.65 144.626 219.65L186.422 204.433C186.422 204.363 186.562 204.292 186.562 204.152Z" fill="#353331"/>
<path d="M227.447 211.586C227.166 211.586 226.816 211.515 226.535 211.445L144.558 178.907L64.193 208.921C62.9308 209.412 61.5282 208.781 61.0374 207.448C60.5465 206.186 61.1776 204.783 62.51 204.292L143.786 173.928C144.347 173.717 144.978 173.717 145.539 173.928L228.359 206.747C229.621 207.238 230.252 208.71 229.761 209.973C229.34 210.954 228.429 211.586 227.447 211.586Z" fill="#353331"/>
<path d="M232.635 145.386C232.635 159.481 221.204 170.982 207.039 170.982C192.944 170.982 181.443 159.552 181.443 145.386C181.443 131.291 192.873 119.79 207.039 119.79C221.204 119.79 232.635 131.221 232.635 145.386Z" fill="#353331"/>
<path d="M207.11 171.263C192.875 171.263 181.234 159.692 181.234 145.386C181.234 131.151 192.805 119.51 207.11 119.51C221.346 119.51 232.987 131.081 232.987 145.386C232.987 159.622 221.346 171.263 207.11 171.263ZM207.11 120.071C193.155 120.071 181.795 131.431 181.795 145.386C181.795 159.341 193.155 170.702 207.11 170.702C221.066 170.702 232.426 159.341 232.426 145.386C232.356 131.431 221.066 120.071 207.11 120.071Z" fill="#353331"/>
<path d="M207.11 118.037C205.497 118.037 204.165 116.705 204.165 115.092V101.558C204.165 99.9447 205.497 98.6123 207.11 98.6123C208.723 98.6123 210.056 99.9447 210.056 101.558V115.092C210.056 116.705 208.723 118.037 207.11 118.037Z" fill="#353331"/>
<path d="M183.406 129.468C182.775 129.468 182.144 129.258 181.583 128.837L170.994 120.422C169.731 119.44 169.521 117.546 170.503 116.284C171.485 115.022 173.378 114.812 174.64 115.793L185.229 124.208C186.492 125.19 186.702 127.084 185.72 128.346C185.159 129.047 184.248 129.468 183.406 129.468Z" fill="#353331"/>
<path d="M164.401 158.08C163.069 158.08 161.877 157.168 161.526 155.765C161.175 154.153 162.157 152.61 163.77 152.259L176.954 149.244C178.567 148.893 180.109 149.875 180.46 151.488C180.811 153.101 179.829 154.643 178.216 154.994L165.032 158.01C164.822 158.01 164.612 158.08 164.401 158.08Z" fill="#353331"/>
<path d="M188.105 187.813C187.684 187.813 187.264 187.743 186.843 187.532C185.37 186.831 184.739 185.078 185.44 183.605L191.331 171.403C192.032 169.931 193.785 169.3 195.258 170.001C196.731 170.702 197.362 172.455 196.66 173.928L190.77 186.13C190.209 187.182 189.157 187.813 188.105 187.813Z" fill="#353331"/>
<path d="M226.114 187.813C224.992 187.813 223.94 187.182 223.449 186.13L217.558 173.928C216.857 172.455 217.488 170.702 218.961 170.001C220.434 169.3 222.187 169.931 222.888 171.403L228.779 183.605C229.48 185.078 228.849 186.831 227.376 187.532C226.955 187.673 226.535 187.813 226.114 187.813Z" fill="#353331"/>
<path d="M249.813 158.08C249.603 158.08 249.393 158.08 249.182 158.01L235.999 154.994C234.386 154.643 233.404 153.031 233.754 151.488C234.105 149.875 235.718 148.893 237.261 149.244L250.445 152.259C252.057 152.61 253.039 154.223 252.689 155.765C252.338 157.168 251.146 158.08 249.813 158.08Z" fill="#353331"/>
<path d="M230.742 129.468C229.9 129.468 228.989 129.117 228.428 128.346C227.446 127.084 227.656 125.26 228.918 124.208L239.508 115.793C240.77 114.812 242.593 115.022 243.645 116.284C244.627 117.546 244.416 119.37 243.154 120.422L232.565 128.837C232.074 129.258 231.443 129.468 230.742 129.468Z" fill="#353331"/>
</svg>
