<svg width="41" height="42" viewBox="0 0 41 42" fill="none" xmlns="http://www.w3.org/2000/svg">
<path d="M9.67773 35.2402L10.75 35.1465C10.8008 35.5762 10.918 35.9297 11.1016 36.207C11.2891 36.4805 11.5781 36.7031 11.9688 36.875C12.3594 37.043 12.7988 37.127 13.2871 37.127C13.7207 37.127 14.1035 37.0625 14.4355 36.9336C14.7676 36.8047 15.0137 36.6289 15.1738 36.4062C15.3379 36.1797 15.4199 35.9336 15.4199 35.668C15.4199 35.3984 15.3418 35.1641 15.1855 34.9648C15.0293 34.7617 14.7715 34.5918 14.4121 34.4551C14.1816 34.3652 13.6719 34.2266 12.8828 34.0391C12.0938 33.8477 11.541 33.668 11.2246 33.5C10.8145 33.2852 10.5078 33.0195 10.3047 32.7031C10.1055 32.3828 10.0059 32.0254 10.0059 31.6309C10.0059 31.1973 10.1289 30.793 10.375 30.418C10.6211 30.0391 10.9805 29.752 11.4531 29.5566C11.9258 29.3613 12.4512 29.2637 13.0293 29.2637C13.666 29.2637 14.2266 29.3672 14.7109 29.5742C15.1992 29.7773 15.5742 30.0781 15.8359 30.4766C16.0977 30.875 16.2383 31.3262 16.2578 31.8301L15.168 31.9121C15.1094 31.3691 14.9102 30.959 14.5703 30.6816C14.2344 30.4043 13.7363 30.2656 13.0762 30.2656C12.3887 30.2656 11.8867 30.3926 11.5703 30.6465C11.2578 30.8965 11.1016 31.1992 11.1016 31.5547C11.1016 31.8633 11.2129 32.1172 11.4355 32.3164C11.6543 32.5156 12.2246 32.7207 13.1465 32.9316C14.0723 33.1387 14.707 33.3203 15.0508 33.4766C15.5508 33.707 15.9199 34 16.1582 34.3555C16.3965 34.707 16.5156 35.1133 16.5156 35.5742C16.5156 36.0312 16.3848 36.4629 16.123 36.8691C15.8613 37.2715 15.4844 37.5859 14.9922 37.8125C14.5039 38.0352 13.9531 38.1465 13.3398 38.1465C12.5625 38.1465 11.9102 38.0332 11.3828 37.8066C10.8594 37.5801 10.4473 37.2402 10.1465 36.7871C9.84961 36.3301 9.69336 35.8145 9.67773 35.2402ZM23.6816 33.002V31.7773H24.8125V32.7441C24.8125 33.3574 24.7422 33.7852 24.6016 34.0273C24.2422 34.6523 23.6934 35.0039 22.9551 35.082V38H22.0117V37.0859C21.5273 37.7891 20.8691 38.1406 20.0371 38.1406C19.6738 38.1406 19.332 38.0723 19.0117 37.9355C18.6953 37.7949 18.459 37.6172 18.3027 37.4023C18.1465 37.1875 18.0371 36.9258 17.9746 36.6172C17.9316 36.4062 17.9102 36.0781 17.9102 35.6328V31.7773H18.9648V35.2285C18.9648 35.7871 18.9863 36.1582 19.0293 36.3418C19.166 36.9355 19.5723 37.2324 20.248 37.2324C20.5723 37.2324 20.8711 37.1504 21.1445 36.9863C21.4219 36.8223 21.6172 36.6016 21.7305 36.3242C21.8438 36.0469 21.9004 35.6426 21.9004 35.1113V31.7773H22.9551V34.6367C23.4512 34.5508 23.8223 34.3184 24.0684 33.9395C24.1777 33.7754 24.2324 33.4629 24.2324 33.002H23.6816ZM20.1016 30.3008C20.3242 30.2773 20.4668 30.2559 20.5293 30.2363C20.7363 30.166 20.8418 30.0566 20.8457 29.9082C20.8496 29.8184 20.7949 29.7422 20.6816 29.6797C20.5176 29.5898 20.2578 29.5449 19.9023 29.5449C19.7812 29.5449 19.5977 29.5527 19.3516 29.5684L19.2871 28.9707C19.4395 28.9395 19.7207 28.9258 20.1309 28.9297C20.6113 28.9336 21.0039 29.0117 21.3086 29.1641C21.6445 29.3281 21.8164 29.5566 21.8242 29.8496C21.8398 30.334 21.4844 30.6211 20.7578 30.7109V31.0039H20.1016V30.3008ZM30.0332 37.2324C29.6426 37.5645 29.2656 37.7988 28.9023 37.9355C28.543 38.0723 28.1562 38.1406 27.7422 38.1406C27.0586 38.1406 26.5332 37.9746 26.166 37.6426C25.7988 37.3066 25.6152 36.8789 25.6152 36.3594C25.6152 36.0547 25.6836 35.7773 25.8203 35.5273C25.9609 35.2734 26.1426 35.0703 26.3652 34.918C26.5918 34.7656 26.8457 34.6504 27.127 34.5723C27.334 34.5176 27.6465 34.4648 28.0645 34.4141C28.916 34.3125 29.543 34.1914 29.9453 34.0508C29.9492 33.9062 29.9512 33.8145 29.9512 33.7754C29.9512 33.3457 29.8516 33.043 29.6523 32.8672C29.3828 32.6289 28.9824 32.5098 28.4512 32.5098C27.9551 32.5098 27.5879 32.5977 27.3496 32.7734C27.1152 32.9453 26.9414 33.252 26.8281 33.6934L25.7969 33.5527C25.8906 33.1113 26.0449 32.7559 26.2598 32.4863C26.4746 32.2129 26.7852 32.0039 27.1914 31.8594C27.5977 31.7109 28.0684 31.6367 28.6035 31.6367C29.1348 31.6367 29.5664 31.6992 29.8984 31.8242C30.2305 31.9492 30.4746 32.1074 30.6309 32.2988C30.7871 32.4863 30.8965 32.7246 30.959 33.0137C30.9941 33.1934 31.0117 33.5176 31.0117 33.9863V35.3926C31.0117 36.373 31.0332 36.9941 31.0762 37.2559C31.123 37.5137 31.2129 37.7617 31.3457 38H30.2441C30.1348 37.7812 30.0645 37.5254 30.0332 37.2324ZM29.9453 34.877C29.5625 35.0332 28.9883 35.166 28.2227 35.2754C27.7891 35.3379 27.4824 35.4082 27.3027 35.4863C27.123 35.5645 26.9844 35.6797 26.8867 35.832C26.7891 35.9805 26.7402 36.1465 26.7402 36.3301C26.7402 36.6113 26.8457 36.8457 27.0566 37.0332C27.2715 37.2207 27.584 37.3145 27.9941 37.3145C28.4004 37.3145 28.7617 37.2266 29.0781 37.0508C29.3945 36.8711 29.627 36.627 29.7754 36.3184C29.8887 36.0801 29.9453 35.7285 29.9453 35.2637V34.877Z" fill="#42526E"/>
<path d="M25.0831 2.69936L26.9744 0.808114C27.0916 0.690944 27.2505 0.625122 27.4163 0.625122C27.582 0.625122 27.7409 0.690944 27.8581 0.808114L30.1919 3.14124C30.3091 3.25844 30.3749 3.41739 30.3749 3.58311C30.3749 3.74884 30.3091 3.90778 30.1919 4.02499L28.3006 5.91686L25.0831 2.69936ZM24.1994 3.58311L12.9744 14.8081C12.9059 14.8768 12.8543 14.9604 12.8238 15.0525L11.6575 18.5525C11.6262 18.6464 11.6177 18.7464 11.6326 18.8442C11.6476 18.9421 11.6855 19.035 11.7434 19.1153C11.8012 19.1956 11.8773 19.261 11.9654 19.3062C12.0535 19.3513 12.151 19.3749 12.25 19.375C12.3172 19.375 12.3839 19.364 12.4475 19.3425L15.9475 18.1762C16.0394 18.1454 16.1231 18.0939 16.1919 18.0256L27.4163 6.80061L24.1994 3.58311Z" fill="#00857F"/>
</svg>
