<svg width="24" height="24" viewBox="0 0 24 24" fill="none" xmlns="http://www.w3.org/2000/svg">
<path d="M19.06 5.99992L20.3 4.75992C20.59 4.46992 20.59 3.98992 20.3 3.69992C20.01 3.40992 19.53 3.40992 19.24 3.69992L18 4.93992L16.76 3.69992C16.47 3.40992 15.99 3.40992 15.7 3.69992C15.41 3.98992 15.41 4.46992 15.7 4.75992L16.94 5.99992L15.7 7.23992C15.41 7.52992 15.41 8.00992 15.7 8.29992C15.85 8.44992 16.04 8.51992 16.23 8.51992C16.42 8.51992 16.61 8.44992 16.76 8.29992L18 7.05992L19.24 8.29992C19.39 8.44992 19.58 8.51992 19.77 8.51992C19.96 8.51992 20.15 8.44992 20.3 8.29992C20.59 8.00992 20.59 7.52992 20.3 7.23992L19.06 5.99992Z" fill="#292D32"/>
<path d="M19.06 5.99992L20.3 4.75992C20.59 4.46992 20.59 3.98992 20.3 3.69992C20.01 3.40992 19.53 3.40992 19.24 3.69992L18 4.93992L16.76 3.69992C16.47 3.40992 15.99 3.40992 15.7 3.69992C15.41 3.98992 15.41 4.46992 15.7 4.75992L16.94 5.99992L15.7 7.23992C15.41 7.52992 15.41 8.00992 15.7 8.29992C15.85 8.44992 16.04 8.51992 16.23 8.51992C16.42 8.51992 16.61 8.44992 16.76 8.29992L18 7.05992L19.24 8.29992C19.39 8.44992 19.58 8.51992 19.77 8.51992C19.96 8.51992 20.15 8.44992 20.3 8.29992C20.59 8.00992 20.59 7.52992 20.3 7.23992L19.06 5.99992Z" fill="url(#paint0_angular_17028_3232)"/>
<path d="M11.05 14.95L9.2 16.8C8.81 17.19 8.19 17.19 7.79 16.81C7.68 16.7 7.57 16.6 7.46 16.49C6.43 15.45 5.5 14.36 4.67 13.22C3.85 12.08 3.19 10.94 2.71 9.81C2.24 8.67 2 7.58 2 6.54C2 5.86 2.12 5.21 2.36 4.61C2.6 4 2.98 3.44 3.51 2.94C4.15 2.31 4.85 2 5.59 2C5.87 2 6.15 2.06 6.4 2.18C6.66 2.3 6.89 2.48 7.07 2.74L9.39 6.01C9.57 6.26 9.7 6.49 9.79 6.71C9.88 6.92 9.93 7.13 9.93 7.32C9.93 7.56 9.86 7.8 9.72 8.03C9.59 8.26 9.4 8.5 9.16 8.74L8.4 9.53C8.29 9.64 8.24 9.77 8.24 9.93C8.24 10.01 8.25 10.08 8.27 10.16C8.3 10.24 8.33 10.3 8.35 10.36C8.53 10.69 8.84 11.12 9.28 11.64C9.73 12.16 10.21 12.69 10.73 13.22C10.83 13.32 10.94 13.42 11.04 13.52C11.44 13.91 11.45 14.55 11.05 14.95Z" fill="#292D32"/>
<path d="M11.05 14.95L9.2 16.8C8.81 17.19 8.19 17.19 7.79 16.81C7.68 16.7 7.57 16.6 7.46 16.49C6.43 15.45 5.5 14.36 4.67 13.22C3.85 12.08 3.19 10.94 2.71 9.81C2.24 8.67 2 7.58 2 6.54C2 5.86 2.12 5.21 2.36 4.61C2.6 4 2.98 3.44 3.51 2.94C4.15 2.31 4.85 2 5.59 2C5.87 2 6.15 2.06 6.4 2.18C6.66 2.3 6.89 2.48 7.07 2.74L9.39 6.01C9.57 6.26 9.7 6.49 9.79 6.71C9.88 6.92 9.93 7.13 9.93 7.32C9.93 7.56 9.86 7.8 9.72 8.03C9.59 8.26 9.4 8.5 9.16 8.74L8.4 9.53C8.29 9.64 8.24 9.77 8.24 9.93C8.24 10.01 8.25 10.08 8.27 10.16C8.3 10.24 8.33 10.3 8.35 10.36C8.53 10.69 8.84 11.12 9.28 11.64C9.73 12.16 10.21 12.69 10.73 13.22C10.83 13.32 10.94 13.42 11.04 13.52C11.44 13.91 11.45 14.55 11.05 14.95Z" fill="url(#paint1_angular_17028_3232)"/>
<path d="M21.97 18.3291C21.97 18.6091 21.92 18.8991 21.82 19.1791C21.79 19.2591 21.76 19.3391 21.72 19.4191C21.55 19.7791 21.33 20.1191 21.04 20.4391C20.55 20.9791 20.01 21.3691 19.4 21.6191C19.39 21.6191 19.38 21.6291 19.37 21.6291C18.78 21.8691 18.14 21.9991 17.45 21.9991C16.43 21.9991 15.34 21.7591 14.19 21.2691C13.04 20.7791 11.89 20.1191 10.75 19.2891C10.36 18.9991 9.96998 18.7091 9.59998 18.3991L12.87 15.1291C13.15 15.3391 13.4 15.4991 13.61 15.6091C13.66 15.6291 13.72 15.6591 13.79 15.6891C13.87 15.7191 13.95 15.7291 14.04 15.7291C14.21 15.7291 14.34 15.6691 14.45 15.5591L15.21 14.8091C15.46 14.5591 15.7 14.3691 15.93 14.2491C16.16 14.1091 16.39 14.0391 16.64 14.0391C16.83 14.0391 17.03 14.0791 17.25 14.1691C17.47 14.2591 17.7 14.3891 17.95 14.5591L21.26 16.9091C21.52 17.0891 21.7 17.2991 21.81 17.5491C21.91 17.7991 21.97 18.0491 21.97 18.3291Z" fill="#292D32"/>
<path d="M21.97 18.3291C21.97 18.6091 21.92 18.8991 21.82 19.1791C21.79 19.2591 21.76 19.3391 21.72 19.4191C21.55 19.7791 21.33 20.1191 21.04 20.4391C20.55 20.9791 20.01 21.3691 19.4 21.6191C19.39 21.6191 19.38 21.6291 19.37 21.6291C18.78 21.8691 18.14 21.9991 17.45 21.9991C16.43 21.9991 15.34 21.7591 14.19 21.2691C13.04 20.7791 11.89 20.1191 10.75 19.2891C10.36 18.9991 9.96998 18.7091 9.59998 18.3991L12.87 15.1291C13.15 15.3391 13.4 15.4991 13.61 15.6091C13.66 15.6291 13.72 15.6591 13.79 15.6891C13.87 15.7191 13.95 15.7291 14.04 15.7291C14.21 15.7291 14.34 15.6691 14.45 15.5591L15.21 14.8091C15.46 14.5591 15.7 14.3691 15.93 14.2491C16.16 14.1091 16.39 14.0391 16.64 14.0391C16.83 14.0391 17.03 14.0791 17.25 14.1691C17.47 14.2591 17.7 14.3891 17.95 14.5591L21.26 16.9091C21.52 17.0891 21.7 17.2991 21.81 17.5491C21.91 17.7991 21.97 18.0491 21.97 18.3291Z" fill="url(#paint2_angular_17028_3232)"/>
<defs>
<radialGradient id="paint0_angular_17028_3232" cx="0" cy="0" r="1" gradientUnits="userSpaceOnUse" gradientTransform="translate(18.0126 6.52995) rotate(-90) scale(2.94717 2.77411)">
<stop stop-color="#A7B1BD"/>
<stop offset="1" stop-color="#C6D0D6"/>
</radialGradient>
<radialGradient id="paint1_angular_17028_3232" cx="0" cy="0" r="1" gradientUnits="userSpaceOnUse" gradientTransform="translate(6.69588 11.1313) rotate(-90) scale(8.83054 5.1488)">
<stop stop-color="#A7B1BD"/>
<stop offset="1" stop-color="#C6D0D6"/>
</radialGradient>
<radialGradient id="paint2_angular_17028_3232" cx="0" cy="0" r="1" gradientUnits="userSpaceOnUse" gradientTransform="translate(15.8159 18.8546) rotate(-90) scale(4.65696 6.81545)">
<stop stop-color="#A7B1BD"/>
<stop offset="1" stop-color="#C6D0D6"/>
</radialGradient>
</defs>
</svg>
