<svg width="25" height="24" viewBox="0 0 25 24" fill="none" xmlns="http://www.w3.org/2000/svg">
<path d="M14.8076 9.5H18.6201V18.5H5.6201V9.5H9.40135L10.1514 7.5H14.0576L14.8076 9.5ZM14.2451 6H10.1514C9.52635 6 8.96385 6.40625 8.7451 7L8.3701 8H5.6201C4.77635 8 4.1201 8.6875 4.1201 9.5V18.5C4.1201 19.3438 4.77635 20 5.6201 20H18.6201C19.4326 20 20.1201 19.3438 20.1201 18.5V9.5C20.1201 8.6875 19.4326 8 18.6201 8H15.8701L15.4014 6.8125C15.2139 6.34375 14.7764 6 14.2451 6ZM12.1201 17.75C14.1826 17.75 15.8701 16.0938 15.8701 14C15.8701 11.9375 14.1826 10.25 12.1201 10.25C10.0264 10.25 8.3701 11.9375 8.3701 14C8.3701 16.0938 10.0264 17.75 12.1201 17.75ZM12.1201 11.75C13.3389 11.75 14.3701 12.7812 14.3701 14C14.3701 15.25 13.3389 16.25 12.1201 16.25C10.8701 16.25 9.8701 15.25 9.8701 14C9.8701 12.7812 10.8701 11.75 12.1201 11.75Z" fill="#959494"/>
</svg>
