<svg width="20" height="13" viewBox="0 0 20 13" fill="none" xmlns="http://www.w3.org/2000/svg">
<path fill-rule="evenodd" clip-rule="evenodd" d="M14.1002 11.4834C13.4799 11.4834 12.9751 11.0183 12.9751 10.4468C12.9751 9.87527 13.4799 9.41016 14.1002 9.41016C14.7205 9.41016 15.2242 9.87527 15.2242 10.4468C15.2242 11.0183 14.7205 11.4834 14.1002 11.4834ZM12.9751 3.34766H15.6069L17.5062 5.97117L17.7933 6.40588V9.68806H16.7452C16.3856 8.62609 15.3166 7.89345 14.1002 7.89345C13.712 7.89345 13.3282 7.96945 12.9751 8.11334V3.34766ZM5.14122 11.4834C4.52094 11.4834 4.01614 11.0183 4.01614 10.4468C4.01614 9.87527 4.52094 9.41016 5.14122 9.41016C5.76149 9.41016 6.26629 9.87527 6.26629 10.4468C6.26629 11.0183 5.76149 11.4834 5.14122 11.4834ZM11.3297 1.51562V9.68914H7.78619C7.42657 8.62717 6.35758 7.89453 5.14122 7.89453C3.92596 7.89453 2.85587 8.62616 2.49624 9.68914H1.83748V1.51562H11.3297ZM16.5692 1.94559L16.4878 1.83311H12.9751V0H0.192383V11.2054H2.49643C2.85605 12.2684 3.92614 13 5.1414 13C6.35776 13 7.42675 12.2674 7.78638 11.2054H11.4552C11.8138 12.2674 12.8839 13 14.1002 13C15.3166 13 16.3856 12.2674 16.7452 11.2054H19.4386V5.91075L16.5692 1.94559Z" fill="#959494"/>
</svg>
