<svg width="65" height="45" viewBox="0 0 65 45" fill="none" xmlns="http://www.w3.org/2000/svg">
<path fill-rule="evenodd" clip-rule="evenodd" d="M40.2847 16.242L42.6319 17.6749C44.6586 14.355 49.1011 13.376 52.5593 15.4871C53.7877 16.237 54.7191 17.2798 55.3237 18.4532L53.512 18.8525C53.0689 18.118 52.4325 17.4717 51.6423 16.9893C49.0525 15.4084 45.7144 16.144 44.1967 18.6301L46.5439 20.063L41.5802 21.1569L40.2847 16.242ZM46.1399 26.0025C48.7297 27.5835 52.0678 26.8479 53.5855 24.3617L51.2383 22.9288L56.202 21.8349L57.4975 26.7499L55.1503 25.317C53.1236 28.6368 48.6811 29.6159 45.2229 27.5047C43.9945 26.7549 43.0631 25.712 42.4584 24.5387L44.2702 24.1394C44.7133 24.8738 45.3497 25.5201 46.1399 26.0025Z" fill="black" fill-opacity="0.54"/>
<path fill-rule="evenodd" clip-rule="evenodd" d="M20.6062 15C20.6062 18.1125 18.1125 20.625 15 20.625C11.8875 20.625 9.375 18.1125 9.375 15C9.375 11.8875 11.8875 9.375 15 9.375C18.1125 9.375 20.6062 11.8875 20.6062 15ZM35.6063 15C35.6063 18.1125 33.1125 20.625 30 20.625C26.8875 20.625 24.375 18.1125 24.375 15C24.375 11.8875 26.8875 9.375 30 9.375C33.1125 9.375 35.6063 11.8875 35.6063 15ZM15 24.375C10.6313 24.375 1.875 26.5688 1.875 30.9375V35.625H28.125V30.9375C28.125 26.5688 19.3687 24.375 15 24.375ZM28.1812 24.4688C28.8375 24.4125 29.4562 24.375 30 24.375C34.3687 24.375 43.125 26.5688 43.125 30.9375V35.625H31.875V30.9375C31.875 28.1625 30.3562 26.0438 28.1812 24.4688Z" fill="black" fill-opacity="0.54"/>
</svg>
