<svg width="20" height="20" viewBox="0 0 20 20" fill="none" xmlns="http://www.w3.org/2000/svg">
<g id="check_circle_outline_24px">
<path id="icon/action/check_circle_outline_24px" fill-rule="evenodd" clip-rule="evenodd" d="M10 1.66667C5.4 1.66667 1.66667 5.4 1.66667 10C1.66667 14.6 5.4 18.3333 10 18.3333C14.6 18.3333 18.3333 14.6 18.3333 10C18.3333 5.4 14.6 1.66667 10 1.66667ZM10 16.6667C6.325 16.6667 3.33333 13.675 3.33333 10C3.33333 6.325 6.325 3.33333 10 3.33333C13.675 3.33333 16.6667 6.325 16.6667 10C16.6667 13.675 13.675 16.6667 10 16.6667ZM8.33333 11.8083L13.2333 6.90833C13.5583 6.58333 14.0917 6.58333 14.4167 6.90833C14.7417 7.23333 14.7417 7.75833 14.4167 8.08333L8.925 13.575C8.6 13.9 8.075 13.9 7.75 13.575L5.59167 11.4167C5.26667 11.0917 5.26667 10.5667 5.59167 10.2417C5.74736 10.0856 5.95874 9.99793 6.17917 9.99793C6.3996 9.99793 6.61097 10.0856 6.76667 10.2417L8.33333 11.8083Z" fill="#27AE60"/>
</g>
</svg>
