<svg width="21" height="22" viewBox="0 0 21 22" fill="none" xmlns="http://www.w3.org/2000/svg">
<path d="M12.25 6.1875V12.3125C12.25 12.4401 12.209 12.5449 12.127 12.627C12.0449 12.709 11.9401 12.75 11.8125 12.75H7.4375C7.3099 12.75 7.20508 12.709 7.12305 12.627C7.04102 12.5449 7 12.4401 7 12.3125V11.4375C7 11.3099 7.04102 11.2051 7.12305 11.123C7.20508 11.041 7.3099 11 7.4375 11H10.5V6.1875C10.5 6.0599 10.541 5.95508 10.623 5.87305C10.7051 5.79102 10.8099 5.75 10.9375 5.75H11.8125C11.9401 5.75 12.0449 5.79102 12.127 5.87305C12.209 5.95508 12.25 6.0599 12.25 6.1875ZM17.9375 11C17.9375 9.65104 17.6048 8.4069 16.9395 7.26758C16.2741 6.12826 15.3717 5.22591 14.2324 4.56055C13.0931 3.89518 11.849 3.5625 10.5 3.5625C9.15104 3.5625 7.9069 3.89518 6.76758 4.56055C5.62826 5.22591 4.72591 6.12826 4.06055 7.26758C3.39518 8.4069 3.0625 9.65104 3.0625 11C3.0625 12.349 3.39518 13.5931 4.06055 14.7324C4.72591 15.8717 5.62826 16.7741 6.76758 17.4395C7.9069 18.1048 9.15104 18.4375 10.5 18.4375C11.849 18.4375 13.0931 18.1048 14.2324 17.4395C15.3717 16.7741 16.2741 15.8717 16.9395 14.7324C17.6048 13.5931 17.9375 12.349 17.9375 11ZM21 11C21 12.9049 20.5306 14.6618 19.5918 16.2705C18.653 17.8792 17.3792 19.153 15.7705 20.0918C14.1618 21.0306 12.4049 21.5 10.5 21.5C8.59505 21.5 6.83822 21.0306 5.22949 20.0918C3.62077 19.153 2.34701 17.8792 1.4082 16.2705C0.469401 14.6618 0 12.9049 0 11C0 9.09505 0.469401 7.33822 1.4082 5.72949C2.34701 4.12077 3.62077 2.84701 5.22949 1.9082C6.83822 0.969401 8.59505 0.5 10.5 0.5C12.4049 0.5 14.1618 0.969401 15.7705 1.9082C17.3792 2.84701 18.653 4.12077 19.5918 5.72949C20.5306 7.33822 21 9.09505 21 11Z" fill="url(#paint0_angular_16831_16264)"/>
<defs>
<radialGradient id="paint0_angular_16831_16264" cx="0" cy="0" r="1" gradientUnits="userSpaceOnUse" gradientTransform="translate(10.5 11) rotate(90) scale(10.5)">
<stop stop-color="#A7B1BD"/>
<stop offset="0.0001" stop-color="#A7B1BD"/>
<stop offset="1" stop-color="#4F5C78" stop-opacity="0"/>
<stop offset="1" stop-color="#C6D0D6"/>
</radialGradient>
</defs>
</svg>
