<svg width="21" height="20" viewBox="0 0 21 20" fill="none" xmlns="http://www.w3.org/2000/svg">
<path fill-rule="evenodd" clip-rule="evenodd" d="M10.2295 0.562084L10 0.803305L9.77049 0.562084C9.1367 -0.104028 8.10913 -0.104028 7.47534 0.562084C6.84155 1.2282 6.84155 2.30818 7.47534 2.97429L9.08194 4.66283C9.58897 5.19572 10.411 5.19572 10.9181 4.66283L12.5247 2.97429C13.1584 2.30818 13.1584 1.2282 12.5247 0.562084C11.8909 -0.104028 10.8633 -0.104028 10.2295 0.562084ZM2 9.73962V14.8265C2 15.584 2.428 16.2765 3.10557 16.6153L9.10557 19.6153C9.66863 19.8968 10.3314 19.8968 10.8944 19.6153L16.8944 16.6153C17.572 16.2765 18 15.584 18 14.8265V9.73963L12.6708 12.4042C11.9942 12.7425 11.1716 12.5241 10.7519 11.8946L10 10.7667L9.24808 11.8946C8.82846 12.5241 8.00581 12.7425 7.32919 12.4042L2 9.73962ZM9.97574 8.07819L2.01562 4.08594L0.0286865 7.04275L8.03113 11.0651L9.97574 8.07819ZM9.97574 8.07819L11.9978 11.0651L20.0171 7.10037L17.9909 4.11206L9.97574 8.07819Z" fill="#28303F"/>
<path fill-rule="evenodd" clip-rule="evenodd" d="M10.2295 0.562084L10 0.803305L9.77049 0.562084C9.1367 -0.104028 8.10913 -0.104028 7.47534 0.562084C6.84155 1.2282 6.84155 2.30818 7.47534 2.97429L9.08194 4.66283C9.58897 5.19572 10.411 5.19572 10.9181 4.66283L12.5247 2.97429C13.1584 2.30818 13.1584 1.2282 12.5247 0.562084C11.8909 -0.104028 10.8633 -0.104028 10.2295 0.562084ZM2 9.73962V14.8265C2 15.584 2.428 16.2765 3.10557 16.6153L9.10557 19.6153C9.66863 19.8968 10.3314 19.8968 10.8944 19.6153L16.8944 16.6153C17.572 16.2765 18 15.584 18 14.8265V9.73963L12.6708 12.4042C11.9942 12.7425 11.1716 12.5241 10.7519 11.8946L10 10.7667L9.24808 11.8946C8.82846 12.5241 8.00581 12.7425 7.32919 12.4042L2 9.73962ZM9.97574 8.07819L2.01562 4.08594L0.0286865 7.04275L8.03113 11.0651L9.97574 8.07819ZM9.97574 8.07819L11.9978 11.0651L20.0171 7.10037L17.9909 4.11206L9.97574 8.07819Z" fill="url(#paint0_angular_17028_2924)"/>
<defs>
<radialGradient id="paint0_angular_17028_2924" cx="0" cy="0" r="1" gradientUnits="userSpaceOnUse" gradientTransform="translate(10.0729 12.0191) rotate(-90) scale(11.5628 11.0129)">
<stop stop-color="#A7B1BD"/>
<stop offset="1" stop-color="#C6D0D6"/>
</radialGradient>
</defs>
</svg>
