<svg width="21" height="20" viewBox="0 0 21 20" fill="none" xmlns="http://www.w3.org/2000/svg">
<path d="M8.04406 20.0003H3.59289C3.55979 19.9962 3.52648 19.9886 3.49337 19.9884C2.68006 19.9853 1.86695 19.9833 1.05363 19.9798C1.01051 19.9798 0.959835 19.9821 0.925504 19.9616C0.754463 19.8597 0.571569 19.7689 0.42321 19.6396C0.204555 19.4487 0.0425049 19.2092 0.034944 18.9031C0.0247264 18.4917 0.0249308 18.08 0.0218655 17.6686C0.0218655 17.6425 0.0310613 17.6155 0.0398484 17.5902C0.533968 16.1793 1.02809 14.7683 1.52507 13.3585C1.53856 13.3205 1.5782 13.2802 1.6158 13.2638C1.7991 13.1837 1.98588 13.1118 2.17102 13.0364C2.2593 13.0004 2.34697 12.9635 2.43484 12.9269C2.38457 12.9017 2.33838 12.8985 2.292 12.8952C2.03084 12.8774 1.76947 12.8621 1.50872 12.8392C1.46785 12.8357 1.41922 12.8077 1.39245 12.7759C1.18687 12.531 0.981292 12.286 0.784706 12.0343C0.527838 11.7053 0.244608 11.3944 0.0564008 11.0166C0.0361701 10.9759 0.0222742 10.9271 0.0220699 10.8821C0.0134871 9.15048 0.00674357 7.4186 0 5.68673C0 5.65485 0.00326961 5.62297 0.00551747 5.57965C0.252169 5.70962 0.487172 5.83325 0.749558 5.97139C0.677831 5.7511 0.615708 5.56065 0.549294 5.3563H7.65906C7.66254 7.82506 7.64925 10.2877 7.68379 12.7501C7.69564 12.754 7.70749 12.7579 7.71935 12.7618C8.03895 12.4491 8.35835 12.1362 8.69349 11.8083C9.13631 12.255 9.57362 12.6962 10.0271 13.1537C10.4705 12.7105 10.9099 12.2715 11.3492 11.8324C11.6639 12.1411 11.9839 12.4552 12.304 12.7693C12.3181 12.762 12.3322 12.7546 12.3463 12.7475V5.34588H12.4785C14.908 5.34588 17.3375 5.34588 19.767 5.34588C19.784 5.34588 19.8036 5.34036 19.8175 5.3471C19.8504 5.36263 19.8909 5.37694 19.9099 5.40432C20.0069 5.54328 20.0059 5.70758 20.0053 5.86595C20.0018 6.79472 19.9935 7.7235 19.9859 8.65227C19.9841 8.86868 19.9275 9.06363 19.7867 9.23712C19.5192 9.56715 19.2611 9.90494 18.9997 10.2401C18.7385 10.575 18.4723 10.9065 18.2211 11.249C18.1504 11.3454 18.0764 11.4057 17.9628 11.422C17.8956 11.4316 17.8278 11.4376 17.7605 11.4464C17.6046 11.4668 17.4489 11.488 17.2932 11.5091C17.2919 11.5193 17.2905 11.5297 17.2893 11.5399C17.3244 11.5634 17.3575 11.5908 17.3949 11.61C17.606 11.719 17.8202 11.8224 18.0286 11.9362C18.0877 11.9685 18.1504 12.021 18.1782 12.0798C18.3491 12.4417 18.5072 12.8094 18.6752 13.1725C19.0882 14.0653 19.5051 14.9565 19.9172 15.8495C19.9522 15.9251 19.9779 16.0101 19.9839 16.0927C19.9986 16.296 20.0051 16.5006 20.0045 16.7045C20.0018 17.4665 19.9949 18.2288 19.989 18.9908C19.9888 19.0173 19.9871 19.0464 19.9767 19.0701C19.7748 19.5249 19.4102 20.0201 18.6789 19.9819C18.5305 19.9741 18.3809 19.9933 18.232 20.0001H17.1702C17.0189 19.9668 16.8577 19.9565 16.7183 19.8963C15.8848 19.5354 15.0559 19.1635 14.2271 18.7919C14.1938 18.777 14.1652 18.7327 14.1519 18.6959C14.101 18.5545 14.0575 18.4104 14.0111 18.2672C14.0013 18.2682 13.9913 18.269 13.9815 18.27C13.9516 18.3698 13.9191 18.4691 13.8926 18.5696C13.865 18.6746 13.8078 18.7296 13.6948 18.7564C12.3203 19.0838 10.9477 19.4191 9.57342 19.7477C9.22766 19.8305 8.87924 19.9036 8.52939 19.967C8.37061 19.9958 8.2055 19.99 8.04324 20.0001L8.04406 20.0003Z" fill="black"/>
<path d="M8.04406 20.0003H3.59289C3.55979 19.9962 3.52648 19.9886 3.49337 19.9884C2.68006 19.9853 1.86695 19.9833 1.05363 19.9798C1.01051 19.9798 0.959835 19.9821 0.925504 19.9616C0.754463 19.8597 0.571569 19.7689 0.42321 19.6396C0.204555 19.4487 0.0425049 19.2092 0.034944 18.9031C0.0247264 18.4917 0.0249308 18.08 0.0218655 17.6686C0.0218655 17.6425 0.0310613 17.6155 0.0398484 17.5902C0.533968 16.1793 1.02809 14.7683 1.52507 13.3585C1.53856 13.3205 1.5782 13.2802 1.6158 13.2638C1.7991 13.1837 1.98588 13.1118 2.17102 13.0364C2.2593 13.0004 2.34697 12.9635 2.43484 12.9269C2.38457 12.9017 2.33838 12.8985 2.292 12.8952C2.03084 12.8774 1.76947 12.8621 1.50872 12.8392C1.46785 12.8357 1.41922 12.8077 1.39245 12.7759C1.18687 12.531 0.981292 12.286 0.784706 12.0343C0.527838 11.7053 0.244608 11.3944 0.0564008 11.0166C0.0361701 10.9759 0.0222742 10.9271 0.0220699 10.8821C0.0134871 9.15048 0.00674357 7.4186 0 5.68673C0 5.65485 0.00326961 5.62297 0.00551747 5.57965C0.252169 5.70962 0.487172 5.83325 0.749558 5.97139C0.677831 5.7511 0.615708 5.56065 0.549294 5.3563H7.65906C7.66254 7.82506 7.64925 10.2877 7.68379 12.7501C7.69564 12.754 7.70749 12.7579 7.71935 12.7618C8.03895 12.4491 8.35835 12.1362 8.69349 11.8083C9.13631 12.255 9.57362 12.6962 10.0271 13.1537C10.4705 12.7105 10.9099 12.2715 11.3492 11.8324C11.6639 12.1411 11.9839 12.4552 12.304 12.7693C12.3181 12.762 12.3322 12.7546 12.3463 12.7475V5.34588H12.4785C14.908 5.34588 17.3375 5.34588 19.767 5.34588C19.784 5.34588 19.8036 5.34036 19.8175 5.3471C19.8504 5.36263 19.8909 5.37694 19.9099 5.40432C20.0069 5.54328 20.0059 5.70758 20.0053 5.86595C20.0018 6.79472 19.9935 7.7235 19.9859 8.65227C19.9841 8.86868 19.9275 9.06363 19.7867 9.23712C19.5192 9.56715 19.2611 9.90494 18.9997 10.2401C18.7385 10.575 18.4723 10.9065 18.2211 11.249C18.1504 11.3454 18.0764 11.4057 17.9628 11.422C17.8956 11.4316 17.8278 11.4376 17.7605 11.4464C17.6046 11.4668 17.4489 11.488 17.2932 11.5091C17.2919 11.5193 17.2905 11.5297 17.2893 11.5399C17.3244 11.5634 17.3575 11.5908 17.3949 11.61C17.606 11.719 17.8202 11.8224 18.0286 11.9362C18.0877 11.9685 18.1504 12.021 18.1782 12.0798C18.3491 12.4417 18.5072 12.8094 18.6752 13.1725C19.0882 14.0653 19.5051 14.9565 19.9172 15.8495C19.9522 15.9251 19.9779 16.0101 19.9839 16.0927C19.9986 16.296 20.0051 16.5006 20.0045 16.7045C20.0018 17.4665 19.9949 18.2288 19.989 18.9908C19.9888 19.0173 19.9871 19.0464 19.9767 19.0701C19.7748 19.5249 19.4102 20.0201 18.6789 19.9819C18.5305 19.9741 18.3809 19.9933 18.232 20.0001H17.1702C17.0189 19.9668 16.8577 19.9565 16.7183 19.8963C15.8848 19.5354 15.0559 19.1635 14.2271 18.7919C14.1938 18.777 14.1652 18.7327 14.1519 18.6959C14.101 18.5545 14.0575 18.4104 14.0111 18.2672C14.0013 18.2682 13.9913 18.269 13.9815 18.27C13.9516 18.3698 13.9191 18.4691 13.8926 18.5696C13.865 18.6746 13.8078 18.7296 13.6948 18.7564C12.3203 19.0838 10.9477 19.4191 9.57342 19.7477C9.22766 19.8305 8.87924 19.9036 8.52939 19.967C8.37061 19.9958 8.2055 19.99 8.04324 20.0001L8.04406 20.0003Z" fill="url(#paint0_angular_16831_15653)"/>
<path d="M12.3567 4.6495V0.00195312H16.2144C16.1793 0.186482 16.1443 0.370397 16.1047 0.578835C16.2582 0.563917 16.3957 0.556765 16.5314 0.53633C16.8312 0.490964 16.8324 0.487286 16.9905 0.739863C17.7769 1.99478 18.5622 3.25031 19.3479 4.50584C19.3655 4.53384 19.3806 4.56306 19.4121 4.61844C17.0496 4.67137 14.7079 4.6356 12.3569 4.64991L12.3567 4.6495Z" fill="black"/>
<path d="M12.3567 4.6495V0.00195312H16.2144C16.1793 0.186482 16.1443 0.370397 16.1047 0.578835C16.2582 0.563917 16.3957 0.556765 16.5314 0.53633C16.8312 0.490964 16.8324 0.487286 16.9905 0.739863C17.7769 1.99478 18.5622 3.25031 19.3479 4.50584C19.3655 4.53384 19.3806 4.56306 19.4121 4.61844C17.0496 4.67137 14.7079 4.6356 12.3569 4.64991L12.3567 4.6495Z" fill="url(#paint1_angular_16831_15653)"/>
<path d="M7.65031 4.64223H0.582642C1.50242 3.16927 2.41526 1.70755 3.33157 0.239908C3.5257 0.315313 3.71595 0.393375 3.90927 0.463058C4.11137 0.536012 4.11259 0.532538 4.16225 0.323283C4.17472 0.27056 4.18698 0.217633 4.19883 0.164707C4.21068 0.111984 4.22192 0.0590573 4.2348 0H7.65052V4.64223H7.65031Z" fill="black"/>
<path d="M7.65031 4.64223H0.582642C1.50242 3.16927 2.41526 1.70755 3.33157 0.239908C3.5257 0.315313 3.71595 0.393375 3.90927 0.463058C4.11137 0.536012 4.11259 0.532538 4.16225 0.323283C4.17472 0.27056 4.18698 0.217633 4.19883 0.164707C4.21068 0.111984 4.22192 0.0590573 4.2348 0H7.65052V4.64223H7.65031Z" fill="url(#paint2_angular_16831_15653)"/>
<defs>
<radialGradient id="paint0_angular_16831_15653" cx="0" cy="0" r="1" gradientUnits="userSpaceOnUse" gradientTransform="translate(10.0527 14.2105) rotate(-90) scale(8.57473 11.0223)">
<stop stop-color="#A7B1BD"/>
<stop offset="1" stop-color="#C6D0D6"/>
</radialGradient>
<radialGradient id="paint1_angular_16831_15653" cx="0" cy="0" r="1" gradientUnits="userSpaceOnUse" gradientTransform="translate(15.902 2.81382) rotate(-90) scale(2.71927 3.88729)">
<stop stop-color="#A7B1BD"/>
<stop offset="1" stop-color="#C6D0D6"/>
</radialGradient>
<radialGradient id="paint2_angular_16831_15653" cx="0" cy="0" r="1" gradientUnits="userSpaceOnUse" gradientTransform="translate(4.13424 2.80841) rotate(-90) scale(2.71592 3.89416)">
<stop stop-color="#A7B1BD"/>
<stop offset="1" stop-color="#C6D0D6"/>
</radialGradient>
</defs>
</svg>
