<svg width="19" height="19" viewBox="0 0 19 19" fill="none" xmlns="http://www.w3.org/2000/svg">
<path fill-rule="evenodd" clip-rule="evenodd" d="M14.25 0H15.2C17.2987 0 19 1.70132 19 3.8V9.5C19 10.5493 18.1493 11.4 17.1 11.4H12.35C11.3007 11.4 10.45 12.2507 10.45 13.3V17.1C10.45 18.1493 9.59934 19 8.55 19H3.8C1.70132 19 0 17.2987 0 15.2V3.8C0 1.70132 1.70132 0 3.8 0H4.75H5.7H13.3H14.25ZM5.7 5.3065V1.425H13.3V5.3065C13.3 6.15286 12.2767 6.57671 11.6782 5.97825L10.1718 4.47175C9.80075 4.10075 9.19925 4.10075 8.82825 4.47175L7.32175 5.97825C6.72328 6.57672 5.7 6.15286 5.7 5.3065ZM13.6888 13.6311C13.4106 13.3529 12.9594 13.3529 12.6812 13.6311C12.4029 13.9094 12.4029 14.3605 12.6812 14.6388L14.1926 16.1502L12.6811 17.6617C12.4029 17.9399 12.4029 18.391 12.6811 18.6693C12.9594 18.9475 13.4105 18.9475 13.6888 18.6693L15.2002 17.1578L16.7117 18.6693C16.9899 18.9475 17.4411 18.9475 17.7193 18.6693C17.9976 18.391 17.9976 17.9399 17.7193 17.6617L16.2079 16.1502L17.7193 14.6388C17.9975 14.3605 17.9975 13.9094 17.7193 13.6311C17.441 13.3529 16.9899 13.3529 16.7117 13.6311L15.2002 15.1426L13.6888 13.6311Z" fill="#28303F"/>
<path fill-rule="evenodd" clip-rule="evenodd" d="M14.25 0H15.2C17.2987 0 19 1.70132 19 3.8V9.5C19 10.5493 18.1493 11.4 17.1 11.4H12.35C11.3007 11.4 10.45 12.2507 10.45 13.3V17.1C10.45 18.1493 9.59934 19 8.55 19H3.8C1.70132 19 0 17.2987 0 15.2V3.8C0 1.70132 1.70132 0 3.8 0H4.75H5.7H13.3H14.25ZM5.7 5.3065V1.425H13.3V5.3065C13.3 6.15286 12.2767 6.57671 11.6782 5.97825L10.1718 4.47175C9.80075 4.10075 9.19925 4.10075 8.82825 4.47175L7.32175 5.97825C6.72328 6.57672 5.7 6.15286 5.7 5.3065ZM13.6888 13.6311C13.4106 13.3529 12.9594 13.3529 12.6812 13.6311C12.4029 13.9094 12.4029 14.3605 12.6812 14.6388L14.1926 16.1502L12.6811 17.6617C12.4029 17.9399 12.4029 18.391 12.6811 18.6693C12.9594 18.9475 13.4105 18.9475 13.6888 18.6693L15.2002 17.1578L16.7117 18.6693C16.9899 18.9475 17.4411 18.9475 17.7193 18.6693C17.9976 18.391 17.9976 17.9399 17.7193 17.6617L16.2079 16.1502L17.7193 14.6388C17.9975 14.3605 17.9975 13.9094 17.7193 13.6311C17.441 13.3529 16.9899 13.3529 16.7117 13.6311L15.2002 15.1426L13.6888 13.6311Z" fill="url(#paint0_angular_17028_6881)"/>
<defs>
<radialGradient id="paint0_angular_17028_6881" cx="0" cy="0" r="1" gradientUnits="userSpaceOnUse" gradientTransform="translate(9.54749 11.4944) rotate(-90) scale(11.1159 10.4684)">
<stop stop-color="#A7B1BD"/>
<stop offset="1" stop-color="#C6D0D6"/>
</radialGradient>
</defs>
</svg>
