<svg width="52" height="52" viewBox="0 0 52 52" fill="none" xmlns="http://www.w3.org/2000/svg">
<path d="M26 52C40.3594 52 52 40.3594 52 26C52 11.6406 40.3594 0 26 0C11.6406 0 0 11.6406 0 26C0 40.3594 11.6406 52 26 52Z" fill="#EE0033"/>
<path d="M18.625 39.625C18.4015 39.6263 18.1828 39.561 17.9966 39.4375C17.8104 39.314 17.6651 39.1378 17.5795 38.9314C17.4938 38.725 17.4715 38.4978 17.5154 38.2787C17.5594 38.0596 17.6676 37.8586 17.8263 37.7013L21.6625 33.865C21.9769 33.5502 22.3505 33.3006 22.7618 33.1307C23.173 32.9608 23.6138 32.8739 24.0588 32.875H36.625C36.9234 32.875 37.2095 32.7565 37.4205 32.5455C37.6315 32.3345 37.75 32.0484 37.75 31.75V19.375C37.75 19.0766 37.6315 18.7905 37.4205 18.5795C37.2095 18.3685 36.9234 18.25 36.625 18.25H16.375C16.0766 18.25 15.7905 18.3685 15.5795 18.5795C15.3685 18.7905 15.25 19.0766 15.25 19.375V31.75C15.25 32.0484 15.3685 32.3345 15.5795 32.5455C15.7905 32.7565 16.0766 32.875 16.375 32.875H17.5C17.7984 32.875 18.0845 32.9935 18.2955 33.2045C18.5065 33.4155 18.625 33.7016 18.625 34C18.625 34.2984 18.5065 34.5845 18.2955 34.7955C18.0845 35.0065 17.7984 35.125 17.5 35.125H16.375C15.4799 35.125 14.6214 34.7694 13.9885 34.1365C13.3556 33.5036 13 32.6451 13 31.75V19.375C13 18.4799 13.3556 17.6214 13.9885 16.9885C14.6214 16.3556 15.4799 16 16.375 16H36.625C37.5201 16 38.3786 16.3556 39.0115 16.9885C39.6444 17.6214 40 18.4799 40 19.375V31.75C40 32.6451 39.6444 33.5036 39.0115 34.1365C38.3786 34.7694 37.5201 35.125 36.625 35.125H24.0588C23.9107 35.1241 23.7639 35.1525 23.6269 35.2085C23.4898 35.2645 23.3651 35.347 23.26 35.4513L19.4237 39.2987C19.3186 39.403 19.194 39.4855 19.0569 39.5415C18.9198 39.5975 18.7731 39.6259 18.625 39.625ZM33.25 22.6375C33.25 22.3391 33.1315 22.053 32.9205 21.842C32.7095 21.631 32.4234 21.5125 32.125 21.5125H19.75C19.4516 21.5125 19.1655 21.631 18.9545 21.842C18.7435 22.053 18.625 22.3391 18.625 22.6375C18.625 22.9359 18.7435 23.222 18.9545 23.433C19.1655 23.644 19.4516 23.7625 19.75 23.7625H32.125C32.4234 23.7625 32.7095 23.644 32.9205 23.433C33.1315 23.222 33.25 22.9359 33.25 22.6375ZM28.75 27.1375C28.75 26.8391 28.6315 26.553 28.4205 26.342C28.2095 26.131 27.9234 26.0125 27.625 26.0125H19.75C19.4516 26.0125 19.1655 26.131 18.9545 26.342C18.7435 26.553 18.625 26.8391 18.625 27.1375C18.625 27.4359 18.7435 27.722 18.9545 27.933C19.1655 28.144 19.4516 28.2625 19.75 28.2625H27.625C27.9234 28.2625 28.2095 28.144 28.4205 27.933C28.6315 27.722 28.75 27.4359 28.75 27.1375Z" fill="white"/>
</svg>
