<svg width="39" height="42" viewBox="0 0 39 42" fill="none" xmlns="http://www.w3.org/2000/svg">
<path d="M1.40039 38V34.0918H0.457031V33.3184H1.40039V29.4102H4.36523C5.0293 29.4102 5.53711 29.4512 5.88867 29.5332C6.38086 29.6465 6.80078 29.8516 7.14844 30.1484C7.60156 30.5312 7.93945 31.0215 8.16211 31.6191C8.38867 32.2129 8.50195 32.8926 8.50195 33.6582C8.50195 34.5332 8.36328 35.2871 8.08594 35.9199C7.80859 36.5488 7.47656 37.0059 7.08984 37.291C6.70312 37.5762 6.25781 37.7793 5.75391 37.9004C5.47656 37.9668 5.05859 38 4.5 38H1.40039ZM2.53711 36.9863H4.37109C4.94141 36.9863 5.38672 36.9336 5.70703 36.8281C6.02734 36.7227 6.28125 36.5762 6.46875 36.3887C6.73828 36.1191 6.94922 35.7578 7.10156 35.3047C7.25391 34.8516 7.33008 34.2988 7.33008 33.6465C7.33008 32.9746 7.25391 32.4375 7.10156 32.0352C6.95312 31.6328 6.75781 31.3105 6.51562 31.0684C6.27344 30.8262 6.00391 30.6582 5.70703 30.5645C5.41016 30.4707 4.95508 30.4238 4.3418 30.4238H2.53711V33.3184H4.9043V34.0918H2.53711V36.9863ZM9.54492 34.8887C9.54492 33.7363 9.86523 32.8828 10.5059 32.3281C11.041 31.8672 11.6934 31.6367 12.4629 31.6367C13.3184 31.6367 14.0176 31.918 14.5605 32.4805C15.1035 33.0391 15.375 33.8125 15.375 34.8008C15.375 35.6016 15.2539 36.2324 15.0117 36.6934C14.7734 37.1504 14.4238 37.5059 13.9629 37.7598C13.5059 38.0137 13.0059 38.1406 12.4629 38.1406C11.5918 38.1406 10.8867 37.8613 10.3477 37.3027C9.8125 36.7441 9.54492 35.9395 9.54492 34.8887ZM10.6289 34.8887C10.6289 35.6855 10.8027 36.2832 11.1504 36.6816C11.498 37.0762 11.9355 37.2734 12.4629 37.2734C12.9863 37.2734 13.4219 37.0742 13.7695 36.6758C14.1172 36.2773 14.291 35.6699 14.291 34.8535C14.291 34.084 14.1152 33.502 13.7637 33.1074C13.416 32.709 12.9824 32.5098 12.4629 32.5098C11.9355 32.5098 11.498 32.707 11.1504 33.1016C10.8027 33.4961 10.6289 34.0918 10.6289 34.8887ZM12.4746 30.0078L11.8125 31.0039H10.6055L11.8711 29.3633H12.9961L14.3145 31.0039H13.1191L12.4746 30.0078ZM12.9961 28.9355H12.1465L10.793 27.2949H12.2051L12.9961 28.9355ZM16.6172 38V31.7773H17.5664V32.6621C18.0234 31.9785 18.6836 31.6367 19.5469 31.6367C19.9219 31.6367 20.2656 31.7051 20.5781 31.8418C20.8945 31.9746 21.1309 32.1504 21.2871 32.3691C21.4434 32.5879 21.5527 32.8477 21.6152 33.1484C21.6543 33.3438 21.6738 33.6855 21.6738 34.1738V38H20.6191V34.2148C20.6191 33.7852 20.5781 33.4648 20.4961 33.2539C20.4141 33.0391 20.2676 32.8691 20.0566 32.7441C19.8496 32.6152 19.6055 32.5508 19.3242 32.5508C18.875 32.5508 18.4863 32.6934 18.1582 32.9785C17.834 33.2637 17.6719 33.8047 17.6719 34.6016V38H16.6172ZM23.1035 38.5156L24.1289 38.668C24.1719 38.9844 24.291 39.2148 24.4863 39.3594C24.748 39.5547 25.1055 39.6523 25.5586 39.6523C26.0469 39.6523 26.4238 39.5547 26.6895 39.3594C26.9551 39.1641 27.1348 38.8906 27.2285 38.5391C27.2832 38.3242 27.3086 37.873 27.3047 37.1855C26.8438 37.7285 26.2695 38 25.582 38C24.7266 38 24.0645 37.6914 23.5957 37.0742C23.127 36.457 22.8926 35.7168 22.8926 34.8535C22.8926 34.2598 23 33.7129 23.2148 33.2129C23.4297 32.709 23.7402 32.3203 24.1465 32.0469C24.5566 31.7734 25.0371 31.6367 25.5879 31.6367C26.3223 31.6367 26.9277 31.9336 27.4043 32.5273V31.7773H28.377V37.1562C28.377 38.125 28.2773 38.8105 28.0781 39.2129C27.8828 39.6191 27.5703 39.9395 27.1406 40.1738C26.7148 40.4082 26.1895 40.5254 25.5645 40.5254C24.8223 40.5254 24.2227 40.3574 23.7656 40.0215C23.3086 39.6895 23.0879 39.1875 23.1035 38.5156ZM23.9766 34.7773C23.9766 35.5938 24.1387 36.1895 24.4629 36.5645C24.7871 36.9395 25.1934 37.127 25.6816 37.127C26.166 37.127 26.5723 36.9414 26.9004 36.5703C27.2285 36.1953 27.3926 35.6094 27.3926 34.8125C27.3926 34.0508 27.2227 33.4766 26.8828 33.0898C26.5469 32.7031 26.1406 32.5098 25.6641 32.5098C25.1953 32.5098 24.7969 32.7012 24.4688 33.084C24.1406 33.4629 23.9766 34.0273 23.9766 34.7773ZM33.2695 40.3965L33.1523 39.4062C33.3828 39.4688 33.584 39.5 33.7559 39.5C33.9902 39.5 34.1777 39.4609 34.3184 39.3828C34.459 39.3047 34.5742 39.1953 34.6641 39.0547C34.7305 38.9492 34.8379 38.6875 34.9863 38.2695C35.0059 38.2109 35.0371 38.125 35.0801 38.0117L32.7188 31.7773H33.8555L35.1504 35.3809C35.3184 35.8379 35.4688 36.3184 35.6016 36.8223C35.7227 36.3379 35.8672 35.8652 36.0352 35.4043L37.3652 31.7773H38.4199L36.0527 38.1055C35.7988 38.7891 35.6016 39.2598 35.4609 39.5176C35.2734 39.8652 35.0586 40.1191 34.8164 40.2793C34.5742 40.4434 34.2852 40.5254 33.9492 40.5254C33.7461 40.5254 33.5195 40.4824 33.2695 40.3965ZM34.9863 31.0039L35.7656 29.3633H37.1484L35.8594 31.0039H34.9863Z" fill="#42526E"/>
<path d="M20 0.625C18.1458 0.625 16.3332 1.17483 14.7915 2.20497C13.2498 3.23511 12.0482 4.69929 11.3386 6.41234C10.6291 8.1254 10.4434 10.0104 10.8051 11.829C11.1669 13.6475 12.0598 15.318 13.3709 16.6291C14.682 17.9402 16.3525 18.8331 18.171 19.1949C19.9896 19.5566 21.8746 19.3709 23.5877 18.6614C25.3007 17.9518 26.7649 16.7502 27.795 15.2085C28.8252 13.6668 29.375 11.8542 29.375 10C29.375 7.5136 28.3873 5.12903 26.6291 3.37087C24.871 1.61272 22.4864 0.625 20 0.625ZM18.125 14.375C18.0427 14.3755 17.9612 14.3597 17.8851 14.3286C17.8089 14.2975 17.7397 14.2517 17.6813 14.1937L13.9313 10.4062C13.873 10.348 13.8268 10.2788 13.7952 10.2027C13.7637 10.1265 13.7474 10.0449 13.7474 9.9625C13.7474 9.79606 13.8136 9.63644 13.9313 9.51875C14.0489 9.40106 14.2086 9.33494 14.375 9.33494C14.5414 9.33494 14.7011 9.40106 14.8188 9.51875L18.125 12.8625L25.1813 5.80625C25.2989 5.68856 25.4586 5.62244 25.625 5.62244C25.7914 5.62244 25.9511 5.68856 26.0688 5.80625C26.1864 5.92394 26.2526 6.08356 26.2526 6.25C26.2526 6.41644 26.1864 6.57606 26.0688 6.69375L18.5688 14.1937C18.5104 14.2517 18.4411 14.2975 18.3649 14.3286C18.2888 14.3597 18.2073 14.3755 18.125 14.375Z" fill="#17A400"/>
</svg>
