<svg width="63" height="42" viewBox="0 0 63 42" fill="none" xmlns="http://www.w3.org/2000/svg">
<path d="M1.71094 38V29.4102H4.66992C5.33789 29.4102 5.84766 29.4512 6.19922 29.5332C6.69141 29.6465 7.11133 29.8516 7.45898 30.1484C7.91211 30.5312 8.25 31.0215 8.47266 31.6191C8.69922 32.2129 8.8125 32.8926 8.8125 33.6582C8.8125 34.3105 8.73633 34.8887 8.58398 35.3926C8.43164 35.8965 8.23633 36.3145 7.99805 36.6465C7.75977 36.9746 7.49805 37.2344 7.21289 37.4258C6.93164 37.6133 6.58984 37.7559 6.1875 37.8535C5.78906 37.9512 5.33008 38 4.81055 38H1.71094ZM2.84766 36.9863H4.68164C5.24805 36.9863 5.69141 36.9336 6.01172 36.8281C6.33594 36.7227 6.59375 36.5742 6.78516 36.3828C7.05469 36.1133 7.26367 35.752 7.41211 35.2988C7.56445 34.8418 7.64062 34.2891 7.64062 33.6406C7.64062 32.7422 7.49219 32.0527 7.19531 31.5723C6.90234 31.0879 6.54492 30.7637 6.12305 30.5996C5.81836 30.4824 5.32812 30.4238 4.65234 30.4238H2.84766V36.9863ZM14.3262 38V37.0859C13.8418 37.7891 13.1836 38.1406 12.3516 38.1406C11.9844 38.1406 11.6406 38.0703 11.3203 37.9297C11.0039 37.7891 10.7676 37.6133 10.6113 37.4023C10.459 37.1875 10.3516 36.9258 10.2891 36.6172C10.2461 36.4102 10.2246 36.082 10.2246 35.6328V31.7773H11.2793V35.2285C11.2793 35.7793 11.3008 36.1504 11.3438 36.3418C11.4102 36.6191 11.5508 36.8379 11.7656 36.998C11.9805 37.1543 12.2461 37.2324 12.5625 37.2324C12.8789 37.2324 13.1758 37.1523 13.4531 36.9922C13.7305 36.8281 13.9258 36.6074 14.0391 36.3301C14.1562 36.0488 14.2148 35.6426 14.2148 35.1113V31.7773H15.2695V38H14.3262ZM16.8809 40.3965L16.7637 39.4062C16.9941 39.4688 17.1953 39.5 17.3672 39.5C17.6016 39.5 17.7891 39.4609 17.9297 39.3828C18.0703 39.3047 18.1855 39.1953 18.2754 39.0547C18.3418 38.9492 18.4492 38.6875 18.5977 38.2695C18.6172 38.2109 18.6484 38.125 18.6914 38.0117L16.3301 31.7773H17.4668L18.7617 35.3809C18.9297 35.8379 19.0801 36.3184 19.2129 36.8223C19.334 36.3379 19.4785 35.8652 19.6465 35.4043L20.9766 31.7773H22.0312L19.6641 38.1055C19.4102 38.7891 19.2129 39.2598 19.0723 39.5176C18.8848 39.8652 18.6699 40.1191 18.4277 40.2793C18.1855 40.4434 17.8965 40.5254 17.5605 40.5254C17.3574 40.5254 17.1309 40.4824 16.8809 40.3965ZM27.1875 35.9961L28.2773 36.1309C28.1055 36.7676 27.7871 37.2617 27.3223 37.6133C26.8574 37.9648 26.2637 38.1406 25.541 38.1406C24.6309 38.1406 23.9082 37.8613 23.373 37.3027C22.8418 36.7402 22.5762 35.9531 22.5762 34.9414C22.5762 33.8945 22.8457 33.082 23.3848 32.5039C23.9238 31.9258 24.623 31.6367 25.4824 31.6367C26.3145 31.6367 26.9941 31.9199 27.5215 32.4863C28.0488 33.0527 28.3125 33.8496 28.3125 34.877C28.3125 34.9395 28.3105 35.0332 28.3066 35.1582H23.666C23.7051 35.8418 23.8984 36.3652 24.2461 36.7285C24.5938 37.0918 25.0273 37.2734 25.5469 37.2734C25.9336 37.2734 26.2637 37.1719 26.5371 36.9688C26.8105 36.7656 27.0273 36.4414 27.1875 35.9961ZM23.7246 34.291H27.1992C27.1523 33.7676 27.0195 33.375 26.8008 33.1133C26.4648 32.707 26.0293 32.5039 25.4941 32.5039C25.0098 32.5039 24.6016 32.666 24.2695 32.9902C23.9414 33.3145 23.7598 33.748 23.7246 34.291ZM25.459 30.0078L24.7969 31.0039H23.5898L24.8555 29.3633H25.9805L27.2988 31.0039H26.1035L25.459 30.0078ZM24.9258 39.9043V38.7031H26.127V39.9043H24.9258ZM31.9102 37.0566L32.0625 37.9883C31.7656 38.0508 31.5 38.082 31.2656 38.082C30.8828 38.082 30.5859 38.0215 30.375 37.9004C30.1641 37.7793 30.0156 37.6211 29.9297 37.4258C29.8438 37.2266 29.8008 36.8105 29.8008 36.1777V32.5977H29.0273V31.7773H29.8008V30.2363L30.8496 29.6035V31.7773H31.9102V32.5977H30.8496V36.2363C30.8496 36.5371 30.8672 36.7305 30.9023 36.8164C30.9414 36.9023 31.002 36.9707 31.084 37.0215C31.1699 37.0723 31.291 37.0977 31.4473 37.0977C31.5645 37.0977 31.7188 37.084 31.9102 37.0566ZM36.2871 38V29.4102H37.3418V32.4922C37.834 31.9219 38.4551 31.6367 39.2051 31.6367C39.666 31.6367 40.0664 31.7285 40.4062 31.9121C40.7461 32.0918 40.9883 32.3418 41.1328 32.6621C41.2812 32.9824 41.3555 33.4473 41.3555 34.0566V38H40.3008V34.0566C40.3008 33.5293 40.1855 33.1465 39.9551 32.9082C39.7285 32.666 39.4062 32.5449 38.9883 32.5449C38.6758 32.5449 38.3809 32.627 38.1035 32.791C37.8301 32.9512 37.6348 33.1699 37.5176 33.4473C37.4004 33.7246 37.3418 34.1074 37.3418 34.5957V38H36.2871ZM42.5742 34.8887C42.5742 33.7363 42.8945 32.8828 43.5352 32.3281C44.0703 31.8672 44.7227 31.6367 45.4922 31.6367C46.3477 31.6367 47.0469 31.918 47.5898 32.4805C48.1328 33.0391 48.4043 33.8125 48.4043 34.8008C48.4043 35.6016 48.2832 36.2324 48.041 36.6934C47.8027 37.1504 47.4531 37.5059 46.9922 37.7598C46.5352 38.0137 46.0352 38.1406 45.4922 38.1406C44.6211 38.1406 43.916 37.8613 43.377 37.3027C42.8418 36.7441 42.5742 35.9395 42.5742 34.8887ZM43.6582 34.8887C43.6582 35.6855 43.832 36.2832 44.1797 36.6816C44.5273 37.0762 44.9648 37.2734 45.4922 37.2734C46.0156 37.2734 46.4512 37.0742 46.7988 36.6758C47.1465 36.2773 47.3203 35.6699 47.3203 34.8535C47.3203 34.084 47.1445 33.502 46.793 33.1074C46.4453 32.709 46.0117 32.5098 45.4922 32.5098C44.9648 32.5098 44.5273 32.707 44.1797 33.1016C43.832 33.4961 43.6582 34.0918 43.6582 34.8887ZM53.707 37.2324C53.3164 37.5645 52.9395 37.7988 52.5762 37.9355C52.2168 38.0723 51.8301 38.1406 51.416 38.1406C50.7324 38.1406 50.207 37.9746 49.8398 37.6426C49.4727 37.3066 49.2891 36.8789 49.2891 36.3594C49.2891 36.0547 49.3574 35.7773 49.4941 35.5273C49.6348 35.2734 49.8164 35.0703 50.0391 34.918C50.2656 34.7656 50.5195 34.6504 50.8008 34.5723C51.0078 34.5176 51.3203 34.4648 51.7383 34.4141C52.5898 34.3125 53.2168 34.1914 53.6191 34.0508C53.623 33.9062 53.625 33.8145 53.625 33.7754C53.625 33.3457 53.5254 33.043 53.3262 32.8672C53.0566 32.6289 52.6562 32.5098 52.125 32.5098C51.6289 32.5098 51.2617 32.5977 51.0234 32.7734C50.7891 32.9453 50.6152 33.252 50.502 33.6934L49.4707 33.5527C49.5645 33.1113 49.7188 32.7559 49.9336 32.4863C50.1484 32.2129 50.459 32.0039 50.8652 31.8594C51.2715 31.7109 51.7422 31.6367 52.2773 31.6367C52.8086 31.6367 53.2402 31.6992 53.5723 31.8242C53.9043 31.9492 54.1484 32.1074 54.3047 32.2988C54.4609 32.4863 54.5703 32.7246 54.6328 33.0137C54.668 33.1934 54.6855 33.5176 54.6855 33.9863V35.3926C54.6855 36.373 54.707 36.9941 54.75 37.2559C54.7969 37.5137 54.8867 37.7617 55.0195 38H53.918C53.8086 37.7812 53.7383 37.5254 53.707 37.2324ZM53.6191 34.877C53.2363 35.0332 52.6621 35.166 51.8965 35.2754C51.4629 35.3379 51.1562 35.4082 50.9766 35.4863C50.7969 35.5645 50.6582 35.6797 50.5605 35.832C50.4629 35.9805 50.4141 36.1465 50.4141 36.3301C50.4141 36.6113 50.5195 36.8457 50.7305 37.0332C50.9453 37.2207 51.2578 37.3145 51.668 37.3145C52.0742 37.3145 52.4355 37.2266 52.752 37.0508C53.0684 36.8711 53.3008 36.627 53.4492 36.3184C53.5625 36.0801 53.6191 35.7285 53.6191 35.2637V34.877ZM53.0449 31.0039H52.1953L50.8418 29.3633H52.2539L53.0449 31.0039ZM56.3262 38V31.7773H57.2754V32.6621C57.7324 31.9785 58.3926 31.6367 59.2559 31.6367C59.6309 31.6367 59.9746 31.7051 60.2871 31.8418C60.6035 31.9746 60.8398 32.1504 60.9961 32.3691C61.1523 32.5879 61.2617 32.8477 61.3242 33.1484C61.3633 33.3438 61.3828 33.6855 61.3828 34.1738V38H60.3281V34.2148C60.3281 33.7852 60.2871 33.4648 60.2051 33.2539C60.123 33.0391 59.9766 32.8691 59.7656 32.7441C59.5586 32.6152 59.3145 32.5508 59.0332 32.5508C58.584 32.5508 58.1953 32.6934 57.8672 32.9785C57.543 33.2637 57.3809 33.8047 57.3809 34.6016V38H56.3262Z" fill="#42526E"/>
<path d="M26.7071 15.6341L27.5766 14.7646C27.8816 14.4596 28.3604 14.4466 28.7016 14.7108C31.1046 16.57 34.6162 16.3375 36.7421 14.0062C38.8708 11.6716 38.7637 7.96873 36.5091 5.75498C34.2204 3.50706 30.5537 3.48415 28.24 5.68581L29.2696 6.7154C29.7529 7.19873 29.4854 8.02623 28.8104 8.13498L23.9062 8.92498C23.3425 9.01581 22.855 8.52831 22.9458 7.96415L23.7375 3.06165C23.8466 2.38706 24.6737 2.11956 25.1571 2.6029L26.19 3.63581C29.7733 0.169147 35.5804 0.334564 38.9562 4.1229C41.7779 7.28915 41.7662 12.7516 38.9325 15.9071C35.7271 19.4762 30.3529 19.795 26.7591 16.8708C26.3783 16.5604 26.3596 15.9816 26.7071 15.6341Z" fill="#B00000"/>
</svg>
