<svg width="20" height="20" viewBox="0 0 20 20" fill="none" xmlns="http://www.w3.org/2000/svg">
<path d="M12.0997 19.6875C12.8975 19.6992 13.6884 19.5393 14.4191 19.2188C15.249 18.8724 15.9563 18.2855 16.4497 17.5336C16.9431 16.7817 17.2001 15.8992 17.1875 15C17.1875 12.1875 16.5625 11.5625 15.625 9.6875C14.6875 7.8125 15.625 5.9375 15.625 5.9375C14.8754 6.12749 14.2137 6.56868 13.75 7.1875C13.75 0.625 9.375 0.3125 9.375 0.3125C9.63611 1.03732 9.71566 1.81507 9.60671 2.57774C9.49776 3.34042 9.20361 4.06478 8.75 4.6875C7.1875 6.875 5.625 8.125 5 10.625C5 10.625 3.75 10 4.0625 8.75C4.0625 8.75 2.8125 10.9375 2.8125 14.375C2.8125 18.1444 5.83188 19.25 7.31813 19.5656C7.71341 19.648 8.11622 19.6889 8.52 19.6875H12.0997Z" fill="#FEBD55"/>
<path d="M7.76306 19.6875C7.76306 19.6875 4.53931 18.4788 4.53931 14.8519C4.53931 10.8225 7.33556 9.375 7.33556 9.375C7.33556 9.375 6.55431 10.8225 7.36024 11.2253C7.36024 11.2253 8.70868 6.83375 12.3356 5.625C12.3356 5.625 11.069 6.95719 11.8749 9.375C12.6809 11.7928 15.4112 12.3356 15.4606 15V15.3125C15.4922 16.2174 15.2528 17.1112 14.7731 17.8791C14.1518 18.8469 13.4346 19.6875 11.7927 19.6875H7.76306Z" fill="#FC9E20"/>
<path d="M8.125 19.6875C7.38524 19.3782 6.75332 18.8573 6.30855 18.1901C5.86378 17.523 5.62598 16.7393 5.625 15.9375C5.625 12.8125 7.1875 11.5625 7.1875 11.5625C7.1875 11.5625 7.1875 12.8125 7.8125 13.125C7.8125 13.125 8.4375 8.75 11.25 7.8125C11.25 7.8125 10.3125 8.4375 10.9375 10.3125C11.5625 12.1875 14.375 12.8125 14.375 15.9375V16.2097C14.386 16.9419 14.1875 17.6619 13.8028 18.285C13.5389 18.7233 13.1638 19.0839 12.7154 19.3302C12.267 19.5766 11.7614 19.6998 11.25 19.6875H8.125Z" fill="#E03E3E"/>
<path d="M8.12506 18.125C8.06326 18.125 8.00285 18.1067 7.95147 18.0723C7.9001 18.038 7.86005 17.9892 7.83641 17.9321C7.81276 17.875 7.80657 17.8122 7.81862 17.7516C7.83068 17.6909 7.86043 17.6353 7.90412 17.5916L11.6541 13.8416C11.7131 13.7846 11.792 13.7531 11.8739 13.7539C11.9559 13.7546 12.0342 13.7874 12.0922 13.8454C12.1501 13.9033 12.183 13.9817 12.1837 14.0636C12.1844 14.1456 12.1529 14.2245 12.096 14.2834L8.34599 18.0334C8.2874 18.0921 8.20793 18.125 8.12506 18.125Z" fill="#FBFBFB"/>
<path d="M10.9375 18.4375C10.7521 18.4375 10.5708 18.3825 10.4167 18.2795C10.2625 18.1765 10.1423 18.0301 10.0714 17.8588C10.0004 17.6875 9.98184 17.499 10.018 17.3171C10.0542 17.1352 10.1435 16.9682 10.2746 16.8371C10.4057 16.706 10.5727 16.6167 10.7546 16.5805C10.9365 16.5443 11.125 16.5629 11.2963 16.6339C11.4676 16.7048 11.614 16.825 11.717 16.9792C11.82 17.1333 11.875 17.3146 11.875 17.5C11.875 17.7486 11.7762 17.9871 11.6004 18.1629C11.4246 18.3387 11.1861 18.4375 10.9375 18.4375ZM10.9375 17.1875C10.8757 17.1875 10.8153 17.2058 10.7639 17.2402C10.7125 17.2745 10.6724 17.3233 10.6488 17.3804C10.6251 17.4375 10.6189 17.5004 10.631 17.561C10.6431 17.6216 10.6728 17.6773 10.7165 17.721C10.7602 17.7647 10.8159 17.7944 10.8765 17.8065C10.9372 17.8186 11 17.8124 11.0571 17.7887C11.1142 17.7651 11.163 17.725 11.1973 17.6736C11.2317 17.6222 11.25 17.5618 11.25 17.5C11.25 17.4171 11.2171 17.3376 11.1585 17.279C11.0999 17.2204 11.0204 17.1875 10.9375 17.1875Z" fill="#FBFBFB"/>
<path d="M9.06251 15.3125C8.87708 15.3125 8.69583 15.2575 8.54166 15.1545C8.38748 15.0515 8.26732 14.9051 8.19636 14.7338C8.12541 14.5625 8.10684 14.374 8.14301 14.1921C8.17919 14.0102 8.26848 13.8432 8.39959 13.7121C8.5307 13.581 8.69775 13.4917 8.87961 13.4555C9.06147 13.4193 9.24997 13.4379 9.42127 13.5089C9.59258 13.5798 9.739 13.7 9.84201 13.8542C9.94503 14.0083 10 14.1896 10 14.375C10 14.6236 9.90124 14.8621 9.72542 15.0379C9.54961 15.2137 9.31115 15.3125 9.06251 15.3125ZM9.06251 14.0625C9.0007 14.0625 8.94028 14.0808 8.88889 14.1152C8.8375 14.1495 8.79744 14.1983 8.77379 14.2554C8.75014 14.3125 8.74395 14.3754 8.75601 14.436C8.76807 14.4966 8.79783 14.5523 8.84153 14.596C8.88524 14.6397 8.94092 14.6694 9.00154 14.6815C9.06216 14.6936 9.12499 14.6874 9.1821 14.6637C9.2392 14.6401 9.288 14.6 9.32234 14.5486C9.35668 14.4972 9.37501 14.4368 9.37501 14.375C9.37501 14.2921 9.34208 14.2126 9.28348 14.154C9.22487 14.0954 9.14539 14.0625 9.06251 14.0625Z" fill="#FBFBFB"/>
</svg>
