<svg width="59" height="42" viewBox="0 0 59 42" fill="none" xmlns="http://www.w3.org/2000/svg">
<path d="M6.05078 34.6309V33.623L9.68945 33.6172V36.8047C9.13086 37.25 8.55469 37.5859 7.96094 37.8125C7.36719 38.0352 6.75781 38.1465 6.13281 38.1465C5.28906 38.1465 4.52148 37.9668 3.83008 37.6074C3.14258 37.2441 2.62305 36.7207 2.27148 36.0371C1.91992 35.3535 1.74414 34.5898 1.74414 33.7461C1.74414 32.9102 1.91797 32.1309 2.26562 31.4082C2.61719 30.6816 3.12109 30.1426 3.77734 29.791C4.43359 29.4395 5.18945 29.2637 6.04492 29.2637C6.66602 29.2637 7.22656 29.3652 7.72656 29.5684C8.23047 29.7676 8.625 30.0469 8.91016 30.4062C9.19531 30.7656 9.41211 31.2344 9.56055 31.8125L8.53516 32.0938C8.40625 31.6562 8.24609 31.3125 8.05469 31.0625C7.86328 30.8125 7.58984 30.6133 7.23438 30.4648C6.87891 30.3125 6.48438 30.2363 6.05078 30.2363C5.53125 30.2363 5.08203 30.3164 4.70312 30.4766C4.32422 30.6328 4.01758 30.8398 3.7832 31.0977C3.55273 31.3555 3.37305 31.6387 3.24414 31.9473C3.02539 32.4785 2.91602 33.0547 2.91602 33.6758C2.91602 34.4414 3.04688 35.082 3.30859 35.5977C3.57422 36.1133 3.95898 36.4961 4.46289 36.7461C4.9668 36.9961 5.50195 37.1211 6.06836 37.1211C6.56055 37.1211 7.04102 37.0273 7.50977 36.8398C7.97852 36.6484 8.33398 36.4453 8.57617 36.2305V34.6309H6.05078ZM10.8438 34.8887C10.8438 33.7363 11.1641 32.8828 11.8047 32.3281C12.3398 31.8672 12.9922 31.6367 13.7617 31.6367C14.6172 31.6367 15.3164 31.918 15.8594 32.4805C16.4023 33.0391 16.6738 33.8125 16.6738 34.8008C16.6738 35.6016 16.5527 36.2324 16.3105 36.6934C16.0723 37.1504 15.7227 37.5059 15.2617 37.7598C14.8047 38.0137 14.3047 38.1406 13.7617 38.1406C12.8906 38.1406 12.1855 37.8613 11.6465 37.3027C11.1113 36.7441 10.8438 35.9395 10.8438 34.8887ZM11.9277 34.8887C11.9277 35.6855 12.1016 36.2832 12.4492 36.6816C12.7969 37.0762 13.2344 37.2734 13.7617 37.2734C14.2852 37.2734 14.7207 37.0742 15.0684 36.6758C15.416 36.2773 15.5898 35.6699 15.5898 34.8535C15.5898 34.084 15.4141 33.502 15.0625 33.1074C14.7148 32.709 14.2812 32.5098 13.7617 32.5098C13.2344 32.5098 12.7969 32.707 12.4492 33.1016C12.1016 33.4961 11.9277 34.0918 11.9277 34.8887ZM13.1172 39.9043V38.7031H14.3184V39.9043H13.1172ZM17.9219 30.623V29.4102H18.9766V30.623H17.9219ZM17.9219 38V31.7773H18.9766V38H17.9219ZM24.9004 38H23.9219V29.4102H24.9766V32.4746C25.4219 31.916 25.9902 31.6367 26.6816 31.6367C27.0645 31.6367 27.4258 31.7148 27.7656 31.8711C28.1094 32.0234 28.3906 32.2402 28.6094 32.5215C28.832 32.7988 29.0059 33.1348 29.1309 33.5293C29.2559 33.9238 29.3184 34.3457 29.3184 34.7949C29.3184 35.8613 29.0547 36.6855 28.5273 37.2676C28 37.8496 27.3672 38.1406 26.6289 38.1406C25.8945 38.1406 25.3184 37.834 24.9004 37.2207V38ZM24.8887 34.8418C24.8887 35.5879 24.9902 36.127 25.1934 36.459C25.5254 37.002 25.9746 37.2734 26.541 37.2734C27.002 37.2734 27.4004 37.0742 27.7363 36.6758C28.0723 36.2734 28.2402 35.6758 28.2402 34.8828C28.2402 34.0703 28.0781 33.4707 27.7539 33.084C27.4336 32.6973 27.0449 32.5039 26.5879 32.5039C26.127 32.5039 25.7285 32.7051 25.3926 33.1074C25.0566 33.5059 24.8887 34.084 24.8887 34.8418ZM36.3555 33.002V31.7773H37.4863V32.7441C37.4863 33.3574 37.416 33.7852 37.2754 34.0273C36.916 34.6523 36.3672 35.0039 35.6289 35.082V38H34.6855V37.0859C34.2012 37.7891 33.543 38.1406 32.7109 38.1406C32.3477 38.1406 32.0059 38.0723 31.6855 37.9355C31.3691 37.7949 31.1328 37.6172 30.9766 37.4023C30.8203 37.1875 30.7109 36.9258 30.6484 36.6172C30.6055 36.4062 30.584 36.0781 30.584 35.6328V31.7773H31.6387V35.2285C31.6387 35.7871 31.6602 36.1582 31.7031 36.3418C31.8398 36.9355 32.2461 37.2324 32.9219 37.2324C33.2461 37.2324 33.5449 37.1504 33.8184 36.9863C34.0957 36.8223 34.291 36.6016 34.4043 36.3242C34.5176 36.0469 34.5742 35.6426 34.5742 35.1113V31.7773H35.6289V34.6367C36.125 34.5508 36.4961 34.3184 36.7422 33.9395C36.8516 33.7754 36.9062 33.4629 36.9062 33.002H36.3555ZM42.7246 38V37.0859C42.2402 37.7891 41.582 38.1406 40.75 38.1406C40.3828 38.1406 40.0391 38.0703 39.7188 37.9297C39.4023 37.7891 39.166 37.6133 39.0098 37.4023C38.8574 37.1875 38.75 36.9258 38.6875 36.6172C38.6445 36.4102 38.623 36.082 38.623 35.6328V31.7773H39.6777V35.2285C39.6777 35.7793 39.6992 36.1504 39.7422 36.3418C39.8086 36.6191 39.9492 36.8379 40.1641 36.998C40.3789 37.1543 40.6445 37.2324 40.9609 37.2324C41.2773 37.2324 41.5742 37.1523 41.8516 36.9922C42.1289 36.8281 42.3242 36.6074 42.4375 36.3301C42.5547 36.0488 42.6133 35.6426 42.6133 35.1113V31.7773H43.668V38H42.7246ZM50.9688 37.0566L51.1211 37.9883C50.8242 38.0508 50.5586 38.082 50.3242 38.082C49.9414 38.082 49.6445 38.0215 49.4336 37.9004C49.2227 37.7793 49.0742 37.6211 48.9883 37.4258C48.9023 37.2266 48.8594 36.8105 48.8594 36.1777V32.5977H48.0859V31.7773H48.8594V30.2363L49.9082 29.6035V31.7773H50.9688V32.5977H49.9082V36.2363C49.9082 36.5371 49.9258 36.7305 49.9609 36.8164C50 36.9023 50.0605 36.9707 50.1426 37.0215C50.2285 37.0723 50.3496 37.0977 50.5059 37.0977C50.623 37.0977 50.7773 37.084 50.9688 37.0566ZM56.0664 37.2324C55.6758 37.5645 55.2988 37.7988 54.9355 37.9355C54.5762 38.0723 54.1895 38.1406 53.7754 38.1406C53.0918 38.1406 52.5664 37.9746 52.1992 37.6426C51.832 37.3066 51.6484 36.8789 51.6484 36.3594C51.6484 36.0547 51.7168 35.7773 51.8535 35.5273C51.9941 35.2734 52.1758 35.0703 52.3984 34.918C52.625 34.7656 52.8789 34.6504 53.1602 34.5723C53.3672 34.5176 53.6797 34.4648 54.0977 34.4141C54.9492 34.3125 55.5762 34.1914 55.9785 34.0508C55.9824 33.9062 55.9844 33.8145 55.9844 33.7754C55.9844 33.3457 55.8848 33.043 55.6855 32.8672C55.416 32.6289 55.0156 32.5098 54.4844 32.5098C53.9883 32.5098 53.6211 32.5977 53.3828 32.7734C53.1484 32.9453 52.9746 33.252 52.8613 33.6934L51.8301 33.5527C51.9238 33.1113 52.0781 32.7559 52.293 32.4863C52.5078 32.2129 52.8184 32.0039 53.2246 31.8594C53.6309 31.7109 54.1016 31.6367 54.6367 31.6367C55.168 31.6367 55.5996 31.6992 55.9316 31.8242C56.2637 31.9492 56.5078 32.1074 56.6641 32.2988C56.8203 32.4863 56.9297 32.7246 56.9922 33.0137C57.0273 33.1934 57.0449 33.5176 57.0449 33.9863V35.3926C57.0449 36.373 57.0664 36.9941 57.1094 37.2559C57.1562 37.5137 57.2461 37.7617 57.3789 38H56.2773C56.168 37.7812 56.0977 37.5254 56.0664 37.2324ZM55.9785 34.877C55.5957 35.0332 55.0215 35.166 54.2559 35.2754C53.8223 35.3379 53.5156 35.4082 53.3359 35.4863C53.1562 35.5645 53.0176 35.6797 52.9199 35.832C52.8223 35.9805 52.7734 36.1465 52.7734 36.3301C52.7734 36.6113 52.8789 36.8457 53.0898 37.0332C53.3047 37.2207 53.6172 37.3145 54.0273 37.3145C54.4336 37.3145 54.7949 37.2266 55.1113 37.0508C55.4277 36.8711 55.6602 36.627 55.8086 36.3184C55.9219 36.0801 55.9785 35.7285 55.9785 35.2637V34.877ZM53.9277 31.0039L54.707 29.3633H56.0898L54.8008 31.0039H53.9277Z" fill="#42526E"/>
<g clip-path="url(#clip0)">
<path d="M38.8175 15.5886L38.7142 15.3653C38.4044 14.6333 34.5881 13.5114 34.2719 13.4934L34.0188 13.5129C33.4985 13.62 32.9253 14.1131 31.7221 15.1796C30.3666 14.5523 28.51 12.8803 27.6348 11.8928C26.6871 10.8251 25.5047 9.02941 25.0798 7.68795C26.4522 6.47168 27.024 5.94373 27.0604 5.35648C27.0798 5.04022 26.4252 1.11921 25.7357 0.721577L25.5291 0.591224C25.0901 0.308449 24.4267 -0.118961 23.6894 0.0310396C23.5114 0.068439 23.337 0.138235 23.1743 0.238854C22.6798 0.551404 21.4689 1.3917 20.9163 2.4904C20.5755 3.17452 20.4205 9.41792 25.1005 14.6956C29.0464 19.1481 33.7753 19.9651 35.609 20H35.8507C36.0426 19.9959 36.1903 19.9825 36.2809 19.9639L36.3055 19.96L36.3817 19.9366C37.5385 19.5222 38.5184 18.4196 38.8863 17.9652C39.5663 17.1236 39.0809 16.1242 38.8175 15.5886Z" fill="#00857F"/>
</g>
<defs>
<clipPath id="clip0">
<rect width="20" height="20" fill="white" transform="translate(20)"/>
</clipPath>
</defs>
</svg>
