<svg width="70" height="70" viewBox="0 0 70 70" fill="none" xmlns="http://www.w3.org/2000/svg">
<g id="i_khuyenmai">
<path id="Fill 1" fill-rule="evenodd" clip-rule="evenodd" d="M70 35C70 54.3299 54.3304 70 35 70C15.6706 70 0 54.3299 0 35C0 15.6701 15.6706 0 35 0C54.3304 0 70 15.6701 70 35Z" fill="#CECECE"/>
<g id="gift-box">
<path id="Shape" fill-rule="evenodd" clip-rule="evenodd" d="M55.1259 28.6863C55.382 28.6863 55.5916 28.769 55.7552 28.9343C55.9191 29.1 56.0004 29.3115 56 29.5687V38.3927C56 38.6498 55.9184 38.8613 55.7545 39.0266C55.5907 39.1918 55.3809 39.2744 55.1253 39.2744H52.5013V50.7456C52.5013 51.4806 52.2456 52.1056 51.7356 52.6201C51.225 53.1351 50.6055 53.3922 49.8759 53.3922H20.1252C19.3958 53.3922 18.7759 53.1351 18.2658 52.6201C17.7554 52.106 17.5001 51.4813 17.5001 50.7456V39.2744H14.8749C14.6198 39.2744 14.4099 39.1918 14.246 39.0266C14.0818 38.8614 14 38.6498 14 38.3927V29.5687C14 29.3115 14.0821 29.1 14.246 28.9343C14.41 28.769 14.6195 28.6863 14.8749 28.6863H26.9066C25.2111 28.6863 23.7665 28.0842 22.5725 26.8804C21.3783 25.6766 20.7815 24.2195 20.7815 22.5098C20.7815 20.8002 21.3786 19.3434 22.5725 18.1393C23.7662 16.9351 25.2111 16.3334 26.9066 16.3334C28.8573 16.3334 30.3885 17.041 31.5007 18.4564L35.0003 23.006L38.5006 18.4564C39.6125 17.041 41.1441 16.3334 43.0945 16.3334C44.7897 16.3334 46.2344 16.9354 47.4288 18.1393C48.6226 19.3434 49.2198 20.8002 49.2198 22.5098C49.2198 24.2195 48.6226 25.6763 47.4288 26.8804C46.2344 28.0846 44.7897 28.6863 43.0945 28.6863H55.1259ZM43.0945 19.8629C42.3106 19.8629 41.6819 20.1478 41.208 20.7174L37.7894 25.1566H43.0945C43.8241 25.1566 44.4436 24.8995 44.9543 24.3847C45.4635 23.8702 45.7192 23.2451 45.7192 22.5097C45.7192 21.7744 45.4642 21.1492 44.9543 20.6348C44.4439 20.12 43.8241 19.8629 43.0945 19.8629ZM26.9064 25.1567C26.1771 25.1567 25.5577 24.8995 25.0464 24.3848C24.5362 23.8703 24.2809 23.2452 24.2809 22.5098C24.2809 21.7745 24.5359 21.1496 25.0464 20.6349C25.5569 20.1201 26.1768 19.863 26.9061 19.863C27.6903 19.863 28.3191 20.1475 28.793 20.7175L32.2386 25.1568H26.9064V25.1567ZM39.3758 46.8853V33.9805V28.6863H30.6251V33.9805V46.8853V48.4291C30.6251 48.8888 30.7893 49.2425 31.1176 49.491C31.4458 49.7392 31.865 49.8634 32.3755 49.8634H37.6258C38.1355 49.8634 38.555 49.7392 38.8834 49.491C39.2112 49.2425 39.3758 48.8888 39.3758 48.4291V46.8853Z" fill="white"/>
</g>
</g>
</svg>
