<svg width="70" height="70" viewBox="0 0 70 70" fill="none" xmlns="http://www.w3.org/2000/svg">
  <g id="i_khuyenmai">
    <path id="Fill 1" fill-rule="evenodd" clip-rule="evenodd" d="M70 35C70 54.3299 54.3304 70 35 70C15.6706 70 0 54.3299 0 35C0 15.6701 15.6706 0 35 0C54.3304 0 70 15.6701 70 35Z" fill="#EE0033"/>
    <g id="gift-box">
      <path id="Shape" fill-rule="evenodd" clip-rule="evenodd" d="M55.1259 28.6864C55.382 28.6864 55.5916 28.7691 55.7552 28.9344C55.9191 29.1001 56.0004 29.3116 56 29.5688V38.3928C56 38.6499 55.9184 38.8614 55.7545 39.0267C55.5907 39.1919 55.3809 39.2745 55.1253 39.2745H52.5013V50.7457C52.5013 51.4807 52.2456 52.1057 51.7356 52.6203C51.225 53.1352 50.6055 53.3923 49.8759 53.3923H20.1252C19.3958 53.3923 18.7759 53.1352 18.2658 52.6203C17.7554 52.1061 17.5001 51.4814 17.5001 50.7457V39.2745H14.8749C14.6198 39.2745 14.4099 39.1919 14.246 39.0267C14.0818 38.8615 14 38.6499 14 38.3928V29.5688C14 29.3116 14.0821 29.1001 14.246 28.9344C14.41 28.7691 14.6195 28.6864 14.8749 28.6864H26.9066C25.2111 28.6864 23.7665 28.0844 22.5725 26.8805C21.3783 25.6768 20.7815 24.2196 20.7815 22.51C20.7815 20.8003 21.3786 19.3436 22.5725 18.1394C23.7662 16.9352 25.2111 16.3335 26.9066 16.3335C28.8573 16.3335 30.3885 17.0411 31.5007 18.4565L35.0003 23.0061L38.5006 18.4565C39.6125 17.0411 41.1441 16.3335 43.0945 16.3335C44.7897 16.3335 46.2344 16.9356 47.4288 18.1394C48.6226 19.3436 49.2198 20.8003 49.2198 22.51C49.2198 24.2196 48.6226 25.6764 47.4288 26.8805C46.2344 28.0848 44.7897 28.6864 43.0945 28.6864H55.1259ZM43.0945 19.863C42.3106 19.863 41.6819 20.1479 41.208 20.7176L37.7894 25.1567H43.0945C43.8241 25.1567 44.4436 24.8996 44.9543 24.3848C45.4635 23.8704 45.7192 23.2452 45.7192 22.5099C45.7192 21.7745 45.4642 21.1494 44.9543 20.6349C44.4439 20.1201 43.8241 19.863 43.0945 19.863ZM26.9064 25.1568C26.1771 25.1568 25.5577 24.8996 25.0464 24.3849C24.5362 23.8705 24.2809 23.2453 24.2809 22.51C24.2809 21.7746 24.5359 21.1498 25.0464 20.635C25.5569 20.1202 26.1768 19.8631 26.9061 19.8631C27.6903 19.8631 28.3191 20.1477 28.793 20.7177L32.2386 25.1569H26.9064V25.1568ZM39.3758 46.8855V33.9807V28.6864H30.6251V33.9807V46.8855V48.4293C30.6251 48.889 30.7893 49.2426 31.1176 49.4911C31.4458 49.7393 31.865 49.8635 32.3755 49.8635H37.6258C38.1355 49.8635 38.555 49.7393 38.8834 49.4911C39.2112 49.2426 39.3758 48.889 39.3758 48.4293V46.8855Z" fill="white"/>
    </g>
  </g>
</svg>
