<svg xmlns="http://www.w3.org/2000/svg" xmlns:xlink="http://www.w3.org/1999/xlink" viewBox="0 0 413.02 353.45"><defs><style>.cls-1{isolation:isolate;}.cls-2{opacity:0.53;mix-blend-mode:multiply;fill:url(#radial-gradient);}.cls-3{fill:url(#linear-gradient);}.cls-4{fill:url(#linear-gradient-2);}.cls-5{fill:url(#linear-gradient-3);}.cls-6{fill:url(#linear-gradient-4);}.cls-7{fill:url(#linear-gradient-5);}.cls-8{fill:url(#linear-gradient-6);}.cls-9{fill:url(#Degradado_sin_nombre_2);}.cls-10{fill:url(#linear-gradient-7);}.cls-11,.cls-14{fill:#fff;}.cls-11{mix-blend-mode:soft-light;}.cls-12{fill:url(#linear-gradient-8);}.cls-13{fill:url(#Degradado_sin_nombre_5);}.cls-14{font-size:120px;font-family:UTMAvoBold, UTM Avo;font-weight:700;letter-spacing:0.04em;}.cls-15{fill:url(#linear-gradient-9);}.cls-16{fill:url(#linear-gradient-10);}.cls-17{fill:url(#linear-gradient-11);}</style><radialGradient id="radial-gradient" cx="200.02" cy="-288.84" r="156.14" gradientTransform="translate(0 361.92) scale(1 0.08)" gradientUnits="userSpaceOnUse"><stop offset="0" stop-color="#31c3ff"/><stop offset="0.11" stop-color="#35c4ff" stop-opacity="0.98"/><stop offset="0.23" stop-color="#40c7ff" stop-opacity="0.93"/><stop offset="0.36" stop-color="#52cdff" stop-opacity="0.84"/><stop offset="0.5" stop-color="#6bd4ff" stop-opacity="0.72"/><stop offset="0.64" stop-color="#8cdeff" stop-opacity="0.56"/><stop offset="0.78" stop-color="#b4e9ff" stop-opacity="0.36"/><stop offset="0.92" stop-color="#e3f7ff" stop-opacity="0.14"/><stop offset="1" stop-color="#fff" stop-opacity="0"/></radialGradient><linearGradient id="linear-gradient" x1="132.93" y1="-62.69" x2="188.77" y2="31.46" gradientUnits="userSpaceOnUse"><stop offset="0" stop-color="#ffe084"/><stop offset="0.17" stop-color="#ffdc80"/><stop offset="0.34" stop-color="#ffd273"/><stop offset="0.52" stop-color="#ffc05e"/><stop offset="0.7" stop-color="#ffa841"/><stop offset="0.89" stop-color="#ff891b"/><stop offset="1" stop-color="#ff7200"/></linearGradient><linearGradient id="linear-gradient-2" x1="192.55" y1="4.71" x2="218.06" y2="4.71" gradientUnits="userSpaceOnUse"><stop offset="0" stop-color="#ffc300"/><stop offset="0.22" stop-color="#ffbf00"/><stop offset="0.44" stop-color="#ffb200"/><stop offset="0.67" stop-color="#ff9d00"/><stop offset="0.91" stop-color="#ff8000"/><stop offset="1" stop-color="#ff7200"/></linearGradient><linearGradient id="linear-gradient-3" x1="19.04" y1="280.06" x2="40.48" y2="280.06" xlink:href="#linear-gradient-2"/><linearGradient id="linear-gradient-4" x1="7.61" y1="-13.5" x2="10.9" y2="90.51" gradientUnits="userSpaceOnUse"><stop offset="0" stop-color="#ff4d00"/><stop offset="1" stop-color="#8b1b00"/></linearGradient><linearGradient id="linear-gradient-5" x1="331.89" y1="257.08" x2="354.81" y2="257.08" xlink:href="#linear-gradient-4"/><linearGradient id="linear-gradient-6" x1="200.26" y1="388.47" x2="197.26" y2="277.47" xlink:href="#linear-gradient-4"/><radialGradient id="Degradado_sin_nombre_2" cx="189.02" cy="223.09" r="173.19" xlink:href="#linear-gradient-4"/><linearGradient id="linear-gradient-7" x1="226.13" y1="34.15" x2="108.13" y2="422.15" xlink:href="#linear-gradient"/><linearGradient id="linear-gradient-8" x1="188.02" y1="45.24" x2="257.02" y2="255.24" xlink:href="#linear-gradient-2"/><linearGradient id="Degradado_sin_nombre_5" x1="157.06" y1="236.47" x2="234.06" y2="35.47" gradientUnits="userSpaceOnUse"><stop offset="0" stop-color="#ffc300" stop-opacity="0"/><stop offset="0.12" stop-color="#ffc403" stop-opacity="0.02"/><stop offset="0.24" stop-color="#ffc50a" stop-opacity="0.07"/><stop offset="0.37" stop-color="#ffc817" stop-opacity="0.15"/><stop offset="0.5" stop-color="#ffcd29" stop-opacity="0.26"/><stop offset="0.63" stop-color="#ffd240" stop-opacity="0.41"/><stop offset="0.76" stop-color="#ffd95c" stop-opacity="0.6"/><stop offset="0.89" stop-color="#ffe17d" stop-opacity="0.81"/><stop offset="1" stop-color="#ffe89b"/></linearGradient><linearGradient id="linear-gradient-9" x1="394.17" y1="100.78" x2="413.02" y2="100.78" xlink:href="#linear-gradient-4"/><linearGradient id="linear-gradient-10" x1="189.93" y1="296.14" x2="217.28" y2="296.14" xlink:href="#linear-gradient-2"/><linearGradient id="linear-gradient-11" x1="306.08" y1="23.22" x2="334.91" y2="23.22" xlink:href="#linear-gradient-4"/></defs><title>Icon New</title><g class="cls-1"><g id="Layer_2" data-name="Layer 2"><g id="OBJECTS"><ellipse class="cls-2" cx="200.02" cy="339.91" rx="177.78" ry="13.55"/><polygon class="cls-3" points="348.29 36.58 27.53 23.44 89.93 72.71 348.29 36.58"/><polygon class="cls-4" points="203.64 0 218.06 9.43 192.55 8.87 203.64 0"/><polygon class="cls-5" points="19.04 276.36 40.48 291.14 32.35 268.96 19.04 276.36"/><polygon class="cls-6" points="0.39 33.89 18.13 43.51 7.78 27.98 0.39 33.89"/><polygon class="cls-7" points="331.89 247.1 342.24 267.06 354.81 251.53 331.89 247.1"/><polygon class="cls-8" points="303.36 268.63 91.96 316.14 134.06 273.88 303.36 268.63"/><polygon class="cls-9" points="303.31 268.69 77.35 280.33 99.7 213.85 325.66 202.21 303.31 268.69"/><path class="cls-10" d="M53,239.88a26.62,26.62,0,0,1-26-21.31L.52,87.65A26.56,26.56,0,0,1,24.08,56l353.07-33.1q1.26-.12,2.52-.12A26.55,26.55,0,0,1,406,52.62L387.05,202.94a26.49,26.49,0,0,1-25.16,23.21L54.14,239.86Z"/><polygon class="cls-11" points="26.21 215.01 394.56 143.32 403.32 73.74 13.04 149.71 26.21 215.01"/><path class="cls-12" d="M395.12,51.25,376.19,201.57a15.6,15.6,0,0,1-14.79,13.64L53.65,228.92a15.61,15.61,0,0,1-16-12.51L11.25,85.49A15.62,15.62,0,0,1,25.1,66.86l353.08-33.1A15.61,15.61,0,0,1,395.12,51.25Z"/><path class="cls-13" d="M53,222.93a9.63,9.63,0,0,1-9.41-7.71L17.14,84.3a9.6,9.6,0,0,1,8.52-11.47l353.08-33.1c.31,0,.62,0,.93,0A9.61,9.61,0,0,1,386.85,43a9.5,9.5,0,0,1,2.32,7.55L370.24,200.82a9.59,9.59,0,0,1-9.11,8.4L53.39,222.92Z"/><text class="cls-14" transform="matrix(0.98, -0.05, -0.16, 0.99, 67.03, 180.32)">NEW</text><polygon class="cls-15" points="394.17 91.35 401.93 110.2 413.02 96.9 394.17 91.35"/><polygon class="cls-16" points="201.76 289.86 189.93 302.43 217.28 289.86 201.76 289.86"/><polygon class="cls-17" points="334.91 15.83 306.08 27.66 323.82 30.62 334.91 15.83"/></g></g></g></svg>