<svg width="20" height="20" viewBox="0 0 20 20" fill="none" xmlns="http://www.w3.org/2000/svg">
<circle cx="10" cy="10" r="10" fill="#DAF3F3"/>
<g clip-path="url(#clip0)">
<path d="M14.0474 12.3916L12.6152 10.9505C12.5636 10.8987 12.5024 10.8575 12.4349 10.8294C12.3675 10.8013 12.2951 10.7868 12.2221 10.7867C12.149 10.7866 12.0766 10.8009 12.0091 10.8288C11.9415 10.8568 11.8802 10.8977 11.8285 10.9494L10.5557 12.2222L7.77795 9.44438L9.05239 8.16994C9.15662 8.06583 9.21522 7.92459 9.21533 7.77727C9.21543 7.62996 9.15702 7.48864 9.05295 7.38438L7.61961 5.94883C7.56802 5.89717 7.50675 5.85619 7.4393 5.82824C7.37186 5.80028 7.29957 5.78589 7.22656 5.78589C7.15355 5.78589 7.08126 5.80028 7.01381 5.82824C6.94637 5.85619 6.8851 5.89717 6.8335 5.94883L5.55795 7.22383L5.55573 7.22216C5.55573 11.211 8.78906 14.4444 12.7779 14.4444L14.0463 13.176C14.1502 13.0721 14.2087 12.9311 14.2089 12.7841C14.2091 12.637 14.1511 12.4959 14.0474 12.3916Z" fill="#16B4B4"/>
</g>
<defs>
<clipPath id="clip0">
<rect width="8.88889" height="8.88889" fill="white" transform="translate(5.55573 5.55554)"/>
</clipPath>
</defs>
</svg>
