<svg width="36" height="36" viewBox="0 0 36 36" fill="none" xmlns="http://www.w3.org/2000/svg">
<path d="M15.0424 5.64046L16.9108 3.77665L19.0548 5.31033L21.3902 4.11324L22.952 6.22657L25.5383 5.82501L26.3711 8.30627L28.966 8.7212L28.977 11.3455L31.3249 12.544L30.5247 15.0423L32.3886 16.9107L30.8549 19.0547L32.052 21.3901L29.9386 22.9519L30.3402 25.5382L27.8589 26.371L27.444 28.9659L24.8197 28.9769L23.6212 31.3248L21.105 30.529L19.2545 32.3885L17.1105 30.8548L14.7751 32.0519L13.2133 29.9386L10.627 30.3401L9.79417 27.8589L7.19933 27.4439L7.18828 24.8196L4.84042 23.6211L5.63617 21.1049L3.77673 19.2544L5.31041 17.1104L4.11333 14.775L6.22666 13.2132L5.8251 10.6269L8.30636 9.79408L8.72128 7.19925L11.3456 7.18819L12.5441 4.84033L15.0424 5.64046Z" fill="#FB1717"/>
<path d="M8.56655 15.4002C8.62469 15.2501 8.72178 15.1586 8.8578 15.1254C8.96273 15.0999 9.06353 15.1165 9.16019 15.1753C9.25685 15.2341 9.31796 15.3159 9.34352 15.4209C9.36482 15.5083 9.35702 15.5946 9.32013 15.6798L8.60847 17.3723L10.183 18.5882C10.2631 18.6469 10.3146 18.7229 10.3373 18.8161C10.3633 18.923 10.3462 19.026 10.286 19.1251C10.2252 19.2222 10.1404 19.284 10.0316 19.3105C9.89949 19.3427 9.7697 19.3085 9.64224 19.2078L7.68442 17.6097L8.56655 15.4002ZM6.43144 16.1673C6.40304 16.0507 6.42044 15.9404 6.48364 15.8365C6.54685 15.7326 6.63674 15.6665 6.75333 15.6381C6.86993 15.6097 6.98018 15.6271 7.08409 15.6903C7.188 15.7535 7.25415 15.8434 7.28255 15.96L8.10332 19.3294C8.13172 19.446 8.11432 19.5563 8.05111 19.6602C7.98791 19.7641 7.89801 19.8302 7.78142 19.8586C7.66483 19.887 7.55458 19.8696 7.45067 19.8064C7.34676 19.7432 7.2806 19.6533 7.2522 19.5368L6.43144 16.1673ZM9.8051 15.3455C9.7767 15.2289 9.7941 15.1187 9.8573 15.0147C9.92051 14.9108 10.0104 14.8447 10.127 14.8163C10.2436 14.7879 10.3538 14.8053 10.4577 14.8685C10.5617 14.9317 10.6278 15.0216 10.6562 15.1382L10.9345 16.2808L12.2812 15.9527L12.0028 14.8101C11.9744 14.6936 11.9918 14.5833 12.055 14.4794C12.1182 14.3755 12.2081 14.3093 12.3247 14.2809C12.4413 14.2525 12.5516 14.2699 12.6555 14.3331C12.7594 14.3963 12.8256 14.4862 12.854 14.6028L13.6747 17.9723C13.7031 18.0889 13.6857 18.1991 13.6225 18.3031C13.5593 18.407 13.4694 18.4731 13.3528 18.5015C13.2362 18.5299 13.126 18.5125 13.0221 18.4493C12.9182 18.3861 12.852 18.2962 12.8236 18.1796L12.4714 16.7339L11.1248 17.0619L11.477 18.5076C11.5054 18.6242 11.488 18.7345 11.4248 18.8384C11.3616 18.9423 11.2717 19.0085 11.1551 19.0369C11.0385 19.0653 10.9282 19.0479 10.8243 18.9847C10.7204 18.9215 10.6543 18.8316 10.6259 18.715L9.8051 15.3455ZM15.6041 13.9329C15.5757 13.8163 15.5931 13.7061 15.6563 13.6022C15.7195 13.4983 15.8094 13.4321 15.926 13.4037C16.0426 13.3753 16.1528 13.3927 16.2567 13.4559C16.3606 13.5191 16.4268 13.609 16.4552 13.7256L17.0005 15.9642C17.1164 16.4402 17.0552 16.8607 16.8168 17.2255C16.5954 17.5676 16.2759 17.7895 15.8581 17.8913C15.4403 17.993 15.0545 17.9429 14.7006 17.7409C14.3212 17.5267 14.0734 17.1815 13.9575 16.7054L13.4122 14.4669C13.3838 14.3503 13.4012 14.24 13.4644 14.1361C13.5276 14.0322 13.6175 13.966 13.7341 13.9376C13.8507 13.9092 13.9609 13.9266 14.0648 13.9898C14.1687 14.053 14.2349 14.1429 14.2633 14.2595L14.8128 16.5156C14.8725 16.7604 14.9806 16.9337 15.1371 17.0356C15.2869 17.135 15.4638 17.1598 15.6678 17.1101C15.8719 17.0604 16.0175 16.957 16.1048 16.7999C16.197 16.6374 16.2133 16.4338 16.1536 16.189L15.6041 13.9329ZM19.4187 17.0239C19.3021 17.0523 19.1918 17.0349 19.0879 16.9717C18.984 16.9085 18.9179 16.8186 18.8895 16.7021L18.5842 15.4487L16.961 13.8556C16.8848 13.7795 16.8363 13.6986 16.8155 13.6131C16.789 13.5043 16.8078 13.3999 16.872 13.2999C16.9361 13.1999 17.0265 13.1356 17.1431 13.1072C17.2966 13.0698 17.4389 13.1216 17.57 13.2626L18.818 14.5581L19.3305 12.8338C19.3821 12.6483 19.4846 12.5369 19.6381 12.4995C19.7547 12.4711 19.8645 12.4865 19.9674 12.5459C20.0704 12.6052 20.1351 12.6892 20.1616 12.7981C20.1825 12.8836 20.1766 12.9776 20.1439 13.0803L19.4353 15.2414L19.7406 16.4947C19.769 16.6113 19.7516 16.7216 19.6884 16.8255C19.6252 16.9294 19.5353 16.9955 19.4187 17.0239ZM21.8682 16.3532C21.7516 16.3816 21.6413 16.3642 21.5374 16.301C21.4335 16.2378 21.3673 16.1479 21.3389 16.0313L20.5523 12.8017C20.5239 12.6851 20.5413 12.5749 20.6045 12.471C20.6677 12.367 20.7576 12.3009 20.8742 12.2725L22.3141 11.9218C22.4229 11.8952 22.5244 11.9107 22.6186 11.968C22.7129 12.0253 22.7733 12.1084 22.7998 12.2172C22.8258 12.3241 22.8104 12.4256 22.7536 12.5218C22.6962 12.616 22.6132 12.6764 22.5043 12.7029L21.49 12.95L21.6618 13.6554L22.5421 13.4409C22.647 13.4154 22.7466 13.4313 22.8408 13.4886C22.9351 13.5459 22.995 13.627 23.0205 13.732C23.0461 13.8369 23.03 13.9355 22.9722 14.0278C22.9144 14.1201 22.833 14.1791 22.7281 14.2046L21.8478 14.419L22.1034 15.4684L23.1702 15.2085C23.2791 15.182 23.3806 15.1974 23.4748 15.2547C23.5691 15.312 23.6295 15.3951 23.656 15.5039C23.682 15.6108 23.6666 15.7123 23.6097 15.8085C23.5524 15.9028 23.4693 15.9631 23.3605 15.9897L21.8682 16.3532ZM21.0064 11.8265C20.9623 11.8908 20.9024 11.9321 20.8266 11.9506C20.7586 11.9672 20.6932 11.9563 20.6304 11.9181C20.5656 11.8804 20.5247 11.8265 20.5076 11.7566C20.4953 11.7061 20.5013 11.6501 20.5254 11.5886C20.5347 11.5678 20.5465 11.5443 20.5607 11.5182L20.5806 11.4856L20.6011 11.4559L21.1413 10.6821C21.1678 10.6386 21.2005 10.6121 21.2393 10.6026C21.2782 10.5932 21.3194 10.6017 21.3629 10.6281L22.1984 11.0668L22.2304 11.0838L22.263 11.1036C22.2876 11.1202 22.3089 11.1356 22.3267 11.1498C22.3764 11.1933 22.4074 11.2403 22.4197 11.2908C22.4368 11.3608 22.4252 11.4274 22.3851 11.4907C22.3468 11.5535 22.2937 11.5932 22.2257 11.6098C22.1499 11.6283 22.0777 11.6191 22.0091 11.5823L21.3998 11.2614L21.0064 11.8265ZM23.2452 9.67248C23.266 9.75798 23.25 9.83598 23.1972 9.90649L22.6263 10.7063C22.5852 10.7657 22.5326 10.8033 22.4684 10.8189C22.3946 10.8369 22.3238 10.8253 22.2562 10.7841C22.1885 10.743 22.1462 10.6874 22.1291 10.6175C22.1111 10.5436 22.1325 10.4623 22.1932 10.3734L22.7524 9.57637C22.7906 9.52179 22.8437 9.48621 22.9117 9.46965C22.9855 9.45166 23.0551 9.46251 23.1203 9.50219C23.1856 9.54188 23.2272 9.59864 23.2452 9.67248ZM24.3437 13.1379L24.8578 15.2482C24.8862 15.3648 24.8688 15.4751 24.8056 15.579C24.7424 15.6829 24.6525 15.7491 24.5359 15.7775C24.4193 15.8059 24.309 15.7885 24.2051 15.7253C24.1012 15.6621 24.035 15.5722 24.0066 15.4556L23.1475 11.9287C23.1291 11.8529 23.1378 11.7829 23.1736 11.7186C23.2118 11.6557 23.2668 11.6156 23.3387 11.598C23.4184 11.5786 23.4988 11.5961 23.58 11.6504L26.313 13.566L25.7975 11.4499C25.7691 11.3333 25.7865 11.2231 25.8497 11.1192C25.9129 11.0153 26.0028 10.9491 26.1194 10.9207C26.236 10.8923 26.3463 10.9097 26.4502 10.9729C26.5541 11.0361 26.6202 11.126 26.6486 11.2426L27.5077 14.7695C27.5262 14.8453 27.5173 14.9143 27.481 14.9767C27.4433 15.0415 27.3885 15.0826 27.3166 15.1001C27.2369 15.1195 27.1565 15.1021 27.0753 15.0477L24.3437 13.1379ZM17.0419 26.8661C16.9156 26.8968 16.8159 26.8594 16.7428 26.7536L15.2304 24.6519L15.2003 26.9874C15.1997 27.0863 15.1686 27.1742 15.1071 27.2509C15.0435 27.3281 14.9622 27.3788 14.8631 27.403C14.7465 27.4314 14.6375 27.4147 14.536 27.353C14.4345 27.2912 14.3695 27.2021 14.3411 27.0855C14.3293 27.0369 14.3243 26.9908 14.326 26.9471L14.5159 23.2141C14.5255 23.076 14.5953 22.991 14.7255 22.9593C14.8499 22.929 14.9501 22.9684 15.026 23.0775L16.6727 25.3504L17.0897 22.5748C17.107 22.443 17.1778 22.3619 17.3022 22.3316C17.4324 22.2999 17.5335 22.3432 17.6055 22.4615L19.4909 25.689C19.5125 25.727 19.5293 25.7703 19.5411 25.8188C19.5695 25.9354 19.5528 26.0445 19.4911 26.146C19.4294 26.2475 19.3402 26.3124 19.2236 26.3408C19.1245 26.3649 19.03 26.3571 18.94 26.3173C18.8481 26.2779 18.7791 26.2144 18.733 26.1268L17.6322 24.0668L17.2558 26.6287C17.2395 26.7562 17.1682 26.8353 17.0419 26.8661ZM20.4828 21.5569C20.6052 21.5271 20.7078 21.5679 20.7906 21.6795L23.0827 24.8018C23.1149 24.8495 23.1369 24.8977 23.1487 24.9462C23.1762 25.0589 23.1607 25.1646 23.1024 25.2632C23.0422 25.3623 22.9566 25.4253 22.8459 25.4523C22.6554 25.4987 22.5025 25.4371 22.3871 25.2676L22.0279 24.7561L20.5763 25.1097L20.4984 25.7277C20.4739 25.9313 20.3664 26.0563 20.176 26.1026C20.0652 26.1296 19.9612 26.1127 19.8641 26.052C19.765 25.9917 19.7018 25.9053 19.6743 25.7926C19.6625 25.744 19.6599 25.6911 19.6665 25.6339L20.2659 21.8073C20.2881 21.6702 20.3604 21.5867 20.4828 21.5569ZM20.6725 24.3637L21.5994 24.1379L20.8478 23.0551L20.6725 24.3637ZM20.7638 21.0623C20.6064 21.1007 20.4329 21.0729 20.2433 20.9792C20.1272 20.9251 20.0381 20.9056 19.9759 20.9208C19.9098 20.9369 19.8697 20.9919 19.8556 21.086C19.8423 21.2003 19.7754 21.2722 19.6549 21.3016C19.5849 21.3186 19.5197 21.3088 19.4593 21.272C19.3994 21.2372 19.3616 21.1877 19.346 21.1236C19.3361 21.0828 19.3334 21.0464 19.3379 21.0144C19.3593 20.6799 19.5139 20.4775 19.8014 20.4075C19.9588 20.3691 20.1323 20.3969 20.3219 20.4907C20.438 20.5447 20.5271 20.5642 20.5893 20.549C20.6554 20.5329 20.6955 20.4779 20.7097 20.3839C20.723 20.2695 20.7899 20.1976 20.9103 20.1682C20.9803 20.1512 21.0452 20.1601 21.1052 20.1949C21.1656 20.2316 21.2036 20.2821 21.2192 20.3462C21.2292 20.387 21.2319 20.4234 21.2273 20.4554C21.2059 20.79 21.0514 20.9923 20.7638 21.0623ZM22.7188 21.463C22.6904 21.3464 22.7078 21.2362 22.771 21.1323C22.8342 21.0284 22.9241 20.9622 23.0407 20.9338C23.1573 20.9054 23.2676 20.9228 23.3715 20.986C23.4754 21.0492 23.5415 21.1391 23.5699 21.2557L24.3907 24.6252C24.4191 24.7418 24.4017 24.852 24.3385 24.9559C24.2753 25.0598 24.1854 25.126 24.0688 25.1544C23.9522 25.1828 23.842 25.1654 23.7381 25.1022C23.6341 25.039 23.568 24.9491 23.5396 24.8325L22.7188 21.463Z" fill="white"/>
</svg>
