<svg width="13" height="13" viewBox="0 0 13 13" fill="none" xmlns="http://www.w3.org/2000/svg">
<path d="M4.70376 13C2.76897 12.9889 1.16855 9.03929 1.16855 7.02787C1.16855 3.74222 3.63334 3.0229 4.58326 3.0229C5.01134 3.0229 5.46845 3.19102 5.87163 3.33978C6.15357 3.44355 6.44515 3.55067 6.60732 3.55067C6.70439 3.55067 6.93313 3.45955 7.13509 3.37959C7.56579 3.20813 8.10174 2.99503 8.72584 2.99503C8.72696 2.99503 8.72846 2.99503 8.72955 2.99503C9.19557 2.99503 10.6086 3.0973 11.458 4.37303L11.657 4.67205L11.3707 4.88815C10.9615 5.19685 10.2151 5.75996 10.2151 6.8754C10.2151 8.1965 11.0605 8.70457 11.4666 8.94892C11.6459 9.05678 11.8315 9.16799 11.8315 9.41124C11.8315 9.57005 10.5639 12.9803 8.72322 12.9803C8.27282 12.9803 7.95445 12.8449 7.67363 12.7255C7.38948 12.6046 7.14436 12.5005 6.73933 12.5005C6.53402 12.5005 6.2744 12.5976 5.99955 12.7006C5.62394 12.8408 5.1988 13 4.71641 13H4.70376Z" fill="black"/>
<path d="M8.92085 0C8.96879 1.72849 7.73264 2.92764 6.49794 2.85243C6.29448 1.47304 7.73248 0 8.92085 0Z" fill="black"/>
</svg>
