<svg width="30" height="30" viewBox="0 0 30 30" fill="none" xmlns="http://www.w3.org/2000/svg">
<circle cx="15" cy="15" r="15" fill="white"/>
<g clip-path="url(#clip0)">
<path d="M23.0855 13.0754L19.8677 11.2171L15.4592 14.511L19.8677 17.805L23.0964 15.9403C23.5998 15.6344 23.9002 15.1 23.9002 14.5111C23.9002 13.9222 23.5998 13.3878 23.0855 13.0754Z" fill="#FF9100"/>
<path d="M16.5738 14.5112C16.5689 14.5174 12.6759 19.5228 12.6727 19.5268L7.60133 23.5208C7.28921 23.2086 7.09976 22.7852 7.09976 22.317V6.67772C7.09976 6.20963 7.28921 5.78605 7.60133 5.474L12.6727 9.49551C12.6759 9.49956 16.5689 14.505 16.5738 14.5112Z" fill="#25D9F8"/>
<path d="M16.5737 14.5112L15.4592 15.9489V13.0733L16.5737 14.5112Z" fill="#00C0F1"/>
<path d="M19.873 11.2119L16.5738 14.5111L7.60132 5.47402C7.71274 5.37367 7.82424 5.29565 7.94684 5.21762C8.48181 4.91672 9.11716 4.92783 9.64105 5.2511L15.4592 8.6707L19.873 11.2119Z" fill="#7FE881"/>
<path d="M19.873 11.2119L16.5738 14.5112L15.4592 13.3966V8.67072L19.873 11.2119Z" fill="#5BC980"/>
<path d="M19.873 17.8103L15.4592 20.3516L9.62991 23.7548C9.36241 23.9108 9.07261 24 8.77164 24C8.49299 24 8.21434 23.922 7.94684 23.7771C7.82424 23.699 7.71274 23.6211 7.60132 23.5207L16.5738 14.5111L19.873 17.8103Z" fill="#FF637B"/>
<path d="M19.873 17.8103L15.4592 20.3516V15.6257L16.5738 14.5111L19.873 17.8103Z" fill="#E63950"/>
</g>
<defs>
<clipPath id="clip0">
<rect width="19" height="19" fill="white" transform="translate(6 5)"/>
</clipPath>
</defs>
</svg>
