<svg width="40" height="40" viewBox="0 0 40 40" fill="none" xmlns="http://www.w3.org/2000/svg">
<path fill-rule="evenodd" clip-rule="evenodd" d="M40 20C40 31.0457 31.046 40 20 40C8.95461 40 0 31.0457 0 20C0 8.95433 8.95461 0 20 0C31.046 0 40 8.95433 40 20Z" fill="#02B875"/>
<path d="M19.0833 16.3335V10.8335H15.4166C15.1104 10.8335 14.8244 10.9875 14.6539 11.2423L11.2595 16.3335H19.0833Z" fill="white"/>
<path d="M28.7403 16.3335L25.3458 11.2423C25.1753 10.9875 24.8893 10.8335 24.5832 10.8335H20.9165V16.3335H28.7403Z" fill="white"/>
<path d="M10.8333 28.2503C10.8333 28.7563 11.2439 29.167 11.7499 29.167H28.2499C28.7559 29.167 29.1666 28.7563 29.1666 28.2503V18.167H10.8333V28.2503Z" fill="white"/>
<path d="M16.2371 23.6595L18.9037 26.3262L24.9037 20.3262" stroke="#02B875" stroke-width="1.6"/>
</svg>
