<svg width="30" height="30" viewBox="0 0 30 30" fill="none" xmlns="http://www.w3.org/2000/svg">
<circle cx="15" cy="15" r="15" fill="#EE0033"/>
<g clip-path="url(#clip0_2290_3527)">
<path d="M16.631 18.0356C16.3458 18.0356 16.0826 18.0356 15.8193 18.0356C15.8193 18.0356 15.8193 18.0868 15.8193 18.1161V22.6718H16.5506L19.2928 18.2843C18.4163 18.1113 17.5244 18.028 16.631 18.0356Z" fill="white"/>
<path d="M22.7736 19.7376C22.1884 19.3041 21.5397 18.9637 20.8504 18.7285L18.3203 22.6992H20.8504V22.0265C20.8504 21.8245 21.0141 21.6608 21.2161 21.6608C21.418 21.6608 21.5817 21.8245 21.5817 22.0265V22.6992H23.0442C23.1211 22.6992 23.1948 22.6682 23.2485 22.6131C23.3022 22.558 23.3313 22.4836 23.3294 22.4067V20.8857C23.3363 20.4366 23.1302 20.0108 22.7736 19.7376Z" fill="white"/>
<path d="M11.7608 10.3493C14.6477 8.19569 18.6068 8.19569 21.4937 10.3493L21.7204 9.88127C21.9167 9.49683 21.9331 9.04534 21.7653 8.64766C21.5975 8.24999 21.2626 7.94675 20.8502 7.81914L17.8228 6.4517C17.0551 6.15933 16.2067 6.15933 15.439 6.4517L12.3823 7.81914C11.9739 7.95161 11.6444 8.25685 11.4811 8.65392C11.3177 9.05099 11.3371 9.49977 11.5341 9.88127L11.7608 10.3493Z" fill="white"/>
<path d="M10.8761 21.6755C10.5426 21.6749 10.2159 21.5812 9.93275 21.405L6.66406 19.3867V23.043C6.66406 23.4468 6.99145 23.7742 7.39531 23.7742H14.4226C14.8265 23.7742 15.1539 23.4468 15.1539 23.043V19.3867L11.8852 21.4342C11.5795 21.6112 11.2288 21.6951 10.8761 21.6755Z" fill="white"/>
<path d="M14.3933 17.4434H7.36602C6.96216 17.4434 6.63477 17.7708 6.63477 18.1746V18.5256L10.291 20.8144C10.4569 20.9204 10.6499 20.9762 10.8468 20.9753C11.0459 20.9764 11.2413 20.9206 11.4098 20.8144L15.0661 18.5256V18.1454C15.0524 17.7746 14.7632 17.4728 14.3933 17.4434Z" fill="white"/>
<path d="M12.075 12.2793C12.008 13.9491 12.8607 15.5215 14.2967 16.3763C15.7326 17.2312 17.5214 17.2312 18.9573 16.3763C20.3933 15.5215 21.246 13.9491 21.179 12.2793V11.1751C21.183 11.1313 21.183 11.0873 21.179 11.0435C21.1205 10.7885 20.8922 10.6089 20.6306 10.612C18.1961 9.0564 15.0798 9.0564 12.6453 10.612C12.4129 10.6153 12.2078 10.7648 12.1335 10.985C12.126 11.0285 12.126 11.0731 12.1335 11.1166L12.075 12.2793ZM20.1187 12.2793C20.1259 12.3767 20.1259 12.4744 20.1187 12.5718C19.9757 14.3578 18.4845 15.7343 16.6928 15.7343C14.9011 15.7343 13.4099 14.3578 13.2669 12.5718C13.2669 12.4694 13.2669 12.3817 13.2669 12.2793V11.7382C14.3307 12.3093 15.5183 12.6106 16.7257 12.6157C17.9108 12.6002 19.0747 12.2992 20.1187 11.7382V12.2793Z" fill="white"/>
<path d="M15.5558 14.0503C15.5038 14.239 15.5926 14.4382 15.7679 14.5256C15.8589 14.5758 15.9543 14.6174 16.053 14.6499C16.4278 14.7598 16.8263 14.7598 17.2011 14.6499C17.3038 14.6219 17.4022 14.5801 17.4936 14.5256C17.6639 14.4338 17.7486 14.237 17.6984 14.0503C17.6515 13.862 17.4829 13.7295 17.2889 13.7285H15.9653C15.7703 13.7268 15.6002 13.8605 15.5558 14.0503Z" fill="white"/>
</g>
<defs>
<clipPath id="clip0_2290_3527">
<rect width="20" height="20" fill="white" transform="translate(5 5)"/>
</clipPath>
</defs>
</svg>
