<svg width="40" height="40" viewBox="0 0 40 40" fill="none" xmlns="http://www.w3.org/2000/svg">
<path fill-rule="evenodd" clip-rule="evenodd" d="M40 20C40 31.0457 31.046 40 20 40C8.95461 40 0 31.0457 0 20C0 8.95433 8.95461 0 20 0C31.046 0 40 8.95433 40 20Z" fill="#3787E4"/>
<path fill-rule="evenodd" clip-rule="evenodd" d="M30.6666 25.6083C30.6666 27.0764 29.4707 28.2669 28.0079 28.2669H11.9919C10.5238 28.2669 9.33325 27.0711 9.33325 25.6083V14.6587C9.33325 13.1905 10.5291 12 11.9919 12H28.0079C29.4761 12 30.6666 13.1959 30.6666 14.6587V25.6083ZM11.9759 14.7759C11.741 15.0535 11.773 15.4646 12.0506 15.6995L17.117 20.0078L12.024 24.8019C11.7624 25.0475 11.7517 25.4639 11.9973 25.7255C12.1254 25.8643 12.2962 25.9337 12.4724 25.9337C12.6326 25.9337 12.7927 25.875 12.9208 25.7576L18.1261 20.862L19.5782 22.0952C19.701 22.1967 19.8504 22.2501 19.9999 22.2501C20.1494 22.2501 20.2989 22.1967 20.4217 22.0952L21.8738 20.862L27.079 25.7576C27.2071 25.875 27.3673 25.9337 27.5275 25.9337C27.6983 25.9337 27.8745 25.8643 28.0026 25.7255C28.2535 25.4639 28.2375 25.0475 27.9759 24.8019L22.8828 20.0078L27.9545 15.7048C28.2268 15.4699 28.2642 15.0589 28.0293 14.7813C27.7944 14.509 27.3833 14.4716 27.1057 14.7065L19.9999 20.7339L12.8995 14.7012C12.6219 14.4663 12.2108 14.4983 11.9759 14.7759Z" fill="white"/>
</svg>
