<?xml version="1.0" encoding="UTF-8"?>
<svg width="14px" height="10px" viewBox="0 0 14 10" version="1.1" xmlns="http://www.w3.org/2000/svg" xmlns:xlink="http://www.w3.org/1999/xlink">
    <!-- Generator: sketchtool 50.2 (55047) - http://www.bohemiancoding.com/sketch -->
    <title>92ACDF0D-D335-46F8-A993-B5292BABA6EC</title>
    <desc>Created with sketchtool.</desc>
    <defs></defs>
    <g id="1-Redesign" stroke="none" stroke-width="1" fill="none" fill-rule="evenodd">
        <g id="1-Tao-don-hang-trong-nuoc" transform="translate(-1191.000000, -190.000000)" fill="#8D8D8D" fill-rule="nonzero">
            <g id="Group-15-Copy-4" transform="translate(1175.000000, 57.000000)">
                <g id="Group-14-Copy-3" transform="translate(1.000000, 121.000000)">
                    <g id="bank-note" transform="translate(15.000000, 12.000000)">
                        <path d="M12.8800002,9.52000016 L0.56000001,9.52000016 C0.224000004,9.52000016 0,9.29600016 0,8.96000015 L0,1.12000002 C0,0.784000014 0.224000004,0.56000001 0.56000001,0.56000001 L12.8800002,0.56000001 C13.2160002,0.56000001 13.4400002,0.784000014 13.4400002,1.12000002 L13.4400002,8.96000015 C13.4400002,9.29600016 13.2160002,9.52000016 12.8800002,9.52000016 Z M1.12000002,8.40000014 L12.3200002,8.40000014 L12.3200002,1.68000003 L1.12000002,1.68000003 L1.12000002,8.40000014 Z" id="Shape"></path>
                        <path d="M6.72000012,7.28000013 C5.48800009,7.28000013 4.48000008,6.27200011 4.48000008,5.04000009 C4.48000008,3.80800007 5.48800009,2.80000005 6.72000012,2.80000005 C7.95200014,2.80000005 8.96000015,3.80800007 8.96000015,5.04000009 C8.96000015,6.27200011 7.95200014,7.28000013 6.72000012,7.28000013 Z M6.72000012,3.92000007 C6.10400011,3.92000007 5.6000001,4.42400008 5.6000001,5.04000009 C5.6000001,5.6560001 6.10400011,6.16000011 6.72000012,6.16000011 C7.33600013,6.16000011 7.84000014,5.6560001 7.84000014,5.04000009 C7.84000014,4.42400008 7.33600013,3.92000007 6.72000012,3.92000007 Z" id="Shape"></path>
                        <path d="M1.12000002,3.92000007 C0.840000014,3.92000007 0.61600001,3.86400007 0.336000006,3.80800007 C0.0560000007,3.69600006 -0.0560000012,3.36000006 0.0560000007,3.08000005 C0.168000003,2.80000005 0.504000008,2.63200005 0.784000013,2.74400005 C0.896000015,2.80000005 1.00800002,2.80000005 1.12000002,2.80000005 C1.73600003,2.80000005 2.24000004,2.29600004 2.24000004,1.68000003 C2.24000004,1.56800003 2.24000004,1.45600003 2.18400004,1.34400002 C2.07200004,1.00800002 2.18400004,0.728000013 2.52000004,0.616000011 C2.80000005,0.504000009 3.13600005,0.616000011 3.24800006,0.896000015 C3.30400006,1.17600002 3.36000006,1.40000002 3.36000006,1.68000003 C3.36000006,2.91200005 2.35200004,3.92000007 1.12000002,3.92000007 Z" id="Shape"></path>
                        <path d="M12.3200002,3.92000007 C11.0880002,3.92000007 10.0800002,2.91200005 10.0800002,1.68000003 C10.0800002,1.40000002 10.1360002,1.17600002 10.1920002,0.896000015 C10.3040002,0.616000011 10.6400002,0.448000008 10.9200002,0.56000001 C11.2000002,0.672000012 11.3680002,1.00800002 11.2560002,1.28800002 C11.2000002,1.45600003 11.2000002,1.56800003 11.2000002,1.68000003 C11.2000002,2.29600004 11.7040002,2.80000005 12.3200002,2.80000005 C12.4320002,2.80000005 12.5440002,2.80000005 12.6560002,2.74400005 C12.9360002,2.63200005 13.2720002,2.80000005 13.3840002,3.08000005 C13.4960002,3.36000006 13.3280002,3.69600006 13.0480002,3.80800007 C12.8240002,3.86400007 12.6000002,3.92000007 12.3200002,3.92000007 Z" id="Shape"></path>
                        <path d="M2.68800005,9.52000016 C2.63200005,9.52000016 2.57600004,9.52000016 2.46400004,9.46400016 C2.18400004,9.35200016 2.01600003,9.01600016 2.12800004,8.73600015 C2.24000004,8.62400015 2.24000004,8.51200015 2.24000004,8.40000014 C2.24000004,7.78400013 1.73600003,7.28000013 1.12000002,7.28000013 C1.00800002,7.28000013 0.896000015,7.28000013 0.784000013,7.33600013 C0.504000008,7.44800013 0.168000003,7.28000013 0.0560000006,7.00000012 C-0.0560000013,6.72000012 0.112000002,6.38400011 0.392000006,6.27200011 C0.61600001,6.21600011 0.840000014,6.16000011 1.12000002,6.16000011 C2.35200004,6.16000011 3.36000006,7.16800012 3.36000006,8.40000014 C3.36000006,8.68000015 3.30400006,8.90400015 3.24800006,9.18400016 C3.13600005,9.40800016 2.91200005,9.52000016 2.68800005,9.52000016 Z" id="Shape"></path>
                        <path d="M10.7520002,9.52000016 C10.5280002,9.52000016 10.3040002,9.40800016 10.2480002,9.18400016 C10.1360002,8.90400015 10.0800002,8.68000015 10.0800002,8.40000014 C10.0800002,7.16800012 11.0880002,6.16000011 12.3200002,6.16000011 C12.6000002,6.16000011 12.8240002,6.21600011 13.1040002,6.27200011 C13.3840002,6.38400011 13.5520002,6.72000012 13.4400002,7.00000012 C13.3280002,7.28000013 12.9920002,7.44800013 12.7120002,7.33600013 C12.5440002,7.28000013 12.4320002,7.28000013 12.3200002,7.28000013 C11.7040002,7.28000013 11.2000002,7.78400013 11.2000002,8.40000014 C11.2000002,8.51200015 11.2000002,8.62400015 11.2560002,8.73600015 C11.3680002,9.01600016 11.2000002,9.35200016 10.9200002,9.46400016 C10.8640002,9.52000016 10.8080002,9.52000016 10.7520002,9.52000016 Z" id="Shape"></path>
                    </g>
                </g>
            </g>
        </g>
    </g>
</svg>