<svg width="20" height="20" viewBox="0 0 20 20" fill="none" xmlns="http://www.w3.org/2000/svg">
<path d="M2.06727 14.8674H9.41592L15.6732 20V14.8674H17.9327C19.0729 14.8674 20 13.9242 20 12.7643V2.10317C20 0.943274 19.0729 0 17.9327 0H2.06727C0.927143 0 0 0.943274 0 2.10317V12.7642C0 13.9241 0.927143 14.8674 2.06727 14.8674ZM14.8553 7.92517C14.0509 7.65428 13.7402 7.21679 13.7482 6.75491C13.7482 6.03066 14.3695 5.48154 15.3327 5.48154C15.7868 5.48154 16.1927 5.58465 16.4319 5.70424L16.2171 6.54012C16.0419 6.44432 15.7074 6.31681 15.3729 6.31681C15.0781 6.31681 14.9109 6.4364 14.9109 6.63532C14.9109 6.81836 15.0622 6.91416 15.5402 7.08133C16.2805 7.33577 16.5912 7.71038 16.5991 8.28333C16.5991 9.00758 16.026 9.54083 14.9109 9.54083C14.4013 9.54083 13.9471 9.42976 13.653 9.27055L13.8678 8.40293C14.0906 8.53839 14.5527 8.69764 14.9109 8.69764C15.2771 8.69764 15.4285 8.57013 15.4285 8.37122C15.4285 8.1717 15.3089 8.0765 14.8553 7.92517ZM8.01637 5.56882L8.07192 6.09415H8.09571C8.26294 5.84766 8.60535 5.48158 9.27429 5.48158C9.776 5.48158 10.174 5.73603 10.3412 6.14177H10.3571C10.5005 5.94286 10.6757 5.7836 10.8588 5.67258C11.0742 5.54507 11.3129 5.48162 11.5998 5.48162C12.348 5.48162 12.9138 6.00696 12.9138 7.16869V9.46163H11.7353V7.34442C11.7353 6.77882 11.5516 6.4524 11.1616 6.4524C10.8832 6.4524 10.6836 6.64335 10.6043 6.87462C10.5725 6.96186 10.5567 7.08941 10.5567 7.18517V9.46163H9.37812V7.28036C9.37812 6.78674 9.20294 6.4524 8.82024 6.4524C8.51016 6.4524 8.32645 6.69158 8.25506 6.8905C8.21539 6.98569 8.20747 7.09732 8.20747 7.19313V9.46167H7.0289V6.8106C7.0289 6.32554 7.01302 5.91123 6.99714 5.56894H8.01637V5.56882ZM4.55322 7.92517C3.74878 7.65428 3.43812 7.21679 3.44604 6.75491C3.44604 6.03066 4.06739 5.48154 5.03053 5.48154C5.48465 5.48154 5.89114 5.58465 6.12976 5.70424L5.9149 6.54012C5.73971 6.44432 5.40527 6.31681 5.07078 6.31681C4.77596 6.31681 4.60873 6.4364 4.60873 6.63532C4.60873 6.81836 4.76008 6.91416 5.238 7.08133C5.97837 7.33577 6.28902 7.71038 6.29698 8.28333C6.29698 9.00758 5.72388 9.54083 4.60873 9.54083C4.0991 9.54083 3.64498 9.42976 3.35082 9.27055L3.56567 8.40293C3.78845 8.53839 4.25049 8.69764 4.60878 8.69764C4.97498 8.69764 5.12637 8.57013 5.12637 8.37122C5.12637 8.1717 5.00673 8.0765 4.55322 7.92517Z" fill="white"/>
</svg>
