<svg width="40" height="40" viewBox="0 0 40 40" fill="none" xmlns="http://www.w3.org/2000/svg">
<path fill-rule="evenodd" clip-rule="evenodd" d="M40 20C40 31.0457 31.046 40 20 40C8.95461 40 0 31.0457 0 20C0 8.95433 8.95461 0 20 0C31.046 0 40 8.95433 40 20Z" fill="#11B679"/>
<path fill-rule="evenodd" clip-rule="evenodd" d="M17.3498 17.1402C17.3498 18.0515 16.6111 18.7902 15.6998 18.7902C14.7886 18.7902 14.0498 18.0515 14.0498 17.1402C14.0498 16.229 14.7886 15.4902 15.6998 15.4902C16.6111 15.4902 17.3498 16.229 17.3498 17.1402Z" fill="#D76D0A"/>
<path d="M24.7906 10.9927C24.7075 10.9097 24.666 10.8682 24.583 10.8267V14.0229H27.7792C27.7377 13.9399 27.6547 13.8568 27.6132 13.8153L24.7906 10.9927Z" fill="#E1F9E5"/>
<path d="M28.4433 12.9019L25.6622 10.1208C25.0811 9.49811 23.8773 9 23.0056 9H13.6245C12.7528 9 12.0471 9.70566 12.0471 10.5774V13.7321H12.0886V10.4113L13.0849 9.8717H23.9188L27.9037 13.566L29.066 14.9358V29.1321L28.5264 30.3774H13.6245L12.0886 29.1321V28.3849V29.4226C12.0886 30.2943 12.7943 31 13.666 31H28.0283C28.9 31 29.6056 30.2943 29.6056 29.4226V16.0981C29.5641 15.2264 29.066 13.5245 28.4433 12.9019Z" fill="#1E7145"/>
<path d="M21.553 23.6532H26.7001V25.106H21.553V23.6532ZM21.553 20.7476H26.7001V22.2004H21.553V20.7476Z" fill="#1E7145"/>
<path d="M13.3339 29.4235C13.3339 29.5895 13.4584 29.7555 13.666 29.7555H28.0282C28.1943 29.7555 28.3603 29.631 28.3603 29.4235V16.0989C28.3603 16.0159 28.3603 15.3933 28.3188 15.2687H23.3377V10.2876C23.2132 10.2461 23.0886 10.2461 23.0056 10.2461H13.6245C13.4584 10.2461 13.2924 10.3706 13.2924 10.5782V13.7329H12.0886V15.1857H20.0999V26.9329H12.0886V28.3857H13.2924V29.4235H13.3339ZM21.5528 17.8008H26.6584V19.2536H21.5528V17.8008ZM21.5528 20.748H26.6584V22.2008H21.5528V20.748ZM21.5528 23.6536H26.6584V25.1065H21.5528V23.6536Z" fill="#E1F9E5"/>
<path d="M13.6245 30.3772H28.5264L29.066 29.132V14.9357L27.9037 13.5659L23.9188 9.87158H13.0848L12.0886 10.3697V16.4405H13.2924V10.5772C13.2924 10.4112 13.4169 10.2452 13.6245 10.2452H23.0056C23.0886 10.2452 23.2132 10.2452 23.3377 10.2867V15.2678H28.3188C28.3603 15.3923 28.3603 16.015 28.3603 16.098V29.464C28.3603 29.6301 28.2358 29.7961 28.0282 29.7961H13.6245C13.4584 29.7961 13.2924 29.6716 13.2924 29.464V25.6763H12.0886V29.1735L13.6245 30.3772ZM24.583 14.0225V10.8263C24.666 10.8678 24.749 10.9508 24.7905 10.9923L27.5716 13.7735C27.6547 13.8565 27.6962 13.898 27.7377 13.981H24.583V14.0225Z" fill="#1E7145"/>
<path d="M21.553 17.7998H26.7001V19.2526H21.553V17.7998Z" fill="#1E7145"/>
<path d="M15.2433 20.539L17.5678 17.0522H15.6169L14.2471 19.0862L12.8773 17.0522H10.9678L12.0886 18.7956L13.2508 20.539L12.0886 22.2409L10.6357 24.3994H14.2471V23.0711H13.5414L14.2471 21.9919L15.8659 24.3994H17.8584L15.2433 20.539Z" fill="#E1F9E5"/>
<path d="M12.0886 15.1846H8.39429V26.9317H20.0999V15.1846H12.0886ZM15.866 24.3997L14.2886 22.0336L13.583 23.1129H14.2886V24.4412H10.6358L12.0886 22.2827L13.2509 20.5808L12.0886 18.8374L10.9264 17.094H12.8773L14.2471 19.128L15.6169 17.094H17.5679L15.2433 20.5808L17.8584 24.4412H15.866V24.3997Z" fill="#1E7145"/>
</svg>
