<svg width="24" height="24" viewBox="0 0 24 24" fill="none" xmlns="http://www.w3.org/2000/svg">
<path fill-rule="evenodd" clip-rule="evenodd" d="M12.2734 19.009V11.9395L14.9739 10.6288V12.4778C14.9739 12.6866 15.1448 12.8576 15.3539 12.8576C15.5627 12.8576 15.7337 12.6866 15.7337 12.4778V10.2584L18.0449 9.1377V16.2072L12.2734 19.009ZM5.76172 9.15039L11.5142 11.9396V19.0091L5.76172 16.2199V9.15039ZM11.894 11.2781L6.24609 8.53957L8.94348 7.23193L14.5914 9.9706L11.894 11.2781ZM11.8924 5.80078L17.5404 8.53941L15.4604 9.54933L9.8125 6.81086L11.8924 5.80078ZM18.8034 8.53626C18.8034 8.4794 18.7907 8.42233 18.7653 8.36855C18.7147 8.26079 18.6165 8.18801 18.5089 8.16589L12.0599 5.03802C11.9556 4.98733 11.8321 4.98733 11.7275 5.03802L5.21532 8.19435C5.08857 8.25446 5.00633 8.38121 5 8.5236V16.4606C5 16.6062 5.08223 16.7392 5.21532 16.8024L11.7275 19.9589C11.7306 19.9589 11.7306 19.9589 11.7339 19.962C11.7433 19.9652 11.7529 19.9683 11.7623 19.9746C11.7656 19.9746 11.7687 19.9779 11.775 19.9779L11.8036 19.9873C11.8067 19.9873 11.8098 19.9906 11.813 19.9906C11.8224 19.9937 11.8351 19.9937 11.8447 19.9969H11.8541C11.8668 19.9969 11.8828 20 11.8953 20C11.908 20 11.9239 20 11.9365 19.9969H11.946C11.9556 19.9969 11.9681 19.9937 11.9777 19.9906C11.9807 19.9906 11.984 19.9873 11.9871 19.9873L12.0157 19.9779C12.0188 19.9779 12.022 19.9746 12.0284 19.9746C12.0378 19.9715 12.0472 19.9683 12.0568 19.962C12.0599 19.962 12.0599 19.962 12.0631 19.9589L18.5944 16.793C18.7242 16.7296 18.8097 16.5967 18.8097 16.451V8.54588C18.8034 8.54264 18.8034 8.53951 18.8034 8.53626Z" fill="#959494"/>
<path d="M12.2734 19.009H12.0234V19.4083L12.3826 19.2339L12.2734 19.009ZM12.2734 11.9395L12.1643 11.7146L12.0234 11.783V11.9395H12.2734ZM14.9739 10.6288H15.2239V10.2296L14.8647 10.4039L14.9739 10.6288ZM15.7337 10.2584L15.6246 10.0335L15.4837 10.1018V10.2584H15.7337ZM18.0449 9.1377H18.2949V8.73863L17.9358 8.91275L18.0449 9.1377ZM18.0449 16.2072L18.1541 16.4321L18.2949 16.3637V16.2072H18.0449ZM5.76172 9.15039L5.87079 8.92544L5.51172 8.75134V9.15039H5.76172ZM11.5142 11.9396H11.7642V11.7829L11.6232 11.7146L11.5142 11.9396ZM11.5142 19.0091L11.4051 19.234L11.7642 19.4081V19.0091H11.5142ZM5.76172 16.2199H5.51172V16.3765L5.65265 16.4448L5.76172 16.2199ZM11.894 11.2781L11.785 11.503L11.894 11.5559L12.0031 11.503L11.894 11.2781ZM6.24609 8.53957L6.13704 8.31461L5.67304 8.53955L6.13702 8.76452L6.24609 8.53957ZM8.94348 7.23193L9.05256 7.00698L8.9435 6.9541L8.83443 7.00697L8.94348 7.23193ZM14.5914 9.9706L14.7004 10.1956L15.1644 9.97064L14.7005 9.74565L14.5914 9.9706ZM11.8924 5.80078L12.0015 5.57583L11.8923 5.5229L11.7832 5.5759L11.8924 5.80078ZM17.5404 8.53941L17.6495 8.7643L18.113 8.53925L17.6494 8.31446L17.5404 8.53941ZM15.4604 9.54933L15.3513 9.77428L15.4605 9.8272L15.5696 9.77422L15.4604 9.54933ZM9.8125 6.81086L9.70329 6.58598L9.23985 6.81104L9.70343 7.03581L9.8125 6.81086ZM18.7653 8.36855L18.5391 8.47497L18.5392 8.47506L18.7653 8.36855ZM18.5089 8.16589L18.3998 8.39083L18.4279 8.40448L18.4585 8.41077L18.5089 8.16589ZM12.0599 5.03802L11.9506 5.26288L11.9508 5.26296L12.0599 5.03802ZM11.7275 5.03802L11.8366 5.26299L11.8366 5.26296L11.7275 5.03802ZM5.21532 8.19435L5.32245 8.42024L5.32436 8.41932L5.21532 8.19435ZM5 8.5236L4.75 8.51248V8.5236H5ZM5.21532 16.8024L5.32437 16.5774L5.32256 16.5766L5.21532 16.8024ZM11.7275 19.9589L11.6185 20.1838L11.6701 20.2089H11.7275V19.9589ZM11.7339 19.962L11.5616 20.1431L11.601 20.1806L11.6524 20.1983L11.7339 19.962ZM11.7623 19.9746L11.6229 20.1821L11.6861 20.2246H11.7623V19.9746ZM11.775 19.9779L11.8535 19.7405L11.8152 19.7279H11.775V19.9779ZM11.8036 19.9873L11.7251 20.2247L11.7634 20.2373H11.8036V19.9873ZM11.813 19.9906L11.8909 19.753L11.8529 19.7406H11.813V19.9906ZM11.8447 19.9969L11.7645 20.2337L11.8035 20.2469H11.8447V19.9969ZM11.9365 19.9969V19.7469H11.9065L11.8773 19.754L11.9365 19.9969ZM11.9777 19.9906V19.7406H11.9384L11.901 19.7526L11.9777 19.9906ZM11.9871 19.9873V20.2373H12.0274L12.0657 20.2247L11.9871 19.9873ZM12.0157 19.9779V19.7279H11.9754L11.9371 19.7405L12.0157 19.9779ZM12.0284 19.9746V20.2246H12.0683L12.1062 20.2122L12.0284 19.9746ZM12.0568 19.962V19.712H11.9816L11.9189 19.7534L12.0568 19.962ZM12.0631 19.9589L11.9541 19.7339L11.919 19.7509L11.8908 19.7777L12.0631 19.9589ZM18.5944 16.793L18.7034 17.0179L18.7041 17.0176L18.5944 16.793ZM18.8097 8.54588H19.0597V8.39309L18.9237 8.3234L18.8097 8.54588ZM12.5234 19.009V11.9395H12.0234V19.009H12.5234ZM12.3826 12.1644L15.083 10.8537L14.8647 10.4039L12.1643 11.7146L12.3826 12.1644ZM14.7239 10.6288V12.4778H15.2239V10.6288H14.7239ZM14.7239 12.4778C14.7239 12.8248 15.0068 13.1076 15.3539 13.1076V12.6076C15.2829 12.6076 15.2239 12.5485 15.2239 12.4778H14.7239ZM15.3539 13.1076C15.7008 13.1076 15.9837 12.8247 15.9837 12.4778H15.4837C15.4837 12.5486 15.4246 12.6076 15.3539 12.6076V13.1076ZM15.9837 12.4778V10.2584H15.4837V12.4778H15.9837ZM15.8427 10.4834L18.154 9.36264L17.9358 8.91275L15.6246 10.0335L15.8427 10.4834ZM17.7949 9.1377V16.2072H18.2949V9.1377H17.7949ZM17.9357 15.9823L12.1643 18.7841L12.3826 19.2339L18.1541 16.4321L17.9357 15.9823ZM5.65265 9.37534L11.4051 12.1645L11.6232 11.7146L5.87079 8.92544L5.65265 9.37534ZM11.2642 11.9396V19.0091H11.7642V11.9396H11.2642ZM11.6232 18.7841L5.87079 15.9949L5.65265 16.4448L11.4051 19.234L11.6232 18.7841ZM6.01172 16.2199V9.15039H5.51172V16.2199H6.01172ZM12.0031 11.0531L6.35517 8.31462L6.13702 8.76452L11.785 11.503L12.0031 11.0531ZM6.35515 8.76453L9.05254 7.45689L8.83443 7.00697L6.13704 8.31461L6.35515 8.76453ZM8.83441 7.45688L14.4823 10.1955L14.7005 9.74565L9.05256 7.00698L8.83441 7.45688ZM14.4823 9.74563L11.785 11.0531L12.0031 11.503L14.7004 10.1956L14.4823 9.74563ZM11.7833 6.02573L17.4313 8.76436L17.6494 8.31446L12.0015 5.57583L11.7833 6.02573ZM17.4312 8.31451L15.3512 9.32444L15.5696 9.77422L17.6495 8.7643L17.4312 8.31451ZM15.5695 9.32438L9.92157 6.58591L9.70343 7.03581L15.3513 9.77428L15.5695 9.32438ZM9.92171 7.03575L12.0016 6.02567L11.7832 5.5759L9.70329 6.58598L9.92171 7.03575ZM19.0534 8.53626C19.0534 8.44192 19.0323 8.34854 18.9915 8.26204L18.5392 8.47506C18.5491 8.49612 18.5534 8.51687 18.5534 8.53626H19.0534ZM18.9916 8.26213C18.9063 8.08087 18.7416 7.9585 18.5592 7.92102L18.4585 8.41077C18.4914 8.41753 18.523 8.44071 18.5391 8.47497L18.9916 8.26213ZM18.618 7.94095L12.169 4.81308L11.9508 5.26296L18.3998 8.39083L18.618 7.94095ZM12.1692 4.81317C11.9958 4.72891 11.7918 4.729 11.6184 4.81308L11.8366 5.26296C11.8723 5.24565 11.9154 5.24574 11.9506 5.26288L12.1692 4.81317ZM11.6185 4.81305L5.10628 7.96938L5.32436 8.41932L11.8366 5.26299L11.6185 4.81305ZM5.1082 7.96846C4.89499 8.06957 4.76055 8.28078 4.75025 8.51249L5.24975 8.53471C5.25211 8.48165 5.28214 8.43935 5.32245 8.42023L5.1082 7.96846ZM4.75 8.5236V16.4606H5.25V8.5236H4.75ZM4.75 16.4606C4.75 16.7012 4.88644 16.923 5.10808 17.0282L5.32256 16.5766C5.27803 16.5554 5.25 16.5112 5.25 16.4606H4.75ZM5.10628 17.0274L11.6185 20.1838L11.8366 19.7339L5.32436 16.5774L5.10628 17.0274ZM11.7275 20.2089C11.7329 20.2089 11.7193 20.2092 11.7047 20.2077C11.6832 20.2056 11.6534 20.1997 11.6211 20.184C11.5932 20.1704 11.5747 20.1547 11.5689 20.1497C11.5636 20.1451 11.5589 20.1406 11.5616 20.1431L11.9062 19.7808C11.906 19.7807 11.9047 19.7794 11.9033 19.7782C11.902 19.7769 11.8989 19.774 11.895 19.7707C11.8882 19.7648 11.8688 19.7485 11.8402 19.7345C11.8071 19.7184 11.7766 19.7124 11.7541 19.7102C11.7446 19.7092 11.737 19.709 11.7335 19.7089C11.7316 19.7089 11.7301 19.7089 11.7292 19.7089C11.7284 19.7089 11.7276 19.7089 11.7275 19.7089V20.2089ZM11.6524 20.1983C11.6532 20.1986 11.654 20.1989 11.6545 20.1991C11.6552 20.1993 11.6556 20.1994 11.656 20.1996C11.6564 20.1997 11.6567 20.1998 11.6569 20.1999C11.6571 20.1999 11.6571 20.2 11.6571 20.2C11.6571 20.2 11.657 20.1999 11.6568 20.1998C11.6566 20.1998 11.6563 20.1997 11.6559 20.1995C11.6552 20.1992 11.654 20.1988 11.6525 20.1982C11.6464 20.1956 11.6355 20.1906 11.6229 20.1821L11.9018 19.7672C11.8601 19.7392 11.8173 19.7263 11.8153 19.7256L11.6524 20.1983ZM11.7623 20.2246C11.7418 20.2246 11.7241 20.222 11.7103 20.219C11.6969 20.2161 11.6863 20.2126 11.6801 20.2103C11.674 20.2082 11.6694 20.2062 11.6689 20.206C11.6688 20.2059 11.668 20.2056 11.669 20.206C11.6695 20.2063 11.6707 20.2068 11.6723 20.2074C11.6785 20.21 11.6924 20.2155 11.7108 20.2201C11.7298 20.2248 11.7514 20.2279 11.775 20.2279V19.7279C11.7954 19.7279 11.8142 19.7306 11.8308 19.7347C11.8467 19.7386 11.8585 19.7434 11.8628 19.7451C11.8638 19.7455 11.8645 19.7459 11.8646 19.7459C11.8651 19.7461 11.8639 19.7456 11.8633 19.7453C11.8618 19.7447 11.8564 19.7424 11.8495 19.7399C11.8424 19.7374 11.831 19.7336 11.8168 19.7305C11.8022 19.7273 11.7837 19.7246 11.7623 19.7246V20.2246ZM11.6965 20.2152L11.7251 20.2247L11.8821 19.75L11.8535 19.7405L11.6965 20.2152ZM11.8036 20.2373C11.7821 20.2373 11.7635 20.2345 11.7488 20.2311C11.7342 20.2278 11.7225 20.2237 11.7145 20.2205C11.7065 20.2174 11.7003 20.2144 11.6972 20.2129C11.6944 20.2115 11.6919 20.2102 11.6931 20.2108C11.6932 20.2109 11.6966 20.2127 11.7007 20.2147C11.705 20.2167 11.7121 20.2201 11.7212 20.2235C11.7302 20.227 11.7427 20.2312 11.7578 20.2345C11.7731 20.2379 11.7917 20.2406 11.813 20.2406V19.7406C11.8335 19.7406 11.8514 19.7431 11.8658 19.7463C11.8801 19.7495 11.8918 19.7534 11.9001 19.7566C11.9083 19.7598 11.9147 19.7628 11.9182 19.7645C11.9215 19.766 11.9241 19.7674 11.9234 19.7671C11.9234 19.7671 11.9234 19.7671 11.9234 19.767C11.9233 19.767 11.9233 19.767 11.9233 19.767C11.9232 19.7669 11.9231 19.7669 11.9229 19.7668C11.9226 19.7667 11.9222 19.7664 11.9217 19.7662C11.9207 19.7656 11.919 19.7648 11.917 19.7638C11.9131 19.7619 11.9062 19.7586 11.8974 19.7552C11.8885 19.7517 11.8761 19.7473 11.8608 19.7438C11.8453 19.7403 11.8259 19.7373 11.8036 19.7373V20.2373ZM11.7352 20.2281C11.7525 20.2338 11.7673 20.2368 11.7759 20.2384C11.7842 20.2399 11.792 20.241 11.7935 20.2412C11.797 20.2417 11.7944 20.2414 11.7909 20.2407C11.7871 20.24 11.7773 20.238 11.7645 20.2337L11.925 19.7601C11.9074 19.7542 11.8923 19.751 11.8832 19.7493C11.8743 19.7476 11.8662 19.7465 11.8641 19.7462C11.86 19.7456 11.8624 19.7459 11.8653 19.7465C11.8686 19.747 11.8783 19.7489 11.8909 19.753L11.7352 20.2281ZM11.8447 20.2469H11.8541V19.7469H11.8447V20.2469ZM11.8541 20.2469C11.8478 20.2469 11.8436 20.2465 11.8434 20.2465C11.8433 20.2465 11.8438 20.2466 11.8479 20.247C11.8508 20.2473 11.8574 20.2481 11.8644 20.2486C11.8715 20.2492 11.8825 20.25 11.8953 20.25V19.75C11.9018 19.75 11.9061 19.7504 11.9063 19.7504C11.9063 19.7504 11.9059 19.7504 11.9017 19.7499C11.8987 19.7496 11.892 19.7488 11.8849 19.7483C11.8778 19.7477 11.8669 19.7469 11.8541 19.7469V20.2469ZM11.8953 20.25C11.8999 20.25 11.9482 20.2514 11.9957 20.2398L11.8773 19.754C11.8855 19.752 11.8919 19.7511 11.8955 19.7506C11.8992 19.7502 11.9017 19.75 11.9024 19.75C11.9032 19.7499 11.9032 19.75 11.9018 19.75C11.9003 19.75 11.8987 19.75 11.8953 19.75V20.25ZM11.9365 20.2469H11.946V19.7469H11.9365V20.2469ZM11.946 20.2469C11.9975 20.2469 12.0419 20.2325 12.0543 20.2285L11.901 19.7526C11.9015 19.7525 11.9042 19.7516 11.9088 19.7506C11.9113 19.75 11.9154 19.7492 11.9209 19.7485C11.9261 19.7478 11.9348 19.7469 11.946 19.7469V20.2469ZM11.9777 20.2406C11.9999 20.2406 12.0191 20.2377 12.0342 20.2342C12.0493 20.2308 12.0615 20.2266 12.0701 20.2233C12.0787 20.2199 12.0855 20.2168 12.0894 20.2149C12.0915 20.2139 12.0931 20.2131 12.0942 20.2126C12.0952 20.2121 12.0961 20.2116 12.0961 20.2116C12.0969 20.2112 12.0945 20.2124 12.0915 20.2138C12.0883 20.2154 12.0823 20.2182 12.0744 20.2212C12.0665 20.2243 12.055 20.2282 12.0409 20.2314C12.0266 20.2346 12.0083 20.2373 11.9871 20.2373V19.7373C11.9651 19.7373 11.9461 19.7402 11.931 19.7436C11.916 19.747 11.9038 19.7511 11.8951 19.7545C11.8864 19.7578 11.8796 19.761 11.8756 19.7629C11.8735 19.7639 11.8718 19.7647 11.8707 19.7653C11.8696 19.7658 11.8687 19.7663 11.8686 19.7663C11.8677 19.7668 11.8701 19.7656 11.8729 19.7642C11.876 19.7627 11.882 19.7599 11.8899 19.7569C11.8977 19.7539 11.9092 19.7499 11.9234 19.7467C11.9377 19.7434 11.9562 19.7406 11.9777 19.7406V20.2406ZM12.0657 20.2247L12.0942 20.2152L11.9371 19.7405L11.9085 19.75L12.0657 20.2247ZM12.0157 20.2279C12.038 20.2279 12.057 20.2249 12.0714 20.2217C12.0856 20.2185 12.0967 20.2148 12.1034 20.2124C12.1099 20.21 12.1151 20.2078 12.1162 20.2074C12.1166 20.2072 12.1169 20.207 12.117 20.207C12.1172 20.2069 12.1172 20.2069 12.1171 20.207C12.1169 20.207 12.1161 20.2074 12.115 20.2078C12.1105 20.2096 12.0989 20.2142 12.0833 20.218C12.0671 20.222 12.0486 20.2246 12.0284 20.2246V19.7246C12.005 19.7246 11.9836 19.7277 11.965 19.7322C11.9469 19.7367 11.9331 19.7421 11.9266 19.7447C11.925 19.7453 11.9237 19.7459 11.923 19.7462C11.9227 19.7463 11.9224 19.7464 11.9224 19.7464C11.9223 19.7465 11.9224 19.7464 11.9226 19.7463C11.9228 19.7463 11.9271 19.7444 11.9327 19.7424C11.9386 19.7403 11.9489 19.7368 11.9623 19.7338C11.9759 19.7307 11.9941 19.7279 12.0157 19.7279V20.2279ZM12.1062 20.2122C12.1169 20.2087 12.1547 20.197 12.1947 20.1705L11.9189 19.7534C11.9398 19.7396 11.9587 19.7344 11.9505 19.7371L12.1062 20.2122ZM12.0568 20.212C12.0569 20.212 12.0576 20.212 12.0584 20.212C12.0593 20.212 12.0609 20.212 12.0628 20.2119C12.0663 20.2118 12.0739 20.2116 12.0834 20.2107C12.1058 20.2085 12.1364 20.2024 12.1694 20.1863C12.1981 20.1723 12.2174 20.1561 12.2242 20.1502C12.2282 20.1468 12.2312 20.144 12.2326 20.1427C12.234 20.1414 12.2353 20.1402 12.2354 20.14L11.8908 19.7777C11.8882 19.7803 11.8928 19.7757 11.8982 19.7711C11.904 19.7661 11.9225 19.7504 11.9504 19.7369C11.9826 19.7211 12.0124 19.7153 12.0339 19.7131C12.0485 19.7117 12.0621 19.712 12.0568 19.712V20.212ZM12.1722 20.1838L18.7034 17.0179L18.4853 16.568L11.9541 19.7339L12.1722 20.1838ZM18.7041 17.0176C18.9175 16.9134 19.0597 16.6947 19.0597 16.451H18.5597C18.5597 16.4986 18.5309 16.5458 18.4847 16.5683L18.7041 17.0176ZM19.0597 16.451V8.54588H18.5597V16.451H19.0597ZM18.9237 8.3234C18.9479 8.33576 18.9966 8.36652 19.028 8.42981C19.057 8.48815 19.0534 8.54445 19.0534 8.53626H18.5534C18.5534 8.53631 18.5534 8.53747 18.5534 8.53879C18.5534 8.54022 18.5534 8.54245 18.5535 8.54517C18.5537 8.55051 18.5541 8.55902 18.5554 8.56938C18.5581 8.59116 18.5645 8.62059 18.5803 8.65234C18.6133 8.71881 18.6652 8.75275 18.6957 8.76836L18.9237 8.3234Z" fill="#959494"/>
</svg>
