<svg width="24" height="24" viewBox="0 0 24 24" fill="none" xmlns="http://www.w3.org/2000/svg">
<path fill-rule="evenodd" clip-rule="evenodd" d="M8.39844 8.06173C8.39844 10.3511 10.1431 12.1235 12.324 12.1235C14.5049 12.1235 16.3223 10.3511 16.3223 8.06173C16.3223 5.77239 14.5049 4 12.324 4C10.1431 4 8.39844 5.77239 8.39844 8.06173ZM9.34375 8.06201C9.34375 6.43732 10.6523 5.03418 12.3243 5.03418C13.9963 5.03418 15.3775 6.43732 15.3775 8.06201C15.3775 9.6867 13.9963 11.0898 12.3243 11.0898C10.725 11.0898 9.34375 9.6867 9.34375 8.06201Z" fill="#959594"/>
<path d="M12.324 11.7735C10.3458 11.7735 8.74844 10.1672 8.74844 8.06173H8.04844C8.04844 10.5349 9.9405 12.4735 12.324 12.4735V11.7735ZM15.9723 8.06173C15.9723 10.1588 14.3105 11.7735 12.324 11.7735V12.4735C14.6992 12.4735 16.6723 10.5433 16.6723 8.06173H15.9723ZM12.324 4.35C14.3105 4.35 15.9723 5.96464 15.9723 8.06173H16.6723C16.6723 5.58014 14.6992 3.65 12.324 3.65V4.35ZM8.74844 8.06173C8.74844 5.95622 10.3458 4.35 12.324 4.35V3.65C9.9405 3.65 8.04844 5.58856 8.04844 8.06173H8.74844ZM12.3243 4.68418C10.4483 4.68418 8.99375 6.25485 8.99375 8.06201H9.69375C9.69375 6.61979 10.8562 5.38418 12.3243 5.38418V4.68418ZM15.7275 8.06201C15.7275 6.24376 14.1893 4.68418 12.3243 4.68418V5.38418C13.8032 5.38418 15.0275 6.63088 15.0275 8.06201H15.7275ZM12.3243 11.4398C14.1893 11.4398 15.7275 9.88026 15.7275 8.06201H15.0275C15.0275 9.49314 13.8032 10.7398 12.3243 10.7398V11.4398ZM8.99375 8.06201C8.99375 9.87478 10.5265 11.4398 12.3243 11.4398V10.7398C10.9234 10.7398 9.69375 9.49862 9.69375 8.06201H8.99375Z" fill="#959594"/>
<path fill-rule="evenodd" clip-rule="evenodd" d="M8.18087 20.1732C9.2713 20.4686 10.7252 20.6901 12.3245 20.6901C15.2323 20.6901 18.5763 20.0255 18.5037 18.1792C18.5037 15.1514 15.6685 12.7144 12.2518 12.7144C8.83513 12.7144 6 15.1514 6 18.1792C6 18.77 6.43617 19.5824 8.18087 20.1732ZM6.94531 18.1791C6.94531 15.6683 9.34427 13.6743 12.3248 13.6743C15.2326 13.6743 17.6316 15.7421 17.7043 18.1791C17.7043 18.9176 15.6688 19.73 12.3248 19.73C8.98079 19.73 6.94531 18.9176 6.94531 18.1791Z" fill="#959594"/>
<path d="M8.18087 20.1732L8.06861 20.5047L8.07889 20.5081L8.08935 20.511L8.18087 20.1732ZM18.5037 18.1792H18.1534L18.1539 18.193L18.5037 18.1792ZM17.7043 18.1791H18.0544L18.0541 18.1687L17.7043 18.1791ZM12.3245 20.3401C10.7556 20.3401 9.33249 20.1225 8.27239 19.8353L8.08935 20.511C9.21012 20.8146 10.6948 21.0401 12.3245 21.0401V20.3401ZM18.1539 18.193C18.1673 18.5323 18.0297 18.8262 17.7403 19.0933C17.4425 19.3682 16.9924 19.6045 16.4211 19.795C15.2805 20.1753 13.7593 20.3401 12.3245 20.3401V21.0401C13.7976 21.0401 15.4023 20.8726 16.6425 20.459C17.2616 20.2526 17.8155 19.9765 18.2152 19.6076C18.6233 19.2308 18.8764 18.7492 18.8534 18.1655L18.1539 18.193ZM12.2518 13.0644C15.5227 13.0644 18.1537 15.389 18.1537 18.1792H18.8537C18.8537 14.9138 15.8143 12.3644 12.2518 12.3644V13.0644ZM6.35 18.1792C6.35 15.389 8.98091 13.0644 12.2518 13.0644V12.3644C8.68935 12.3644 5.65 14.9138 5.65 18.1792H6.35ZM8.29313 19.8417C6.61467 19.2733 6.35 18.5531 6.35 18.1792H5.65C5.65 18.987 6.25768 19.8914 8.06861 20.5047L8.29313 19.8417ZM12.3248 13.3243C9.21252 13.3243 6.59531 15.4187 6.59531 18.1791H7.29531C7.29531 15.9178 9.47602 14.0243 12.3248 14.0243V13.3243ZM18.0541 18.1687C17.9745 15.4993 15.3755 13.3243 12.3248 13.3243V14.0243C15.0898 14.0243 17.2887 15.9849 17.3544 18.1896L18.0541 18.1687ZM12.3248 20.08C14.0215 20.08 15.4042 19.8743 16.3748 19.565C16.8581 19.4109 17.2568 19.2257 17.5423 19.0143C17.8165 18.8112 18.0543 18.5311 18.0543 18.1791H17.3543C17.3543 18.1965 17.3376 18.2948 17.1257 18.4517C16.925 18.6003 16.6058 18.7567 16.1623 18.898C15.2791 19.1795 13.9721 19.38 12.3248 19.38V20.08ZM6.59531 18.1791C6.59531 18.5311 6.83306 18.8112 7.10731 19.0143C7.39281 19.2257 7.79144 19.4109 8.27477 19.565C9.24535 19.8743 10.6281 20.08 12.3248 20.08V19.38C10.6775 19.38 9.37049 19.1795 8.48733 18.898C8.0438 18.7567 7.72455 18.6003 7.5239 18.4517C7.312 18.2948 7.29531 18.1965 7.29531 18.1791H6.59531Z" fill="#959594"/>
</svg>
