<svg width="40" height="40" viewBox="0 0 40 40" fill="none" xmlns="http://www.w3.org/2000/svg">
<path fill-rule="evenodd" clip-rule="evenodd" d="M40 20C40 31.0457 31.046 40 20 40C8.95461 40 0 31.0457 0 20C0 8.95433 8.95461 0 20 0C31.046 0 40 8.95433 40 20Z" fill="#E34A4A"/>
<path fill-rule="evenodd" clip-rule="evenodd" d="M30.5422 15.8046C30.6763 15.8046 30.7861 15.8479 30.8718 15.9345C30.9576 16.0212 31.0002 16.132 31 16.2667V20.8889C31 21.0235 30.9573 21.1343 30.8714 21.2209C30.7856 21.3074 30.6757 21.3507 30.5418 21.3507H29.1674V27.3594C29.1674 27.7444 29.0334 28.0718 28.7663 28.3413C28.4988 28.6111 28.1743 28.7457 27.7921 28.7457H12.2085C11.8264 28.7457 11.5017 28.6111 11.2345 28.3413C10.9671 28.072 10.8334 27.7448 10.8334 27.3594V21.3507H9.45829C9.32464 21.3507 9.21472 21.3074 9.12883 21.2209C9.04284 21.1344 9 21.0235 9 20.8889V16.2667C9 16.132 9.04299 16.0212 9.12883 15.9345C9.21477 15.8479 9.32449 15.8046 9.45829 15.8046H15.7606C14.8725 15.8046 14.1158 15.4892 13.4904 14.8586C12.8648 14.2281 12.5522 13.4648 12.5522 12.5693C12.5522 11.6738 12.865 10.9107 13.4904 10.2799C14.1156 9.64915 14.8725 9.33398 15.7606 9.33398C16.7824 9.33398 17.5844 9.70465 18.167 10.446L20.0002 12.8292L21.8337 10.446C22.4161 9.70465 23.2183 9.33398 24.24 9.33398C25.128 9.33398 25.8847 9.64935 26.5103 10.2799C27.1356 10.9107 27.4484 11.6738 27.4484 12.5693C27.4484 13.4648 27.1356 14.2279 26.5103 14.8586C25.8847 15.4894 25.128 15.8046 24.24 15.8046H30.5422ZM24.24 11.1816C23.8294 11.1816 23.5001 11.3309 23.2519 11.6292L21.4612 13.9545H24.24C24.6222 13.9545 24.9467 13.8198 25.2142 13.5502C25.4809 13.2807 25.6149 12.9533 25.6149 12.5681C25.6149 12.1829 25.4813 11.8554 25.2142 11.5859C24.9469 11.3163 24.6222 11.1816 24.24 11.1816ZM15.7604 13.9545C15.3784 13.9545 15.0539 13.8198 14.7861 13.5502C14.5189 13.2807 14.3851 12.9533 14.3851 12.5681C14.3851 12.1829 14.5187 11.8556 14.7861 11.5859C15.0535 11.3163 15.3782 11.1816 15.7602 11.1816C16.171 11.1816 16.5003 11.3307 16.7486 11.6292L18.5534 13.9546H15.7604V13.9545ZM22.2921 25.3359V18.5763V15.8031H17.7084V18.5763V25.3359V26.1446C17.7084 26.3854 17.7944 26.5707 17.9664 26.7008C18.1383 26.8308 18.3579 26.8959 18.6253 26.8959H21.3755C21.6424 26.8959 21.8622 26.8308 22.0342 26.7008C22.2059 26.5707 22.2921 26.3854 22.2921 26.1446V25.3359Z" fill="white"/>
</svg>
