<?xml version="1.0" encoding="UTF-8"?>
<svg width="14px" height="15px" viewBox="0 0 14 15" version="1.1" xmlns="http://www.w3.org/2000/svg" xmlns:xlink="http://www.w3.org/1999/xlink">
    <!-- Generator: sketchtool 50.2 (55047) - http://www.bohemiancoding.com/sketch -->
    <title>C420A0DE-643D-4712-A8C0-42F1B30C8839</title>
    <desc>Created with sketchtool.</desc>
    <defs></defs>
    <g id="1-Redesign" stroke="none" stroke-width="1" fill="none" fill-rule="evenodd" stroke-linecap="round" stroke-linejoin="round">
        <g id="1-Tao-don-hang-trong-nuoc" transform="translate(-1190.000000, -76.000000)" stroke="#8D8D8D" stroke-width="1.2">
            <g id="Group-15-Copy-4" transform="translate(1175.000000, 57.000000)">
                <g id="Group-14" transform="translate(1.000000, 10.000000)">
                    <g id="package" transform="translate(15.000000, 10.000000)">
                        <path d="M6.435,0.265909091 L11.1622727,2.62954545 C11.5638886,2.82911319 11.8179438,3.23880583 11.8181818,3.68727273 L11.8181818,9.31863636 C11.8179438,9.76710326 11.5638886,10.1767959 11.1622727,10.3763636 L6.435,12.74 C6.10210077,12.9065829 5.71017196,12.9065829 5.37727273,12.74 L0.65,10.3763636 C0.24876824,10.1741953 -0.00312669864,9.76200357 6.5604057e-16,9.31272727 L6.5604057e-16,3.68727273 C0.000237974036,3.23880583 0.25429319,2.82911319 0.655909091,2.62954545 L5.38318182,0.265909091 C5.71446473,0.101290594 6.10371709,0.101290594 6.435,0.265909091 Z" id="Shape"></path>
                        <polyline id="Shape" points="0.189090909 3.04909091 5.90909091 5.90909091 11.6290909 3.04909091"></polyline>
                        <path d="M5.90909091,12.8581818 L5.90909091,5.90909091" id="Shape"></path>
                        <path d="M2.95454545,1.47727273 L8.86363636,4.43181818" id="Shape"></path>
                    </g>
                </g>
            </g>
        </g>
    </g>
</svg>