<svg width="40" height="40" viewBox="0 0 40 40" fill="none" xmlns="http://www.w3.org/2000/svg">
<path fill-rule="evenodd" clip-rule="evenodd" d="M40 20C40 31.0457 31.046 40 20 40C8.95461 40 0 31.0457 0 20C0 8.95433 8.95461 0 20 0C31.046 0 40 8.95433 40 20Z" fill="#944DCC"/>
<path d="M25.1058 10.9964C24.9842 10.9118 24.8438 10.8579 24.6967 10.8396C24.5496 10.8212 24.4003 10.8388 24.2616 10.891L9.59492 16.391C9.23742 16.5257 9 16.8676 9 17.2499V22.7499C9 23.1321 9.23742 23.4741 9.59492 23.6088L10.8333 24.0726V27.3332C10.8334 27.5501 10.9103 27.7599 11.0505 27.9254C11.1906 28.0908 11.3849 28.2013 11.5988 28.2371L17.0988 29.1537C17.2301 29.1757 17.3646 29.1688 17.493 29.1335C17.6214 29.0982 17.7406 29.0353 17.8422 28.9493C17.9438 28.8633 18.0255 28.7562 18.0815 28.6354C18.1376 28.5146 18.1666 28.383 18.1667 28.2499V26.8226L24.2616 29.1079C24.4002 29.1605 24.5495 29.1784 24.6967 29.1602C24.8438 29.142 24.9842 29.0882 25.1058 29.0034C25.3524 28.832 25.5 28.5506 25.5 28.2499V11.7499C25.5 11.4492 25.3524 11.1678 25.1058 10.9964ZM16.3333 27.1673L12.6667 26.5559V24.7592L16.3333 26.1342V27.1673Z" fill="white"/>
<path d="M27.3333 19.083H30.9999V20.9163H27.3333V19.083Z" fill="white"/>
<path d="M25.8923 15.5394L29.0686 13.7061L29.9853 15.2937L26.809 17.1271L25.8923 15.5394Z" fill="white"/>
<path d="M25.8923 24.4602L26.809 22.8726L29.9853 24.7059L29.0686 26.2936L25.8923 24.4602Z" fill="white"/>
</svg>
