<?xml version="1.0" encoding="UTF-8"?>
<svg width="17px" height="16px" viewBox="0 0 17 16" version="1.1" xmlns="http://www.w3.org/2000/svg" xmlns:xlink="http://www.w3.org/1999/xlink">
    <!-- Generator: sketchtool 50.2 (55047) - http://www.bohemiancoding.com/sketch -->
    <title>C917F902-770A-462D-AC07-2BB595CD8046</title>
    <desc>Created with sketchtool.</desc>
    <defs></defs>
    <g id="1-Redesign" stroke="none" stroke-width="1" fill="none" fill-rule="evenodd">
        <g id="1-Tao-don-nhap-excel-popup-success" transform="translate(-101.000000, -136.000000)" fill="#02B875" fill-rule="nonzero">
            <g id="1-popup-success-upload" transform="translate(69.000000, 57.000000)">
                <g id="Group-74" transform="translate(20.000000, 67.000000)">
                    <g id="check-circle" transform="translate(12.027907, 12.000000)">
                        <path d="M8.01860465,0 C3.59047342,0 0,3.58214286 0,8 C0,12.4178571 3.59047342,16 8.01860465,16 C12.4467359,16 16.0372093,12.4178571 16.0372093,8 C16.0372093,3.58214286 12.4467359,0 8.01860465,0 Z M11.4819975,5.3875 L7.71253738,10.6017857 C7.48522425,10.9178571 7.0144892,10.9178571 6.78717608,10.6017857 L4.55521179,7.51607143 C4.48719684,7.42142857 4.55521179,7.28928571 4.67155316,7.28928571 L5.51100083,7.28928571 C5.69356728,7.28928571 5.86718439,7.37678571 5.97457641,7.52678571 L7.24896179,9.29107143 L10.0626329,5.39821429 C10.1700249,5.25 10.3418522,5.16071429 10.5262085,5.16071429 L11.3656561,5.16071429 C11.4819975,5.16071429 11.5500125,5.29285714 11.4819975,5.3875 Z" id="Shape"></path>
                    </g>
                </g>
            </g>
        </g>
    </g>
</svg>