<svg width="24" height="24" viewBox="0 0 24 24" fill="none" xmlns="http://www.w3.org/2000/svg">
<path fill-rule="evenodd" clip-rule="evenodd" d="M13.9844 7.42352C13.9844 9.35314 15.4549 10.847 17.2931 10.847C19.1313 10.847 20.6632 9.35314 20.6632 7.42352C20.6632 5.4939 19.1313 4 17.2931 4C15.4549 4 13.9844 5.4939 13.9844 7.42352ZM14.7812 7.42376C14.7812 6.05435 15.8841 4.87168 17.2934 4.87168C18.7026 4.87168 19.8668 6.05435 19.8668 7.42376C19.8668 8.79317 18.7026 9.97584 17.2934 9.97584C15.9453 9.97584 14.7812 8.79317 14.7812 7.42376Z" fill="#959594"/>
<path d="M17.2931 10.497C15.6576 10.497 14.3344 9.1693 14.3344 7.42352H13.6344C13.6344 9.53697 15.2523 11.197 17.2931 11.197V10.497ZM20.3132 7.42352C20.3132 9.16089 18.937 10.497 17.2931 10.497V11.197C19.3257 11.197 21.0132 9.54539 21.0132 7.42352H20.3132ZM17.2931 4.35C18.937 4.35 20.3132 5.68615 20.3132 7.42352H21.0132C21.0132 5.30165 19.3257 3.65 17.2931 3.65V4.35ZM14.3344 7.42352C14.3344 5.67773 15.6576 4.35 17.2931 4.35V3.65C15.2523 3.65 13.6344 5.31007 13.6344 7.42352H14.3344ZM17.2934 4.52168C15.6801 4.52168 14.4312 5.87188 14.4312 7.42376H15.1312C15.1312 6.23682 16.088 5.22168 17.2934 5.22168V4.52168ZM20.2168 7.42376C20.2168 5.8608 18.8957 4.52168 17.2934 4.52168V5.22168C18.5096 5.22168 19.5168 6.24791 19.5168 7.42376H20.2168ZM17.2934 10.3258C18.8957 10.3258 20.2168 8.98673 20.2168 7.42376H19.5168C19.5168 8.59961 18.5096 9.62584 17.2934 9.62584V10.3258ZM14.4312 7.42376C14.4312 8.98125 15.7469 10.3258 17.2934 10.3258V9.62584C16.1438 9.62584 15.1312 8.60509 15.1312 7.42376H14.4312Z" fill="#959594"/>
<path fill-rule="evenodd" clip-rule="evenodd" d="M13.803 17.632C14.7221 17.881 15.9476 18.0678 17.2956 18.0678C19.7465 18.0678 22.5651 17.5075 22.5038 15.9514C22.5038 13.3993 20.1142 11.3452 17.2343 11.3452C14.3545 11.3452 11.9648 13.3993 11.9648 15.9514C11.9648 16.4494 12.3325 17.1341 13.803 17.632ZM12.7616 15.9512C12.7616 13.8349 14.7836 12.1542 17.2958 12.1542C19.7468 12.1542 21.7688 13.8971 21.8301 15.9512C21.8301 16.5737 20.1144 17.2584 17.2958 17.2584C14.4773 17.2584 12.7616 16.5737 12.7616 15.9512Z" fill="#959594"/>
<path d="M13.803 17.632L13.6908 17.9635L13.7011 17.967L13.7115 17.9699L13.803 17.632ZM22.5038 15.9514H22.1536L22.1541 15.9652L22.5038 15.9514ZM21.8301 15.9512H22.1802L22.1799 15.9408L21.8301 15.9512ZM17.2956 17.7178C15.978 17.7178 14.7833 17.535 13.8946 17.2942L13.7115 17.9699C14.661 18.2271 15.9172 18.4178 17.2956 18.4178V17.7178ZM22.1541 15.9652C22.1646 16.232 22.0577 16.4649 21.8231 16.6814C21.5801 16.9058 21.2089 17.1018 20.7311 17.2611C19.7775 17.5791 18.5019 17.7178 17.2956 17.7178V18.4178C18.5403 18.4178 19.8994 18.2763 20.9525 17.9252C21.4781 17.7499 21.9532 17.5141 22.298 17.1957C22.6513 16.8696 22.8737 16.4489 22.8536 15.9376L22.1541 15.9652ZM17.2343 11.6952C19.9684 11.6952 22.1538 13.637 22.1538 15.9514H22.8538C22.8538 13.1617 20.26 10.9952 17.2343 10.9952V11.6952ZM12.3148 15.9514C12.3148 13.637 14.5003 11.6952 17.2343 11.6952V10.9952C14.2087 10.9952 11.6148 13.1617 11.6148 15.9514H12.3148ZM13.9153 17.3005C12.511 16.825 12.3148 16.2324 12.3148 15.9514H11.6148C11.6148 16.6663 12.154 17.4432 13.6908 17.9635L13.9153 17.3005ZM17.2958 11.8042C14.6519 11.8042 12.4116 13.5853 12.4116 15.9512H13.1116C13.1116 14.0844 14.9154 12.5042 17.2958 12.5042V11.8042ZM22.1799 15.9408C22.1117 13.6543 19.8896 11.8042 17.2958 11.8042V12.5042C19.6039 12.5042 21.4259 14.1399 21.4802 15.9616L22.1799 15.9408ZM17.2958 17.6084C18.7299 17.6084 19.9012 17.4346 20.7262 17.1717C21.1367 17.0409 21.4789 16.8825 21.7262 16.6993C21.9623 16.5245 22.1801 16.2741 22.1801 15.9512H21.4801C21.4801 15.9395 21.4834 16.0081 21.3097 16.1368C21.1472 16.2571 20.8843 16.3866 20.5136 16.5047C19.7761 16.7398 18.6804 16.9084 17.2958 16.9084V17.6084ZM12.4116 15.9512C12.4116 16.2741 12.6294 16.5245 12.8654 16.6993C13.1127 16.8825 13.455 17.0409 13.8655 17.1717C14.6904 17.4346 15.8618 17.6084 17.2958 17.6084V16.9084C15.9113 16.9084 14.8156 16.7398 14.078 16.5047C13.7073 16.3866 13.4445 16.2571 13.282 16.1368C13.1083 16.0081 13.1116 15.9395 13.1116 15.9512H12.4116Z" fill="#959594"/>
<path d="M8.38151 14L9.5104 12.9965C10.1071 12.4662 10.1071 11.5338 9.5104 11.0035L8.38151 10M9.96484 12L1.96484 12" stroke="#959594" stroke-width="1.5" stroke-linecap="round"/>
</svg>
