<?xml version="1.0" encoding="UTF-8"?>
<svg width="17px" height="14px" viewBox="0 0 17 14" version="1.1" xmlns="http://www.w3.org/2000/svg" xmlns:xlink="http://www.w3.org/1999/xlink">
    <!-- Generator: sketchtool 50.2 (55047) - http://www.bohemiancoding.com/sketch -->
    <title>1486B7AE-A634-4B4A-B88C-7896C276C958</title>
    <desc>Created with sketchtool.</desc>
    <defs></defs>
    <g id="1-Redesign" stroke="none" stroke-width="1" fill="none" fill-rule="evenodd">
        <g id="1-Tao-don-nhap-excel-popup-success" transform="translate(-319.000000, -137.000000)" fill="#EA2C43" fill-rule="nonzero">
            <g id="1-popup-success-upload" transform="translate(69.000000, 57.000000)">
                <g id="Group-74" transform="translate(20.000000, 67.000000)">
                    <g id="warning" transform="translate(230.534884, 13.000000)">
                        <path d="M15.9425576,13.1135857 L8.51329362,0.285077951 C8.40256902,0.0944320713 8.21147977,0 8.01860465,0 C7.82572953,0 7.63285441,0.0944320713 7.52391568,0.285077951 L0.0946516807,13.1135857 C-0.125011654,13.4948775 0.150013985,13.9688196 0.589340654,13.9688196 L15.4478686,13.9688196 C15.8871953,13.9688196 16.162221,13.4948775 15.9425576,13.1135857 Z M7.44712281,5.27394209 C7.44712281,5.19554566 7.51141451,5.13140312 7.58999327,5.13140312 L8.44721604,5.13140312 C8.52579479,5.13140312 8.5900865,5.19554566 8.5900865,5.27394209 L8.5900865,8.55233853 C8.5900865,8.63073497 8.52579479,8.69487751 8.44721604,8.69487751 L7.58999327,8.69487751 C7.51141451,8.69487751 7.44712281,8.63073497 7.44712281,8.55233853 L7.44712281,5.27394209 Z M8.01860465,11.545657 C7.54534625,11.545657 7.16138188,11.1625835 7.16138188,10.6904232 C7.16138188,10.2182628 7.54534625,9.83518931 8.01860465,9.83518931 C8.49186305,9.83518931 8.87582742,10.2182628 8.87582742,10.6904232 C8.87582742,11.1625835 8.49186305,11.545657 8.01860465,11.545657 Z" id="Shape"></path>
                    </g>
                </g>
            </g>
        </g>
    </g>
</svg>