<?xml version="1.0" encoding="UTF-8"?>
<svg width="104px" height="62px" viewBox="0 0 104 62" version="1.1" xmlns="http://www.w3.org/2000/svg" xmlns:xlink="http://www.w3.org/1999/xlink">
    <!-- Generator: sketchtool 50.2 (55047) - http://www.bohemiancoding.com/sketch -->
    <title>75FBF105-B65D-4C5F-B0D5-F483519D0CB4</title>
    <desc>Created with sketchtool.</desc>
    <defs></defs>
    <g id="1-Redesign" stroke="none" stroke-width="1" fill="none" fill-rule="evenodd">
        <g id="1-Tao-don-nhap-excel-popup-success" transform="translate(-85.000000, -406.000000)" fill-rule="nonzero">
            <g id="1-popup-success-import" transform="translate(69.000000, 340.000000)">
                <g id="success" transform="translate(16.000000, 66.000000)">
                    <path d="M52.1212121,7.03030303 C41.5797332,7.02899562 32.0755092,13.3780232 28.0405539,23.1167047 C24.0055986,32.8553861 26.2345738,44.0657427 33.6880628,51.5201562 C41.1415519,58.9745698 52.3516319,61.2049354 62.0908137,57.1711881 C71.8299955,53.1374407 78.1802019,43.6340043 78.180202,33.0925253 C78.1784178,18.7007587 66.5129784,7.03387232 52.1212121,7.03030303 Z" id="Shape" fill="#02B875"></path>
                    <path d="M6.14141412,48.4622222 L19.8367677,34.7668687 C20.2889322,34.3579965 20.9822581,34.3754155 21.4133203,34.8064777 C21.8443825,35.2375399 21.8618015,35.9308658 21.4529293,36.3830303 L7.75757576,50.0783838 C7.47418827,50.3917771 7.04116,50.5234973 6.63126233,50.4209902 C6.22136467,50.3184831 5.9013149,49.9984333 5.7988078,49.5885357 C5.69630069,49.178638 5.82802088,48.7456097 6.14141412,48.4622222 Z" id="Shape" fill="#F5B317"></path>
                    <polygon id="Shape" fill="#4FA0D9" points="0 38.5228283 8.03232321 34.1882828 7.16606061 41.2379798"></polygon>
                    <path d="M76.1567677,2.58585861 C76.1567677,3.99078174 77.2956829,5.12969697 78.7006061,5.12969697 C80.1055292,5.12969697 81.2444444,3.99078174 81.2444444,2.58585861 C81.2444444,1.18093547 80.1055292,0.0420202424 78.7006061,0.0420202424 C77.2956829,0.0420202424 76.1567677,1.18093547 76.1567677,2.58585861 Z" id="Shape" fill="#38B7A6"></path>
                    <path d="M26.0040404,5.35595958 L31.7220202,3.15797982 L29.5272727,8.87919194 L23.8060606,11.0771717 L26.0040404,5.35595958 Z M26.0040404,8.87919194 L23.6929293,3.27434345 L29.2977778,5.58545455 L31.6088889,11.190303 L26.0040404,8.87919194 Z" id="Shape" fill="#F5B317"></path>
                    <path d="M87.3115152,55.6282828 L93.4367677,53.2589899 L91.0674747,59.3842424 L84.9422222,61.7535353 L87.3115152,55.6282828 Z M87.3115152,59.4391919 L84.8258586,53.3721212 L90.8929293,55.8577778 L93.3785859,61.9248485 L87.3115152,59.4391919 Z" id="Shape" fill="#38B7A6"></path>
                    <path d="M83.2646465,34.650505 L97.2476768,20.6674747 C97.656566,20.2931675 98.2836361,20.2931675 98.6925253,20.6674747 C99.0414172,21.0859049 99.0414172,21.693893 98.6925253,22.1123232 L84.709495,36.0953535 C84.3006058,36.4696607 83.6735357,36.4696607 83.2646465,36.0953535 C82.9183356,35.6759919 82.9183356,35.0698666 83.2646465,34.650505 Z" id="Shape" fill="#4FA0D9"></path>
                    <path d="M81.3026262,42.6828283 L102.277172,21.7082828 C102.686061,21.3339756 103.313131,21.3339756 103.72202,21.7082828 C104.068331,22.1276445 104.068331,22.7337697 103.72202,23.1531313 L82.7474747,44.1276768 C82.3402572,44.5030894 81.7130762,44.5030894 81.3058586,44.1276768 C81.1109649,43.9378438 81.0010391,43.677319 81.0010391,43.4052525 C81.0010391,43.1331861 81.1109649,42.8726613 81.3058586,42.6828283 L81.3026262,42.6828283 Z" id="Shape" fill="#F5C44F"></path>
                    <path d="M64.1971717,28.8743435 L50.2141414,43.3777778 C50.0669627,43.5425659 49.8565006,43.6367779 49.6355555,43.6367779 C49.4146105,43.6367779 49.2041484,43.5425659 49.0569697,43.3777778 L40.7272727,34.7668687 C40.5614689,34.6088687 40.4676363,34.3898385 40.4676363,34.1608081 C40.4676363,33.9317777 40.5614689,33.7127475 40.7272727,33.5547475 L43.3131313,30.8363636 C43.46031,30.6715754 43.6707721,30.5773635 43.8917172,30.5773635 C44.1126622,30.5773635 44.3231243,30.6715754 44.470303,30.8363636 L49.5547475,36.1535353 L60.3604041,24.9438384 C60.5075828,24.7790502 60.7180448,24.6848382 60.9389899,24.6848382 C61.159935,24.6848382 61.370397,24.7790502 61.5175758,24.9438384 L64.1034344,27.6589899 C64.435876,27.9873596 64.4611697,28.5157187 64.1616162,28.8743435 L64.1971717,28.8743435 Z" id="Shape" fill="#FFFFFF"></path>
                </g>
            </g>
        </g>
    </g>
</svg>