<svg width="20" height="20" viewBox="0 0 20 20" fill="none" xmlns="http://www.w3.org/2000/svg">
<g id="Huge-icon/interface/solid/invoice">
<path id="Subtract" fill-rule="evenodd" clip-rule="evenodd" d="M4.16667 1.66699H15.8333C16.7538 1.66699 17.5 2.41318 17.5 3.33366V15.9623C17.5 17.1166 16.3549 17.9214 15.2688 17.5304L13.9673 17.0619C13.5607 16.9155 13.113 16.9328 12.7189 17.1102L10.6839 18.0259C10.249 18.2216 9.75101 18.2216 9.31606 18.0259L7.28115 17.1102C6.88699 16.9328 6.43934 16.9155 6.03267 17.0619L4.7312 17.5304C3.6451 17.9214 2.5 17.1166 2.5 15.9623V3.33366C2.5 2.41318 3.24619 1.66699 4.16667 1.66699ZM6.66667 5.20866C6.32149 5.20866 6.04167 5.48848 6.04167 5.83366C6.04167 6.17884 6.32149 6.45866 6.66667 6.45866H10C10.3452 6.45866 10.625 6.17884 10.625 5.83366C10.625 5.48848 10.3452 5.20866 10 5.20866H6.66667ZM6.66667 8.54199C6.32149 8.54199 6.04167 8.82181 6.04167 9.16699C6.04167 9.51217 6.32149 9.79199 6.66667 9.79199H13.3333C13.6785 9.79199 13.9583 9.51217 13.9583 9.16699C13.9583 8.82181 13.6785 8.54199 13.3333 8.54199H6.66667ZM6.66667 11.8753C6.32149 11.8753 6.04167 12.1551 6.04167 12.5003C6.04167 12.8455 6.32149 13.1253 6.66667 13.1253H13.3333C13.6785 13.1253 13.9583 12.8455 13.9583 12.5003C13.9583 12.1551 13.6785 11.8753 13.3333 11.8753H6.66667Z" fill="#EE0033"/>
</g>
</svg>
