<svg width="51" height="42" viewBox="0 0 51 42" fill="none" xmlns="http://www.w3.org/2000/svg">
<path d="M4.33008 38V29.4102H5.4668V36.9863H9.69727V38H4.33008ZM16.6699 33.002V31.7773H17.8008V32.7441C17.8008 33.3574 17.7305 33.7852 17.5898 34.0273C17.2305 34.6523 16.6816 35.0039 15.9434 35.082V38H15V37.0859C14.5156 37.7891 13.8574 38.1406 13.0254 38.1406C12.6621 38.1406 12.3203 38.0723 12 37.9355C11.6836 37.7949 11.4473 37.6172 11.291 37.4023C11.1348 37.1875 11.0254 36.9258 10.9629 36.6172C10.9199 36.4062 10.8984 36.0781 10.8984 35.6328V31.7773H11.9531V35.2285C11.9531 35.7871 11.9746 36.1582 12.0176 36.3418C12.1543 36.9355 12.5605 37.2324 13.2363 37.2324C13.5605 37.2324 13.8594 37.1504 14.1328 36.9863C14.4102 36.8223 14.6055 36.6016 14.7188 36.3242C14.832 36.0469 14.8887 35.6426 14.8887 35.1113V31.7773H15.9434V34.6367C16.4395 34.5508 16.8105 34.3184 17.0566 33.9395C17.166 33.7754 17.2207 33.4629 17.2207 33.002H16.6699ZM23.0391 38V37.0859C22.5547 37.7891 21.8965 38.1406 21.0645 38.1406C20.6973 38.1406 20.3535 38.0703 20.0332 37.9297C19.7168 37.7891 19.4805 37.6133 19.3242 37.4023C19.1719 37.1875 19.0645 36.9258 19.002 36.6172C18.959 36.4102 18.9375 36.082 18.9375 35.6328V31.7773H19.9922V35.2285C19.9922 35.7793 20.0137 36.1504 20.0566 36.3418C20.123 36.6191 20.2637 36.8379 20.4785 36.998C20.6934 37.1543 20.959 37.2324 21.2754 37.2324C21.5918 37.2324 21.8887 37.1523 22.166 36.9922C22.4434 36.8281 22.6387 36.6074 22.752 36.3301C22.8691 36.0488 22.9277 35.6426 22.9277 35.1113V31.7773H23.9824V38H23.0391ZM28.9863 38V29.4102H30.041V34.3086L32.5371 31.7773H33.9023L31.5234 34.0859L34.1426 38H32.8418L30.7852 34.8184L30.041 35.5332V38H28.9863ZM34.9805 38V29.4102H36.0352V32.4922C36.5273 31.9219 37.1484 31.6367 37.8984 31.6367C38.3594 31.6367 38.7598 31.7285 39.0996 31.9121C39.4395 32.0918 39.6816 32.3418 39.8262 32.6621C39.9746 32.9824 40.0488 33.4473 40.0488 34.0566V38H38.9941V34.0566C38.9941 33.5293 38.8789 33.1465 38.6484 32.9082C38.4219 32.666 38.0996 32.5449 37.6816 32.5449C37.3691 32.5449 37.0742 32.627 36.7969 32.791C36.5234 32.9512 36.3281 33.1699 36.2109 33.4473C36.0938 33.7246 36.0352 34.1074 36.0352 34.5957V38H34.9805ZM41.2676 34.8887C41.2676 33.7363 41.5879 32.8828 42.2285 32.3281C42.7637 31.8672 43.416 31.6367 44.1855 31.6367C45.041 31.6367 45.7402 31.918 46.2832 32.4805C46.8262 33.0391 47.0977 33.8125 47.0977 34.8008C47.0977 35.6016 46.9766 36.2324 46.7344 36.6934C46.4961 37.1504 46.1465 37.5059 45.6855 37.7598C45.2285 38.0137 44.7285 38.1406 44.1855 38.1406C43.3145 38.1406 42.6094 37.8613 42.0703 37.3027C41.5352 36.7441 41.2676 35.9395 41.2676 34.8887ZM42.3516 34.8887C42.3516 35.6855 42.5254 36.2832 42.873 36.6816C43.2207 37.0762 43.6582 37.2734 44.1855 37.2734C44.709 37.2734 45.1445 37.0742 45.4922 36.6758C45.8398 36.2773 46.0137 35.6699 46.0137 34.8535C46.0137 34.084 45.8379 33.502 45.4863 33.1074C45.1387 32.709 44.7051 32.5098 44.1855 32.5098C43.6582 32.5098 43.2207 32.707 42.873 33.1016C42.5254 33.4961 42.3516 34.0918 42.3516 34.8887Z" fill="#42526E"/>
<path d="M35.5264 6.95149L26.4354 1.99241C26.1646 1.84424 25.8354 1.84424 25.5646 1.99241L16.4737 6.95149C16.1818 7.11057 16 7.41602 16 7.74969V9.02789C16 9.5306 16.4073 9.93696 16.9091 9.93696H17.8182V17.2097C17.8182 17.7124 18.2254 18.1188 18.7272 18.1188H20.5454V10.846H31.4545V18.1188H33.2727C33.7745 18.1188 34.1818 17.7124 34.1818 17.2097V9.93696H35.0909C35.5927 9.93696 36 9.5306 36 9.02789V7.74969C36 7.41602 35.8182 7.11057 35.5264 6.95149Z" fill="#00857F"/>
<path d="M29.6364 12.6642H22.3636V14.4824H29.6364V12.6642Z" fill="#00857F"/>
<path d="M29.6364 16.3005H22.3636V18.1187H29.6364V16.3005Z" fill="#00857F"/>
</svg>
