<svg width="24" height="24" viewBox="0 0 24 24" fill="none" xmlns="http://www.w3.org/2000/svg">
<path fill-rule="evenodd" clip-rule="evenodd" d="M11.7185 9.08789C12.5818 9.08789 13.2846 9.78976 13.2846 10.654C13.2846 11.5174 12.5818 12.2192 11.7185 12.2192C10.8551 12.2192 10.1523 11.5174 10.1523 10.654C10.1523 9.78976 10.8551 9.08789 11.7185 9.08789ZM11.7183 13.8682C13.4907 13.8682 14.9327 12.4262 14.9327 10.6538C14.9327 8.88141 13.4907 7.43848 11.7183 7.43848C9.94591 7.43848 8.50391 8.88141 8.50391 10.6538C8.50391 12.4262 9.94591 13.8682 11.7183 13.8682Z" fill="#959494"/>
<path fill-rule="evenodd" clip-rule="evenodd" d="M11.72 5.58185C14.5163 5.58185 16.7917 7.85732 16.7917 10.6536V10.8337C16.7917 13.7513 13.0612 17.3306 11.72 18.5234C10.3788 17.3297 6.64827 13.7494 6.64827 10.8337V10.6536C6.64827 7.85732 8.92373 5.58185 11.72 5.58185ZM11.72 3.93359C8.01467 3.93359 5 6.94826 5 10.6536V10.8337C5 12.7023 6.06027 14.8667 8.15093 17.2672C9.55653 18.8809 10.9341 20.0308 11.2011 20.2501L11.72 20.6692L12.238 20.2501C12.3005 20.1997 13.7892 18.9892 15.2891 17.2672C17.3797 14.8667 18.44 12.7023 18.44 10.8337V10.6536C18.44 6.94826 15.4253 3.93359 11.72 3.93359Z" fill="#959494"/>
</svg>
