<svg width="40" height="48" viewBox="0 0 40 48" fill="none" xmlns="http://www.w3.org/2000/svg">
<path d="M17.0008 45.0008C16.7356 45.0007 16.4813 44.8954 16.2938 44.7078C15.6278 44.0428 0.000806728 28.2858 0.000806728 17.0008C-0.0211075 14.7622 0.403646 12.5418 1.25022 10.4694C2.09679 8.39692 3.34817 6.51413 4.93115 4.93115C6.51413 3.34817 8.39692 2.09679 10.4694 1.25022C12.5418 0.403646 14.7622 -0.0211075 17.0008 0.000806728C19.2394 -0.0211075 21.4598 0.403646 23.5323 1.25022C25.6047 2.09679 27.4875 3.34817 29.0705 4.93115C30.6534 6.51413 31.9048 8.39692 32.7514 10.4694C33.598 12.5418 34.0227 14.7622 34.0008 17.0008C34.0008 28.2858 18.3738 44.0428 17.7078 44.7078C17.5203 44.8954 17.266 45.0007 17.0008 45.0008Z" fill="#F5A623"/>
<path d="M17.0008 23.0008C20.3145 23.0008 23.0008 20.3145 23.0008 17.0008C23.0008 13.6871 20.3145 11.0008 17.0008 11.0008C13.6871 11.0008 11.0008 13.6871 11.0008 17.0008C11.0008 20.3145 13.6871 23.0008 17.0008 23.0008Z" fill="white"/>
<mask id="mask0" mask-type="alpha" maskUnits="userSpaceOnUse" x="7" y="7" width="20" height="20">
<path fill-rule="evenodd" clip-rule="evenodd" d="M7.00079 7.00079H26.9546V26.9546H7.00079V7.00079Z" fill="white"/>
</mask>
<g mask="url(#mask0)">
<path fill-rule="evenodd" clip-rule="evenodd" d="M26.9546 16.9777C26.9546 22.4878 22.4878 26.9546 16.9777 26.9546C11.4676 26.9546 7.00079 22.4878 7.00079 16.9777C7.00079 11.4676 11.4676 7.00076 16.9777 7.00076C22.4878 7.00076 26.9546 11.4676 26.9546 16.9777Z" fill="white"/>
</g>
<path fill-rule="evenodd" clip-rule="evenodd" d="M17.2408 16.3946L15.8008 13.8346L17.2408 16.3946Z" fill="white"/>
<path fill-rule="evenodd" clip-rule="evenodd" d="M11.0008 14.7946C11.0008 15.6782 11.9364 16.3946 12.6898 16.3946H16.1208L15.3207 14.7946H11.0008Z" fill="#00B7AE"/>
<path fill-rule="evenodd" clip-rule="evenodd" d="M13.0808 16.3946C13.0808 17.1899 13.9306 17.8346 15.0202 17.8346H17.4008L16.5956 16.3946H13.0808Z" fill="#28A19B"/>
<path fill-rule="evenodd" clip-rule="evenodd" d="M19.3208 20.0373L17.2596 16.465L15.889 14.104C15.4299 13.3133 14.6148 12.8023 13.7126 12.7251L13.7069 12.7146H13.4738H13.3081H9.08078C9.08078 13.9482 9.94674 14.9483 11.015 14.9483H14.6105L18.4389 21.5146L19.3208 20.0373Z" fill="#16CDC3"/>
<path fill-rule="evenodd" clip-rule="evenodd" d="M18.7997 14.0894L17.4008 16.4841L19.4769 20.0746C19.4769 20.0746 21.416 16.624 22.4553 14.9504C22.8939 14.2443 24.9208 12.7146 24.9208 12.7146H21.1994C20.2109 12.7146 19.2969 13.2382 18.7997 14.0894Z" fill="#FE8401"/>
<path fill-rule="evenodd" clip-rule="evenodd" d="M18.3608 21.8314L16.3191 18.3146L15.3208 20.0515L17.382 23.5946L18.3608 21.8314Z" fill="#FE8401"/>
<path d="M29 47.25C31.0273 47.25 33.009 46.6488 34.6946 45.5226C36.3802 44.3963 37.694 42.7955 38.4698 40.9225C39.2456 39.0496 39.4485 36.9886 39.053 35.0003C38.6575 33.012 37.6813 31.1856 36.2478 29.7522C34.8144 28.3187 32.988 27.3425 30.9997 26.947C29.0114 26.5515 26.9504 26.7544 25.0775 27.5302C23.2046 28.306 21.6037 29.6198 20.4774 31.3054C19.3512 32.991 18.75 34.9727 18.75 37C18.75 38.3461 19.0151 39.6789 19.5302 40.9225C20.0453 42.1661 20.8004 43.296 21.7522 44.2478C23.6744 46.1701 26.2815 47.25 29 47.25Z" fill="#36A2C4" stroke="white" stroke-width="0.5"/>
<g clip-path="url(#clip0)">
<g clip-path="url(#clip1)">
<path d="M26.75 42.625C27.3714 42.625 27.875 42.1213 27.875 41.5C27.875 40.8787 27.3714 40.375 26.75 40.375C26.1287 40.375 25.625 40.8787 25.625 41.5C25.625 42.1213 26.1287 42.625 26.75 42.625Z" fill="white"/>
<path d="M34.625 38.875H26.3231L25.2459 31.6943C25.2183 31.5109 25.0607 31.375 24.875 31.375H23.375V32.125H24.552L25.6292 39.3057C25.6567 39.4891 25.8144 39.625 26 39.625H32.1152L33.1488 42.3816C33.2055 42.5322 33.3482 42.6252 33.5 42.6252C33.5437 42.6252 33.5883 42.6173 33.6317 42.6012C33.8255 42.5282 33.924 42.3122 33.8512 42.1184L32.9162 39.625H34.625V38.875Z" fill="white"/>
<path d="M33.6875 31.75H27.3125C27.1053 31.75 26.9375 31.9178 26.9375 32.125V37.75C26.9375 37.9572 27.1053 38.125 27.3125 38.125H33.6875C33.8947 38.125 34.0625 37.9572 34.0625 37.75V32.125C34.0625 31.9178 33.8947 31.75 33.6875 31.75ZM31.3438 34H29.6563C29.3973 34 29.1875 33.7902 29.1875 33.5312C29.1875 33.2723 29.3973 33.0625 29.6563 33.0625H31.3438C31.6027 33.0625 31.8125 33.2723 31.8125 33.5312C31.8125 33.7902 31.6027 34 31.3438 34Z" fill="white"/>
</g>
</g>
<defs>
<clipPath id="clip0">
<rect width="12" height="12" fill="white" transform="translate(22.9992 31)"/>
</clipPath>
<clipPath id="clip1">
<rect width="12" height="12" fill="white" transform="translate(23 31)"/>
</clipPath>
</defs>
</svg>
