<svg width="40" height="48" viewBox="0 0 40 48" fill="none" xmlns="http://www.w3.org/2000/svg">
<path d="M17.0008 45.0008C16.7356 45.0007 16.4813 44.8954 16.2938 44.7078C15.6278 44.0428 0.000806728 28.2858 0.000806728 17.0008C-0.0211075 14.7622 0.403646 12.5418 1.25022 10.4694C2.09679 8.39692 3.34817 6.51413 4.93115 4.93115C6.51413 3.34817 8.39692 2.09679 10.4694 1.25022C12.5418 0.403646 14.7622 -0.0211075 17.0008 0.000806728C19.2394 -0.0211075 21.4598 0.403646 23.5323 1.25022C25.6047 2.09679 27.4875 3.34817 29.0705 4.93115C30.6534 6.51413 31.9048 8.39692 32.7514 10.4694C33.598 12.5418 34.0227 14.7622 34.0008 17.0008C34.0008 28.2858 18.3738 44.0428 17.7078 44.7078C17.5203 44.8954 17.266 45.0007 17.0008 45.0008Z" fill="#F5A623"/>
<path d="M17.0008 23.0008C20.3145 23.0008 23.0008 20.3145 23.0008 17.0008C23.0008 13.6871 20.3145 11.0008 17.0008 11.0008C13.6871 11.0008 11.0008 13.6871 11.0008 17.0008C11.0008 20.3145 13.6871 23.0008 17.0008 23.0008Z" fill="white"/>
<mask id="mask0" mask-type="alpha" maskUnits="userSpaceOnUse" x="7" y="7" width="20" height="20">
<path fill-rule="evenodd" clip-rule="evenodd" d="M7.00079 7.00079H26.9546V26.9546H7.00079V7.00079Z" fill="white"/>
</mask>
<g mask="url(#mask0)">
<path fill-rule="evenodd" clip-rule="evenodd" d="M26.9546 16.9777C26.9546 22.4878 22.4878 26.9546 16.9777 26.9546C11.4676 26.9546 7.00079 22.4878 7.00079 16.9777C7.00079 11.4676 11.4676 7.00076 16.9777 7.00076C22.4878 7.00076 26.9546 11.4676 26.9546 16.9777Z" fill="white"/>
</g>
<path fill-rule="evenodd" clip-rule="evenodd" d="M17.2408 16.3946L15.8008 13.8346L17.2408 16.3946Z" fill="white"/>
<path fill-rule="evenodd" clip-rule="evenodd" d="M11.0008 14.7946C11.0008 15.6782 11.9364 16.3946 12.6898 16.3946H16.1208L15.3207 14.7946H11.0008Z" fill="#00B7AE"/>
<path fill-rule="evenodd" clip-rule="evenodd" d="M13.0808 16.3946C13.0808 17.1899 13.9306 17.8346 15.0202 17.8346H17.4008L16.5956 16.3946H13.0808Z" fill="#28A19B"/>
<path fill-rule="evenodd" clip-rule="evenodd" d="M19.3208 20.0373L17.2596 16.465L15.889 14.104C15.4299 13.3133 14.6148 12.8023 13.7126 12.7251L13.7069 12.7146H13.4738H13.3081H9.08078C9.08078 13.9482 9.94674 14.9483 11.015 14.9483H14.6105L18.4389 21.5146L19.3208 20.0373Z" fill="#16CDC3"/>
<path fill-rule="evenodd" clip-rule="evenodd" d="M18.7997 14.0894L17.4008 16.4841L19.4769 20.0746C19.4769 20.0746 21.416 16.624 22.4553 14.9504C22.8939 14.2443 24.9208 12.7146 24.9208 12.7146H21.1994C20.2109 12.7146 19.2969 13.2382 18.7997 14.0894Z" fill="#FE8401"/>
<path fill-rule="evenodd" clip-rule="evenodd" d="M18.3608 21.8314L16.3191 18.3146L15.3208 20.0515L17.382 23.5946L18.3608 21.8314Z" fill="#FE8401"/>
<path d="M29 47.25C31.0273 47.25 33.009 46.6489 34.6946 45.5226C36.3802 44.3963 37.694 42.7955 38.4698 40.9225C39.2456 39.0496 39.4485 36.9886 39.053 35.0003C38.6576 33.012 37.6813 31.1856 36.2478 29.7522C34.8144 28.3187 32.988 27.3425 30.9997 26.947C29.0114 26.5515 26.9504 26.7544 25.0775 27.5302C23.2046 28.306 21.6037 29.6198 20.4774 31.3054C19.3512 32.991 18.75 34.9727 18.75 37C18.75 38.3461 19.0151 39.6789 19.5302 40.9225C20.0453 42.1661 20.8004 43.2961 21.7522 44.2479C23.6744 46.1701 26.2815 47.25 29 47.25Z" fill="#00918D" stroke="white" stroke-width="0.5"/>
<path d="M26.0508 32.5859C24.9201 32.5859 24 33.506 24 34.6367V38.1719C24 38.3338 24.131 38.4648 24.293 38.4648H27.8086C27.9705 38.4648 28.1016 38.3338 28.1016 38.1719V34.6367C28.1016 33.506 27.1815 32.5859 26.0508 32.5859ZM26.6367 37.2734H25.4648C25.3029 37.2734 25.1719 37.1424 25.1719 36.9805C25.1719 36.8185 25.3029 36.6875 25.4648 36.6875H26.6367C26.7987 36.6875 26.9297 36.8185 26.9297 36.9805C26.9297 37.1424 26.7987 37.2734 26.6367 37.2734Z" fill="white"/>
<path d="M30.7578 41.4141H29.8789V39.0508H27.5156V41.4141H26.6367C26.4748 41.4141 26.3438 41.5451 26.3438 41.707C26.3438 41.869 26.4748 42 26.6367 42C28.1424 42 29.2357 42 30.7578 42C30.9197 42 31.0508 41.869 31.0508 41.707C31.0508 41.5451 30.9197 41.4141 30.7578 41.4141Z" fill="white"/>
<path d="M33.2925 33.0957C33.1022 33.4861 32.705 33.7578 32.2422 33.7578H31.6367V34.641C32.0088 34.921 32.2227 35.3947 32.2227 35.8086C32.2227 36.6163 31.5655 37.2734 30.7578 37.2734C29.9501 37.2734 29.293 36.6163 29.293 35.8086C29.293 35.396 29.5051 34.9222 29.8789 34.641C29.8789 33.8662 29.8789 33.3619 29.8789 32.5859H27.6876C28.2921 33.0695 28.6875 33.8042 28.6875 34.6367V38.4648H33.707C33.869 38.4648 34 38.3338 34 38.1719V34.6367C34 34.0211 33.7234 33.4721 33.2925 33.0957Z" fill="white"/>
<path d="M32.2422 32H30.7578C30.5959 32 30.4648 32.131 30.4648 32.293C30.4648 33.5341 30.4648 33.8804 30.4648 34.9297V34.9837C30.1246 35.105 29.8789 35.4271 29.8789 35.8086C29.8789 36.2932 30.2732 36.6875 30.7578 36.6875C31.2425 36.6875 31.6367 36.2932 31.6367 35.8086C31.6367 35.4271 31.3911 35.105 31.0508 34.9837V34.9297C31.0508 34.5056 31.0508 33.5959 31.0508 33.1719H32.2422C32.5658 33.1719 32.8281 32.9095 32.8281 32.5859C32.8281 32.2623 32.5658 32 32.2422 32Z" fill="white"/>
</svg>
