<svg width="41" height="48" viewBox="0 0 41 48" fill="none" xmlns="http://www.w3.org/2000/svg">
<path d="M17.0008 45.0008C16.7356 45.0007 16.4813 44.8954 16.2938 44.7078C15.6278 44.0428 0.000806728 28.2858 0.000806728 17.0008C-0.0211075 14.7622 0.403646 12.5418 1.25022 10.4694C2.09679 8.39692 3.34817 6.51413 4.93115 4.93115C6.51413 3.34817 8.39692 2.09679 10.4694 1.25022C12.5418 0.403646 14.7622 -0.0211075 17.0008 0.000806728C19.2394 -0.0211075 21.4598 0.403646 23.5323 1.25022C25.6047 2.09679 27.4875 3.34817 29.0705 4.93115C30.6534 6.51413 31.9048 8.39692 32.7514 10.4694C33.598 12.5418 34.0227 14.7622 34.0008 17.0008C34.0008 28.2858 18.3738 44.0428 17.7078 44.7078C17.5203 44.8954 17.266 45.0007 17.0008 45.0008Z" fill="#F5A623"/>
<path d="M17.0008 23.0008C20.3145 23.0008 23.0008 20.3145 23.0008 17.0008C23.0008 13.6871 20.3145 11.0008 17.0008 11.0008C13.6871 11.0008 11.0008 13.6871 11.0008 17.0008C11.0008 20.3145 13.6871 23.0008 17.0008 23.0008Z" fill="white"/>
<mask id="mask0" mask-type="alpha" maskUnits="userSpaceOnUse" x="7" y="7" width="20" height="20">
<path fill-rule="evenodd" clip-rule="evenodd" d="M7.00079 7.00079H26.9546V26.9546H7.00079V7.00079Z" fill="white"/>
</mask>
<g mask="url(#mask0)">
<path fill-rule="evenodd" clip-rule="evenodd" d="M26.9546 16.9777C26.9546 22.4878 22.4878 26.9546 16.9777 26.9546C11.4676 26.9546 7.00079 22.4878 7.00079 16.9777C7.00079 11.4676 11.4676 7.00076 16.9777 7.00076C22.4878 7.00076 26.9546 11.4676 26.9546 16.9777Z" fill="white"/>
</g>
<path fill-rule="evenodd" clip-rule="evenodd" d="M17.2408 16.3946L15.8008 13.8346L17.2408 16.3946Z" fill="white"/>
<path fill-rule="evenodd" clip-rule="evenodd" d="M11.0008 14.7946C11.0008 15.6782 11.9364 16.3946 12.6898 16.3946H16.1208L15.3207 14.7946H11.0008Z" fill="#00B7AE"/>
<path fill-rule="evenodd" clip-rule="evenodd" d="M13.0808 16.3946C13.0808 17.1899 13.9306 17.8346 15.0202 17.8346H17.4008L16.5956 16.3946H13.0808Z" fill="#28A19B"/>
<path fill-rule="evenodd" clip-rule="evenodd" d="M19.3208 20.0373L17.2596 16.465L15.889 14.104C15.4299 13.3133 14.6148 12.8023 13.7126 12.7251L13.7069 12.7146H13.4738H13.3081H9.08078C9.08078 13.9482 9.94674 14.9483 11.015 14.9483H14.6105L18.4389 21.5146L19.3208 20.0373Z" fill="#16CDC3"/>
<path fill-rule="evenodd" clip-rule="evenodd" d="M18.7997 14.0894L17.4008 16.4841L19.4769 20.0746C19.4769 20.0746 21.416 16.624 22.4553 14.9504C22.8939 14.2443 24.9208 12.7146 24.9208 12.7146H21.1994C20.2109 12.7146 19.2969 13.2382 18.7997 14.0894Z" fill="#FE8401"/>
<path fill-rule="evenodd" clip-rule="evenodd" d="M18.3608 21.8314L16.3191 18.3146L15.3208 20.0515L17.382 23.5946L18.3608 21.8314Z" fill="#FE8401"/>
<path d="M30 47.25C32.0273 47.25 34.009 46.6488 35.6946 45.5226C37.3802 44.3963 38.694 42.7955 39.4698 40.9225C40.2456 39.0496 40.4485 36.9886 40.053 35.0003C39.6575 33.012 38.6813 31.1856 37.2478 29.7522C35.8144 28.3187 33.988 27.3425 31.9997 26.947C30.0114 26.5515 27.9504 26.7544 26.0775 27.5302C24.2046 28.306 22.6037 29.6198 21.4774 31.3054C20.3512 32.991 19.75 34.9727 19.75 37C19.75 38.3461 20.0151 39.6789 20.5302 40.9225C21.0453 42.1661 21.8004 43.296 22.7522 44.2478C24.6744 46.1701 27.2815 47.25 30 47.25Z" fill="#32BD6A" stroke="white" stroke-width="0.5"/>
<path d="M29.4992 34.9998V31.9998H27.4992C27.3322 31.9998 27.1762 32.0838 27.0832 32.2228L25.2317 34.9998H29.4992Z" fill="white"/>
<path d="M34.7667 34.9998L32.9152 32.2228C32.8222 32.0838 32.6662 31.9998 32.4992 31.9998H30.4992V34.9998H34.7667Z" fill="white"/>
<path d="M24.9992 41.4996C24.9992 41.7756 25.2232 41.9996 25.4992 41.9996H34.4992C34.7752 41.9996 34.9992 41.7756 34.9992 41.4996V35.9996H24.9992V41.4996ZM30.4992 38.9996H33.4992V40.4996H30.4992V38.9996Z" fill="white"/>
</svg>
