<svg width="14" height="19" viewBox="0 0 14 19" fill="none" xmlns="http://www.w3.org/2000/svg">
<path d="M2 17.0837C1.58579 17.0837 1.25 17.4194 1.25 17.8337C1.25 18.2479 1.58579 18.5837 2 18.5837V17.0837ZM12 18.5837C12.4142 18.5837 12.75 18.2479 12.75 17.8337C12.75 17.4194 12.4142 17.0837 12 17.0837V18.5837ZM12.5 7.41699C12.5 8.79618 11.613 10.6075 10.3657 12.1267C9.7546 12.871 9.08961 13.5042 8.46659 13.9444C7.82024 14.4011 7.31331 14.5837 7 14.5837V16.0837C7.78044 16.0837 8.60164 15.6857 9.33223 15.1694C10.0862 14.6367 10.847 13.9044 11.525 13.0785C12.8558 11.4576 14 9.31061 14 7.41699H12.5ZM7 14.5837C6.70184 14.5837 6.20166 14.3951 5.55088 13.9065C4.92658 13.4378 4.25948 12.765 3.64585 11.979C2.39363 10.3751 1.5 8.47951 1.5 7.09292H0C0 8.97913 1.13762 11.2039 2.46352 12.9021C3.13896 13.7673 3.89764 14.541 4.65029 15.1061C5.37646 15.6512 6.20441 16.0837 7 16.0837V14.5837ZM1.5 7.09292C1.5 4.14758 4.1229 1.91699 7 1.91699V0.416992C3.43377 0.416992 0 3.1864 0 7.09292H1.5ZM7 1.91699C9.84948 1.91699 12.5 4.12203 12.5 7.41699H14C14 3.21196 10.5938 0.416992 7 0.416992V1.91699ZM8.75 7.00033C8.75 7.96682 7.9665 8.75033 7 8.75033V10.2503C8.79493 10.2503 10.25 8.79525 10.25 7.00033H8.75ZM7 8.75033C6.0335 8.75033 5.25 7.96682 5.25 7.00033H3.75C3.75 8.79525 5.20507 10.2503 7 10.2503V8.75033ZM5.25 7.00033C5.25 6.03383 6.0335 5.25033 7 5.25033V3.75033C5.20507 3.75033 3.75 5.2054 3.75 7.00033H5.25ZM7 5.25033C7.9665 5.25033 8.75 6.03383 8.75 7.00033H10.25C10.25 5.2054 8.79493 3.75033 7 3.75033V5.25033ZM2 18.5837H12V17.0837H2V18.5837Z" fill="#828282"/>
</svg>
