<svg width="20" height="15" viewBox="0 0 20 15" fill="none" xmlns="http://www.w3.org/2000/svg">
<path d="M15.8332 11.6663H14.1665M15.8332 3.33301H14.1665M5.83317 3.33301H4.1665M5.83317 11.6663H4.1665M4.99984 14.1663H14.9998C16.8408 14.1663 18.3332 12.674 18.3332 10.833V4.16634C18.3332 2.32539 16.8408 0.833008 14.9998 0.833008H4.99984C3.15889 0.833008 1.6665 2.32539 1.6665 4.16634V10.833C1.6665 12.674 3.15889 14.1663 4.99984 14.1663ZM11.6665 7.49967C11.6665 8.42015 10.9203 9.16634 9.99984 9.16634C9.07936 9.16634 8.33317 8.42015 8.33317 7.49967C8.33317 6.5792 9.07936 5.83301 9.99984 5.83301C10.9203 5.83301 11.6665 6.5792 11.6665 7.49967Z" stroke="#828282" stroke-width="1.5" stroke-linecap="round"/>
</svg>
