<svg width="25" height="25" viewBox="0 0 25 25" fill="none" xmlns="http://www.w3.org/2000/svg">
<path d="M25 12.5391L21.7188 9.89141L23.8281 6.23125L19.375 5.84219L18.9844 1.55859L15.2344 3.35L12.6563 0L10.2344 3.42656L6.32813 1.40156L6.09375 5.84141L1.71875 6.075L3.35938 10.2805L0 12.3055L3.4375 14.8758L1.71875 18.5359L6.01562 19.0031L6.25 23.3648L10.2344 21.4953L12.8906 25L15.2344 21.4953L18.9062 23.2867L19.2188 18.925L23.5156 18.8469L21.9531 15.2641L25 12.5391Z" fill="#EE0033"/>
<path d="M7.47035 15.8453L5.92816 11.4391L7.09144 11.032L8.57191 12.3266C8.99613 12.6992 9.44926 13.157 9.82035 13.5852L9.83988 13.5781C9.57035 13.0188 9.34222 12.4305 9.11176 11.7711L8.66097 10.4828L9.57582 10.1633L11.118 14.5695L10.0719 14.9359L8.53597 13.5656C8.10941 13.1867 7.62269 12.718 7.22582 12.2781L7.20941 12.2914C7.4391 12.8641 7.66957 13.4805 7.92035 14.1992L8.38519 15.5266L7.47035 15.8453Z" fill="white"/>
<path d="M12.2469 12.7359C12.4242 13.1367 12.8969 13.1906 13.3625 13.0281C13.7023 12.9094 13.9609 12.7664 14.1984 12.5883L14.5648 13.2156C14.2844 13.4609 13.9078 13.6664 13.4765 13.818C12.3914 14.1977 11.5508 13.7875 11.2 12.7875C10.9172 11.9773 11.107 10.9055 12.218 10.5164C13.2508 10.1547 13.925 10.8219 14.2015 11.6125C14.2609 11.782 14.2945 11.9398 14.307 12.0164L12.2469 12.7359ZM13.1789 11.6469C13.0945 11.4047 12.8476 11.0367 12.3898 11.1969C11.9719 11.3437 11.9344 11.7812 12.0023 12.0594L13.1789 11.6469Z" fill="white"/>
<path d="M14.9109 9.65391L15.6227 10.8719C15.8047 11.182 15.9945 11.5125 16.1742 11.8609L16.1875 11.8562C16.125 11.4672 16.0875 11.0687 16.057 10.7281L15.9367 9.29531L16.7219 9.02031L17.4875 10.1828C17.6984 10.5125 17.9094 10.843 18.1031 11.1852L18.1156 11.1805C18.0344 10.7992 17.9734 10.4156 17.9172 10.025L17.7477 8.66015L18.7227 8.31875L18.8602 11.8586L17.9258 12.1859L17.2312 11.1664C17.043 10.8805 16.8828 10.6133 16.6812 10.2437L16.6672 10.2484C16.7484 10.6672 16.7852 10.9844 16.8062 11.3148L16.8789 12.5516L15.9445 12.8789L13.8984 10.0062L14.9109 9.65391Z" fill="white"/>
</svg>
