<svg width="48" height="48" viewBox="0 0 48 48" fill="none" xmlns="http://www.w3.org/2000/svg">
<path d="M24 48C37.2548 48 48 37.2548 48 24C48 10.7452 37.2548 0 24 0C10.7452 0 0 10.7452 0 24C0 37.2548 10.7452 48 24 48Z" fill="#44AB4A"/>
<path d="M24 48C37.2548 48 48 37.2548 48 24C48 10.7452 37.2548 0 24 0C10.7452 0 0 10.7452 0 24C0 37.2548 10.7452 48 24 48Z" fill="url(#paint0_linear_5206_6623)"/>
<path fill-rule="evenodd" clip-rule="evenodd" d="M19.6667 17.0013C19.6667 14.6081 21.6068 12.668 24 12.668C26.3933 12.668 28.3334 14.6081 28.3334 17.0013V18.668H19.6667V17.0013ZM17.6667 18.7616V17.0013C17.6667 13.5035 20.5022 10.668 24 10.668C27.4978 10.668 30.3334 13.5035 30.3334 17.0013V18.7616C32.8009 19.2296 34.6667 21.3976 34.6667 24.0013V32.0013C34.6667 34.9468 32.2789 37.3346 29.3334 37.3346H18.6667C15.7212 37.3346 13.3334 34.9468 13.3334 32.0013V24.0013C13.3334 21.3976 15.1992 19.2296 17.6667 18.7616ZM26.6667 28.0013C26.6667 29.4741 25.4728 30.668 24 30.668C22.5273 30.668 21.3334 29.4741 21.3334 28.0013C21.3334 26.5285 22.5273 25.3346 24 25.3346C25.4728 25.3346 26.6667 26.5285 26.6667 28.0013Z" fill="white"/>
<defs>
<linearGradient id="paint0_linear_5206_6623" x1="24" y1="0.331429" x2="24" y2="47.6457" gradientUnits="userSpaceOnUse">
<stop stop-color="#F45476"/>
<stop offset="1" stop-color="#EE0033"/>
</linearGradient>
</defs>
</svg>
