<svg width="18" height="23" viewBox="0 0 18 23" fill="none" xmlns="http://www.w3.org/2000/svg">
<path fill-rule="evenodd" clip-rule="evenodd" d="M9 13.3566C6.62708 13.3566 4.69541 11.4173 4.69541 9.03516C4.69541 6.65156 6.62708 4.71234 9 4.71234C11.3743 4.71234 13.3046 6.65156 13.3046 9.03516C13.3046 11.4173 11.3743 13.3566 9 13.3566ZM9 0C4.03844 0 0 4.05281 0 9.03516V9.27703C0 11.7886 1.42039 14.6981 4.22054 17.9255C4.92934 18.7439 5.63253 19.4723 6.25447 20.0784C7.28125 21.0825 8.08249 21.7533 8.30521 21.9361L9 22.5L9.69339 21.9361C9.74802 21.8925 10.6039 21.1936 11.7455 20.0784C12.3661 19.4723 13.0721 18.7425 13.7795 17.9255C16.5796 14.6981 18 11.7886 18 9.27703V9.03516C18 4.05281 13.9616 0 9 0Z" fill="#F5A623"/>
<mask id="mask0" mask-type="alpha" maskUnits="userSpaceOnUse" x="3" y="3" width="12" height="13">
<path fill-rule="evenodd" clip-rule="evenodd" d="M3.375 3.9635H14.599V15.1875H3.375V3.9635Z" fill="white"/>
</mask>
<g mask="url(#mask0)">
<path fill-rule="evenodd" clip-rule="evenodd" d="M14.599 9.57552C14.599 12.6749 12.0864 15.1875 8.98699 15.1875C5.88757 15.1875 3.375 12.6749 3.375 9.57552C3.375 6.4761 5.88757 3.9635 8.98699 3.9635C12.0864 3.9635 14.599 6.4761 14.599 9.57552Z" fill="white"/>
</g>
<path fill-rule="evenodd" clip-rule="evenodd" d="M9.13495 9.2475L8.32495 7.8075L9.13495 9.2475Z" fill="white"/>
<path fill-rule="evenodd" clip-rule="evenodd" d="M5.625 8.34753C5.625 8.84459 6.15128 9.24753 6.57509 9.24753H8.505L8.05494 8.34753H5.625Z" fill="#00B7AE"/>
<path fill-rule="evenodd" clip-rule="evenodd" d="M6.79492 9.2475C6.79492 9.69486 7.27295 10.0575 7.88584 10.0575H9.22492L8.77203 9.2475H6.79492Z" fill="#28A19B"/>
<path fill-rule="evenodd" clip-rule="evenodd" d="M10.3049 11.2965L9.14551 9.28709L8.37453 7.95906C8.11629 7.51425 7.65781 7.22686 7.1503 7.18343L7.14713 7.17749H7.01597H6.92281H4.54492C4.54492 7.8714 5.03203 8.43394 5.63291 8.43394H7.65538L9.80884 12.1275L10.3049 11.2965Z" fill="#16CDC3"/>
<path fill-rule="evenodd" clip-rule="evenodd" d="M10.012 7.95081L9.2251 9.29784L10.3929 11.3175C10.3929 11.3175 11.4837 9.37654 12.0683 8.43516C12.3149 8.03795 13.4551 7.17749 13.4551 7.17749H11.3618C10.8058 7.17749 10.2917 7.47202 10.012 7.95081Z" fill="#FE8401"/>
<path fill-rule="evenodd" clip-rule="evenodd" d="M9.76493 12.3057L8.61649 10.3275L8.05493 11.3045L9.21437 13.2975L9.76493 12.3057Z" fill="#FE8401"/>
</svg>
