<svg width="49" height="42" viewBox="0 0 49 42" fill="none" xmlns="http://www.w3.org/2000/svg">
<path d="M1.71875 38V29.4102H4.95898C5.5293 29.4102 5.96484 29.4375 6.26562 29.4922C6.6875 29.5625 7.04102 29.6973 7.32617 29.8965C7.61133 30.0918 7.83984 30.3672 8.01172 30.7227C8.1875 31.0781 8.27539 31.4688 8.27539 31.8945C8.27539 32.625 8.04297 33.2441 7.57812 33.752C7.11328 34.2559 6.27344 34.5078 5.05859 34.5078H2.85547V38H1.71875ZM2.85547 33.4941H5.07617C5.81055 33.4941 6.33203 33.3574 6.64062 33.084C6.94922 32.8105 7.10352 32.4258 7.10352 31.9297C7.10352 31.5703 7.01172 31.2637 6.82812 31.0098C6.64844 30.752 6.41016 30.582 6.11328 30.5C5.92188 30.4492 5.56836 30.4238 5.05273 30.4238H2.85547V33.4941ZM9.58789 38V29.4102H10.6426V32.4922C11.1348 31.9219 11.7559 31.6367 12.5059 31.6367C12.9668 31.6367 13.3672 31.7285 13.707 31.9121C14.0469 32.0918 14.2891 32.3418 14.4336 32.6621C14.582 32.9824 14.6562 33.4473 14.6562 34.0566V38H13.6016V34.0566C13.6016 33.5293 13.4863 33.1465 13.2559 32.9082C13.0293 32.666 12.707 32.5449 12.2891 32.5449C11.9766 32.5449 11.6816 32.627 11.4043 32.791C11.1309 32.9512 10.9355 33.1699 10.8184 33.4473C10.7012 33.7246 10.6426 34.1074 10.6426 34.5957V38H9.58789ZM20.3281 37.2324C19.9375 37.5645 19.5605 37.7988 19.1973 37.9355C18.8379 38.0723 18.4512 38.1406 18.0371 38.1406C17.3535 38.1406 16.8281 37.9746 16.4609 37.6426C16.0938 37.3066 15.9102 36.8789 15.9102 36.3594C15.9102 36.0547 15.9785 35.7773 16.1152 35.5273C16.2559 35.2734 16.4375 35.0703 16.6602 34.918C16.8867 34.7656 17.1406 34.6504 17.4219 34.5723C17.6289 34.5176 17.9414 34.4648 18.3594 34.4141C19.2109 34.3125 19.8379 34.1914 20.2402 34.0508C20.2441 33.9062 20.2461 33.8145 20.2461 33.7754C20.2461 33.3457 20.1465 33.043 19.9473 32.8672C19.6777 32.6289 19.2773 32.5098 18.7461 32.5098C18.25 32.5098 17.8828 32.5977 17.6445 32.7734C17.4102 32.9453 17.2363 33.252 17.123 33.6934L16.0918 33.5527C16.1855 33.1113 16.3398 32.7559 16.5547 32.4863C16.7695 32.2129 17.0801 32.0039 17.4863 31.8594C17.8926 31.7109 18.3633 31.6367 18.8984 31.6367C19.4297 31.6367 19.8613 31.6992 20.1934 31.8242C20.5254 31.9492 20.7695 32.1074 20.9258 32.2988C21.082 32.4863 21.1914 32.7246 21.2539 33.0137C21.2891 33.1934 21.3066 33.5176 21.3066 33.9863V35.3926C21.3066 36.373 21.3281 36.9941 21.3711 37.2559C21.418 37.5137 21.5078 37.7617 21.6406 38H20.5391C20.4297 37.7812 20.3594 37.5254 20.3281 37.2324ZM20.2402 34.877C19.8574 35.0332 19.2832 35.166 18.5176 35.2754C18.084 35.3379 17.7773 35.4082 17.5977 35.4863C17.418 35.5645 17.2793 35.6797 17.1816 35.832C17.084 35.9805 17.0352 36.1465 17.0352 36.3301C17.0352 36.6113 17.1406 36.8457 17.3516 37.0332C17.5664 37.2207 17.8789 37.3145 18.2891 37.3145C18.6953 37.3145 19.0566 37.2266 19.373 37.0508C19.6895 36.8711 19.9219 36.627 20.0703 36.3184C20.1836 36.0801 20.2402 35.7285 20.2402 35.2637V34.877ZM18.1895 31.0039L18.9688 29.3633H20.3516L19.0625 31.0039H18.1895ZM25.25 37.0566L25.4023 37.9883C25.1055 38.0508 24.8398 38.082 24.6055 38.082C24.2227 38.082 23.9258 38.0215 23.7148 37.9004C23.5039 37.7793 23.3555 37.6211 23.2695 37.4258C23.1836 37.2266 23.1406 36.8105 23.1406 36.1777V32.5977H22.3672V31.7773H23.1406V30.2363L24.1895 29.6035V31.7773H25.25V32.5977H24.1895V36.2363C24.1895 36.5371 24.207 36.7305 24.2422 36.8164C24.2812 36.9023 24.3418 36.9707 24.4238 37.0215C24.5098 37.0723 24.6309 37.0977 24.7871 37.0977C24.9043 37.0977 25.0586 37.084 25.25 37.0566ZM31.9297 37.0566L32.082 37.9883C31.7852 38.0508 31.5195 38.082 31.2852 38.082C30.9023 38.082 30.6055 38.0215 30.3945 37.9004C30.1836 37.7793 30.0352 37.6211 29.9492 37.4258C29.8633 37.2266 29.8203 36.8105 29.8203 36.1777V32.5977H29.0469V31.7773H29.8203V30.2363L30.8691 29.6035V31.7773H31.9297V32.5977H30.8691V36.2363C30.8691 36.5371 30.8867 36.7305 30.9219 36.8164C30.9609 36.9023 31.0215 36.9707 31.1035 37.0215C31.1895 37.0723 31.3105 37.0977 31.4668 37.0977C31.584 37.0977 31.7383 37.084 31.9297 37.0566ZM32.9727 30.623V29.4102H34.0273V30.623H32.9727ZM32.9727 38V31.7773H34.0273V38H32.9727ZM39.8984 35.9961L40.9883 36.1309C40.8164 36.7676 40.498 37.2617 40.0332 37.6133C39.5684 37.9648 38.9746 38.1406 38.252 38.1406C37.3418 38.1406 36.6191 37.8613 36.084 37.3027C35.5527 36.7402 35.2871 35.9531 35.2871 34.9414C35.2871 33.8945 35.5566 33.082 36.0957 32.5039C36.6348 31.9258 37.334 31.6367 38.1934 31.6367C39.0254 31.6367 39.7051 31.9199 40.2324 32.4863C40.7598 33.0527 41.0234 33.8496 41.0234 34.877C41.0234 34.9395 41.0215 35.0332 41.0176 35.1582H36.377C36.416 35.8418 36.6094 36.3652 36.957 36.7285C37.3047 37.0918 37.7383 37.2734 38.2578 37.2734C38.6445 37.2734 38.9746 37.1719 39.248 36.9688C39.5215 36.7656 39.7383 36.4414 39.8984 35.9961ZM36.4355 34.291H39.9102C39.8633 33.7676 39.7305 33.375 39.5117 33.1133C39.1758 32.707 38.7402 32.5039 38.2051 32.5039C37.7207 32.5039 37.3125 32.666 36.9805 32.9902C36.6523 33.3145 36.4707 33.748 36.4355 34.291ZM38.1699 30.0078L37.5078 31.0039H36.3008L37.5664 29.3633H38.6914L40.0098 31.0039H38.8145L38.1699 30.0078ZM38.3574 27.2949H39.7695L38.416 28.9355H37.5664L38.3574 27.2949ZM42.3184 40.3848V31.7773H43.2793V32.5859C43.5059 32.2695 43.7617 32.0332 44.0469 31.877C44.332 31.7168 44.6777 31.6367 45.084 31.6367C45.6152 31.6367 46.084 31.7734 46.4902 32.0469C46.8965 32.3203 47.2031 32.707 47.4102 33.207C47.6172 33.7031 47.7207 34.248 47.7207 34.8418C47.7207 35.4785 47.6055 36.0527 47.375 36.5645C47.1484 37.0723 46.8164 37.4629 46.3789 37.7363C45.9453 38.0059 45.4883 38.1406 45.0078 38.1406C44.6562 38.1406 44.3398 38.0664 44.0586 37.918C43.7812 37.7695 43.5527 37.582 43.373 37.3555V40.3848H42.3184ZM43.2734 34.9238C43.2734 35.7246 43.4355 36.3164 43.7598 36.6992C44.084 37.082 44.4766 37.2734 44.9375 37.2734C45.4062 37.2734 45.8066 37.0762 46.1387 36.6816C46.4746 36.2832 46.6426 35.668 46.6426 34.8359C46.6426 34.043 46.4785 33.4492 46.1504 33.0547C45.8262 32.6602 45.4375 32.4629 44.9844 32.4629C44.5352 32.4629 44.1367 32.6738 43.7891 33.0957C43.4453 33.5137 43.2734 34.123 43.2734 34.9238Z" fill="#42526E"/>
<g clip-path="url(#clip0)">
<path d="M34.3177 6.71936L29.7904 2.19206C29.4168 1.8185 29.0379 1.62909 28.6643 1.62909C28.1512 1.62909 27.5521 2.01932 27.5521 3.11917V4.66046C24.2629 4.80382 21.1912 6.15276 18.8484 8.49546C16.367 10.9767 15.0002 14.2757 15 17.7849C15 18.037 15.1612 18.2609 15.4004 18.3407C15.4614 18.361 15.5239 18.3708 15.5859 18.3708C15.7666 18.3708 15.9416 18.287 16.0544 18.1368C18.8207 14.4546 22.9856 12.2784 27.5521 12.1066V13.6242C27.5521 14.724 28.1512 15.1143 28.6642 15.1143H28.6643C29.038 15.1143 29.4169 14.9249 29.7904 14.5514L34.3177 10.024C34.7577 9.58409 35 8.99729 35 8.37167C35 7.74616 34.7577 7.15932 34.3177 6.71936Z" fill="#00857F"/>
<g clip-path="url(#clip1)">
</g>
</g>
<defs>
<clipPath id="clip0">
<rect width="20" height="20" fill="white" transform="translate(15)"/>
</clipPath>
<clipPath id="clip1">
<rect width="511" height="511" fill="white" transform="translate(-224 -245)"/>
</clipPath>
</defs>
</svg>
