<svg width="12" height="12" viewBox="0 0 12 12" fill="none" xmlns="http://www.w3.org/2000/svg">
<path d="M11.3512 5.088C10.374 4.8435 9.9105 3.7245 10.4288 2.86125C10.6702 2.45925 10.5975 2.11275 10.3582 1.87425L10.1258 1.64175C9.88725 1.40325 9.54075 1.3305 9.13875 1.57125C8.27475 2.0895 7.15575 1.626 6.912 0.64875C6.79875 0.1935 6.50175 0 6.16425 0H5.83575C5.49825 0 5.202 0.1935 5.088 0.64875C4.8435 1.626 3.7245 2.0895 2.86125 1.57125C2.45925 1.32975 2.112 1.4025 1.8735 1.641L1.641 1.8735C1.4025 2.112 1.32975 2.45925 1.57125 2.86125C2.0895 3.72525 1.626 4.84425 0.64875 5.088C0.195 5.20125 0 5.4975 0 5.83575V6.16425C0 6.50175 0.1935 6.798 0.64875 6.912C1.626 7.1565 2.0895 8.2755 1.57125 9.13875C1.32975 9.54075 1.4025 9.88725 1.64175 10.1258L1.87425 10.3582C2.1135 10.5975 2.46075 10.6695 2.86125 10.4288C3.72525 9.9105 4.84425 10.374 5.088 11.3512C5.20125 11.8065 5.49825 12 5.83575 12H6.16425C6.50175 12 6.798 11.8065 6.912 11.3512C7.1565 10.374 8.2755 9.9105 9.13875 10.4288C9.54 10.6695 9.8865 10.5975 10.1258 10.3582L10.3582 10.1258C10.5968 9.88725 10.6695 9.54075 10.4288 9.13875C9.9105 8.27475 10.374 7.15575 11.3512 6.912C11.8065 6.79875 12 6.50175 12 6.16425V5.83575C12 5.4975 11.805 5.20125 11.3512 5.088ZM6 8.25C4.75725 8.25 3.75 7.24275 3.75 6C3.75 4.75725 4.75725 3.75 6 3.75C7.24275 3.75 8.25 4.75725 8.25 6C8.25 7.24275 7.24275 8.25 6 8.25Z" fill="white"/>
</svg>
