<svg width="41" height="42" viewBox="0 0 41 42" fill="none" xmlns="http://www.w3.org/2000/svg">
<path d="M3.23828 38V30.4238H0.408203V29.4102H7.2168V30.4238H4.375V38H3.23828ZM14.002 33.002V31.7773H15.1328V32.7441C15.1328 33.3574 15.0625 33.7852 14.9219 34.0273C14.5625 34.6523 14.0137 35.0039 13.2754 35.082V38H12.332V37.0859C11.8477 37.7891 11.1895 38.1406 10.3574 38.1406C9.99414 38.1406 9.65234 38.0723 9.33203 37.9355C9.01562 37.7949 8.7793 37.6172 8.62305 37.4023C8.4668 37.1875 8.35742 36.9258 8.29492 36.6172C8.25195 36.4062 8.23047 36.0781 8.23047 35.6328V31.7773H9.28516V35.2285C9.28516 35.7871 9.30664 36.1582 9.34961 36.3418C9.48633 36.9355 9.89258 37.2324 10.5684 37.2324C10.8926 37.2324 11.1914 37.1504 11.4648 36.9863C11.7422 36.8223 11.9375 36.6016 12.0508 36.3242C12.1641 36.0469 12.2207 35.6426 12.2207 35.1113V31.7773H13.2754V34.6367C13.7715 34.5508 14.1426 34.3184 14.3887 33.9395C14.498 33.7754 14.5527 33.4629 14.5527 33.002H14.002ZM11.4883 31.0039H10.6387L9.28516 29.3633H10.6973L11.4883 31.0039ZM23.6934 35.7207L24.7305 35.8555C24.6172 36.5703 24.3262 37.1309 23.8574 37.5371C23.3926 37.9395 22.8203 38.1406 22.1406 38.1406C21.2891 38.1406 20.6035 37.8633 20.084 37.3086C19.5684 36.75 19.3105 35.9512 19.3105 34.9121C19.3105 34.2402 19.4219 33.6523 19.6445 33.1484C19.8672 32.6445 20.2051 32.2676 20.6582 32.0176C21.1152 31.7637 21.6113 31.6367 22.1465 31.6367C22.8223 31.6367 23.375 31.8086 23.8047 32.1523C24.2344 32.4922 24.5098 32.9766 24.6309 33.6055L23.6055 33.7637C23.5078 33.3457 23.334 33.0312 23.084 32.8203C22.8379 32.6094 22.5391 32.5039 22.1875 32.5039C21.6562 32.5039 21.2246 32.6953 20.8926 33.0781C20.5605 33.457 20.3945 34.0586 20.3945 34.8828C20.3945 35.7188 20.5547 36.3262 20.875 36.7051C21.1953 37.084 21.6133 37.2734 22.1289 37.2734C22.543 37.2734 22.8887 37.1465 23.166 36.8926C23.4434 36.6387 23.6191 36.248 23.6934 35.7207ZM25.6328 38V29.4102H26.6875V32.4922C27.1797 31.9219 27.8008 31.6367 28.5508 31.6367C29.0117 31.6367 29.4121 31.7285 29.752 31.9121C30.0918 32.0918 30.334 32.3418 30.4785 32.6621C30.627 32.9824 30.7012 33.4473 30.7012 34.0566V38H29.6465V34.0566C29.6465 33.5293 29.5312 33.1465 29.3008 32.9082C29.0742 32.666 28.752 32.5449 28.334 32.5449C28.0215 32.5449 27.7266 32.627 27.4492 32.791C27.1758 32.9512 26.9805 33.1699 26.8633 33.4473C26.7461 33.7246 26.6875 34.1074 26.6875 34.5957V38H25.6328ZM31.9199 34.8887C31.9199 33.7363 32.2402 32.8828 32.8809 32.3281C33.416 31.8672 34.0684 31.6367 34.8379 31.6367C35.6934 31.6367 36.3926 31.918 36.9355 32.4805C37.4785 33.0391 37.75 33.8125 37.75 34.8008C37.75 35.6016 37.6289 36.2324 37.3867 36.6934C37.1484 37.1504 36.7988 37.5059 36.3379 37.7598C35.8809 38.0137 35.3809 38.1406 34.8379 38.1406C33.9668 38.1406 33.2617 37.8613 32.7227 37.3027C32.1875 36.7441 31.9199 35.9395 31.9199 34.8887ZM33.0039 34.8887C33.0039 35.6855 33.1777 36.2832 33.5254 36.6816C33.873 37.0762 34.3105 37.2734 34.8379 37.2734C35.3613 37.2734 35.7969 37.0742 36.1445 36.6758C36.4922 36.2773 36.666 35.6699 36.666 34.8535C36.666 34.084 36.4902 33.502 36.1387 33.1074C35.791 32.709 35.3574 32.5098 34.8379 32.5098C34.3105 32.5098 33.873 32.707 33.5254 33.1016C33.1777 33.4961 33.0039 34.0918 33.0039 34.8887ZM34.8496 30.0078L34.1875 31.0039H32.9805L34.2461 29.3633H35.3711L36.6895 31.0039H35.4941L34.8496 30.0078ZM35.0371 27.2949H36.4492L35.0957 28.9355H34.2461L35.0371 27.2949ZM38.998 30.623V29.4102H40.0527V30.623H38.998ZM38.998 38V31.7773H40.0527V38H38.998Z" fill="#42526E"/>
<path d="M21 0C19.0222 0 17.0888 0.586492 15.4443 1.68531C13.7998 2.78413 12.5181 4.34592 11.7612 6.17319C11.0043 8.00046 10.8063 10.0111 11.1922 11.9509C11.578 13.8908 12.5304 15.6726 13.9289 17.0711C15.3275 18.4697 17.1093 19.4221 19.0491 19.8079C20.9889 20.1938 22.9996 19.9957 24.8269 19.2389C26.6542 18.482 28.2159 17.2003 29.3148 15.5558C30.4136 13.9113 31.0001 11.9779 31.0001 10C31.0001 8.68681 30.7414 7.38645 30.2389 6.17319C29.7363 4.95993 28.9997 3.85753 28.0711 2.92894C27.1425 2.00035 26.0402 1.26376 24.8269 0.761208C23.6136 0.258659 22.3133 0 21 0ZM25.3536 13.6465L24.6465 14.3536L20.9771 10.6842L17.3076 14.3536L16.6005 13.6465L20.2699 9.97704L16.6005 6.30764L17.3076 5.60048L20.9771 9.26993L24.6465 5.60048L25.3536 6.30764L21.6842 9.97704L25.3536 13.6465Z" fill="#B00000"/>
</svg>
