<svg width="14" height="18" viewBox="0 0 14 18" fill="none" xmlns="http://www.w3.org/2000/svg">
<path d="M9.58317 4.83333C9.58317 6.26007 8.42657 7.41667 6.99984 7.41667V8.91667C9.255 8.91667 11.0832 7.0885 11.0832 4.83333H9.58317ZM6.99984 7.41667C5.5731 7.41667 4.4165 6.26007 4.4165 4.83333H2.9165C2.9165 7.0885 4.74467 8.91667 6.99984 8.91667V7.41667ZM4.4165 4.83333C4.4165 3.4066 5.5731 2.25 6.99984 2.25V0.75C4.74467 0.75 2.9165 2.57817 2.9165 4.83333H4.4165ZM6.99984 2.25C8.42657 2.25 9.58317 3.4066 9.58317 4.83333H11.0832C11.0832 2.57817 9.255 0.75 6.99984 0.75V2.25ZM12.0832 13.5833C12.0832 13.9516 11.7651 14.487 10.7892 14.9749C9.85818 15.4404 8.51948 15.75 6.99984 15.75V17.25C8.70186 17.25 10.2798 16.9067 11.46 16.3165C12.5954 15.7489 13.5832 14.8259 13.5832 13.5833H12.0832ZM6.99984 15.75C5.48019 15.75 4.14149 15.4404 3.21046 14.9749C2.23456 14.487 1.9165 13.9516 1.9165 13.5833H0.416504C0.416504 14.8259 1.40428 15.7489 2.53964 16.3165C3.71985 16.9067 5.29782 17.25 6.99984 17.25V15.75ZM1.9165 13.5833C1.9165 13.215 2.23456 12.6797 3.21046 12.1918C4.14149 11.7262 5.48019 11.4167 6.99984 11.4167V9.91667C5.29782 9.91667 3.71985 10.26 2.53964 10.8501C1.40428 11.4178 0.416504 12.3408 0.416504 13.5833H1.9165ZM6.99984 11.4167C8.51948 11.4167 9.85818 11.7262 10.7892 12.1918C11.7651 12.6797 12.0832 13.215 12.0832 13.5833H13.5832C13.5832 12.3408 12.5954 11.4178 11.46 10.8501C10.2798 10.26 8.70186 9.91667 6.99984 9.91667V11.4167Z" fill="#828282"/>
</svg>
