<svg width="103" height="87" viewBox="0 0 103 87" fill="none" xmlns="http://www.w3.org/2000/svg">
<path d="M101.06 68.1269L61.9147 6.05856C59.659 2.49332 55.8693 0.357178 51.5984 0.357178C47.3275 0.357178 43.5379 2.49332 41.2821 6.05856L2.37784 68.1269V68.2473C1.31012 70.0224 0.723633 72.1585 0.723633 74.2947C0.723633 80.9438 6.18254 86.4044 12.8295 86.4044H90.5327C97.1797 86.4044 102.639 80.9438 102.639 74.2947C102.759 72.1585 102.157 70.0224 101.09 68.1269H101.06ZM90.623 79.274H12.7994C10.0775 79.274 7.82174 77.0175 7.82174 74.2947C7.82174 73.4673 8.06235 72.6399 8.40824 71.9178L47.4328 9.9698C48.3802 8.42035 49.9291 7.59297 51.7037 7.59297C53.4782 7.59297 55.0271 8.42035 55.9746 9.9698L94.9991 71.7975C95.4803 72.5045 95.5856 73.3469 95.5856 74.2947C95.5856 77.0175 93.3299 79.274 90.6079 79.274H90.623Z" fill="white"/>
<path d="M51.7191 63.2529C50.2905 63.2529 49.2227 63.7343 48.2753 64.682C47.3279 65.6298 46.8467 66.8182 46.8467 68.1269C46.8467 69.6764 47.3279 70.8498 48.3956 71.6922C49.343 72.5196 50.5311 73.0009 51.8394 73.0009C53.1477 73.0009 54.3358 72.5196 55.2832 71.6922C56.2306 70.8648 56.7119 69.6764 56.7119 68.1269C56.7119 66.8182 56.2306 65.6298 55.2832 64.682C54.2155 63.7343 53.0274 63.2529 51.7191 63.2529Z" fill="white"/>
<path d="M51.9595 23.5087C50.4106 23.5087 49.1173 23.9901 48.1699 25.0581C47.2224 26.1262 46.7412 27.435 46.7412 29.3304C46.7412 30.6392 46.8615 32.8956 46.9818 35.8592L48.0496 51.5192C48.2902 53.535 48.5308 55.0844 48.997 56.0321C49.4782 56.9799 50.3053 57.5816 51.4933 57.5816C52.6814 57.5816 53.5085 57.1002 53.9897 56.0321C54.4709 54.9641 54.8168 53.535 54.9371 51.6395L56.4861 35.4981C56.6064 33.9487 56.7267 32.5346 56.7267 31.1055C56.7267 28.6083 56.3658 26.8332 55.7793 25.5245C55.0725 24.0954 53.8844 23.5087 51.9896 23.5087H51.9595Z" fill="white"/>
</svg>
